<svg width="232" height="263" viewBox="0 0 232 263" fill="none" xmlns="http://www.w3.org/2000/svg">
<path d="M221.723 185.109C221.723 185.109 183.142 166.607 159.213 166.607C130.483 166.607 102.566 174.854 91.9736 177.576C64.155 184.727 10.2579 185.109 10.2579 185.109H221.723Z" fill="#DBDBDB"/>
<path d="M10.2579 185.109C10.2579 185.109 32.1637 174.347 56.9113 174.347C74.1861 174.347 98.9828 176.578 122.334 180.227C131.225 181.618 177.507 185.109 177.507 185.109H10.2579Z" fill="#C7C7C7"/>
<path d="M213.312 147.248C210.71 147.248 145.712 146.796 127.358 146.796C126.07 146.796 127.696 144.57 128.405 144.417C130.658 143.921 133.014 143.872 135.305 143.659C137.568 143.447 139.785 142.896 141.883 142.023C143.689 141.259 145.494 140.386 147.447 140.07C151.233 139.481 154.538 141.527 158.094 142.432C159.171 142.741 160.3 142.821 161.409 142.668C162.519 142.515 163.584 142.132 164.536 141.543C166.173 140.556 167.667 139.361 169.386 138.51C172.667 136.893 176.248 135.97 179.903 135.8C183.558 135.63 187.208 136.217 190.626 137.523C192.254 138.152 193.811 138.949 195.273 139.901C197.008 141.041 198.502 142.492 200.237 143.616C204.088 146.108 208.85 145.296 213.044 146.725C213.279 146.796 213.535 147.248 213.312 147.248Z" fill="#EBEBEB"/>
<path d="M198.153 65.2437C194.711 65.2437 136.767 65.6255 133.123 65.511C132.861 65.511 132.72 65.1182 132.981 64.9655C135.278 63.8309 137.891 64.06 140.269 63.2582C141.671 62.7837 142.532 61.8673 143.509 60.8145C144.322 59.9018 145.369 59.2285 146.536 58.8672C147.599 58.5464 148.728 58.5106 149.809 58.7636C150.987 59.0418 151.991 59.7182 153.125 60.1382C155.913 61.1909 158.618 60.1927 160.604 58.1309C162.24 56.4345 163.876 54.8308 166.085 53.9199C166.995 53.5078 167.98 53.2878 168.979 53.2738C169.977 53.2597 170.968 53.4518 171.889 53.8381C174.006 54.8035 175.446 56.7399 177.464 57.8854C179.809 59.2872 182.662 58.9763 185.264 59.3745C187.866 59.7727 189.884 61.9927 192.175 63.2637C192.923 63.7415 193.786 64.0091 194.673 64.0382C195.186 64.0382 195.688 63.8855 196.195 63.82C196.986 63.7218 197.733 63.7491 198.268 64.4037C198.404 64.5673 198.355 65.2437 198.153 65.2437Z" fill="#EBEBEB"/>
<path d="M231.857 86.3967C229.343 86.3967 187.037 86.6749 184.402 86.5931C184.211 86.5931 184.108 86.304 184.298 86.2112C185.973 85.3821 187.877 85.5458 189.617 84.9621C190.547 84.5861 191.362 83.9708 191.979 83.1785C192.562 82.5101 193.316 82.0124 194.16 81.7385C194.939 81.5062 195.764 81.4798 196.555 81.6621C197.384 81.9472 198.195 82.2842 198.982 82.6712C201.011 83.4348 202.986 82.7094 204.437 81.2039C205.637 79.9657 206.81 78.793 208.441 78.1275C209.105 77.8265 209.824 77.6659 210.553 77.6555C211.283 77.6452 212.006 77.7854 212.679 78.0675C214.228 78.7711 215.292 80.1839 216.748 81.0348C218.477 82.0439 220.566 81.8094 222.454 82.1257C224.341 82.4421 225.824 84.0403 227.499 84.9676C228.048 85.3114 228.679 85.4999 229.326 85.513C229.693 85.4815 230.057 85.4287 230.417 85.3549C230.684 85.2812 230.967 85.2825 231.233 85.3585C231.5 85.4345 231.74 85.5823 231.928 85.7858C232.043 85.9003 232.021 86.3967 231.857 86.3967Z" fill="#EBEBEB"/>
<path d="M96.9264 103.802C94.4118 103.802 52.1112 104.081 49.4712 103.993C49.2803 103.993 49.1766 103.71 49.3676 103.617C51.0421 102.782 52.9458 102.951 54.6858 102.362C55.6202 101.99 56.4377 101.374 57.0531 100.579C57.6376 99.9124 58.3915 99.4166 59.235 99.1442C60.0126 98.9091 60.8385 98.8828 61.6295 99.0678C62.4563 99.3534 63.265 99.6886 64.0514 100.071C66.086 100.841 68.0605 100.11 69.506 98.6096C70.7006 97.366 71.8788 96.1987 73.5043 95.5332C74.1686 95.2323 74.8879 95.0716 75.6171 95.0613C76.3464 95.0509 77.0699 95.1912 77.7425 95.4732C79.2971 96.1769 80.3607 97.5896 81.8171 98.4405C83.5462 99.4496 85.6353 99.2096 87.5172 99.5315C89.399 99.8533 90.8936 101.446 92.5681 102.368C93.1151 102.711 93.7446 102.899 94.39 102.913C94.7561 102.879 95.1202 102.826 95.4809 102.755C95.7476 102.682 96.0293 102.683 96.2955 102.758C96.5617 102.833 96.8024 102.979 96.9918 103.181C97.1118 103.306 97.0955 103.802 96.9264 103.802Z" fill="#EBEBEB"/>
<path d="M47.6603 77.9093C45.1457 77.9093 2.83966 78.1875 0.205083 78.1002C0.0141712 78.1002 -0.0894658 77.8165 0.101446 77.7238C1.77601 76.8947 3.67968 77.0584 5.4197 76.4693C6.35252 76.097 7.16821 75.4809 7.78155 74.6856C8.36741 74.0208 9.12088 73.5254 9.9634 73.251C10.7379 73.0115 11.5618 72.9796 12.3525 73.1583C13.182 73.4434 13.9927 73.7804 14.7798 74.1674C16.8089 74.9311 18.7835 74.2056 20.2344 72.7001C21.4345 71.4619 22.6072 70.2892 24.2381 69.6237C24.9025 69.3227 25.6217 69.1621 26.351 69.1517C27.0803 69.1414 27.8038 69.2817 28.4764 69.5637C30.0255 70.2674 31.0891 71.6801 32.5455 72.531C34.2746 73.5401 36.3638 73.3001 38.2511 73.6219C40.1384 73.9438 41.622 75.5365 43.2966 76.4583C43.8452 76.8019 44.4767 76.9904 45.1239 77.0038C45.49 76.9696 45.8541 76.9169 46.2148 76.8456C46.4815 76.7726 46.7631 76.7736 47.0294 76.8485C47.2956 76.9235 47.5363 77.0696 47.7257 77.2711C47.8457 77.4129 47.8075 77.9093 47.6603 77.9093Z" fill="#EBEBEB"/>
<path d="M210.448 194.093C214.785 193.719 219.147 193.719 223.484 194.093C219.147 194.469 214.785 194.469 210.448 194.093Z" fill="#DBDBDB"/>
<path d="M223.484 230.797C201.955 231.157 178.015 231.146 156.469 230.797C178.02 230.442 201.95 230.431 223.484 230.797Z" fill="#DBDBDB"/>
<path d="M82.6134 210.844C61.4495 211.204 37.9238 211.198 16.7435 210.844C37.9292 210.489 61.4713 210.484 82.6134 210.844Z" fill="#DBDBDB"/>
<path d="M59.5132 230.797C47.9657 231.162 36.3474 231.162 24.8054 230.797C36.3474 230.426 47.9657 230.426 59.5132 230.797Z" fill="#DBDBDB"/>
<path d="M133.091 242.208C109.854 242.573 83.9989 242.562 60.7677 242.208C84.0262 241.853 109.859 241.848 133.091 242.208Z" fill="#DBDBDB"/>
<path d="M175.255 235.16C163.713 235.526 152.094 235.526 140.547 235.16C152.094 234.79 163.713 234.79 175.255 235.16Z" fill="#DBDBDB"/>
<path d="M128.498 223.935C116.956 224.3 105.337 224.3 93.79 223.935C105.337 223.569 116.956 223.569 128.498 223.935Z" fill="#DBDBDB"/>
<path d="M208.25 261.768C196.708 262.134 185.089 262.134 173.542 261.768C185.089 261.403 196.708 261.403 208.25 261.768Z" fill="#DBDBDB"/>
<path d="M190.893 255.179C169.675 255.544 146.083 255.534 124.849 255.179C146.089 254.83 169.669 254.819 190.893 255.179Z" fill="#DBDBDB"/>
<path d="M80.8462 195.489C69.3042 195.855 57.6804 195.855 46.1384 195.489C57.6804 195.124 69.2987 195.124 80.8462 195.489Z" fill="#DBDBDB"/>
<path d="M215.81 196.978C204.268 197.344 192.644 197.344 181.102 196.978C192.644 196.613 204.262 196.613 215.81 196.978Z" fill="#DBDBDB"/>
<path d="M71.7479 189.434C52.6568 189.8 31.3838 189.789 12.238 189.434C31.3728 189.085 52.6022 189.074 71.7479 189.434Z" fill="#DBDBDB"/>
<path d="M207.295 222.457C202.131 222.828 196.947 222.828 191.782 222.457C196.947 222.086 202.131 222.086 207.295 222.457Z" fill="#DBDBDB"/>
<path d="M85.7772 246.686C66.1405 247.046 44.3221 247.041 24.6854 246.686C44.3221 246.332 66.1405 246.321 85.7772 246.686Z" fill="#DBDBDB"/>
<path d="M203.297 219.342C177.387 219.702 148.587 219.697 122.661 219.342C148.593 218.988 177.382 218.982 203.297 219.342Z" fill="#DBDBDB"/>
<path d="M110.732 258.463C105.566 258.834 100.38 258.834 95.2137 258.463C100.38 258.092 105.566 258.092 110.732 258.463Z" fill="#DBDBDB"/>
<path d="M4.57971 185.109C75.9589 184.776 156.022 184.771 227.401 185.109C156.022 185.447 75.9589 185.442 4.57971 185.109Z" fill="#DBDBDB"/>
<path d="M104.257 41.8759C105.055 42.7188 105.5 43.8353 105.5 44.996C105.5 46.1566 105.055 47.2732 104.257 48.116C103.882 48.5267 103.427 48.8559 102.919 49.083C102.412 49.3101 101.863 49.4303 101.306 49.436C100.74 49.434 100.18 49.3158 99.6614 49.0888C99.1425 48.8617 98.6758 48.5307 98.29 48.116C97.5041 47.2671 97.0676 46.1528 97.0676 44.996C97.0676 43.8391 97.5041 42.7249 98.29 41.8759C98.6744 41.4595 99.1408 41.1272 99.66 40.9C100.179 40.6728 100.74 40.5556 101.306 40.5559C101.863 40.5591 102.413 40.678 102.921 40.9053C103.429 41.1326 103.884 41.4631 104.257 41.8759ZM104.094 44.996C104.094 44.1987 103.797 43.4301 103.259 42.8414C103.01 42.5646 102.706 42.3433 102.365 42.1917C102.025 42.0402 101.657 41.9619 101.285 41.9619C100.912 41.9619 100.544 42.0402 100.204 42.1917C99.8637 42.3433 99.5591 42.5646 99.31 42.8414C98.7695 43.4277 98.4695 44.1958 98.4695 44.9932C98.4695 45.7906 98.7695 46.5588 99.31 47.1451C99.5582 47.4234 99.8624 47.6461 100.203 47.7986C100.543 47.9512 100.912 48.03 101.285 48.03C101.658 48.03 102.026 47.9512 102.367 47.7986C102.707 47.6461 103.011 47.4234 103.259 47.1451C103.797 46.5589 104.095 45.7917 104.094 44.996Z" fill="#C7C7C7"/>
<path d="M114.616 41.8761C115.414 42.7189 115.858 43.8355 115.858 44.9961C115.858 46.1568 115.414 47.2733 114.616 48.1162C114.242 48.5267 113.787 48.8558 113.281 49.083C112.774 49.3101 112.226 49.4303 111.67 49.4362C111.103 49.4339 110.543 49.3157 110.023 49.0887C109.503 48.8617 109.035 48.5307 108.648 48.1162C107.863 47.2672 107.426 46.153 107.426 44.9961C107.426 43.8393 107.863 42.725 108.648 41.8761C109.034 41.4595 109.501 41.1271 110.021 40.9C110.541 40.6728 111.103 40.5557 111.67 40.5561C112.226 40.5593 112.775 40.6783 113.282 40.9056C113.789 41.1329 114.243 41.4634 114.616 41.8761ZM114.452 44.9961C114.453 44.1989 114.155 43.4303 113.618 42.8415C113.371 42.5686 113.071 42.3497 112.736 42.1985C112.401 42.0474 112.038 41.9673 111.67 41.9634C111.294 41.9614 110.921 42.0386 110.576 42.1899C110.231 42.3411 109.922 42.5632 109.668 42.8415C109.131 43.4295 108.834 44.1971 108.834 44.9934C108.834 45.7897 109.131 46.5572 109.668 47.1452C109.923 47.4228 110.232 47.6446 110.577 47.7966C110.921 47.9487 111.294 48.0278 111.67 48.0289C112.038 48.0229 112.401 47.9414 112.736 47.7894C113.071 47.6374 113.371 47.4181 113.618 47.1452C114.156 46.5591 114.454 45.7919 114.452 44.9961Z" fill="#C7C7C7"/>
<path d="M121.178 46.0816H119.661V48.7598C119.658 48.9412 119.584 49.114 119.454 49.2407C119.324 49.3674 119.15 49.4377 118.969 49.4362C118.79 49.4348 118.618 49.3631 118.492 49.2365C118.365 49.11 118.294 48.9388 118.292 48.7598V41.4834C118.291 41.3943 118.308 41.3061 118.342 41.2237C118.376 41.1413 118.426 41.0664 118.489 41.0035C118.552 40.9405 118.626 40.8907 118.709 40.857C118.791 40.8233 118.879 40.8063 118.969 40.807H121.15C121.507 40.7908 121.863 40.847 122.197 40.9722C122.531 41.0974 122.836 41.2891 123.094 41.5356C123.352 41.7821 123.557 42.0783 123.698 42.4063C123.838 42.7344 123.91 43.0875 123.91 43.4443C123.91 43.8011 123.838 44.1542 123.698 44.4822C123.557 44.8103 123.352 45.1065 123.094 45.353C122.836 45.5995 122.531 45.7912 122.197 45.9164C121.863 46.0416 121.507 46.0978 121.15 46.0816H121.178ZM119.661 44.7125H121.178C121.351 44.7239 121.525 44.6995 121.689 44.641C121.853 44.5824 122.003 44.4908 122.13 44.3719C122.257 44.2531 122.358 44.1094 122.427 43.9498C122.496 43.7903 122.532 43.6182 122.532 43.4443C122.532 43.2704 122.496 43.0983 122.427 42.9388C122.358 42.7792 122.257 42.6355 122.13 42.5167C122.003 42.3978 121.853 42.3062 121.689 42.2476C121.525 42.1891 121.351 42.1647 121.178 42.1761H119.661V44.7125Z" fill="#C7C7C7"/>
<path d="M125.209 47.2925C125.262 47.2275 125.327 47.1737 125.402 47.1342C125.476 47.0946 125.557 47.0701 125.641 47.062C125.724 47.0539 125.809 47.0623 125.889 47.0869C125.969 47.1115 126.044 47.1517 126.109 47.2052C126.772 47.7663 127.598 48.0991 128.465 48.1543C129.013 48.1657 129.551 48.0055 130.003 47.6961C130.16 47.6058 130.293 47.4777 130.388 47.3234C130.483 47.1691 130.538 46.9935 130.549 46.8125C130.552 46.6712 130.512 46.5324 130.434 46.4143C130.34 46.2645 130.213 46.1377 130.063 46.0434C129.541 45.7495 128.97 45.5535 128.378 45.4652H128.351C127.803 45.3743 127.269 45.213 126.763 44.9852C126.296 44.7812 125.897 44.4482 125.612 44.0252C125.424 43.7203 125.326 43.3687 125.329 43.0106C125.341 42.6544 125.437 42.3061 125.609 41.9935C125.78 41.681 126.022 41.4129 126.316 41.2106C126.941 40.7745 127.687 40.5455 128.449 40.556C129.418 40.603 130.351 40.9393 131.127 41.5215C131.265 41.6157 131.361 41.7606 131.394 41.9249C131.427 42.0892 131.393 42.2597 131.301 42.3997C131.257 42.4703 131.198 42.5313 131.129 42.5789C131.061 42.6266 130.983 42.6601 130.901 42.6774C130.82 42.6946 130.735 42.6954 130.653 42.6796C130.571 42.6637 130.493 42.6316 130.423 42.5852C129.858 42.1248 129.165 41.8488 128.438 41.7942C127.945 41.7873 127.463 41.9341 127.058 42.2142C126.923 42.2962 126.81 42.4094 126.729 42.5442C126.647 42.679 126.599 42.8315 126.589 42.9888C126.584 43.1111 126.614 43.2323 126.676 43.3379C126.765 43.4643 126.878 43.5719 127.009 43.6543C127.475 43.9491 127.993 44.151 128.536 44.2488C129.123 44.3494 129.695 44.5235 130.238 44.767C130.737 44.9838 131.164 45.3374 131.471 45.787C131.675 46.0915 131.792 46.4462 131.809 46.8125C131.797 47.192 131.695 47.5632 131.511 47.8953C131.327 48.2274 131.066 48.5107 130.751 48.7216C130.083 49.1899 129.286 49.4361 128.471 49.4253C127.312 49.3683 126.203 48.9356 125.312 48.1925C125.183 48.084 125.101 47.9304 125.082 47.7631C125.062 47.5958 125.108 47.4274 125.209 47.2925Z" fill="#C7C7C7"/>
<path d="M133.571 46.4634V41.4833C133.572 41.3044 133.644 41.1332 133.77 41.0066C133.897 40.8801 134.068 40.8084 134.247 40.8069C134.335 40.8077 134.422 40.8257 134.503 40.8601C134.584 40.8945 134.658 40.9445 134.72 41.0073C134.782 41.0701 134.83 41.1445 134.863 41.2262C134.896 41.3078 134.913 41.3952 134.912 41.4833V46.4634C134.914 46.552 134.898 46.6399 134.865 46.7222C134.832 46.8045 134.784 46.8795 134.722 46.9429C134.66 47.0063 134.586 47.0568 134.505 47.0915C134.423 47.1263 134.335 47.1445 134.247 47.1452C134.158 47.1452 134.069 47.1275 133.987 47.0932C133.904 47.0589 133.83 47.0086 133.767 46.9452C133.704 46.8818 133.654 46.8066 133.62 46.7239C133.587 46.6412 133.57 46.5527 133.571 46.4634ZM134.247 49.4362C134.158 49.4369 134.07 49.4199 133.987 49.3861C133.905 49.3524 133.83 49.3026 133.767 49.2397C133.704 49.1767 133.654 49.1019 133.621 49.0195C133.587 48.9371 133.57 48.8488 133.571 48.7598V48.5089C133.572 48.3299 133.644 48.1587 133.77 48.0322C133.897 47.9056 134.068 47.8339 134.247 47.8325C134.424 47.8354 134.594 47.9079 134.718 48.0344C134.843 48.161 134.912 48.3314 134.912 48.5089V48.7598C134.914 48.8481 134.898 48.9358 134.865 49.0178C134.832 49.0998 134.783 49.1745 134.721 49.2374C134.659 49.3004 134.586 49.3504 134.504 49.3845C134.423 49.4186 134.335 49.4362 134.247 49.4362Z" fill="#C7C7C7"/>
<path d="M221.946 121.704C221.946 122.565 221.774 123.417 221.441 124.21C221.108 125.004 220.62 125.723 220.006 126.326C219.393 126.929 218.665 127.404 217.866 127.723C217.067 128.042 216.212 128.199 215.352 128.185H214.173V137.141C214.125 138.826 213.421 140.426 212.211 141.601C211.002 142.776 209.382 143.433 207.696 143.433C206.01 143.433 204.39 142.776 203.181 141.601C201.972 140.426 201.268 138.826 201.219 137.141V128.19H164.127C162.662 128.244 161.231 127.739 160.124 126.777C159.442 126.263 158.873 125.615 158.449 124.874C158.025 124.133 157.757 123.313 157.659 122.465C157.562 121.617 157.638 120.758 157.882 119.94C158.127 119.122 158.535 118.362 159.082 117.706L202.653 63.5364C202.773 63.5364 202.773 63.4164 202.888 63.3018C203.036 63.1683 203.156 63.0071 203.242 62.8273C203.468 62.7686 203.672 62.6476 203.832 62.4782C203.952 62.3582 204.186 62.2382 204.306 62.1236C204.511 61.9747 204.757 61.8928 205.01 61.8891C205.124 61.6491 205.244 61.5345 205.479 61.5345C205.599 61.4145 205.833 61.4145 206.188 61.3C206.354 61.3177 206.52 61.2751 206.657 61.18H208.659C208.839 61.2767 209.044 61.3184 209.248 61.3C209.368 61.4145 209.722 61.4145 209.957 61.5345C210.072 61.5345 210.312 61.6491 210.426 61.6491C210.666 61.8891 210.895 62.0036 211.015 62.1236C211.25 62.2382 211.37 62.3582 211.604 62.4782C211.62 62.4774 211.635 62.4798 211.65 62.4853C211.664 62.4907 211.678 62.499 211.689 62.5097C211.7 62.5204 211.709 62.5333 211.715 62.5476C211.721 62.5618 211.724 62.5772 211.724 62.5927C211.839 62.5927 212.073 62.7127 212.073 62.8273L212.548 63.3018C212.663 63.4164 212.783 63.6509 212.903 63.7709C213.08 63.9493 213.238 64.1468 213.372 64.36C213.401 64.5364 213.483 64.6999 213.606 64.8291C213.705 65.0589 213.785 65.2959 213.846 65.5382C213.846 65.6527 213.961 65.8928 213.961 66.0073C214.064 66.2284 214.104 66.474 214.075 66.7164C214.075 66.951 214.195 67.0709 214.195 67.3055V115.235H215.374C217.101 115.228 218.761 115.904 219.993 117.116C221.224 118.328 221.926 119.977 221.946 121.704ZM201.219 86.1403L177.764 115.23H201.219V86.1403Z" fill="#275AA6"/>
<path d="M74.3715 121.704C74.3709 122.565 74.1991 123.417 73.866 124.21C73.533 125.004 73.0454 125.723 72.4316 126.326C71.8178 126.929 71.0902 127.404 70.291 127.723C69.4919 128.042 68.6373 128.199 67.7769 128.185H66.5987V137.141C66.5498 138.826 65.8459 140.426 64.6365 141.601C63.4271 142.776 61.8074 143.433 60.1213 143.433C58.4353 143.433 56.8156 142.776 55.6062 141.601C54.3968 140.426 53.6929 138.826 53.644 137.141V128.19H16.5526C15.0871 128.244 13.656 127.739 12.5489 126.777C11.8664 126.264 11.2952 125.617 10.8701 124.877C10.445 124.136 10.1748 123.317 10.0759 122.468C9.97691 121.62 10.0513 120.761 10.2945 119.942C10.5377 119.123 10.9446 118.363 11.4907 117.706L55.0622 63.5364C55.1822 63.5364 55.1822 63.4164 55.2967 63.3018C55.4428 63.1665 55.5629 63.0057 55.6513 62.8273C55.876 62.7672 56.0798 62.6465 56.2404 62.4782C56.3549 62.3582 56.5949 62.2382 56.7095 62.1236C56.9167 61.9756 57.1639 61.8938 57.4186 61.8891C57.5331 61.6491 57.6531 61.5345 57.8877 61.5345C58.0077 61.4145 58.2422 61.4145 58.5968 61.3C58.7624 61.3172 58.9288 61.2746 59.0659 61.18H61.0677C61.2481 61.2767 61.4529 61.3184 61.6568 61.3C61.7768 61.4145 62.1259 61.4145 62.3659 61.5345C62.4805 61.5345 62.715 61.6491 62.835 61.6491C63.0695 61.8891 63.3041 62.0036 63.4241 62.1236C63.6586 62.2382 63.7787 62.3582 64.0132 62.4782C64.0436 62.4782 64.0727 62.4902 64.0942 62.5117C64.1157 62.5332 64.1277 62.5623 64.1277 62.5927C64.2477 62.5927 64.4823 62.7127 64.4823 62.8273L64.9568 63.3018C65.0714 63.4164 65.1914 63.6509 65.3059 63.7709C65.4876 63.9471 65.647 64.145 65.7805 64.36C65.8073 64.5372 65.8894 64.7013 66.015 64.8291C66.1137 65.0582 66.1922 65.2955 66.2496 65.5382C66.2496 65.6527 66.3696 65.8928 66.3696 66.0073C66.4731 66.2284 66.5128 66.474 66.4841 66.7164C66.4841 66.951 66.6041 67.0709 66.6041 67.3055V115.235H67.7823C69.5127 115.224 71.1773 115.898 72.4121 117.11C73.6469 118.322 74.3514 119.974 74.3715 121.704ZM53.644 86.1403L30.1891 115.23H53.644V86.1403Z" fill="#275AA6"/>
<g opacity="0.2">
<path d="M150.927 102.401C150.927 114.946 147.616 126.565 141.682 135.401C135.872 144.128 126.763 150.739 116.127 150.739C105.217 150.739 96.2446 144.112 90.4354 135.401C84.3644 126.565 81.1626 114.968 81.0535 102.401C81.1898 89.6913 84.3644 78.2312 90.4354 69.3892C96.2446 60.5528 105.217 54.0618 116.127 54.0618C126.763 54.0618 135.872 60.5528 141.682 69.3892C147.627 78.2312 150.927 89.6913 150.927 102.401Z" fill="#FFC727"/>
</g>
<g opacity="0.2">
<path d="M145.942 102.401C145.942 113.173 143.1 123.128 138.011 130.688C133.036 138.156 125.225 143.834 116.11 143.834C106.756 143.834 99.0646 138.156 94.0846 130.688C88.8809 123.112 86.159 113.173 86.039 102.401C86.159 91.4914 88.8809 81.673 94.0846 74.102C99.0646 66.5256 106.756 60.9619 116.11 60.9619C125.225 60.9619 133.02 66.5256 138.011 74.102C143.1 81.684 145.942 91.5077 145.942 102.401Z" fill="#FFC727"/>
</g>
<g opacity="0.2">
<path d="M137.842 102.401C137.842 110.261 135.769 117.51 132.054 123.041C128.427 128.495 122.727 132.63 116.078 132.63C109.254 132.63 103.641 128.485 100.008 123.041C96.1901 117.51 94.2264 110.261 94.1391 102.401C94.2264 94.4532 96.2119 87.2858 100.008 81.7548C103.641 76.2293 109.281 72.1656 116.078 72.1656C122.727 72.1656 128.427 76.2293 132.054 81.7548C135.769 87.2858 137.842 94.4314 137.842 102.401Z" fill="#FFC727"/>
</g>
<path d="M138.796 209.868H93.1846L94.4609 191.584L95.7428 173.3L97.0192 155.01L98.301 136.727L99.5774 118.437H132.403L133.68 136.727L134.961 155.01L136.238 173.3L137.52 191.584L138.796 209.868Z" fill="#275AA6"/>
<path opacity="0.1" d="M133.68 136.727H98.301L99.5774 118.437H132.403L133.68 136.727Z" fill="black"/>
<path opacity="0.1" d="M138.796 209.868H93.1846L94.4609 191.584H137.52L138.796 209.868Z" fill="black"/>
<path opacity="0.1" d="M136.238 173.3H95.7428L97.0191 155.01H134.961L136.238 173.3Z" fill="black"/>
<path opacity="0.1" d="M99.5774 118.437H107.825L119.023 209.868H93.1846L99.5774 118.437Z" fill="black"/>
<path d="M115.99 125.965C115.404 125.965 114.843 126.197 114.428 126.612C114.014 127.026 113.781 127.588 113.781 128.174L113.318 132.968H118.663L118.199 128.174C118.199 127.588 117.967 127.026 117.552 126.612C117.138 126.197 116.576 125.965 115.99 125.965Z" fill="#263238"/>
<path d="M124.914 143.108C124.625 143.105 124.339 143.159 124.071 143.267C123.803 143.375 123.559 143.535 123.354 143.738C123.148 143.941 122.985 144.182 122.874 144.449C122.762 144.715 122.705 145.001 122.705 145.29L122.236 150.085H127.587L127.123 145.29C127.116 144.709 126.88 144.154 126.467 143.746C126.053 143.337 125.495 143.108 124.914 143.108Z" fill="#263238"/>
<path d="M102.659 161.24C102.078 161.24 101.52 161.469 101.107 161.877C100.693 162.285 100.457 162.84 100.45 163.421L99.9865 168.216H105.332L104.868 163.421C104.86 162.841 104.623 162.287 104.21 161.879C103.797 161.47 103.24 161.241 102.659 161.24Z" fill="#263238"/>
<path d="M115.99 179.447C115.702 179.443 115.415 179.497 115.147 179.605C114.879 179.713 114.635 179.873 114.43 180.076C114.224 180.279 114.061 180.521 113.95 180.788C113.839 181.054 113.781 181.34 113.781 181.629L113.318 186.429H118.663L118.199 181.629C118.2 181.34 118.142 181.054 118.031 180.788C117.919 180.521 117.756 180.279 117.551 180.076C117.345 179.873 117.102 179.713 116.834 179.605C116.566 179.497 116.279 179.443 115.99 179.447Z" fill="#263238"/>
<path d="M125.929 92.0695H106.052C106.072 89.5085 107.079 87.0539 108.864 85.2171C110.648 83.3803 113.073 82.3029 115.632 82.2093C118.192 82.1158 120.689 83.0134 122.603 84.7151C124.517 86.4168 125.7 88.7913 125.907 91.344C125.923 91.584 125.929 91.8295 125.929 92.0695Z" fill="#275AA6"/>
<path opacity="0.1" d="M125.934 92.0695H106.052C106.05 91.4213 106.112 90.7745 106.237 90.1386L125.46 89.0477C125.699 89.7965 125.849 90.571 125.907 91.355C125.923 91.5841 125.934 91.8241 125.934 92.0695Z" fill="black"/>
<path d="M107.448 104.206V91.4859H106.052V104.206H107.448Z" fill="#C7C7C7"/>
<path d="M111.141 104.206V91.4859H109.745V104.206H111.141Z" fill="#C7C7C7"/>
<path d="M114.839 104.206V91.4859H113.443V104.206H114.839Z" fill="#C7C7C7"/>
<path d="M118.538 104.206V91.4859H117.141V104.206H118.538Z" fill="#C7C7C7"/>
<path d="M122.23 104.206V91.4859H120.834V104.206H122.23Z" fill="#C7C7C7"/>
<path d="M127.107 98.4569H104.874V99.5369H127.107V98.4569Z" fill="#C7C7C7"/>
<path d="M125.929 104.206V91.4859H124.532V104.206H125.929Z" fill="#C7C7C7"/>
<path d="M127.947 104.206H104.034V115.704H127.947V104.206Z" fill="#275AA6"/>
<path opacity="0.1" d="M127.947 104.206V106.366L104.034 110.25V104.206H127.947Z" fill="black"/>
<g opacity="0.05">
<path d="M132.654 178.285H127.309V180.543H132.654V178.285Z" fill="black"/>
<path d="M129.671 181.133H124.325V183.391H129.671V181.133Z" fill="black"/>
<path d="M112.93 144.892H107.585V147.15H112.93V144.892Z" fill="black"/>
<path d="M109.947 147.739H104.601V149.998H109.947V147.739Z" fill="black"/>
<path d="M106.974 144.892H101.628V147.15H106.974V144.892Z" fill="black"/>
<path d="M118.467 86.2385H114.376V87.9676H118.467V86.2385Z" fill="black"/>
<path d="M116.181 88.4204H112.09V90.1495H116.181V88.4204Z" fill="black"/>
<path d="M113.912 86.2385H109.821V87.9676H113.912V86.2385Z" fill="black"/>
<path d="M104.034 180.233H98.6883V182.491H104.034V180.233Z" fill="black"/>
<path d="M126.414 125.965H121.069V128.223H126.414V125.965Z" fill="black"/>
<path d="M129.392 128.817H124.047V131.076H129.392V128.817Z" fill="black"/>
<path d="M121.336 107.402H115.99V109.661H121.336V107.402Z" fill="black"/>
<path d="M124.32 110.25H118.974V112.508H124.32V110.25Z" fill="black"/>
<path d="M120.949 160.236H115.603V162.494H120.949V160.236Z" fill="black"/>
</g>
<path d="M136.009 114.543H95.9719V122.337H136.009V114.543Z" fill="#455A64"/>
<path d="M129.36 102.401H102.616V105.215H129.36V102.401Z" fill="#455A64"/>
<path d="M127.107 91.4859H104.874V93.8259H127.107V91.4859Z" fill="#455A64"/>
<path d="M129.785 191.382C128.923 191.409 127.969 191.458 127.254 190.902C126.895 190.664 126.601 190.339 126.4 189.958C126.199 189.577 126.097 189.151 126.103 188.72C126.103 188.469 126.185 188.316 126.452 188.425C126.852 188.658 127.196 188.974 127.461 189.353C127.82 189.767 128.218 190.146 128.651 190.482C128.956 190.716 129.289 190.918 129.6 191.147L129.714 191.235L129.758 191.267H129.785C129.79 191.265 129.796 191.264 129.801 191.264C129.807 191.264 129.813 191.265 129.818 191.267C129.833 191.272 129.846 191.282 129.854 191.296C129.861 191.309 129.863 191.326 129.859 191.341C129.854 191.356 129.844 191.369 129.83 191.377C129.817 191.384 129.8 191.386 129.785 191.382Z" fill="#263238"/>
<path d="M129.823 191.322C129.07 191.322 128.258 191.322 127.641 190.831C127.364 190.587 127.128 190.3 126.943 189.98C126.856 189.838 126.594 189.434 126.703 189.249C126.9 188.944 127.794 190.187 127.92 190.302C128.392 190.73 128.967 191.029 129.589 191.169L129.703 191.256C129.263 191.166 128.841 191.004 128.454 190.776C127.979 190.428 127.556 190.013 127.2 189.544C127.107 189.445 126.834 189.129 126.736 189.325C126.638 189.522 126.916 189.871 126.97 189.964C127.151 190.265 127.375 190.537 127.636 190.771C128.236 191.316 129.049 191.278 129.818 191.316C129.823 191.311 129.823 191.316 129.823 191.322Z" fill="white"/>
<path d="M130.254 191.905V192.004C130.247 192.008 130.238 192.01 130.23 192.01C130.221 192.01 130.213 192.008 130.205 192.004V191.971V191.944C130.052 191.371 129.992 190.782 129.834 190.215C129.676 189.647 129.491 189.124 129.381 188.578C129.311 188.229 129.071 186.478 129.84 186.696C130.183 186.789 130.418 187.285 130.543 187.58C130.712 187.98 130.81 188.406 130.832 188.84C130.865 189.887 130.472 190.88 130.254 191.905Z" fill="#263238"/>
<path d="M130.505 189.724C130.518 189.323 130.476 188.923 130.38 188.534C130.347 188.398 130.178 187.754 129.96 187.771C129.741 187.787 129.796 188.06 129.78 188.153C129.77 188.548 129.823 188.942 129.938 189.32C130.088 190.09 130.18 190.871 130.216 191.655V191.807V191.933C130.216 191.933 130.216 191.96 130.216 191.971V192.004C130.222 192.008 130.23 192.01 130.238 192.01C130.246 192.01 130.253 192.008 130.26 192.004V191.905V191.982V191.9V191.753C130.381 191.082 130.463 190.404 130.505 189.724ZM130.243 191.491C130.243 191.033 130.178 190.575 130.112 190.122C130.047 189.669 129.992 189.391 129.911 189.031C129.861 188.828 129.829 188.622 129.812 188.414C129.812 188.251 129.812 187.662 130.134 188.027C130.329 188.382 130.432 188.779 130.434 189.184C130.47 189.546 130.47 189.912 130.434 190.274C130.374 190.678 130.303 191.082 130.243 191.491Z" fill="white"/>
<path d="M130.718 194.251H130.685C129.9 194.213 128.858 194.284 128.203 193.765C127.927 193.562 127.709 193.291 127.568 192.979C127.428 192.666 127.37 192.323 127.401 191.982C127.571 191.256 128.552 192.129 128.809 192.336C129.485 192.923 130.128 193.548 130.734 194.207L130.718 194.251Z" fill="#263238"/>
<path d="M130.745 194.251L130.609 194.169C130.096 193.842 129.589 193.493 129.109 193.122C128.983 193.029 128.1 192.244 127.969 192.527C127.887 192.696 128.181 193.04 128.274 193.16C128.441 193.373 128.642 193.557 128.869 193.705C129.422 193.973 130.012 194.157 130.62 194.251H130.701C130.701 194.251 130.751 194.251 130.745 194.251ZM129.191 193.804C128.941 193.69 128.712 193.535 128.514 193.345C128.383 193.22 127.92 192.751 128.045 192.56C128.111 192.456 128.165 192.511 128.291 192.56L128.454 192.658C128.585 192.745 128.705 192.844 128.831 192.942C129.043 193.116 129.261 193.28 129.485 193.444C129.851 193.711 130.227 193.962 130.609 194.196C130.128 194.09 129.654 193.953 129.191 193.787V193.804Z" fill="white"/>
<path d="M132.152 192.642C131.947 193.542 131.478 194.361 130.805 194.993C130.798 194.997 130.791 194.999 130.783 194.999C130.776 194.999 130.768 194.997 130.761 194.993C130.761 194.993 130.761 194.96 130.761 194.944L130.8 194.905C130.931 193.815 131.072 192.778 131.187 191.709C131.187 191.453 131.405 189.849 131.901 190.111C132.207 190.275 132.223 190.929 132.251 191.202C132.293 191.684 132.26 192.17 132.152 192.642Z" fill="#263238"/>
<path d="M131.869 191.213C131.841 191.12 131.792 191.033 131.694 191.093C131.503 191.213 131.427 191.965 131.394 192.184C131.263 193.04 131.061 193.869 130.849 194.715C130.849 194.785 130.811 194.856 130.794 194.927L130.745 194.993C130.752 194.997 130.759 194.999 130.767 194.999C130.775 194.999 130.782 194.997 130.789 194.993L130.854 194.905C131.19 194.445 131.451 193.936 131.629 193.395C131.743 193.051 131.82 192.696 131.858 192.336C131.932 191.966 131.935 191.585 131.869 191.213ZM130.86 194.835C130.847 194.847 130.838 194.862 130.832 194.878C130.838 194.848 130.847 194.819 130.86 194.791C131.06 194.149 131.22 193.495 131.34 192.833C131.394 192.495 131.432 192.156 131.498 191.818C131.531 191.682 131.596 191.273 131.716 191.213C131.836 191.153 131.831 191.305 131.841 191.393C131.847 191.474 131.847 191.556 131.841 191.638C131.857 192.78 131.513 193.898 130.86 194.835Z" fill="white"/>
<path d="M130.936 197.295H130.778C130.778 197.153 130.778 197.016 130.778 196.88C130.778 196.335 130.734 195.762 130.701 195.206C130.701 194.889 130.663 194.573 130.625 194.262V194.251C130.625 194.251 130.625 194.196 130.625 194.175C130.628 194.147 130.628 194.12 130.625 194.093C130.554 193.384 130.37 192.692 130.08 192.042C129.981 191.824 129.872 191.611 129.758 191.404L129.725 191.344L129.692 191.278L129.665 191.235C129.305 190.596 128.885 189.985 128.492 189.369L128.16 188.824V188.791V188.753C127.669 187.973 127.178 187.182 126.665 186.418C126.665 186.391 126.692 186.364 126.709 186.391C127.058 186.904 127.418 187.4 127.772 187.902L127.914 188.104L128.198 188.502L128.743 189.304C129.27 190.055 129.752 190.836 130.189 191.644L130.276 191.829L130.331 191.944C130.331 191.987 130.369 192.031 130.391 192.08C130.715 192.866 130.9 193.702 130.936 194.551C130.936 194.611 130.936 194.671 130.936 194.731C130.933 194.758 130.933 194.786 130.936 194.813V194.856C130.933 194.874 130.933 194.893 130.936 194.911V194.955C130.936 195.009 130.936 195.058 130.936 195.107C130.936 195.653 130.974 196.226 130.985 196.782L130.936 197.295Z" fill="#263238"/>
<path d="M126.25 187.193C125.825 186.614 125.274 185.425 125.907 184.804C126.022 184.684 126.176 184.611 126.342 184.599C126.507 184.587 126.67 184.637 126.801 184.738C127.114 185.027 127.323 185.41 127.396 185.829C127.685 186.844 127.876 187.874 128.241 188.862C128.257 188.897 128.269 188.934 128.28 188.971C128.28 188.971 128.28 188.971 128.247 188.971L128.214 188.878C127.479 188.418 126.817 187.85 126.25 187.193Z" fill="#263238"/>
<path d="M128.247 188.851C128.096 188.611 127.962 188.361 127.843 188.104C127.605 187.571 127.4 187.024 127.227 186.467C127.161 186.249 126.85 185.185 126.469 185.611C126.34 185.825 126.301 186.082 126.36 186.325C126.404 186.674 126.515 187.011 126.687 187.318C127.052 187.91 127.539 188.418 128.116 188.807L128.192 188.867V188.894H128.225C128.225 188.894 128.252 188.856 128.247 188.851ZM128.078 188.731C127.618 188.389 127.212 187.981 126.872 187.52C126.699 187.273 126.564 187.001 126.474 186.713C126.436 186.586 126.408 186.457 126.392 186.325C126.381 186.226 126.381 186.125 126.392 186.025C126.392 185.807 126.485 185.573 126.616 185.545C126.747 185.518 126.829 185.611 126.932 185.796C126.97 185.857 127.003 185.921 127.03 185.987C127.099 186.151 127.157 186.318 127.205 186.489C127.298 186.773 127.385 187.034 127.489 187.329C127.554 187.514 127.63 187.7 127.707 187.874C127.843 188.191 128.002 188.497 128.181 188.791L128.078 188.731Z" fill="white"/>
<path d="M82.1717 193.705C81.4299 193.891 80.6008 194.104 79.8808 193.744C79.5282 193.602 79.2165 193.374 78.9737 193.082C78.7309 192.79 78.5646 192.442 78.4898 192.069C78.4898 191.845 78.4898 191.704 78.7408 191.747C79.1326 191.877 79.4905 192.094 79.788 192.38C80.1759 192.674 80.5904 192.932 81.0262 193.149C81.3371 193.296 81.659 193.416 81.9699 193.558L82.0899 193.613H82.1335C82.1335 193.613 82.1335 193.613 82.1663 193.613C82.1723 193.612 82.1784 193.613 82.1842 193.615C82.19 193.617 82.1953 193.62 82.1998 193.624C82.2044 193.628 82.2081 193.633 82.2108 193.639C82.2134 193.644 82.215 193.65 82.2153 193.656C82.2157 193.662 82.2149 193.669 82.2129 193.674C82.2109 193.68 82.2077 193.685 82.2037 193.69C82.1996 193.694 82.1947 193.698 82.1892 193.701C82.1838 193.704 82.1778 193.705 82.1717 193.705Z" fill="#263238"/>
<path d="M82.1717 193.64C81.5117 193.765 80.808 193.94 80.1862 193.602C79.9025 193.435 79.6452 193.228 79.4226 192.985C79.3244 192.876 79.0189 192.555 79.0844 192.391C79.1989 192.085 80.208 193.007 80.3389 193.089C80.8249 193.378 81.3774 193.536 81.9426 193.547L82.0626 193.602C81.6619 193.6 81.2641 193.533 80.8844 193.405C80.4076 193.187 79.9648 192.9 79.5698 192.555C79.4771 192.489 79.1825 192.26 79.128 192.451C79.0735 192.642 79.3844 192.893 79.4498 192.964C79.6592 193.193 79.9019 193.39 80.1698 193.547C80.7917 193.896 81.4953 193.738 82.1608 193.629L82.1717 193.64Z" fill="white"/>
<path d="M82.6735 194.071V194.158C82.6675 194.164 82.6597 194.167 82.6517 194.167C82.6436 194.167 82.6359 194.164 82.6299 194.158V194.12C82.3953 193.656 82.2371 193.149 81.9971 192.685C81.7571 192.222 81.5062 191.807 81.3098 191.344C81.1844 191.055 80.6607 189.571 81.3698 189.62C81.6862 189.62 81.9808 190.035 82.1444 190.269C82.3631 190.587 82.5238 190.942 82.6189 191.316C82.7584 192.228 82.7767 193.154 82.6735 194.071Z" fill="#263238"/>
<path d="M82.499 192.124C82.4382 191.772 82.3299 191.431 82.1771 191.109C82.1226 191 81.8608 190.465 81.6699 190.52C81.4789 190.574 81.5826 190.798 81.588 190.88C81.6486 191.226 81.7627 191.561 81.9262 191.873C82.1985 192.517 82.4228 193.181 82.5971 193.858C82.5943 193.904 82.5943 193.949 82.5971 193.995C82.5971 194.033 82.5971 194.065 82.5971 194.104V194.175C82.6031 194.18 82.6109 194.183 82.619 194.183C82.627 194.183 82.6348 194.18 82.6408 194.175C82.6381 194.146 82.6381 194.116 82.6408 194.087C82.6388 194.111 82.6388 194.135 82.6408 194.158V194.071C82.6408 194.033 82.6408 193.995 82.6408 193.956C82.6263 193.343 82.5789 192.732 82.499 192.124ZM82.5862 193.711C82.4826 193.313 82.3626 192.925 82.2262 192.538C82.0899 192.151 81.9862 191.922 81.8553 191.622C81.7742 191.446 81.7085 191.263 81.6589 191.076C81.6262 190.94 81.5389 190.422 81.8717 190.684C82.1055 190.957 82.2669 191.286 82.3408 191.638C82.4262 191.951 82.4846 192.27 82.5153 192.593C82.5535 192.98 82.5644 193.345 82.5862 193.705V193.711Z" fill="white"/>
<path d="M83.4971 196.04H83.4699C82.7771 196.144 81.8771 196.395 81.2171 196.04C80.9398 195.912 80.7002 195.715 80.5215 195.468C80.3428 195.22 80.2311 194.931 80.1971 194.627C80.1971 193.962 81.228 194.546 81.4898 194.682C82.1838 195.074 82.8557 195.504 83.5026 195.969C83.5026 195.969 83.5135 196.035 83.4971 196.04Z" fill="#263238"/>
<path d="M83.5135 196.013L83.3826 195.964C82.8753 195.773 82.3735 195.56 81.888 195.325C81.7626 195.265 80.8517 194.736 80.7971 195.009C80.7589 195.167 81.0753 195.418 81.1735 195.505C81.3574 195.658 81.5658 195.778 81.7899 195.86C82.3235 196 82.8754 196.057 83.4263 196.029H83.519C83.519 196.029 83.5244 196.024 83.5135 196.013ZM82.0844 195.904C81.8449 195.85 81.6162 195.756 81.408 195.625C81.2717 195.538 80.7862 195.211 80.8626 195.025C80.939 194.84 80.9608 194.96 81.0808 194.993C81.1353 195.005 81.1883 195.023 81.2389 195.047C81.3698 195.099 81.4973 195.16 81.6208 195.227C81.839 195.336 82.0571 195.445 82.2808 195.544C82.6462 195.713 83.0172 195.86 83.3717 196.002C82.9408 195.988 82.511 195.95 82.0844 195.887V195.904Z" fill="white"/>
<path d="M84.4572 194.371C84.4378 195.192 84.1759 195.989 83.7044 196.662C83.6989 196.666 83.6922 196.668 83.6853 196.668C83.6785 196.668 83.6718 196.666 83.6663 196.662C83.6609 196.656 83.6579 196.648 83.6579 196.64C83.6579 196.632 83.6609 196.624 83.6663 196.618V196.58C83.5899 195.625 83.5244 194.676 83.4263 193.722C83.4263 193.498 83.2899 192.085 83.7699 192.2C84.0644 192.287 84.1954 192.86 84.2717 193.111C84.3988 193.519 84.4613 193.944 84.4572 194.371Z" fill="#263238"/>
<path d="M83.9499 193.16C83.9117 193.089 83.8572 193.018 83.7808 193.089C83.7044 193.16 83.7044 193.896 83.7153 194.087C83.7535 194.862 83.7153 195.62 83.7153 196.389C83.7153 196.455 83.7153 196.52 83.7153 196.586L83.6826 196.651C83.6882 196.655 83.6949 196.657 83.7017 196.657C83.7086 196.657 83.7152 196.655 83.7208 196.651C83.7386 196.624 83.7532 196.594 83.7644 196.564C83.974 196.102 84.1102 195.611 84.1681 195.107C84.2008 194.786 84.2008 194.463 84.1681 194.142C84.1591 193.804 84.085 193.47 83.9499 193.16ZM83.7208 196.498V196.542C83.7208 196.515 83.7208 196.487 83.7208 196.46C83.7808 195.864 83.8027 195.264 83.7863 194.665C83.7863 194.365 83.7481 194.06 83.7481 193.76C83.7481 193.629 83.7481 193.264 83.8244 193.187C83.9008 193.111 83.939 193.247 83.9663 193.324C83.9895 193.393 84.0078 193.464 84.0208 193.536C84.2416 194.536 84.1364 195.579 83.7208 196.515V196.498Z" fill="white"/>
<path d="M84.2335 198.642L84.0917 198.675L84.0099 198.315C83.8954 197.829 83.7754 197.349 83.6444 196.869C83.5735 196.596 83.4972 196.324 83.4099 196.056C83.4094 196.047 83.4094 196.038 83.4099 196.029C83.4099 196.029 83.4099 195.986 83.4099 195.964C83.4099 195.942 83.4099 195.92 83.4099 195.893C83.2212 195.29 82.9376 194.721 82.5699 194.207C82.4444 194.033 82.3135 193.869 82.1717 193.705C82.162 193.689 82.149 193.674 82.1335 193.662L82.0953 193.613L82.0626 193.58C81.6317 193.089 81.1571 192.631 80.7044 192.167L80.3171 191.764V191.736L80.2844 191.709C79.7389 191.12 79.1498 190.52 78.5662 189.942C78.5662 189.942 78.5662 189.893 78.5989 189.914C78.9917 190.291 79.3953 190.667 79.7989 191.038L79.9571 191.191L80.2735 191.485C80.4862 191.682 80.6935 191.884 80.8953 192.085C81.4899 192.645 82.0509 193.238 82.5753 193.864L82.6844 194.011C82.7111 194.039 82.7348 194.07 82.7553 194.104L82.8317 194.207C83.2517 194.836 83.5565 195.534 83.7317 196.269C83.7317 196.318 83.7644 196.373 83.7754 196.422C83.773 196.445 83.773 196.469 83.7754 196.493C83.7754 196.493 83.7754 196.52 83.7754 196.531V196.58C83.7754 196.58 83.7754 196.607 83.7754 196.618L83.8081 196.749C83.9281 197.235 84.0426 197.715 84.1517 198.2L84.2335 198.642Z" fill="#263238"/>
<path d="M78.3534 190.678C77.8734 190.253 77.1807 189.315 77.6225 188.66C77.7007 188.535 77.8227 188.443 77.9649 188.402C78.1071 188.362 78.2593 188.376 78.3916 188.442C78.7139 188.631 78.9635 188.923 79.1007 189.271C79.5371 190.1 79.8916 190.967 80.3826 191.764L80.4371 191.851L80.388 191.775C79.6581 191.514 78.9721 191.145 78.3534 190.678Z" fill="#263238"/>
<path d="M80.3717 191.764C80.1995 191.58 80.0375 191.387 79.8862 191.185C79.5813 190.757 79.3026 190.311 79.0516 189.849C78.9535 189.674 78.5062 188.802 78.2389 189.244C78.1549 189.448 78.1549 189.677 78.2389 189.882C78.3421 190.178 78.5013 190.453 78.708 190.689C79.129 191.143 79.6449 191.499 80.2189 191.731L80.2953 191.769H80.3226L80.3717 191.764ZM80.2026 191.693C79.7399 191.477 79.3117 191.194 78.9316 190.853C78.7383 190.668 78.5746 190.455 78.4462 190.22C78.3911 190.116 78.3437 190.009 78.3044 189.898C78.2725 189.815 78.2487 189.729 78.2334 189.642C78.2007 189.451 78.2334 189.227 78.3425 189.184C78.4516 189.14 78.5444 189.184 78.6644 189.342C78.7074 189.39 78.7474 189.441 78.7844 189.494C78.8716 189.62 78.9535 189.762 79.0298 189.898C79.1553 190.127 79.2862 190.356 79.4226 190.58C79.5589 190.804 79.6135 190.88 79.7171 191.022C79.8911 191.273 80.0825 191.512 80.2898 191.736L80.2026 191.693Z" fill="white"/>
<path d="M137.76 186.811C137.536 187.629 137.252 188.447 136.963 189.222C136.8 189.674 136.631 190.122 136.467 190.575C136.232 191.053 136.115 191.58 136.123 192.113C136.126 192.136 136.126 192.16 136.123 192.184C136.115 192.192 136.105 192.198 136.093 192.201C136.082 192.204 136.07 192.203 136.059 192.199C136.048 192.195 136.038 192.188 136.031 192.178C136.024 192.169 136.02 192.157 136.02 192.145C136.017 192.135 136.017 192.123 136.02 192.113C135.963 191.965 135.924 191.811 135.905 191.655C135.801 191.238 135.72 190.815 135.665 190.389C135.559 189.518 135.559 188.637 135.665 187.765C135.758 186.986 135.954 186.223 136.249 185.496C136.462 184.803 136.836 184.169 137.34 183.647C137.809 183.293 138.054 184.007 138.12 184.367C138.184 185.198 138.061 186.033 137.76 186.811Z" fill="#455A64"/>
<path d="M137.263 184.94C136.963 184.896 136.598 185.84 136.429 186.249C136.166 186.89 135.983 187.56 135.883 188.245C135.701 189.482 135.732 190.74 135.976 191.965C135.982 192.015 135.992 192.064 136.003 192.113C136.001 192.123 136.001 192.135 136.003 192.145C136.004 192.157 136.008 192.169 136.015 192.178C136.022 192.188 136.031 192.195 136.042 192.199C136.054 192.203 136.066 192.204 136.077 192.201C136.088 192.198 136.099 192.192 136.107 192.184C136.101 192.08 136.101 191.976 136.107 191.873C136.107 191.775 136.107 191.682 136.107 191.595C136.214 190.584 136.426 189.588 136.74 188.622C137.072 187.493 137.678 184.978 137.263 184.94ZM136.031 191.791C136.031 191.929 136.031 192.065 136.031 192.2C136.031 192.096 135.998 191.998 135.987 191.895C135.806 190.813 135.771 189.712 135.883 188.622C135.955 188.008 136.09 187.402 136.287 186.816C136.394 186.502 136.52 186.194 136.663 185.894C136.729 185.769 137.067 184.984 137.252 185.049C137.438 185.114 137.301 185.84 137.296 185.856C137.284 186.006 137.264 186.156 137.236 186.304C137.192 186.604 137.121 186.909 137.056 187.209C136.898 187.858 136.707 188.502 136.511 189.145C136.249 190.005 136.092 190.893 136.041 191.791H136.031Z" fill="white"/>
<path d="M142.173 189.816C141.406 190.778 140.43 191.552 139.32 192.08C138.747 192.385 138.158 192.664 137.574 192.953C137.04 193.185 136.53 193.47 136.052 193.804C136.03 193.817 136.01 193.833 135.992 193.853C135.866 193.957 135.751 194.074 135.649 194.202H135.621V194.245C135.649 194.245 135.621 194.207 135.621 194.191V194.153V194.098C135.971 192.855 137.045 191.704 137.94 190.825C138.806 189.923 139.904 189.277 141.114 188.96C141.42 188.889 142.129 188.676 142.391 188.96C142.653 189.244 142.347 189.604 142.173 189.816Z" fill="#455A64"/>
<path d="M141.332 189.691C141.109 189.391 140.242 189.925 140.018 190.051C139.365 190.436 138.748 190.88 138.174 191.376C137.207 192.131 136.364 193.033 135.676 194.049L135.643 194.082V194.136V194.175L135.687 194.136C135.801 194.033 135.922 193.935 136.042 193.836C136.059 193.817 136.079 193.8 136.101 193.787C136.972 193.138 137.883 192.546 138.829 192.014C139.48 191.634 140.094 191.192 140.662 190.694C140.771 190.58 141.523 189.947 141.332 189.691ZM141.005 190.236C140.187 191.229 138.932 191.873 137.847 192.505C137.106 192.93 136.407 193.423 135.758 193.978C136.413 193.081 137.185 192.275 138.054 191.584C138.535 191.169 139.039 190.783 139.565 190.427C139.847 190.233 140.142 190.06 140.449 189.909C140.635 189.817 140.83 189.748 141.032 189.702C141.414 189.647 141.142 190.067 141.005 190.236Z" fill="white"/>
<path d="M138.791 194.704C138.593 195.196 138.291 195.641 137.907 196.007C137.171 196.76 136.271 197.344 135.501 198.042L135.158 198.364L135.049 198.527L135.109 198.347C135.451 197.311 135.905 196.314 136.462 195.375C136.804 194.866 137.207 194.401 137.662 193.989C137.885 193.804 138.398 193.411 138.714 193.558C139.031 193.705 138.9 194.442 138.791 194.704Z" fill="#455A64"/>
<path d="M138.294 194.278C137.972 194.005 136.805 195.516 136.658 195.707C136.084 196.428 135.605 197.22 135.234 198.064C135.191 198.156 135.152 198.249 135.114 198.347L135.054 198.527C135.054 198.527 135.152 198.375 135.163 198.364L135.223 198.304L135.507 198.042C135.998 197.496 136.494 196.951 136.974 196.405C137.321 196.011 137.637 195.589 137.918 195.145C137.978 195.064 138.436 194.398 138.294 194.278ZM138.125 194.731C137.405 196.084 136.205 197.06 135.223 198.211L135.174 198.271L135.223 198.162C135.543 197.472 135.928 196.814 136.374 196.198C136.644 195.816 136.937 195.452 137.252 195.107C137.422 194.913 137.604 194.731 137.798 194.562C137.88 194.491 138.125 194.305 138.191 194.355C138.256 194.404 138.174 194.638 138.125 194.731Z" fill="white"/>
<path d="M144.12 183.423C142.702 185.704 139.756 186.429 138.191 188.6C138.142 188.665 138.098 188.736 138.054 188.802C138.05 188.809 138.044 188.814 138.037 188.818C138.029 188.822 138.021 188.824 138.013 188.824C138.005 188.824 137.997 188.822 137.99 188.818C137.983 188.814 137.977 188.809 137.972 188.802C137.972 188.802 137.972 188.802 137.972 188.764L138.005 188.714C138.463 187.248 139.181 185.877 140.127 184.667C140.867 183.587 141.917 182.756 143.138 182.283C143.443 182.18 144.043 181.951 144.327 182.24C144.611 182.529 144.3 183.14 144.12 183.423Z" fill="#455A64"/>
<path d="M143.149 183.385C143.029 183.265 142.811 183.358 142.685 183.385C142.373 183.493 142.074 183.638 141.796 183.816C141.229 184.184 140.719 184.634 140.285 185.153C139.515 186.014 138.855 186.969 138.322 187.995C138.202 188.227 138.095 188.465 138 188.709L137.967 188.796C137.971 188.803 137.978 188.809 137.985 188.812C137.992 188.816 138 188.818 138.008 188.818C138.016 188.818 138.024 188.816 138.031 188.812C138.038 188.809 138.044 188.803 138.049 188.796C138.087 188.731 138.136 188.665 138.18 188.6C138.459 188.144 138.782 187.716 139.145 187.324C139.73 186.737 140.353 186.19 141.011 185.687C141.272 185.464 143.569 183.8 143.149 183.385ZM142.898 183.931C142.451 184.428 141.954 184.878 141.414 185.273C140.902 185.698 140.383 186.118 139.876 186.555C139.473 186.899 139.098 187.277 138.758 187.684C138.474 188.023 138.222 188.388 138.005 188.775C138.179 188.375 138.378 187.987 138.6 187.613C139.005 186.954 139.45 186.32 139.931 185.714C140.342 185.17 140.818 184.677 141.349 184.247C141.64 184.016 141.957 183.819 142.292 183.658C142.674 183.484 143.002 183.385 143.072 183.511C143.143 183.636 143.018 183.773 142.898 183.925V183.931Z" fill="white"/>
<path d="M139.991 185.731C139.571 186.374 139.162 187.024 138.758 187.678L138.212 188.6L138.005 188.933C137.347 189.923 136.768 190.965 136.276 192.047C136.038 192.627 135.856 193.228 135.731 193.842C135.731 193.907 135.731 193.967 135.692 194.033V194.136C135.692 194.136 135.692 194.175 135.692 194.196C135.594 194.742 135.523 195.287 135.452 195.789C135.36 196.52 135.316 197.251 135.278 197.971C135.278 197.971 135.278 198.015 135.278 198.036C135.281 198.069 135.281 198.102 135.278 198.135V198.184C135.275 198.215 135.275 198.246 135.278 198.276C135.278 198.516 135.251 198.751 135.24 198.985L135.016 198.953C134.978 198.225 134.995 197.496 135.065 196.771C135.062 196.756 135.062 196.742 135.065 196.727V196.515C135.065 196.427 135.065 196.34 135.092 196.253C135.092 196.045 135.141 195.838 135.169 195.631C135.288 194.418 135.551 193.224 135.954 192.074C135.954 192.042 135.981 192.014 135.992 191.982V191.944C135.998 191.919 136.007 191.895 136.02 191.873L136.063 191.769L136.145 191.584V191.524C136.639 190.579 137.195 189.668 137.809 188.796C137.918 188.633 138.022 188.469 138.131 188.311L138.316 188.038L138.594 187.634C139.036 187.002 139.489 186.374 139.925 185.736C139.991 185.671 139.991 185.703 139.991 185.731Z" fill="#455A64"/>
<path d="M158.678 198.435C158.455 199.253 158.171 200.071 157.882 200.846C157.718 201.298 157.549 201.746 157.391 202.198C157.157 202.677 157.038 203.204 157.042 203.737C157.047 203.76 157.047 203.784 157.042 203.807C157.033 203.814 157.023 203.818 157.012 203.82C157.001 203.822 156.99 203.821 156.979 203.817C156.969 203.813 156.96 203.807 156.953 203.798C156.946 203.79 156.94 203.78 156.938 203.769C156.941 203.758 156.941 203.747 156.938 203.737C156.882 203.589 156.844 203.435 156.824 203.278C156.721 202.861 156.642 202.439 156.589 202.013C156.471 201.143 156.462 200.261 156.562 199.389C156.655 198.609 156.851 197.844 157.145 197.115C157.361 196.424 157.735 195.793 158.236 195.271C158.705 194.911 158.945 195.631 159.011 195.991C159.086 196.82 158.973 197.656 158.678 198.435Z" fill="#455A64"/>
<path d="M158.198 196.564C157.893 196.515 157.527 197.464 157.358 197.873C157.095 198.513 156.912 199.184 156.813 199.869C156.636 201.104 156.667 202.359 156.905 203.584C156.905 203.633 156.905 203.687 156.905 203.737C156.908 203.747 156.908 203.758 156.905 203.769C156.908 203.78 156.913 203.79 156.92 203.798C156.927 203.807 156.936 203.813 156.947 203.817C156.957 203.821 156.968 203.822 156.979 203.82C156.99 203.818 157 203.814 157.009 203.807V203.524C157.009 203.426 157.009 203.333 157.009 203.24C157.112 202.232 157.322 201.237 157.636 200.273C157.991 199.116 158.596 196.624 158.198 196.564ZM156.96 203.415C156.96 203.551 156.96 203.687 156.96 203.824C156.96 203.72 156.922 203.622 156.911 203.518C156.732 202.437 156.699 201.336 156.813 200.246C156.882 199.629 157.017 199.022 157.216 198.435C157.32 198.121 157.446 197.814 157.593 197.518C157.653 197.393 157.996 196.607 158.176 196.673C158.356 196.738 158.225 197.464 158.225 197.48C158.225 197.627 158.187 197.775 158.165 197.927C158.116 198.227 158.051 198.533 157.98 198.833C157.822 199.482 157.631 200.126 157.435 200.769C157.174 201.63 157.015 202.517 156.96 203.415Z" fill="white"/>
<path d="M163.113 201.435C162.35 202.399 161.376 203.176 160.265 203.704C159.687 204.009 159.098 204.287 158.515 204.576C157.979 204.807 157.469 205.092 156.993 205.427L156.933 205.471C156.809 205.576 156.696 205.693 156.595 205.82C156.584 205.824 156.572 205.824 156.562 205.82C156.564 205.835 156.564 205.849 156.562 205.864V205.809C156.556 205.803 156.553 205.795 156.553 205.787C156.553 205.779 156.556 205.772 156.562 205.766C156.562 205.766 156.562 205.727 156.562 205.711C156.911 204.467 157.985 203.316 158.88 202.438C159.749 201.538 160.846 200.891 162.055 200.567C162.366 200.502 163.069 200.289 163.331 200.567C163.593 200.846 163.266 201.222 163.113 201.435Z" fill="#455A64"/>
<path d="M162.251 201.342C162.027 201.036 161.16 201.576 160.936 201.702C160.282 202.073 159.662 202.5 159.082 202.978C158.114 203.733 157.271 204.635 156.584 205.651C156.574 205.663 156.563 205.674 156.551 205.684C156.548 205.702 156.548 205.72 156.551 205.738C156.545 205.744 156.543 205.752 156.543 205.76C156.543 205.768 156.545 205.776 156.551 205.782L156.595 205.744L156.949 205.438L157.009 205.395C157.88 204.747 158.791 204.154 159.736 203.622C160.388 203.241 161.002 202.799 161.569 202.302C161.695 202.204 162.442 201.571 162.251 201.342ZM161.924 201.887C161.105 202.88 159.851 203.524 158.771 204.157C158.026 204.578 157.325 205.071 156.676 205.629C157.333 204.73 158.107 203.923 158.978 203.229C159.457 202.817 159.96 202.433 160.484 202.078C160.767 201.884 161.064 201.71 161.373 201.56C161.556 201.468 161.75 201.398 161.951 201.353C162.355 201.271 162.065 201.691 161.924 201.887Z" fill="white"/>
<path d="M156.033 208.384C156.023 208.388 156.013 208.39 156.003 208.39C155.992 208.39 155.982 208.388 155.973 208.384V208.411C155.973 208.411 155.973 208.411 155.945 208.411C155.01 207.202 154.334 205.813 153.96 204.331C153.824 203.713 153.791 203.078 153.862 202.449C153.916 202.024 154.02 201.162 154.407 200.9C155.236 200.387 155.498 203.136 155.553 203.551C155.629 204.309 155.64 205.073 155.7 205.826C155.76 206.578 155.891 207.462 156.016 208.302C156.029 208.311 156.038 208.324 156.041 208.34C156.044 208.355 156.041 208.371 156.033 208.384Z" fill="#455A64"/>
<path d="M159.709 206.327C159.512 206.819 159.211 207.262 158.826 207.626C158.095 208.384 157.189 208.967 156.425 209.666C156.305 209.769 156.191 209.878 156.076 209.987L155.967 210.151C155.967 210.151 155.967 210.08 156.027 209.971C156.37 208.932 156.826 207.933 157.385 206.993C157.727 206.485 158.13 206.021 158.585 205.613C158.804 205.427 159.316 205.035 159.638 205.182C159.96 205.329 159.802 206.066 159.709 206.327Z" fill="#455A64"/>
<path d="M159.218 205.902C158.891 205.629 157.729 207.14 157.582 207.331C157.007 208.051 156.53 208.843 156.164 209.687C156.12 209.78 156.076 209.873 156.038 209.971C156 210.069 155.978 210.146 155.978 210.151C155.978 210.157 156.076 209.998 156.093 209.988L156.147 209.927L156.431 209.666C156.922 209.12 157.418 208.575 157.898 208.029C158.247 207.636 158.562 207.214 158.842 206.769C158.896 206.687 159.36 206.022 159.218 205.902ZM159.044 206.349C158.324 207.707 157.124 208.684 156.142 209.835L156.093 209.889C156.111 209.856 156.128 209.821 156.142 209.786C156.463 209.097 156.849 208.439 157.293 207.822C157.564 207.44 157.859 207.076 158.176 206.731C158.345 206.537 158.528 206.355 158.722 206.186C158.809 206.12 159.049 205.935 159.115 205.984C159.18 206.033 159.082 206.251 159.044 206.349Z" fill="white"/>
<path d="M165.044 195.047C163.62 197.327 160.68 198.053 159.115 200.224C159.065 200.289 159.022 200.36 158.978 200.426C158.974 200.432 158.968 200.438 158.96 200.442C158.953 200.446 158.945 200.448 158.937 200.448C158.929 200.448 158.921 200.446 158.914 200.442C158.907 200.438 158.901 200.432 158.896 200.426C158.896 200.426 158.896 200.426 158.896 200.387L158.929 200.338C159.389 198.873 160.107 197.502 161.051 196.291C161.791 195.211 162.841 194.38 164.062 193.907C164.367 193.804 164.973 193.575 165.256 193.864C165.54 194.153 165.218 194.764 165.044 195.047Z" fill="#455A64"/>
<path d="M164.073 195.009C163.953 194.889 163.729 194.982 163.604 195.009C163.291 195.117 162.993 195.262 162.715 195.44C162.149 195.808 161.641 196.258 161.209 196.776C160.437 197.638 159.776 198.593 159.24 199.618C159.12 199.853 159.016 200.087 158.918 200.333L158.885 200.42C158.89 200.427 158.896 200.432 158.903 200.436C158.91 200.44 158.918 200.442 158.926 200.442C158.934 200.442 158.942 200.44 158.95 200.436C158.957 200.432 158.963 200.427 158.967 200.42L159.082 200.251C159.361 199.795 159.684 199.367 160.047 198.975C160.634 198.391 161.257 197.844 161.913 197.338C162.191 197.087 164.487 195.418 164.073 195.009ZM163.816 195.555C163.371 196.053 162.874 196.503 162.333 196.896C161.82 197.322 161.302 197.742 160.795 198.178C160.4 198.524 160.035 198.901 159.704 199.307C159.418 199.647 159.164 200.012 158.945 200.398C159.121 200 159.319 199.612 159.54 199.236C159.944 198.577 160.389 197.943 160.871 197.338C161.282 196.795 161.756 196.302 162.284 195.871C162.575 195.64 162.892 195.442 163.227 195.282C163.609 195.107 163.936 195.009 164.007 195.135C164.078 195.26 163.942 195.396 163.816 195.549V195.555Z" fill="white"/>
<path d="M160.915 197.355C160.495 197.998 160.085 198.647 159.682 199.302C159.485 199.607 159.3 199.918 159.109 200.224L158.907 200.556C158.245 201.545 157.665 202.587 157.173 203.671C156.938 204.252 156.755 204.852 156.627 205.466C156.627 205.531 156.627 205.591 156.589 205.657V205.76C156.589 205.76 156.589 205.798 156.589 205.82C156.491 206.366 156.42 206.911 156.355 207.413C156.256 208.144 156.213 208.875 156.175 209.595V209.66C156.175 209.693 156.175 209.726 156.175 209.758V209.807C156.177 209.838 156.177 209.869 156.175 209.9C156.175 210.135 156.175 210.369 156.136 210.609L155.913 210.577C155.875 209.849 155.891 209.12 155.962 208.395C155.962 208.395 155.962 208.367 155.962 208.351C155.962 208.335 155.962 208.209 155.962 208.138C155.965 208.051 155.975 207.963 155.989 207.877C155.989 207.669 156.033 207.462 156.06 207.255C156.181 206.042 156.444 204.849 156.845 203.698C156.845 203.666 156.873 203.633 156.884 203.606V203.562C156.881 203.54 156.881 203.518 156.884 203.496L156.927 203.393C156.955 203.327 156.982 203.267 157.015 203.202V203.147C157.506 202.186 158.062 201.258 158.678 200.371L159.005 199.886L159.185 199.613L159.464 199.209C159.905 198.571 160.358 197.949 160.795 197.311C160.882 197.295 160.931 197.327 160.915 197.355Z" fill="#455A64"/>
<path d="M164.695 216.855H69.3152C69.3152 216.855 68.9606 207.582 72.3316 204.211C75.7025 200.84 78.9535 200.022 80.0444 199.302C82.6159 197.32 85.0287 195.141 87.2609 192.784C89.7209 190.16 93.2609 186.238 95.0937 185.867C96.9264 185.496 105.299 184.04 107.028 184.624C108.758 185.207 118.118 191.993 119.121 192.287C120.125 192.582 138.185 199.869 139.822 200.153C141.458 200.436 150.829 202.64 154.947 204.653C160.593 207.418 164.695 216.855 164.695 216.855Z" fill="#263238"/>
<path d="M136.603 199.046C132.414 199.236 126.212 202.946 124.985 203.513C123.179 204.358 112.319 201.331 108.037 200.966C103.756 200.6 102.392 195.282 102.654 194.42C102.916 193.558 97.9737 192.031 98.5901 189.98C98.9501 188.78 110.094 186.391 110.094 186.391C113.508 188.573 118.412 192.069 119.121 192.276C119.83 192.484 130.92 196.94 136.603 199.046Z" fill="#37474F"/>
<path d="M91.4446 199.307C91.5264 197.889 96.2228 195.451 97.4446 195.675C98.6665 195.898 101.067 197.927 101.405 198.718C101.743 199.509 103.319 203.333 101.814 203.36C100.308 203.387 97.4501 201.178 95.8737 201.118C94.2973 201.058 91.3464 200.469 91.4446 199.307Z" fill="#37474F"/>
<path d="M126.758 204.767C126.463 203.884 130.821 202.171 131.956 202.329C133.091 202.487 134.181 204.353 133.183 204.844C132.185 205.335 130.712 204.642 129.943 204.844C129.174 205.046 126.981 205.438 126.758 204.767Z" fill="#37474F"/>
<path d="M69.2169 218.889H48.953C46.7712 218.889 51.4458 213.489 53.3549 212.704C55.264 211.918 60.2605 212.366 61.4877 213.249C62.715 214.133 67.9187 216.882 68.5788 217.34C68.8261 217.507 69.0187 217.743 69.1322 218.018C69.2458 218.294 69.2753 218.597 69.2169 218.889Z" fill="#37474F"/>
<path d="M142.358 219.342H183.595C183.595 219.342 181.664 217.16 179.531 216.713C177.398 216.266 172.571 214.858 171.698 214.084C170.826 213.309 163.473 210.446 160.669 210.522C157.865 210.598 153.224 213.157 152.542 213.795C151.86 214.433 149.498 216.735 148.723 216.926C147.949 217.117 144.267 217.564 142.358 219.342Z" fill="#37474F"/>
<path d="M175.489 215.715C174.704 215.846 173.907 215.903 173.111 215.884C172.778 215.851 169.544 214.586 168.355 214.455C167.166 214.324 160.718 214.106 160.249 213.538C159.895 213.113 162.355 211.771 163.975 211.073C167.182 211.924 171.066 213.533 171.698 214.084C172.146 214.482 173.64 215.038 175.282 215.557L175.489 215.715Z" fill="#455A64"/>
<path d="M164.695 215.562C164.695 215.278 166.833 215.066 167.324 215.126C167.815 215.186 169.942 215.922 169.506 216.064C168.827 216.239 168.127 216.31 167.427 216.277C166.751 216.233 164.695 215.884 164.695 215.562Z" fill="#455A64"/>
</svg>
