<svg width="148" height="139" viewBox="0 0 148 139" fill="none" xmlns="http://www.w3.org/2000/svg">
<path d="M76.048 9.97722C76.3647 7.40918 78.5369 5.0141 81.1255 5.0141C82.6528 5.0141 84.104 5.81149 85.1476 6.92547C85.518 7.30327 85.86 7.70795 86.1707 8.1362C86.3894 7.6554 86.6442 7.19186 86.9329 6.74958C87.7361 5.4509 89.0026 4.38089 90.5006 4.08187C93.0364 3.57471 95.6367 5.49195 96.4546 7.94859C97.2725 10.4052 96.5924 13.158 95.2468 15.3683C93.9012 17.5787 91.5882 20.4663 87.3316 21.8998C84.4 21.5217 80.4542 18.9155 78.7011 17.0129C76.948 15.1104 75.7402 12.5423 76.048 9.97722Z" fill="#A4C0E9"/>
<path d="M76.9919 14.5856C77.0202 14.5888 77.0487 14.5888 77.077 14.5856L77.3261 14.568L78.2848 14.4889L81.8026 14.1664L81.7381 14.1283C82.1632 15.2335 82.6586 16.5292 83.2039 17.9393L83.2919 18.168L83.3505 17.9276C83.799 16.0748 84.2974 13.9964 84.8163 11.8065C84.9775 11.1293 85.1387 10.4609 85.2941 9.81012L85.1446 9.83944L87.8299 13.5332L87.8563 13.5684H87.9003L94.08 12.9234L95.8389 12.7299L96.3021 12.6713C96.3559 12.6684 96.4091 12.6586 96.4604 12.642C96.4068 12.6368 96.3528 12.6368 96.2991 12.642L95.836 12.6742L94.077 12.8267L87.8915 13.413L87.9589 13.4423L85.2853 9.7427L85.1798 9.59319L85.1387 9.77201C84.9804 10.4228 84.8221 11.0883 84.658 11.7684L83.1922 17.8924H83.3388C82.7847 16.4765 82.2775 15.1837 81.8437 14.0814L81.829 14.0374H81.7821L78.2642 14.4127L77.3115 14.5241L77.0623 14.5563C77.0377 14.563 77.014 14.5728 76.9919 14.5856Z" fill="#FAFAFA"/>
<path d="M139.71 26.004H141.644V34.6784H139.71V26.004Z" fill="#A4C0E9"/>
<path d="M145.016 29.3724V31.3072H136.341V29.3724H145.016Z" fill="#A4C0E9"/>
<path d="M133.474 30.3632C133.481 30.3244 133.486 30.2853 133.489 30.2459C133.489 30.1609 133.503 30.0466 133.512 29.9029C133.512 29.8267 133.512 29.7417 133.53 29.6508C133.547 29.56 133.559 29.4573 133.577 29.3577C133.609 29.1061 133.66 28.8572 133.729 28.6131C133.899 27.9391 134.17 27.2946 134.532 26.7017C135.387 25.2691 136.715 24.1798 138.287 23.6215C139.858 23.0633 141.576 23.0713 143.142 23.6441C143.463 23.7589 143.776 23.896 144.078 24.0545C144.383 24.2226 144.677 24.4116 144.957 24.6203C145.242 24.832 145.514 25.0621 145.769 25.3092C146.02 25.5702 146.255 25.8473 146.47 26.1388C146.913 26.7369 147.259 27.4019 147.493 28.1088C147.985 29.5744 147.985 31.1608 147.493 32.6264C147.259 33.3336 146.914 33.9987 146.47 34.5964C146.256 34.889 146.022 35.1663 145.769 35.426C145.515 35.6749 145.243 35.906 144.957 36.1178C144.677 36.3265 144.383 36.5156 144.078 36.6836C143.775 36.8409 143.463 36.978 143.142 37.094C141.576 37.6624 139.86 37.6685 138.289 37.1113C136.719 36.554 135.391 35.4681 134.532 34.0394C134.169 33.4457 133.898 32.8002 133.729 32.1251C133.66 31.882 133.609 31.6341 133.577 31.3834C133.559 31.272 133.539 31.1723 133.53 31.0902C133.521 31.0081 133.53 30.9143 133.512 30.8381C133.512 30.6915 133.495 30.5801 133.489 30.4951C133.487 30.4557 133.482 30.4166 133.474 30.3779C133.471 30.4169 133.471 30.4561 133.474 30.4951C133.474 30.5801 133.474 30.6945 133.474 30.8381V31.0932C133.474 31.187 133.501 31.2866 133.512 31.3863C133.541 31.6395 133.588 31.8903 133.653 32.1368C133.815 32.8211 134.081 33.4765 134.442 34.0804C134.97 34.9727 135.683 35.7419 136.533 36.3364C137.383 36.931 138.35 37.3372 139.37 37.5279C140.645 37.7643 141.96 37.6581 143.181 37.2201C143.507 37.1021 143.825 36.963 144.133 36.8038C144.763 36.4567 145.344 36.0269 145.86 35.5257C146.118 35.2612 146.357 34.9791 146.575 34.6814C147.031 34.0714 147.385 33.3912 147.622 32.6674C147.863 31.9218 147.991 31.144 148 30.3603C147.989 29.5777 147.862 28.801 147.622 28.0561C147.384 27.3337 147.03 26.6546 146.575 26.045C146.356 25.7469 146.117 25.4639 145.86 25.1978C145.599 24.9467 145.322 24.7127 145.03 24.4972C144.226 23.9041 143.309 23.4827 142.335 23.2593C141.361 23.0359 140.352 23.0152 139.37 23.1985C138.355 23.3934 137.394 23.8019 136.549 24.3968C135.704 24.9916 134.996 25.7593 134.471 26.6489C134.111 27.2521 133.845 27.9064 133.682 28.5896C133.618 28.8372 133.571 29.0889 133.542 29.343C133.542 29.4515 133.509 29.5541 133.503 29.6362V29.8883C133.503 30.0349 133.503 30.1492 133.503 30.2342C133.49 30.2762 133.48 30.3194 133.474 30.3632Z" fill="#A4C0E9"/>
<path d="M28.908 12.6937C28.8576 10.8608 30.5475 9.44829 32.2711 8.77568C33.9947 8.10307 35.8696 7.85084 37.3914 6.82931C38.7366 5.92128 39.6404 4.50879 40.7797 3.35694C42.1853 1.93237 43.9447 0.907475 45.8773 0.387434C47.8099 -0.132606 49.8461 -0.129061 51.7768 0.397704C53.7076 0.924469 55.4634 1.95548 56.8641 3.38494C58.2648 4.81439 59.2599 6.5908 59.7474 8.53186C60.399 11.1382 59.9534 14.2196 57.8977 15.9558C55.5099 17.9653 51.9745 17.5197 48.9183 16.8933C45.8621 16.2669 42.3981 15.6321 39.8464 17.444C38.3078 18.5286 37.425 20.29 36.4833 21.9211C35.5417 23.5522 34.3814 25.2127 32.5822 25.8264C30.7829 26.4402 28.3783 25.3808 28.3153 23.5017" fill="#263238"/>
<path d="M29.0299 13.6984C29.2317 15.2328 28.1219 16.6074 27.0163 17.692C25.9107 18.7766 24.6621 19.9243 24.4646 21.4755C24.2375 23.2705 25.5492 25.0361 25.1666 26.8059C24.927 27.9284 24.0526 28.7901 23.5229 29.8117C22.8209 31.2815 22.7052 32.9636 23.1992 34.5158C23.6532 36.0628 24.3805 39.5141 25.4567 40.7164C28.4288 44.0375 33.1581 46.9045 37.5007 47.9008C41.8432 48.8971 46.3581 48.9055 50.8058 48.6322C54.4463 48.4094 58.6375 48.5776 61.6727 43.5666C63.2449 40.9687 64.0226 37.5215 64.855 34.604C65.5781 32.0817 66.2002 29.4039 65.4519 26.8984C65.0316 25.4439 64.1361 24.1449 63.7074 22.6946C63.1693 20.8701 63.3668 18.9111 63.1524 17.032C62.9183 14.9762 62.1966 13.0061 61.0475 11.2855C59.8983 9.56486 58.3548 8.14355 56.5455 7.1398C54.7362 6.13605 52.7134 5.57887 50.6453 5.51463C48.5772 5.45039 46.5237 5.88095 44.6556 6.77047" fill="#263238"/>
<path d="M61.4078 19.9915C61.0673 14.7662 57.5908 8.35951 52.3822 8.92282L36.1302 13.0678C35.3675 13.1516 34.6637 13.5178 34.1573 14.0942C33.6508 14.6706 33.3784 15.4157 33.3935 16.1828L35.2221 55.3962L35.1087 55.4172C35.1087 55.4172 38.8122 66.4775 49.5614 63.1018C51.6928 62.4292 52.6681 60.1003 53.0884 57.6999H53.1978C53.1978 57.4141 53.1978 57.1492 53.1978 56.8592C53.407 55.0713 53.4281 53.2663 53.2608 51.474C53.2902 48.3085 53.286 47.0138 53.2902 47.0432C53.2944 47.0726 59.9659 45.9166 61.328 37.202C62.0216 32.9015 61.7862 25.797 61.4078 19.9915Z" fill="#FFBE9D"/>
<path d="M58.7889 25.2421C58.7935 25.5333 58.6839 25.8148 58.4835 26.0261C58.2832 26.2375 58.008 26.362 57.7169 26.3729C57.5748 26.3844 57.4317 26.3673 57.2962 26.3228C57.1607 26.2782 57.0354 26.2071 56.9278 26.1135C56.8201 26.02 56.7322 25.9058 56.6692 25.7779C56.6062 25.6499 56.5694 25.5106 56.5609 25.3682C56.5574 25.0766 56.668 24.7952 56.869 24.5839C57.07 24.3727 57.3457 24.2483 57.6371 24.2374C57.779 24.226 57.9219 24.243 58.0571 24.2876C58.1924 24.3322 58.3174 24.4034 58.4247 24.497C58.532 24.5907 58.6196 24.7048 58.6821 24.8328C58.7447 24.9607 58.781 25.0999 58.7889 25.2421Z" fill="#263238"/>
<path d="M59.8777 23.6909C59.739 23.838 58.8898 23.2116 57.6875 23.2158C56.4852 23.2201 55.5856 23.8254 55.4721 23.6783C55.409 23.6152 55.552 23.3504 55.9345 23.0729C56.4525 22.709 57.0714 22.5165 57.7043 22.5222C58.3301 22.517 58.9412 22.7114 59.4489 23.0771C59.8189 23.363 59.9492 23.6236 59.8777 23.6909Z" fill="#263238"/>
<path d="M46.972 25.2421C46.9755 25.5337 46.8649 25.8151 46.6639 26.0264C46.4628 26.2376 46.1872 26.362 45.8958 26.3729C45.7538 26.3843 45.611 26.3673 45.4757 26.3227C45.3405 26.2781 45.2155 26.2069 45.1082 26.1133C45.0008 26.0196 44.9133 25.9055 44.8508 25.7775C44.7882 25.6496 44.7519 25.5104 44.7439 25.3682C44.7393 25.077 44.849 24.7955 45.0493 24.5842C45.2497 24.3728 45.5249 24.2483 45.8159 24.2374C45.9582 24.2253 46.1015 24.242 46.2372 24.2863C46.373 24.3306 46.4985 24.4017 46.6063 24.4954C46.7141 24.5891 46.802 24.7034 46.8648 24.8317C46.9276 24.9599 46.964 25.0995 46.972 25.2421Z" fill="#263238"/>
<path d="M48.0564 23.9389C47.9177 24.0861 47.0685 23.4639 45.8662 23.4681C44.6639 23.4723 43.7853 24.0776 43.655 23.9305C43.592 23.8632 43.7307 23.6026 44.1174 23.321C44.6369 22.9601 45.2548 22.7678 45.8873 22.7703C46.512 22.7671 47.1216 22.963 47.6276 23.3294C47.9976 23.611 48.1237 23.8927 48.0564 23.9389Z" fill="#263238"/>
<path d="M52.4412 32.8468C52.4412 32.7796 53.181 32.6493 54.3917 32.4895C54.6986 32.4601 54.9887 32.397 55.0433 32.1868C55.0677 31.8698 54.9944 31.5529 54.8331 31.2788L53.9209 28.9415C52.6598 25.6162 51.7349 22.8796 51.8694 22.8333C52.004 22.7871 53.1306 25.4355 54.3917 28.7649C54.7 29.5833 54.9915 30.3666 55.2661 31.1149C55.4611 31.4837 55.5192 31.9096 55.4301 32.3172C55.3855 32.4254 55.317 32.5222 55.2296 32.6001C55.1422 32.678 55.0383 32.7351 54.9256 32.767C54.7557 32.8137 54.5806 32.8391 54.4043 32.8426C53.202 32.9099 52.4454 32.9183 52.4412 32.8468Z" fill="#263238"/>
<path d="M53.3029 47.0768C49.2004 47.1482 45.1588 46.0785 41.6288 43.987C41.6288 43.987 44.5715 50.0111 53.2944 49.1787L53.3029 47.0768Z" fill="#FFBE9D"/>
<path d="M51.9367 35.7475C51.7078 35.4599 51.4093 35.2355 51.0694 35.0957C50.7294 34.9559 50.3594 34.9053 49.9945 34.9487C49.7288 34.9723 49.4706 35.0497 49.2358 35.1762C49.0009 35.3027 48.7942 35.4756 48.6282 35.6844C48.4703 35.8856 48.3773 36.13 48.3615 36.3853C48.3458 36.6406 48.408 36.8946 48.54 37.1137C48.7322 37.3309 48.9856 37.4849 49.267 37.5554C49.5483 37.6259 49.8444 37.6097 50.1164 37.5089C50.6835 37.3061 51.205 36.9932 51.6508 36.5882C51.7867 36.4945 51.9025 36.3744 51.9913 36.2351C52.0339 36.1678 52.0565 36.0898 52.0565 36.0102C52.0565 35.9306 52.0339 35.8526 51.9913 35.7853" fill="#FFBE9D"/>
<path d="M48.9056 33.6876C49.099 33.6876 49.1032 34.9824 50.2256 35.903C51.348 36.8237 52.7479 36.6807 52.7479 36.8657C52.7479 36.9456 52.4368 37.1179 51.8525 37.1348C51.088 37.1478 50.3435 36.8902 49.7506 36.4075C49.1821 35.944 48.8158 35.2778 48.7291 34.5494C48.6702 34.0029 48.8131 33.6792 48.9056 33.6876Z" fill="#263238"/>
<path d="M48.5988 21.8328C48.481 22.1607 47.2787 22.0094 45.8705 22.1817C44.4622 22.3541 43.3187 22.7408 43.1296 22.4508C43.0455 22.312 43.2431 22.001 43.7055 21.6857C44.3131 21.287 45.0084 21.0417 45.7317 20.971C46.4528 20.8812 47.185 20.9648 47.8673 21.2148C48.3844 21.425 48.645 21.6773 48.5988 21.8328Z" fill="#263238"/>
<path d="M59.4279 20.2101C59.2135 20.4833 58.3853 20.2101 57.389 20.2101C56.3927 20.2101 55.5519 20.3951 55.3544 20.1134C55.2703 19.9747 55.4048 19.693 55.7747 19.4408C56.2688 19.129 56.8444 18.9713 57.4283 18.9878C58.0123 19.0042 58.5781 19.1941 59.0537 19.5333C59.4026 19.7981 59.5288 20.0798 59.4279 20.2101Z" fill="#263238"/>
<path d="M30.0472 41.7337C31.2507 41.9764 32.4947 41.929 33.6763 41.5956C34.8579 41.2622 35.9431 40.6523 36.8423 39.8164C37.7415 38.9804 38.4288 37.9425 38.8473 36.7883C39.2659 35.6342 39.4037 34.3969 39.2494 33.1789C38.9804 31.0392 37.8243 28.8616 38.5684 26.8354C39.5479 24.1575 43.3019 23.3336 44.2982 20.6599C44.8783 19.1087 44.3571 17.2969 45.0129 15.7709C45.6308 14.3374 47.1358 13.5134 48.6029 12.9837C50.0701 12.454 51.6381 12.0883 52.8698 11.134C54.1016 10.1798 54.8667 8.37212 54.0721 7.03109C47.5658 7.8101 41.1757 9.36248 35.0372 11.6553C33.6121 12.185 32.1197 12.824 31.2789 14.0893C30.3877 15.4261 30.4382 17.1539 30.5054 18.7598L31.6026 42.2256" fill="#263238"/>
<path d="M30.5938 44.7269C30.5938 44.7269 30.5392 44.7016 30.4509 44.6386L30.0641 44.3443C29.7278 44.0795 29.2234 43.6885 28.6222 43.1462C27.8698 42.4988 27.1839 41.7778 26.5749 40.9939C25.7416 39.9512 25.181 38.7173 24.9439 37.4038C24.7768 36.6047 24.7909 35.7783 24.9852 34.9853C25.1794 34.1924 25.5488 33.453 26.0663 32.8216C26.698 32.1934 27.3768 31.6144 28.0967 31.0896C28.8217 30.5402 29.3721 29.7926 29.6816 28.9373C30.3248 27.1632 30.0389 25.1076 30.2869 23.0056C30.5332 20.8128 31.3896 18.733 32.7588 17.0026C33.4646 16.131 34.3435 15.4153 35.3399 14.9007C36.3183 14.4558 37.3395 14.1121 38.3877 13.8749C39.3637 13.6294 40.2765 13.1795 41.0656 12.5549C41.8074 11.9335 42.4609 11.2136 43.0077 10.4152C44.1007 8.85974 44.9121 7.20343 45.9504 5.82037C46.4425 5.1432 47.0188 4.53152 47.6656 4.00011C48.2728 3.51268 48.9617 3.13692 49.7002 2.8903C50.3313 2.64953 51.0097 2.55913 51.6818 2.62627C52.3539 2.6934 53.001 2.91622 53.572 3.27705C53.9734 3.58859 54.3038 3.98226 54.5408 4.43175C54.7779 4.88123 54.9163 5.37617 54.9466 5.88343C54.9988 6.5261 54.8116 7.16537 54.4211 7.67846C54.3207 7.80862 54.2017 7.92335 54.068 8.01898C54.025 8.05639 53.9769 8.08752 53.9251 8.11146C53.9606 8.06742 54 8.02662 54.0428 7.98955C54.1623 7.88393 54.2682 7.76391 54.3581 7.63223C54.7018 7.12259 54.851 6.50645 54.7785 5.89604C54.7386 5.41618 54.5978 4.95016 54.3652 4.52853C54.1326 4.10689 53.8136 3.73915 53.429 3.44941C52.8843 3.11975 52.2705 2.92086 51.6359 2.86834C51.0014 2.81582 50.3632 2.91111 49.7717 3.14673C49.0669 3.38948 48.4108 3.75528 47.8337 4.22712C47.2143 4.75233 46.6609 5.35086 46.1858 6.00955C45.1769 7.36739 44.3824 9.0237 43.2726 10.6338C42.7118 11.4642 42.0384 12.2126 41.2716 12.8576C40.4573 13.5023 39.5162 13.9679 38.5096 14.2238C37.4844 14.4579 36.4857 14.7959 35.5291 15.2328C34.5775 15.7282 33.7388 16.4152 33.0657 17.2506C31.7382 18.9219 30.9053 20.9315 30.6611 23.0519C30.4046 25.0823 30.6989 27.1716 30.0137 29.0592C29.683 29.9698 29.0997 30.7675 28.3321 31.3587C27.6234 31.8692 26.9531 32.4312 26.3269 33.0402C25.8335 33.6348 25.4793 34.3323 25.2902 35.0814C25.1011 35.8306 25.0819 36.6126 25.2339 37.3701C25.4487 38.6454 25.9742 39.848 26.7641 40.8719C27.3565 41.6552 28.0193 42.3827 28.7441 43.0453C29.3369 43.6002 29.8161 44.008 30.1356 44.3065C30.2968 44.4371 30.4498 44.5775 30.5938 44.7269Z" fill="#455A64"/>
<path d="M29.0005 45.8115C27.2097 44.0795 24.1535 45.5845 22.6485 47.5687C21.1435 49.5529 20.08 52.1172 17.7973 53.1177C15.5146 54.1182 12.5509 53.2565 10.6508 54.8455C8.01077 57.0399 9.49472 62.1223 6.63611 64.0309C5.50528 64.7876 4.00871 64.7624 2.79801 65.3845C-0.0563965 66.8559 -0.0227547 70.8831 0.418648 74.0654C1.01979 78.5425 1.70081 83.1667 4.16425 86.9502C6.6277 90.7336 11.4243 93.3778 15.687 91.9233C19.7857 90.5234 21.8918 86.101 23.5608 82.1032C25.8645 76.5597 28.171 71.0289 30.4803 65.5106C31.8129 62.3115 33.1623 59.0619 33.5953 55.6232C34.0283 52.1845 33.4482 48.4767 31.258 45.7778" fill="#263238"/>
<path d="M27.8529 41.9944C26.5539 41.8388 25.5576 43.4321 25.9023 44.6974C26.247 45.9628 27.4577 46.7994 28.6978 47.2197C29.3822 47.4913 30.1262 47.5769 30.8544 47.4678C31.2184 47.411 31.561 47.2595 31.848 47.0286C32.135 46.7977 32.3563 46.4954 32.4897 46.152C32.626 45.8558 32.6398 45.5177 32.528 45.2114C32.4162 44.9051 32.1878 44.6554 31.8927 44.5167C31.052 43.9828 30.5349 43.5624 29.8581 43.1883C28.8239 42.6207 28.887 42.5451 27.8529 41.9734" fill="#A4C0E9"/>
<path d="M57.7968 56.0142L52.7438 52.1845L33.6962 50.9654L32.9311 53.5213L39.1275 92.1798L34.2385 138.304H60.8109L57.7968 56.0142Z" fill="#A4C0E9"/>
<g opacity="0.3">
<path d="M37.404 121.943C38.0135 121.291 39.0098 120.4 39.8968 120.379C46.2614 120.24 52.7564 119.606 59.121 119.463L59.6296 138.313C58.1079 135.631 56.6659 132.848 56.2666 129.779C56.09 128.442 55.8462 126.836 54.6481 126.273C53.9587 125.949 53.1473 126.075 52.4032 126.227C50.1037 126.681 47.8211 127.273 45.4837 127.42C43.1464 127.568 40.6956 127.223 38.7324 125.945C38.0354 125.534 37.4741 124.927 37.1181 124.2C36.9486 123.835 36.8855 123.43 36.9361 123.03C36.9866 122.631 37.1488 122.254 37.404 121.943Z" fill="black"/>
</g>
<path d="M53.677 56.7961L54.2698 51.268C54.2941 51.0364 54.2722 50.8023 54.2052 50.5792C54.1383 50.3562 54.0277 50.1486 53.8798 49.9687C53.732 49.7888 53.5498 49.64 53.344 49.5311C53.1381 49.4222 52.9127 49.3553 52.6807 49.3343L35.1507 47.7494C35.0386 47.7409 34.9259 47.7549 34.8192 47.7907C34.7126 47.8265 34.6143 47.8833 34.53 47.9578C34.4457 48.0322 34.3772 48.1229 34.3286 48.2243C34.28 48.3257 34.2522 48.4358 34.2469 48.5482L34.0493 55.1272L39.1276 63.7408L44.3445 65.4013H50.7259L54.3959 61.4834L53.677 56.7961Z" fill="#A4C0E9"/>
<path d="M36.6389 53.0168C36.8741 53.0069 37.1085 52.983 37.3409 52.9454C37.9753 52.8859 38.6134 52.8747 39.2495 52.9117C40.1949 52.9797 41.1337 53.1202 42.0576 53.3321C43.1044 53.5507 44.2436 53.8576 45.4501 54.1519C46.5825 54.4476 47.7366 54.6528 48.9015 54.7656C49.8599 54.856 50.8267 54.7907 51.7643 54.5722C52.3948 54.4244 52.9969 54.1745 53.5467 53.8324C53.6932 53.7375 53.8336 53.6336 53.9671 53.5213C54.0596 53.4456 54.1058 53.3994 54.0974 53.3952C54.089 53.391 53.8914 53.5339 53.4963 53.7567C52.9391 54.0637 52.34 54.2874 51.718 54.4209C50.7951 54.6144 49.8477 54.6626 48.9099 54.5638C47.7566 54.4408 46.6141 54.2314 45.4922 53.9375C44.2899 53.6474 43.1464 53.3447 42.0913 53.1345C41.1559 52.934 40.2052 52.813 39.2495 52.773C38.6045 52.7454 37.9584 52.7792 37.3199 52.8739C37.0929 52.9131 36.9205 52.9468 36.8028 52.9748C36.6977 52.9916 36.6347 53.0084 36.6389 53.0168Z" fill="#263238"/>
<g opacity="0.3">
<path d="M53.2609 53.8871C53.7317 55.1776 53.7443 56.7751 52.7901 57.763C52.0166 58.5701 50.768 58.7719 49.6708 58.5533C48.5842 58.2736 47.5534 57.8101 46.623 57.1829C44.21 55.7493 41.755 54.2612 39.0141 53.6516C38.8341 53.6302 38.6638 53.5589 38.5222 53.4456C38.4895 53.4153 38.4634 53.3786 38.4455 53.3377C38.4277 53.2969 38.4185 53.2527 38.4185 53.2081C38.4185 53.1635 38.4277 53.1194 38.4455 53.0785C38.4634 53.0377 38.4895 53.0009 38.5222 52.9706C38.5911 52.9302 38.6694 52.9084 38.7493 52.9076C41.1749 52.6637 43.5837 53.3279 45.9588 53.8828C48.334 54.4377 50.8773 54.7951 53.1684 53.9669" fill="black"/>
</g>
<path d="M49.9105 49.1577C50.1573 49.2925 50.3646 49.4896 50.5116 49.7294C50.7891 50.175 50.7722 50.9317 50.7512 51.7473C50.705 53.3826 50.4359 54.6899 50.499 54.6899C50.6215 54.4236 50.7023 54.1401 50.7386 53.8492C50.8716 53.1558 50.9489 52.4529 50.9698 51.7473C50.985 51.3562 50.9766 50.9645 50.9446 50.5744C50.921 50.2447 50.8171 49.9257 50.6419 49.6453C50.5219 49.4556 50.3517 49.3028 50.1501 49.2039C50.0029 49.1451 49.9147 49.1451 49.9105 49.1577Z" fill="#263238"/>
<path d="M45.2778 53.9627C45.2728 53.0699 45.3149 52.1775 45.4039 51.2891C45.6056 49.8219 46.0933 48.7079 46.026 48.6827C45.8666 48.897 45.7457 49.1374 45.6687 49.3931C45.4391 49.9941 45.277 50.6187 45.1853 51.2554C45.0944 51.8931 45.076 52.539 45.1306 53.1808C45.1349 53.4479 45.1847 53.7123 45.2778 53.9627Z" fill="#263238"/>
<path d="M39.632 48.2161C39.4761 48.4071 39.3629 48.6292 39.2999 48.8677C39.1102 49.4315 39.0317 50.0269 39.0687 50.6207C39.1087 51.2159 39.2658 51.7973 39.5312 52.3316C39.6253 52.5605 39.7689 52.7658 39.9515 52.9328C39.5708 52.2127 39.346 51.4206 39.2917 50.608C39.2374 49.7953 39.3548 48.9803 39.6363 48.2161H39.632Z" fill="#263238"/>
<path d="M64.2161 58.5028C64.2161 58.5028 70.1939 62.5049 71.783 69.7355C73.0189 75.4191 76.4072 105.443 76.4072 105.443L82.3304 116.97L78.4629 126.168C75.1506 126.402 71.8618 125.463 69.1724 123.515L66.5702 121.623L61.7989 114.548L64.2161 58.5028Z" fill="#EBEBEB"/>
<path d="M54.0848 53.1976L64.216 58.5028L66.608 66.3598L68.7394 89.1404L64.7289 115.847L71.7661 138.224L59.6296 138.313L59.3396 125.197L58.1289 82.7379L56.9392 55.6905L54.0848 53.1976Z" fill="#EBEBEB"/>
<path d="M58.9906 88.5939C59.0621 88.4926 59.1254 88.3858 59.1798 88.2744L59.6843 87.3454C59.8945 86.925 60.1047 86.4121 60.3611 85.8152C60.483 85.5125 60.5881 85.1804 60.71 84.8315C60.8319 84.4825 60.9664 84.1126 61.0715 83.7174C62.0258 80.5688 62.6564 76.0244 62.5219 71.0135C62.5219 70.6267 62.4924 70.2442 62.4672 69.8616V69.7943L62.4042 69.7691L60.6301 69.0208L60.6554 69.2058L62.4294 67.7807L62.4672 67.7513V67.7092C62.4846 65.9874 62.2117 64.2748 61.6601 62.6436C61.2145 61.1597 60.7268 59.8817 60.298 58.8307C59.8692 57.7798 59.4951 56.96 59.2303 56.4051C59.0957 56.1235 58.9906 55.9091 58.9192 55.7704C58.8847 55.6955 58.8439 55.6238 58.7973 55.556C58.8175 55.6349 58.8472 55.7111 58.8856 55.783L59.1672 56.4346C59.411 56.9979 59.7641 57.826 60.1761 58.8812C60.5881 59.9364 61.0589 61.2143 61.4877 62.6941C62.0182 64.3063 62.2781 65.9953 62.257 67.6924L62.2991 67.621L60.5208 69.0377L60.3821 69.1512L60.5461 69.2226L62.3201 69.9709L62.2528 69.8784C62.278 70.2526 62.2949 70.6351 62.3075 71.0219C62.4378 76.0118 61.8366 80.5351 60.9244 83.6712C60.8277 84.0706 60.6974 84.4363 60.5839 84.7852C60.4704 85.1341 60.3695 85.4704 60.2476 85.7731C59.9996 86.3701 59.8272 86.8955 59.6086 87.3075L59.1462 88.2534C59.0867 88.3633 59.0348 88.477 58.9906 88.5939Z" fill="#263238"/>
<path d="M66.9443 104.543C66.9825 104.436 67.0147 104.326 67.041 104.215C67.0998 103.977 67.1797 103.658 67.2806 103.257C67.3857 102.836 67.5034 102.332 67.6211 101.739C67.7388 101.147 67.8943 100.478 68.012 99.7088C68.1298 98.9395 68.2895 98.1282 68.403 97.2369C68.5165 96.3457 68.63 95.3873 68.7351 94.3825C68.9201 92.3647 69.042 90.1409 69.042 87.8035C69.042 85.4662 68.9033 83.2424 68.7141 81.2288C68.6006 80.224 68.5039 79.2656 68.3652 78.3743C68.2264 77.4831 68.1045 76.655 67.97 75.9025C67.8355 75.15 67.6926 74.4732 67.5496 73.8762C67.4067 73.2793 67.3058 72.7706 67.2007 72.3587C67.0956 71.9467 67.0199 71.6398 66.9569 71.4044C66.9327 71.2915 66.9003 71.1805 66.8602 71.0723C66.8683 71.1872 66.8866 71.3011 66.9149 71.4128L67.1166 72.3755C67.2091 72.7959 67.3226 73.3045 67.4277 73.9015C67.5328 74.4984 67.6842 75.1626 67.7977 75.9319C67.9112 76.7012 68.0583 77.5084 68.1634 78.3996C68.2685 79.2908 68.3862 80.245 68.4913 81.2456C68.6679 83.2592 68.794 85.4746 68.8024 87.8078C68.8108 90.1409 68.6847 92.3521 68.5165 94.3657C68.4114 95.3662 68.3273 96.3247 68.2012 97.2117C68.0751 98.0987 67.9616 98.9311 67.8397 99.6836C67.7178 100.436 67.5875 101.117 67.4824 101.714C67.3773 102.311 67.268 102.824 67.1755 103.24C67.083 103.656 67.0242 103.963 66.9779 104.203C66.9546 104.315 66.9433 104.429 66.9443 104.543Z" fill="#263238"/>
<path d="M64.2034 125.05C64.3219 125.41 64.4872 125.754 64.6952 126.071C65.1493 126.862 65.6682 127.615 66.2465 128.32C66.8237 129.027 67.4593 129.683 68.1466 130.283C68.4182 130.548 68.7218 130.779 69.0504 130.969C68.8031 130.684 68.5362 130.417 68.2517 130.17C67.6032 129.541 66.9899 128.878 66.4146 128.181C65.8445 127.482 65.314 126.75 64.8256 125.991C64.6403 125.663 64.4324 125.349 64.2034 125.05Z" fill="#263238"/>
<path d="M17.6334 57.8512C15.5047 58.6783 13.6117 60.0155 12.1208 61.7454C10.6299 63.4753 9.58664 65.5449 9.08278 67.7723C5.76595 82.3848 0.0949783 101.823 0.002491 108.1C-0.106808 116.087 3.36557 121.552 7.94354 122.561C11.5504 123.36 44.231 121.569 44.231 121.569L45.7612 109.378L19.2771 105.481L22.9008 85.2687L19.3149 57.2207L17.6334 57.8512Z" fill="#EBEBEB"/>
<path d="M19.3149 57.1997L26.6338 54.2107L34.3478 49.6874L34.394 51.0116C33.4468 52.6288 33.1168 54.5342 33.465 56.3757L39.8969 89.8635L38.4423 114.334L35.4534 138.296H12.244L22.9007 113.22L19.1383 79.4253L19.3149 57.1997Z" fill="#EBEBEB"/>
<path d="M12.5341 122.767L12.6939 122.788L13.1605 122.834C13.5809 122.876 14.182 122.872 14.9724 122.893C16.5446 122.893 18.8315 122.859 21.6775 122.767C27.3653 122.578 35.2811 122.195 44.2226 121.678H44.3109V121.586C44.4917 120.135 44.6851 118.605 44.8784 117.054C45.2105 114.426 45.53 111.862 45.8369 109.411V109.306H45.736L25.524 106.363L19.5882 105.523L17.9949 105.308L17.5745 105.254H17.4316L17.5703 105.283L17.9907 105.355L19.5798 105.607L25.503 106.511L45.6814 109.525L45.5931 109.403C45.282 111.858 44.9583 114.418 44.6304 117.045C44.4328 118.601 44.2437 120.131 44.0629 121.581L44.1638 121.489C35.2264 122.01 27.3064 122.418 21.6228 122.649C18.781 122.758 16.4984 122.822 14.9261 122.843C14.14 122.843 13.5262 122.843 13.1185 122.817L12.6518 122.792L12.5341 122.767Z" fill="#263238"/>
<path d="M23.1152 83.2004C23.0853 83.273 23.0655 83.3494 23.0563 83.4274C23.0227 83.5997 22.9806 83.8099 22.9302 84.0748C22.8209 84.6675 22.6737 85.4788 22.5098 86.4668C22.1525 88.5182 21.669 91.297 21.1309 94.37C20.5929 97.443 20.1556 100.23 19.8109 102.286C19.6554 103.278 19.5293 104.089 19.4368 104.686C19.399 104.951 19.3695 105.17 19.3443 105.342C19.335 105.419 19.335 105.496 19.3443 105.573C19.376 105.502 19.3972 105.427 19.4074 105.35C19.441 105.178 19.483 104.964 19.5377 104.703C19.647 104.106 19.7983 103.299 19.9833 102.311C20.349 100.289 20.8241 97.4976 21.3621 94.4078C21.9002 91.318 22.3543 88.5224 22.678 86.492C22.8293 85.4999 22.9554 84.6843 23.0479 84.0874C23.0815 83.8239 23.1109 83.6053 23.1362 83.4316C23.1376 83.354 23.1306 83.2764 23.1152 83.2004Z" fill="#263238"/>
<path d="M30.9806 52.0583C30.9806 52.0583 30.9806 52.0878 30.9511 52.1424L30.8839 52.3862C30.8292 52.6048 30.7367 52.9201 30.6485 53.3405C30.392 54.5293 30.2067 55.7323 30.0935 56.9432C29.9221 58.7708 29.8758 60.6079 29.9548 62.4418C30.0263 64.5437 30.2449 66.8432 30.5602 69.2941V69.3697H30.6358L33.0446 69.8153L32.9648 69.6682C32.826 70.0381 32.6873 70.4333 32.578 70.8411C31.9157 73.52 32.0103 76.3303 32.8513 78.9587C33.5172 81.0912 34.4614 83.1265 35.6594 85.0122C36.6599 86.6349 37.5596 87.8792 38.1817 88.741L38.909 89.7247C38.9847 89.8298 39.0519 89.9097 39.1024 89.9769C39.1215 90.0087 39.1456 90.037 39.1738 90.061C39.1738 90.061 39.1738 90.0274 39.1192 89.9643L38.9426 89.6995C38.7745 89.4557 38.5222 89.1194 38.2532 88.6906C37.652 87.8162 36.7692 86.5592 35.7939 84.9323C34.6237 83.0486 33.6997 81.0227 33.0446 78.904C32.351 76.5204 32.0231 73.6871 32.7882 70.9167C32.8947 70.5266 33.021 70.1422 33.1665 69.7649L33.2128 69.643L33.0825 69.6178L30.6905 69.1764L30.7788 69.2688C30.4593 66.8264 30.2281 64.5227 30.1482 62.4376C30.0596 60.6159 30.0891 58.7905 30.2365 56.9726C30.3351 55.7637 30.4993 54.561 30.7283 53.3699C30.804 52.9495 30.8881 52.6301 30.9259 52.4115C30.9469 52.3106 30.9637 52.2307 30.9764 52.1634C30.9844 52.129 30.9859 52.0933 30.9806 52.0583Z" fill="#263238"/>
<path d="M30.9805 86.3995V81.0648C30.9805 81.0648 30.9132 79.749 32.023 80.0265C33.1328 80.3039 32.9269 82.3848 32.9269 82.3848C32.9269 82.3848 33.1328 90.5024 32.6494 90.4352C32.166 90.3679 31.9768 89.7415 31.9768 89.7415V86.6181L30.9805 86.3995Z" fill="#A4C0E9"/>
<path d="M26.3647 86.7316C27.3147 86.8423 28.2719 86.8788 29.2275 86.8409C30.1832 86.8788 31.1403 86.8423 32.0903 86.7316C31.1401 86.6235 30.1832 86.587 29.2275 86.6223C28.2719 86.587 27.3149 86.6235 26.3647 86.7316Z" fill="#263238"/>
<path d="M15.8088 61.021C16.0015 61.1112 16.2011 61.1857 16.4058 61.2438C16.9496 61.4379 17.4804 61.6668 17.9948 61.929C19.6903 62.8016 21.1608 64.0548 22.2912 65.5905C22.6112 66.0232 22.8925 66.4832 23.1319 66.9652C23.3395 67.421 23.5082 67.8935 23.6364 68.3777C23.8536 69.2038 23.9943 70.0481 24.0568 70.9C24.1156 71.6272 24.1282 72.2242 24.1324 72.6319C24.1199 72.8448 24.1199 73.0581 24.1324 73.2709C24.1851 73.0705 24.2133 72.8644 24.2165 72.6572C24.2496 72.0761 24.2496 71.4936 24.2165 70.9126C24.1748 70.0472 24.0467 69.1881 23.834 68.3482C23.7071 67.8495 23.5369 67.3628 23.3253 66.8937C23.0804 66.3983 22.792 65.9256 22.4635 65.4812C21.3169 63.9163 19.8042 62.6562 18.0579 61.8113C17.5332 61.5582 16.9892 61.3473 16.431 61.1807C16.2296 61.1064 16.0211 61.0529 15.8088 61.021Z" fill="#263238"/>
<path d="M110 105.443L71.7661 119.601L39.5353 124.528L77.8575 105.846L110 105.443Z" fill="#263238"/>
<path d="M93.6387 120.711C93.9458 118.668 94.6392 116.702 95.6818 114.918C95.907 114.582 96.0826 114.216 96.2031 113.83C96.2632 113.637 96.2751 113.432 96.2377 113.233C96.2003 113.035 96.1148 112.848 95.9887 112.69C95.4968 112.156 94.6014 112.392 93.996 112.795C92.7708 113.688 91.868 114.953 91.4233 116.402C90.9852 117.841 90.7033 119.322 90.5825 120.82" fill="#FFBE9D"/>
<path d="M78.7361 117.071H80.6362C81.1025 116.609 81.6826 116.278 82.3178 116.112C82.5528 116.073 82.7941 116.098 83.0162 116.184C83.2382 116.271 83.4327 116.416 83.5789 116.604C82.7381 115.204 81.8133 113.661 81.6367 113.241C81.2962 112.421 82.0571 111.807 83.2804 111.807C84.5037 111.807 89.9183 119.471 89.9183 119.471C89.9183 119.471 86.5552 113.304 86.2315 112.362C85.416 110.008 87.9929 109.84 88.9262 110.971C90.0864 112.379 94.7737 119.471 94.7737 119.471C94.7737 119.471 95.6649 120.909 95.0512 122.275C94.4374 123.641 92.655 123.116 92.655 123.116C92.6286 123.515 92.4983 123.9 92.2771 124.234C92.0559 124.567 91.7514 124.837 91.3938 125.016C90.0234 125.781 88.2157 124.894 88.2157 124.894L81.2079 126.466L78.6856 126.214C76.9642 126.042 75.3495 125.3 74.0975 124.106C72.8456 122.912 72.0281 121.334 71.7745 119.622L78.7361 117.071Z" fill="#FFBE9D"/>
<path d="M83.4486 116.495C83.3687 116.545 84.2894 118.008 85.5085 119.765C86.1138 120.644 86.6729 121.447 87.0891 121.993C87.294 122.311 87.5306 122.607 87.7953 122.876C87.6346 122.534 87.4403 122.209 87.2152 121.905C86.8327 121.321 86.2946 120.518 85.6892 119.639C85.0839 118.761 84.529 117.958 84.1254 117.403L83.6378 116.734C83.582 116.649 83.5187 116.569 83.4486 116.495Z" fill="#FFBE9D"/>
<path d="M83.869 124.297C83.698 123.897 83.4896 123.514 83.2468 123.154C82.8264 122.464 82.2463 121.527 81.5989 120.484C81.2752 119.967 80.9641 119.471 80.7119 119.013C80.6016 118.817 80.5311 118.602 80.5044 118.379C80.4777 118.156 80.4953 117.93 80.5563 117.714C80.68 117.307 80.8828 116.928 81.1533 116.6C81.1533 116.6 81.0398 116.659 80.8842 116.827C80.665 117.068 80.5026 117.355 80.4092 117.668C80.3311 117.902 80.3016 118.15 80.3225 118.397C80.3435 118.643 80.4145 118.883 80.5311 119.101C80.7833 119.576 81.0902 120.076 81.4097 120.598C82.0613 121.64 82.6709 122.565 83.1165 123.233C83.3418 123.605 83.5933 123.961 83.869 124.297Z" fill="#FFBE9D"/>
<path d="M80.1906 124.995C80.1202 124.616 79.9941 124.249 79.8165 123.906L79.3162 122.763C79.1079 122.308 78.9364 121.837 78.8034 121.354C78.7398 121.124 78.7267 120.883 78.7652 120.647C78.8037 120.411 78.8927 120.186 79.0262 119.988C79.1617 119.83 79.3333 119.708 79.5264 119.631C79.6888 119.548 79.866 119.498 80.0477 119.484C80.3131 119.523 80.5686 119.613 80.8002 119.749C80.8879 119.804 80.9847 119.844 81.0861 119.866C81.0861 119.866 81.0062 119.786 80.8422 119.673C80.7406 119.604 80.6353 119.541 80.5269 119.484C80.3796 119.399 80.2164 119.347 80.0477 119.328C79.8418 119.333 79.6388 119.379 79.4508 119.463C79.2274 119.544 79.0279 119.68 78.8706 119.858C78.7113 120.078 78.6036 120.33 78.5555 120.598C78.5075 120.865 78.5204 121.139 78.5932 121.401C78.7272 121.899 78.9088 122.383 79.1355 122.847C79.3331 123.267 79.5222 123.65 79.6778 123.969C79.8305 124.32 80.0017 124.662 80.1906 124.995Z" fill="#FFBE9D"/>
<path d="M78.9 118.378C78.7969 118.387 78.6967 118.417 78.6058 118.466C78.3456 118.576 78.0999 118.717 77.8743 118.887C77.1108 119.457 76.5769 120.282 76.3694 121.212C76.1619 122.142 76.2946 123.116 76.7435 123.957C76.8721 124.209 77.0317 124.445 77.2185 124.659C77.353 124.806 77.4413 124.873 77.4497 124.865C77.4581 124.856 77.1722 124.52 76.8822 123.889C76.4916 123.071 76.3866 122.146 76.584 121.261C76.7814 120.376 77.2697 119.583 77.971 119.009C78.2687 118.781 78.5789 118.571 78.9 118.378Z" fill="#FFBE9D"/>
<path d="M91.2172 114.355C91.6837 115.233 92.2134 116.076 92.8021 116.877C93.3276 117.734 93.9163 118.551 94.5635 119.32C94.0994 118.441 93.5711 117.598 92.9828 116.797C92.4551 115.941 91.865 115.125 91.2172 114.355Z" fill="#FFBE9D"/>
<path d="M45.8579 109.848L50.2299 108.861L54.4337 104.905C54.9454 104.425 55.6087 104.14 56.3086 104.098L63.947 103.677C64.7114 103.63 65.4646 103.88 66.0489 104.375L71.5139 108.999L47.674 120.581L44.4034 120.871L45.8579 109.848Z" fill="#FFBE9D"/>
<path d="M58.8099 107.81C58.8099 107.843 59.3733 107.742 60.2813 107.625C61.1893 107.507 62.4841 107.402 63.741 107.986C64.3262 108.269 64.8788 108.614 65.3889 109.016C65.8724 109.378 66.3054 109.714 66.6879 109.97C66.9882 110.179 67.3044 110.363 67.6338 110.521C67.751 110.585 67.8771 110.632 68.0079 110.66C68.0079 110.626 67.5077 110.395 66.7762 109.844C66.4105 109.575 65.9901 109.226 65.5151 108.852C64.9974 108.433 64.4332 108.075 63.8335 107.784C63.2186 107.513 62.5549 107.37 61.883 107.364C61.3407 107.355 60.7989 107.398 60.2645 107.49C59.8063 107.562 59.4237 107.646 59.1967 107.709C59.063 107.72 58.9321 107.754 58.8099 107.81Z" fill="#FFBE9D"/>
<path d="M57.2418 112.064C57.2418 112.098 57.5529 111.959 58.0826 111.908C58.7493 111.847 59.4211 111.941 60.0458 112.182C60.6748 112.427 61.2776 112.736 61.845 113.102C62.0763 113.27 62.3259 113.411 62.5891 113.523C62.3971 113.311 62.1763 113.127 61.9333 112.976C61.3765 112.565 60.7672 112.23 60.1215 111.98C59.4661 111.727 58.7559 111.65 58.0616 111.757C57.7646 111.779 57.4802 111.885 57.2418 112.064Z" fill="#FFBE9D"/>
<path d="M47.4091 112.77C47.4638 112.804 48.0776 111.887 48.8889 110.803C49.7002 109.718 50.3981 108.865 50.3518 108.823C49.7311 109.368 49.1816 109.989 48.7165 110.672C48.1926 111.313 47.7532 112.018 47.4091 112.77Z" fill="#FFBE9D"/>
<path d="M59.4404 104.11L49.7716 95.093C49.6729 95.0014 49.5954 94.8893 49.5445 94.7647C49.4936 94.64 49.4705 94.5057 49.4769 94.3711C49.4833 94.2366 49.519 94.1051 49.5816 93.9858C49.6441 93.8665 49.7319 93.7624 49.8389 93.6805C50.0102 93.5491 50.2221 93.4818 50.4378 93.4903C50.6536 93.4987 50.8596 93.5824 51.0201 93.7268L62.3705 103.908" fill="#A4C0E9"/>
<g opacity="0.3">
<path d="M59.4404 104.11L49.7716 95.093C49.6729 95.0014 49.5954 94.8893 49.5445 94.7647C49.4936 94.64 49.4705 94.5057 49.4769 94.3711C49.4833 94.2366 49.519 94.1051 49.5816 93.9858C49.6441 93.8665 49.7319 93.7624 49.8389 93.6805C50.0102 93.5491 50.2221 93.4818 50.4378 93.4903C50.6536 93.4987 50.8596 93.5824 51.0201 93.7268L62.3705 103.908" fill="black"/>
</g>
</svg>
