<svg width="390" height="397" viewBox="0 0 390 397" fill="none" xmlns="http://www.w3.org/2000/svg">
<g clip-path="url(#clip0_2_213)">
<path d="M311.791 9.22565L383.026 43.5088C384.13 44.0398 384.594 45.3648 384.063 46.4682L336.247 145.823C335.716 146.926 334.391 147.39 333.287 146.859L262.052 112.576C260.949 112.045 260.485 110.72 261.016 109.617L308.832 10.262C309.363 9.15861 310.688 8.69462 311.791 9.22565Z" fill="#E0E0E0"/>
<path d="M312.926 12.4939L379.76 44.6586L333.463 140.855L266.63 108.69L312.926 12.4939Z" fill="#FAFAFA"/>
<path d="M332.051 23.4809C333.386 22.4474 334.983 21.8069 336.662 21.6314C338.341 21.4558 340.035 21.7523 341.555 22.4873L343.579 18.4209C343.934 17.6816 344.431 17.0195 345.043 16.4726C345.654 15.9257 346.367 15.5048 347.141 15.2339C347.916 14.963 348.736 14.8474 349.555 14.8939C350.374 14.9403 351.175 15.1478 351.914 15.5045C353.403 16.2237 354.546 17.504 355.093 19.0647C355.64 20.6255 355.545 22.3394 354.83 23.8305L352.779 28.0993L354.205 28.8169C355.694 29.5628 356.95 30.704 357.834 32.1158C358.719 33.5275 359.198 35.1552 359.219 36.8209V38.9369L330.119 24.9345L332.051 23.4809ZM347.581 24.1433C348.181 24.4327 348.853 24.5376 349.513 24.4447C350.173 24.3517 350.79 24.0652 351.287 23.6212C351.784 23.1773 352.138 22.596 352.304 21.9508C352.47 21.3056 352.441 20.6256 352.221 19.9969C352.001 19.3681 351.599 18.8188 351.066 18.4186C350.534 18.0183 349.894 17.7851 349.229 17.7483C348.564 17.7116 347.903 17.873 347.329 18.2122C346.756 18.5514 346.296 19.0531 346.008 19.6537C345.815 20.0517 345.703 20.4837 345.679 20.925C345.654 21.3662 345.716 21.8081 345.862 22.2252C346.008 22.6423 346.235 23.0264 346.53 23.3556C346.825 23.6848 347.182 23.9525 347.581 24.1433Z" fill="#EBEBEB"/>
<path d="M348.427 46.3521C348.372 46.4717 352.374 48.5233 357.379 50.9521C362.384 53.3809 366.487 55.2209 366.579 55.1013C366.671 54.9817 362.632 52.9301 357.627 50.5013C352.622 48.0725 348.482 46.2325 348.427 46.3521Z" fill="#E0E0E0"/>
<path d="M356.339 53.9237C357.683 54.8338 359.113 55.6103 360.608 56.2421C362.032 57.0169 363.53 57.6486 365.079 58.1281C363.733 57.2222 362.303 56.4459 360.81 55.8097C359.386 55.035 357.888 54.4032 356.339 53.9237Z" fill="#E0E0E0"/>
<path d="M309.668 41.9453C309.612 42.0649 320.855 47.6033 334.784 54.3009C348.712 60.9985 360.047 66.3437 360.102 66.2609C360.157 66.1781 348.915 60.6121 334.986 53.9053C321.057 47.1985 309.723 41.8257 309.668 41.9453Z" fill="#E0E0E0"/>
<path d="M307.358 46.7201C307.294 46.8397 318.546 52.3689 332.465 59.0757C346.385 65.7825 357.728 71.1185 357.793 71.0357C357.857 70.9529 346.606 65.3869 332.677 58.6801C318.748 51.9733 307.414 46.6373 307.358 46.7201Z" fill="#E0E0E0"/>
<path d="M305.04 51.5685C304.985 51.6881 316.227 57.2173 330.156 63.9241C344.085 70.6309 355.419 75.9669 355.474 75.8841C355.53 75.8013 344.287 70.2353 330.358 63.5285C316.43 56.8217 305.095 51.4489 305.04 51.5685Z" fill="#E0E0E0"/>
<path d="M302.722 56.3801C302.666 56.4997 313.909 62.0289 327.838 68.7265C341.766 75.4241 353.101 80.7693 353.156 80.6865C353.211 80.6037 341.978 75.0377 328.04 68.3309C314.102 61.6241 302.786 56.2605 302.722 56.3801Z" fill="#E0E0E0"/>
<path d="M300.412 61.1825C300.348 61.3021 311.6 66.8405 325.519 73.5381C339.439 80.2357 350.782 85.5809 350.847 85.4981C350.911 85.4153 339.66 79.8493 325.731 73.1425C311.802 66.4357 300.468 61.0629 300.412 61.1825Z" fill="#E0E0E0"/>
<path d="M298.094 66.0401C298.039 66.1597 309.281 71.6889 323.21 78.3957C337.139 85.1025 348.473 90.4385 348.528 90.3557C348.584 90.2729 337.341 84.7069 323.412 78.0001C309.484 71.2933 298.149 65.8745 298.094 66.0401Z" fill="#E0E0E0"/>
<path d="M321.223 82.4713C321.508 82.6908 321.817 82.8789 322.143 83.0325L324.848 84.4401C327.111 85.5717 330.248 87.1173 333.726 88.7917C337.203 90.4661 340.377 91.9565 342.677 93.0237L345.437 94.2565C345.766 94.4205 346.112 94.55 346.468 94.6429C346.184 94.4209 345.875 94.2325 345.548 94.0817L342.88 92.7109C340.616 91.5793 337.47 90.0337 333.992 88.3593C330.515 86.6849 327.35 85.1945 325.05 84.1273L322.29 82.9037C321.953 82.7162 321.595 82.5709 321.223 82.4713Z" fill="#E0E0E0"/>
<path d="M313.219 28.8905C314.464 29.7609 315.8 30.4949 317.202 31.0801C318.519 31.7984 319.906 32.378 321.342 32.8097C320.11 31.9519 318.79 31.2272 317.405 30.6477C316.077 29.9122 314.674 29.323 313.219 28.8905Z" fill="#E0E0E0"/>
<path d="M327.644 98.4701C329.714 99.7334 331.866 100.858 334.084 101.837C336.238 102.961 338.463 103.941 340.745 104.772C338.674 103.511 336.523 102.386 334.305 101.405C332.151 100.282 329.926 99.3019 327.644 98.4701Z" fill="#E0E0E0"/>
<path d="M325.105 102.619C327.212 103.901 329.4 105.044 331.656 106.042C333.842 107.185 336.101 108.184 338.418 109.032C336.311 107.75 334.123 106.606 331.867 105.609C329.676 104.475 327.418 103.477 325.105 102.619Z" fill="#E0E0E0"/>
<path d="M289.97 79.5273C290.908 80.2431 291.939 80.828 293.034 81.2661C294.06 81.8446 295.158 82.284 296.3 82.5725C294.338 81.2753 292.209 80.2509 289.97 79.5273Z" fill="#E0E0E0"/>
<path d="M287.854 83.3545C288.795 84.0664 289.825 84.651 290.918 85.0933C291.946 85.6743 293.048 86.1137 294.193 86.3997C293.256 85.684 292.225 85.0991 291.13 84.6609C290.104 84.0752 289.002 83.6355 287.854 83.3545Z" fill="#E0E0E0"/>
<path d="M329.006 110.2C329.908 110.895 330.902 111.462 331.959 111.884C332.954 112.441 334.018 112.865 335.124 113.144C334.224 112.444 333.23 111.874 332.171 111.451C331.18 110.887 330.115 110.465 329.006 110.2Z" fill="#E0E0E0"/>
<path d="M285.435 87.8349C286.816 88.8504 288.377 89.5963 290.035 90.0337C288.653 89.0183 287.093 88.2723 285.435 87.8349Z" fill="#E0E0E0"/>
<path d="M330.542 123.641C330.542 123.641 330.46 123.568 330.285 123.448L329.512 122.933L326.54 121.019L315.859 114.322L315.648 114.184L315.556 114.414C315.054 115.713 315.015 117.146 315.445 118.471C315.668 119.212 316.062 119.89 316.595 120.451C317.128 121.012 317.785 121.44 318.513 121.701C319.242 121.961 320.022 122.047 320.79 121.951C321.557 121.855 322.292 121.58 322.934 121.148C323.6 120.633 324.099 119.934 324.369 119.137C324.639 118.34 324.668 117.481 324.452 116.668C324.295 116.04 323.978 115.463 323.532 114.993C323.427 114.871 323.31 114.76 323.182 114.662C323.058 114.549 322.919 114.453 322.768 114.377C322.67 114.323 322.559 114.295 322.446 114.295C322.334 114.295 322.223 114.323 322.124 114.377C321.967 114.481 321.843 114.628 321.766 114.8C321.206 115.851 320.892 117.015 320.846 118.204C320.78 119.348 320.959 120.493 321.37 121.562C321.724 122.629 322.419 123.55 323.348 124.184C323.82 124.466 324.362 124.609 324.912 124.598C325.462 124.586 325.997 124.421 326.458 124.12C327.317 123.583 327.967 122.768 328.298 121.811C328.723 120.104 328.723 118.319 328.298 116.613L328.242 116.263L328.003 116.53C327.028 117.641 326.418 119.025 326.255 120.495C326.12 121.593 326.223 122.707 326.559 123.761C326.772 124.417 327.082 125.037 327.479 125.601C327.584 125.746 327.697 125.884 327.819 126.015C327.902 126.107 327.939 126.153 327.948 126.144C327.413 125.399 327.003 124.573 326.734 123.697C326.435 122.666 326.36 121.584 326.513 120.523C326.694 119.119 327.297 117.804 328.242 116.751L327.957 116.659C328.362 118.305 328.362 120.026 327.957 121.673C327.648 122.534 327.054 123.264 326.274 123.743C325.881 124.003 325.423 124.146 324.952 124.156C324.481 124.166 324.018 124.041 323.615 123.798C322.775 123.209 322.148 122.363 321.83 121.387C321.447 120.357 321.285 119.258 321.355 118.161C321.424 117.064 321.724 115.994 322.235 115.021C322.281 114.936 322.344 114.861 322.419 114.8C322.45 114.782 322.484 114.773 322.52 114.773C322.556 114.773 322.59 114.782 322.621 114.8C322.848 114.93 323.05 115.098 323.219 115.297C323.595 115.712 323.86 116.215 323.992 116.76C324.182 117.481 324.157 118.243 323.92 118.951C323.683 119.659 323.245 120.282 322.658 120.743C322.075 121.134 321.408 121.383 320.712 121.47C320.015 121.557 319.307 121.479 318.646 121.243C317.985 121.007 317.389 120.619 316.904 120.11C316.42 119.602 316.062 118.987 315.859 118.315C315.457 117.088 315.486 115.76 315.942 114.552L315.638 114.653L326.412 121.24L329.448 123.08L330.257 123.549C330.348 123.593 330.444 123.624 330.542 123.641Z" fill="#E0E0E0"/>
<path d="M282.776 100.448C282.784 100.742 282.834 101.033 282.923 101.313C283.016 101.657 283.159 101.985 283.346 102.288C283.61 102.71 284.019 103.021 284.496 103.162C284.794 103.267 285.119 103.267 285.416 103.162C285.72 103.035 285.984 102.828 286.18 102.564C286.557 102.002 286.901 101.418 287.21 100.816C287.9 99.5465 288.673 98.1481 289.492 96.6393L289.078 96.5473C289.152 98.6541 289.234 100.954 289.317 103.365C289.317 103.944 289.363 104.505 289.382 105.067V105.987L289.796 105.131C291.056 102.546 292.224 100.126 293.255 98.0193H292.868C293.448 100.117 293.742 102.283 293.742 104.459C293.742 106.033 293.641 106.925 293.742 106.934C293.809 106.725 293.853 106.509 293.871 106.29C293.954 105.68 294.007 105.066 294.028 104.45C294.109 102.252 293.868 100.055 293.31 97.9273L293.172 97.3937L292.933 97.8905C291.884 99.9881 290.697 102.389 289.418 104.965L289.869 105.057C289.869 104.496 289.823 103.935 289.805 103.355C289.704 100.945 289.612 98.6449 289.529 96.5381V95.7101L289.142 96.4369C288.333 97.9549 287.588 99.3717 286.916 100.641C286.64 101.237 286.333 101.817 285.996 102.38C285.86 102.601 285.658 102.774 285.419 102.875C285.18 102.976 284.915 102.999 284.662 102.941C284.295 102.813 283.966 102.597 283.703 102.311C283.44 102.026 283.251 101.68 283.153 101.304C283.047 101.01 282.921 100.725 282.776 100.448Z" fill="#E0E0E0"/>
<path d="M282.859 96.9981C282.776 97.1085 286.539 99.8225 291.332 103.061C296.125 106.299 300.008 108.829 300.081 108.719C300.155 108.609 296.401 105.895 291.608 102.665C286.815 99.4361 282.951 96.8969 282.859 96.9981Z" fill="#E0E0E0"/>
<path d="M278.204 97.8077C280.171 99.8067 282.247 101.696 284.423 103.466C286.499 105.353 288.68 107.122 290.955 108.765C288.99 106.763 286.914 104.874 284.736 103.107C282.664 101.214 280.483 99.4449 278.204 97.8077Z" fill="#E0E0E0"/>
<path d="M106.624 143.412C110.405 152.888 116.468 168.252 119.246 175.244C119.443 175.737 119.541 176.264 119.534 176.794C119.526 177.325 119.414 177.849 119.204 178.336C118.994 178.824 118.689 179.264 118.308 179.634C117.927 180.003 117.477 180.293 116.983 180.488L91.0941 190.801C90.6 190.999 90.0718 191.097 89.5398 191.09C89.0079 191.083 88.4825 190.971 87.9938 190.761C87.505 190.55 87.0625 190.246 86.6915 189.865C86.3205 189.483 86.0283 189.032 85.8317 188.538L73.2737 157C72.3946 154.786 72.4297 152.313 73.3714 150.124C74.3131 147.936 76.0844 146.21 78.2969 145.326L76.4569 140.726L93.4033 133.973L95.1513 138.361H95.2157C97.4013 137.565 99.8103 137.647 101.937 138.588C104.064 139.53 105.744 141.259 106.624 143.412Z" fill="#F5F5F5"/>
<path d="M93.6425 134.525L94.4797 136.641L77.7633 143.992L76.6869 141.278L93.6425 134.525Z" fill="#E0E0E0"/>
<path d="M90.2292 127.727L74.4346 134.019C73.7546 134.29 73.21 134.82 72.9207 135.492C72.6314 136.164 72.6211 136.924 72.892 137.604L74.5603 141.792C74.7345 142.23 75.0754 142.58 75.508 142.766C75.9406 142.952 76.4294 142.959 76.8669 142.785L94.4819 135.768C94.9194 135.593 95.2697 135.252 95.4559 134.82C95.642 134.387 95.6486 133.898 95.4743 133.461L93.8061 129.273C93.5352 128.593 93.0052 128.048 92.3328 127.759C91.6604 127.47 90.9007 127.459 90.2206 127.73L90.2292 127.727Z" fill="#EBEBEB"/>
<path d="M93.4585 136.208C93.1337 134.734 92.6493 133.3 92.0141 131.93C91.5295 130.501 90.8974 129.126 90.1281 127.827C90.4529 129.301 90.9372 130.736 91.5725 132.105C92.057 133.535 92.6891 134.91 93.4585 136.208Z" fill="#E0E0E0"/>
<path d="M91.2321 137.101C90.9016 135.627 90.4143 134.193 89.7785 132.823C89.2939 131.393 88.6618 130.018 87.8925 128.72C88.2254 130.192 88.7094 131.625 89.3369 132.998C89.8203 134.429 90.4557 135.805 91.2321 137.101Z" fill="#E0E0E0"/>
<path d="M88.9965 137.984C88.6636 136.512 88.1796 135.079 87.5521 133.706C87.0635 132.28 86.4284 130.908 85.6569 129.612C85.9898 131.084 86.4738 132.518 87.1013 133.89C87.5808 135.32 88.2163 136.693 88.9965 137.984Z" fill="#E0E0E0"/>
<path d="M86.7609 138.877C86.4295 137.404 85.9454 135.97 85.3165 134.599C84.8331 133.167 84.1978 131.791 83.4213 130.495C83.7513 131.968 84.2354 133.402 84.8657 134.773C85.3555 136.202 85.9905 137.577 86.7609 138.877Z" fill="#E0E0E0"/>
<path d="M84.5253 139.769C84.1954 138.296 83.7113 136.862 83.0809 135.491C82.6002 134.058 81.9647 132.682 81.1857 131.388C81.5194 132.861 82.0066 134.294 82.6393 135.666C83.1261 137.094 83.7581 138.469 84.5253 139.769Z" fill="#E0E0E0"/>
<path d="M82.2989 140.652C81.9714 139.179 81.4872 137.745 80.8545 136.374C80.3711 134.947 79.739 133.575 78.9685 132.28C79.296 133.754 79.7802 135.188 80.4129 136.558C80.8963 137.985 81.5284 139.357 82.2989 140.652Z" fill="#E0E0E0"/>
<path d="M80.0541 141.545C79.7266 140.071 79.2424 138.637 78.6097 137.267C78.1229 135.838 77.4909 134.463 76.7237 133.163C77.0485 134.638 77.5328 136.072 78.1681 137.441C78.6527 138.871 79.2847 140.246 80.0541 141.545Z" fill="#E0E0E0"/>
<path d="M77.8277 142.4C77.4972 140.926 77.0099 139.492 76.3741 138.122C75.8895 136.693 75.2575 135.317 74.4881 134.019C74.818 135.492 75.3021 136.926 75.9325 138.297C76.4132 139.729 77.0487 141.105 77.8277 142.4Z" fill="#E0E0E0"/>
<path d="M80.7034 159.052L102.464 150.383C103.162 150.105 103.954 150.446 104.232 151.144L109.625 164.683C109.904 165.381 109.563 166.173 108.864 166.451L87.1042 175.12C86.4056 175.398 85.6136 175.057 85.3353 174.359L79.9424 160.821C79.6641 160.122 80.0048 159.33 80.7034 159.052Z" fill="#EBEBEB"/>
<path d="M87.0093 173.855C86.9839 173.761 86.9532 173.669 86.9173 173.579L86.6413 172.825C86.3745 172.135 86.0157 171.178 85.5649 169.991L81.6273 159.871L81.5169 160.11L102.824 151.683L102.52 151.545V151.609L102.566 151.72L102.658 151.95L102.842 152.419L103.21 153.339L103.937 155.179C104.416 156.384 104.857 157.571 105.354 158.739L108.059 165.455L108.178 165.17L92.9433 171.362L88.5549 173.202L87.3865 173.699L86.9725 173.892C87.1042 173.862 87.2335 173.822 87.3589 173.772L88.5089 173.34L92.8881 171.656L108.344 165.621L108.546 165.538L108.464 165.336C107.617 163.192 106.725 160.947 105.805 158.61C105.336 157.442 104.885 156.255 104.388 155.05C104.149 154.443 103.91 153.836 103.661 153.21L103.293 152.29L103.109 151.83L103.017 151.6L102.971 151.48V151.425L102.658 151.287L81.3789 159.733L81.2041 159.807L81.2685 159.981C83.0073 164.213 84.4241 167.691 85.4361 170.166C85.9237 171.325 86.3101 172.254 86.5861 172.926C86.7149 173.211 86.8161 173.441 86.8897 173.634C86.9633 173.827 87.0001 173.864 87.0093 173.855Z" fill="#E0E0E0"/>
<path d="M86.5401 163.109C89.0474 162.38 91.5057 161.492 93.9001 160.45C96.3432 159.562 98.7303 158.527 101.049 157.35C98.5434 158.086 96.0855 158.974 93.6885 160.009C91.2463 160.9 88.8592 161.935 86.5401 163.109Z" fill="#E0E0E0"/>
<path d="M87.5245 165.575C90.029 164.837 92.4868 163.95 94.8845 162.916C97.3281 162.033 99.7127 160.994 102.024 159.807C99.5191 160.544 97.0613 161.432 94.6637 162.465C92.2201 163.348 89.8354 164.387 87.5245 165.575Z" fill="#E0E0E0"/>
<path d="M88.4629 167.93C90.9688 167.2 93.4268 166.315 95.8229 165.28C98.2663 164.389 100.653 163.351 102.971 162.171C100.466 162.905 98.0076 163.793 95.6113 164.83C93.1682 165.718 90.7811 166.754 88.4629 167.93Z" fill="#E0E0E0"/>
<path d="M79.2077 144.792C81.9246 143.978 84.5911 143.004 87.1933 141.876C89.8565 140.897 92.464 139.773 95.0041 138.509C92.2889 139.328 89.6227 140.301 87.0185 141.425C84.3554 142.404 81.7479 143.528 79.2077 144.792Z" fill="#E0E0E0"/>
<path d="M117.121 173.975C116.997 173.452 116.828 172.941 116.615 172.447C116.219 171.408 115.695 170.028 115.051 168.353C113.717 164.913 111.831 160.156 109.733 154.921C108.675 152.309 107.663 149.825 106.743 147.561C106.021 145.485 104.878 143.581 103.385 141.968C102.327 140.903 100.958 140.204 99.4753 139.971C99.0749 139.924 98.6704 139.924 98.2701 139.971C98.1291 139.986 97.9902 140.017 97.8561 140.063C98.3882 140.054 98.9202 140.085 99.4477 140.155C100.852 140.457 102.133 141.171 103.128 142.207C104.546 143.818 105.631 145.694 106.32 147.727L109.264 155.087C111.371 160.331 113.303 165.06 114.72 168.473C115.41 170.12 115.989 171.481 116.422 172.512C116.621 173.015 116.855 173.503 117.121 173.975Z" fill="white"/>
<path d="M88.0305 190.627C88.3949 190.382 88.7367 190.104 89.0517 189.799C89.3645 189.523 89.7509 189.182 90.2201 188.814C90.6893 188.446 91.2045 187.995 91.8209 187.563C93.224 186.514 94.6861 185.546 96.2001 184.665C98.0636 183.598 99.9969 182.657 101.987 181.85C103.991 181.07 106.044 180.422 108.132 179.909C109.839 179.5 111.569 179.192 113.312 178.989C114.057 178.878 114.738 178.851 115.327 178.805C115.916 178.759 116.431 178.722 116.854 178.713C117.292 178.715 117.729 178.681 118.16 178.611C117.729 178.537 117.291 178.509 116.854 178.529C116.342 178.501 115.829 178.501 115.318 178.529C114.71 178.529 114.03 178.529 113.275 178.648C111.511 178.797 109.759 179.068 108.031 179.458C105.915 179.947 103.837 180.586 101.812 181.371C99.8005 182.188 97.8511 183.151 95.9793 184.251C94.4592 185.162 92.9995 186.17 91.6093 187.269C91.0021 187.729 90.5053 188.189 90.0453 188.584C89.5853 188.98 89.2173 189.329 88.9229 189.633C88.5935 189.934 88.2946 190.267 88.0305 190.627Z" fill="white"/>
<path d="M37.1269 395.244C37.1269 395.372 125.87 395.483 235.313 395.483C344.756 395.483 433.518 395.4 433.518 395.244C433.518 395.087 344.793 395.004 235.313 395.004C125.833 395.004 37.1269 395.115 37.1269 395.244Z" fill="#263238"/>
<path d="M288.701 277.125C288.701 277.125 314.866 294.899 316.301 336.391C316.779 350.311 309.944 394.627 309.944 394.627L156.92 395.244L185.541 276.462L233.685 265.422L288.701 277.125Z" fill="#275AA6"/>
<path d="M230.244 307.926L251.091 394.894L198.982 395.244L230.244 307.926Z" fill="#263238"/>
<path d="M231.035 289.094C230.871 290.033 230.779 290.984 230.759 291.937C230.64 293.85 230.492 296.206 230.327 298.818C230.161 301.431 230.069 303.943 230.032 305.7C229.97 306.654 229.992 307.611 230.097 308.561C230.261 307.622 230.354 306.672 230.373 305.718C230.492 303.814 230.64 301.45 230.805 298.846C230.971 296.242 231.063 293.722 231.09 291.955C231.158 291.002 231.14 290.044 231.035 289.094Z" fill="#263238"/>
<path d="M221.596 298.68C221.596 298.726 221.936 298.8 222.516 299.122C223.276 299.578 223.881 300.251 224.255 301.054C224.544 301.631 224.679 302.273 224.647 302.918C224.615 303.563 224.416 304.189 224.071 304.734C223.676 305.417 223.082 305.965 222.37 306.304C221.657 306.643 220.858 306.758 220.078 306.634C219.299 306.509 218.575 306.151 218.003 305.606C217.432 305.062 217.039 304.357 216.876 303.584C216.714 302.966 216.713 302.316 216.874 301.697C217.035 301.079 217.353 300.512 217.796 300.051C218.401 299.402 219.186 298.95 220.05 298.754C220.658 298.616 220.97 298.653 221.026 298.607C221.081 298.561 220.934 298.607 220.768 298.552C220.518 298.516 220.264 298.516 220.014 298.552C219.082 298.688 218.219 299.124 217.557 299.794C217.09 300.255 216.732 300.814 216.508 301.431C216.262 302.155 216.226 302.933 216.407 303.676C216.586 304.537 217.023 305.323 217.66 305.93C218.296 306.537 219.102 306.936 219.971 307.074C220.84 307.212 221.73 307.082 222.523 306.702C223.316 306.322 223.975 305.709 224.411 304.946C224.812 304.296 225.02 303.546 225.009 302.784C224.982 302.142 224.816 301.514 224.522 300.944C224.1 300.099 223.416 299.415 222.571 298.993C222.348 298.877 222.11 298.793 221.863 298.745C221.688 298.671 221.605 298.662 221.596 298.68Z" fill="#263238"/>
<path d="M204.916 346.162C204.916 346.162 205.257 346.29 205.836 346.603C206.593 347.06 207.195 347.733 207.566 348.535C207.855 349.112 207.99 349.755 207.958 350.399C207.926 351.044 207.727 351.67 207.382 352.215C206.987 352.899 206.394 353.446 205.681 353.785C204.968 354.124 204.169 354.239 203.389 354.115C202.61 353.99 201.886 353.632 201.315 353.087C200.743 352.543 200.35 351.838 200.188 351.065C200.026 350.447 200.026 349.797 200.187 349.179C200.348 348.56 200.665 347.993 201.108 347.532C201.709 346.884 202.491 346.432 203.352 346.235C203.969 346.097 204.328 346.134 204.328 346.088C204.246 346.052 204.159 346.033 204.07 346.033C203.823 346.002 203.572 346.002 203.325 346.033C202.389 346.171 201.523 346.61 200.859 347.284C200.393 347.74 200.037 348.297 199.82 348.912C199.564 349.634 199.528 350.416 199.718 351.157C199.89 352.022 200.324 352.814 200.959 353.425C201.595 354.037 202.403 354.439 203.274 354.577C204.145 354.715 205.037 354.583 205.831 354.199C206.625 353.814 207.282 353.196 207.713 352.427C208.122 351.781 208.331 351.029 208.311 350.265C208.289 349.623 208.122 348.994 207.824 348.425C207.402 347.58 206.718 346.896 205.873 346.474C205.649 346.361 205.411 346.277 205.165 346.226C205.085 346.193 205.002 346.171 204.916 346.162Z" fill="#263238"/>
<path d="M259.022 311.68C259.118 311.826 259.229 311.962 259.353 312.085C259.574 312.342 259.905 312.72 260.356 313.189C261.646 314.506 263.023 315.735 264.477 316.869C269.32 320.581 274.905 323.207 280.853 324.569C284.119 325.353 287.486 325.626 290.835 325.379C293.597 325.179 296.252 324.224 298.508 322.619C300.015 321.518 301.226 320.061 302.032 318.378C302.234 317.919 302.4 317.445 302.528 316.961C302.58 316.794 302.608 316.62 302.611 316.446C302.565 316.446 302.427 317.145 301.857 318.286C301.012 319.896 299.794 321.28 298.306 322.324C296.082 323.853 293.49 324.759 290.798 324.946C287.493 325.156 284.175 324.871 280.954 324.1C275.068 322.751 269.527 320.195 264.68 316.593C263.22 315.497 261.822 314.321 260.494 313.069L259.417 312.03C259.169 311.781 259.04 311.68 259.022 311.68Z" fill="#263238"/>
<path d="M259.022 320.291C259.118 320.437 259.229 320.573 259.353 320.696C259.574 320.954 259.905 321.34 260.356 321.809C265.951 327.492 273.069 331.437 280.853 333.171C284.118 333.958 287.486 334.234 290.835 333.99C293.596 333.786 296.25 332.832 298.508 331.23C300.016 330.134 301.227 328.68 302.032 326.998C302.236 326.537 302.402 326.06 302.528 325.572C302.581 325.405 302.609 325.232 302.611 325.057C302.565 325.057 302.427 325.756 301.857 326.897C301.012 328.51 299.795 329.898 298.306 330.945C296.081 332.47 293.489 333.372 290.798 333.558C287.493 333.772 284.175 333.487 280.954 332.711C275.07 331.361 269.529 328.808 264.68 325.213C263.219 324.115 261.821 322.936 260.494 321.68L259.417 320.641C259.3 320.509 259.167 320.392 259.022 320.291Z" fill="#263238"/>
<path d="M257.669 317.688C257.636 317.808 257.615 317.931 257.605 318.056C257.605 318.322 257.54 318.69 257.485 319.15C257.375 320.144 257.218 321.561 257.025 323.373C256.639 327.053 255.903 332.325 255.572 338.921C255.383 342.519 255.459 346.126 255.802 349.713C256.178 353.845 257.107 357.907 258.562 361.792C260.166 366.114 262.708 370.025 266.004 373.246C267.754 374.941 269.722 376.395 271.856 377.57C274.063 378.773 276.448 379.614 278.921 380.064C283.853 380.865 288.91 379.929 293.227 377.414C297.254 375.132 300.647 371.881 303.099 367.956C305.261 364.409 306.816 360.525 307.699 356.466C308.485 352.936 308.91 349.336 308.968 345.72C308.988 340.508 308.619 335.302 307.864 330.144C307.598 328.304 307.395 326.924 307.257 325.94C307.184 325.48 307.119 325.121 307.082 324.845C307.065 324.72 307.038 324.597 307 324.477C306.987 324.603 306.987 324.729 307 324.854C307 325.13 307.073 325.489 307.128 325.949C307.248 326.943 307.423 328.36 307.653 330.163C308.325 335.317 308.633 340.513 308.573 345.711C308.495 349.294 308.058 352.86 307.266 356.355C306.369 360.361 304.815 364.191 302.666 367.69C300.263 371.552 296.933 374.752 292.979 377C288.755 379.459 283.809 380.372 278.986 379.585C276.563 379.153 274.226 378.33 272.067 377.147C269.968 375.995 268.031 374.569 266.308 372.906C263.053 369.738 260.54 365.89 258.948 361.636C257.501 357.79 256.573 353.768 256.188 349.676C255.829 346.109 255.734 342.521 255.903 338.94C256.188 332.362 256.823 327.062 257.2 323.392C257.384 321.552 257.504 320.126 257.577 319.16C257.577 318.7 257.632 318.332 257.651 318.056C257.669 317.78 257.669 317.688 257.669 317.688Z" fill="#263238"/>
<g opacity="0.2">
<path d="M305.546 363.255C303.89 368.867 303.182 370.321 300.081 374.801C297.218 379.047 293.028 382.224 288.167 383.836C284.692 385.035 280.968 385.327 277.348 384.683C273.729 384.039 270.334 382.48 267.486 380.156C261.864 375.454 259.877 368.196 258.902 363.274C261.349 366.567 263.953 371.25 267.035 373.964C270.117 376.678 274.192 379.052 278.259 379.76C283.779 380.68 290.357 379.024 295.076 376.025C299.796 373.026 302.648 367.653 305.574 363.264" fill="black"/>
</g>
<g opacity="0.2">
<path d="M301.608 327.568C300.559 329.908 298.956 331.957 296.938 333.539C294.92 335.121 292.548 336.188 290.026 336.649C285.048 337.569 278.599 335.996 275.49 331.322C286.438 335.168 297.321 335.26 301.608 327.568Z" fill="black"/>
</g>
<path d="M211.642 313.998C211.876 314.039 212.116 314.039 212.35 313.998C212.973 313.912 213.588 313.777 214.19 313.594C218.29 312.377 221.806 309.708 224.08 306.086C224.427 305.545 224.734 304.979 225 304.394C225.175 303.97 225.258 303.74 225.221 303.722C225.184 303.704 224.724 304.587 223.822 305.902C222.635 307.599 221.196 309.103 219.554 310.364C217.899 311.609 216.062 312.59 214.107 313.272C212.608 313.741 211.632 313.916 211.642 313.998Z" fill="#263238"/>
<g opacity="0.2">
<path d="M224.374 304.32C223.243 308.166 218.974 311.754 215.174 313.014C214.431 313.291 213.638 313.407 212.847 313.354C212.451 313.327 212.067 313.213 211.72 313.021C211.374 312.829 211.074 312.562 210.841 312.241C210.041 311.018 210.731 309.279 211.908 308.414C213.161 307.65 214.558 307.152 216.012 306.951C218.946 306.27 221.596 307.752 224.025 305.286" fill="black"/>
</g>
<g opacity="0.2">
<path d="M305.739 297.199C298.876 303.198 289.179 303.455 280.448 300.879C271.718 298.303 264.109 293.455 256.694 288.156C264.781 289.766 271.681 293.455 279.841 294.66C287.634 295.81 295.739 295.93 303.402 293.326" fill="black"/>
</g>
<path d="M174.124 389.346C174.175 389.391 174.235 389.425 174.299 389.448C174.474 389.542 174.656 389.625 174.842 389.696C175.557 389.985 176.31 390.171 177.077 390.248C179.923 390.484 182.762 389.723 185.109 388.095C188.163 386.154 190.942 382.888 193.913 379.263C197.101 375.285 199.965 371.058 202.478 366.622C207.039 358.553 210.531 349.925 212.865 340.954C213.785 337.514 214.319 334.698 214.659 332.739C214.806 331.819 214.926 331.037 215.018 330.485C215.064 330.223 215.094 329.959 215.11 329.694C215.021 329.945 214.957 330.203 214.917 330.466L214.475 332.702C214.08 334.643 213.463 337.449 212.543 340.862C210.119 349.77 206.599 358.342 202.064 366.383C199.56 370.797 196.718 375.011 193.564 378.987C190.629 382.612 187.887 385.878 184.925 387.81C182.636 389.435 179.861 390.23 177.059 390.064C176.053 389.959 175.065 389.718 174.124 389.346Z" fill="#263238"/>
<g opacity="0.2">
<path d="M207.207 355.398C207.207 355.398 193.628 372.474 183.72 376.66C180.362 378.086 176.663 379.245 174.372 382.078C173.8 382.727 173.376 383.493 173.13 384.322C172.883 385.152 172.821 386.025 172.946 386.881C172.985 387.084 173.046 387.281 173.13 387.47C174.556 391.104 181.41 390.598 184.548 388.298C185.918 387.295 185.109 387.939 186.213 387.111C189.387 384.719 206.379 365.04 207.207 355.398Z" fill="black"/>
</g>
<path d="M267.154 124.939L258.488 123.218L215.625 123.724L193.849 128.508L185.541 250.114L281.819 254.612L267.154 124.939Z" fill="#E0E0E0"/>
<path d="M204.806 244.52L202.754 189.21L206.168 125.077C192.625 128.563 174.106 132.437 163.848 144.13C157.196 151.72 150.673 161.426 148.208 177.057C145.374 195.456 141.639 230.646 139.302 250.334" fill="#275AA6"/>
<path d="M191.19 235.449L257.752 246.259L260.107 205.153L263.787 123.89C283.107 124.681 305.095 140.643 311.692 153.081C316.292 161.711 320.146 171.739 321.352 181.445C323.661 199.845 327.571 231.373 329.908 251.07C330.614 257.057 329.979 263.125 328.047 268.835C326.115 274.545 322.935 279.753 318.739 284.08C309.079 294.044 293.954 297.494 280.356 294.678L179.009 266.158L191.19 235.449Z" fill="#275AA6"/>
<path d="M198.219 234.713C198.213 234.635 198.198 234.557 198.173 234.483C198.118 234.317 198.053 234.096 197.98 233.82C197.786 233.204 197.529 232.348 197.188 231.254C196.471 228.99 195.45 225.734 194.18 221.704L183.738 189.099L183.6 189.385L194.392 184.923L194.815 184.748L194.438 184.499L191.944 182.862L183.802 177.544L183.894 177.802C188.034 163.431 191.678 150.754 194.3 141.637C195.578 137.11 196.609 133.467 197.336 130.928C197.667 129.686 197.934 128.72 198.127 128.03C198.207 127.729 198.271 127.481 198.32 127.285C198.35 127.202 198.369 127.115 198.375 127.027C198.375 127.027 198.375 127.101 198.283 127.266L198.044 128.011C197.832 128.692 197.538 129.649 197.17 130.882L193.996 141.545L183.444 177.673L183.398 177.839L183.545 177.94L191.678 183.267L194.171 184.895V184.472L183.388 188.952L183.186 189.035L183.25 189.237C187.501 202.292 191.208 213.654 193.858 221.796C195.192 225.826 196.25 229.055 196.995 231.3C197.363 232.385 197.658 233.241 197.86 233.848C197.952 234.115 198.035 234.326 198.09 234.501C198.125 234.577 198.168 234.648 198.219 234.713Z" fill="#263238"/>
<g opacity="0.2">
<path d="M183.499 177.875C184.042 179.871 185.217 181.636 186.848 182.908C188.117 183.634 187.39 184.6 186.342 185.612C185.081 186.827 183.057 187.158 182.128 188.63C181.199 190.102 181.723 191.786 182.202 193.331C186.81 207.995 192.405 222.33 198.946 236.24L183.499 189.164L194.272 184.72L183.499 177.875Z" fill="black"/>
</g>
<path d="M263.29 235.854C263.336 235.795 263.373 235.73 263.401 235.66C263.465 235.513 263.557 235.329 263.658 235.09L264.652 232.845C265.517 230.858 266.75 227.997 268.332 224.427L280.743 195.337L280.816 195.171L280.66 195.061L272.15 188.97V189.32L277.79 184.849L280.292 182.88L281.534 181.96L281.838 181.712C281.901 181.666 281.96 181.614 282.012 181.555C282.072 181.479 282.115 181.391 282.141 181.298C282.209 181.024 282.243 180.743 282.242 180.46C282.186 178.402 281.995 176.349 281.672 174.315C281.111 170.331 280.448 166.504 279.832 162.861C278.526 155.584 277.228 149.061 276.152 143.541C275.076 138.021 274.11 133.633 273.456 130.578C273.125 129.069 272.858 127.892 272.674 127.055L272.463 126.135C272.447 126.029 272.416 125.927 272.371 125.831C272.376 125.939 272.391 126.047 272.417 126.153C272.417 126.383 272.518 126.687 272.582 127.073C272.748 127.913 272.978 129.091 273.272 130.606C273.88 133.697 274.744 138.131 275.812 143.596C276.879 149.061 278.13 155.621 279.418 162.916C280.053 166.55 280.706 170.377 281.258 174.352C281.575 176.362 281.763 178.39 281.819 180.424C281.822 180.659 281.794 180.894 281.736 181.123C281.736 181.233 281.47 181.399 281.276 181.565L280.044 182.54L277.55 184.518L271.92 188.98L271.672 189.182L271.929 189.366L280.448 195.438L280.375 195.153L268.038 224.28C266.538 227.877 265.342 230.72 264.514 232.753C264.118 233.719 263.806 234.474 263.594 235.026L263.373 235.614C263.339 235.692 263.311 235.772 263.29 235.854Z" fill="#263238"/>
<path d="M182.811 195.938L249.876 185.592C251.087 185.405 252.219 186.235 252.406 187.445L266.87 281.206C267.057 282.416 266.227 283.549 265.017 283.735L197.951 294.082C196.741 294.268 195.609 293.439 195.422 292.229L180.957 198.467C180.771 197.257 181.6 196.125 182.811 195.938Z" fill="#275AA6"/>
<g opacity="0.2">
<path d="M182.811 195.938L249.876 185.592C251.087 185.405 252.219 186.235 252.406 187.445L266.87 281.206C267.057 282.416 266.227 283.549 265.017 283.735L197.951 294.082C196.741 294.268 195.609 293.439 195.422 292.229L180.957 198.467C180.771 197.257 181.6 196.125 182.811 195.938Z" fill="black"/>
</g>
<path d="M184.928 197.747L248.402 187.955L262.497 279.315L199.023 289.108L184.928 197.747Z" fill="#EBEBEB"/>
<path d="M203.996 196.248C204.447 194.857 205.274 193.62 206.387 192.673C207.5 191.726 208.854 191.106 210.298 190.884L209.765 186.974C209.548 185.558 209.902 184.114 210.749 182.958C211.596 181.802 212.866 181.03 214.282 180.81C215.7 180.591 217.146 180.943 218.304 181.79C219.462 182.638 220.235 183.91 220.455 185.327L221.081 189.375L222.442 189.191C223.871 188.993 225.326 189.192 226.649 189.766C227.972 190.341 229.111 191.269 229.94 192.448L230.998 193.92L203.398 198.189L203.996 196.248ZM215.404 189.109C215.973 189.022 216.503 188.768 216.928 188.38C217.352 187.991 217.652 187.486 217.789 186.927C217.926 186.369 217.894 185.782 217.698 185.241C217.501 184.701 217.148 184.23 216.685 183.89C216.221 183.55 215.666 183.355 215.092 183.33C214.517 183.305 213.948 183.451 213.456 183.75C212.964 184.049 212.572 184.486 212.33 185.008C212.087 185.529 212.004 186.111 212.092 186.68C212.213 187.44 212.628 188.121 213.248 188.576C213.869 189.031 214.644 189.222 215.404 189.109Z" fill="#263238"/>
<path d="M226.895 204.546C229.796 204.345 232.683 203.983 235.543 203.46C238.424 203.093 241.283 202.571 244.108 201.897C241.211 202.097 238.327 202.46 235.47 202.982C232.585 203.349 229.723 203.871 226.895 204.546Z" fill="#263238"/>
<path d="M236.261 206.073C237.667 206.104 239.072 205.968 240.447 205.668C241.846 205.533 243.226 205.24 244.559 204.795C243.153 204.775 241.749 204.911 240.373 205.199C238.974 205.334 237.594 205.628 236.261 206.073Z" fill="#263238"/>
<path d="M197.078 220.407C197.078 220.536 207.842 218.981 221.062 216.948C234.283 214.915 244.982 213.139 244.982 213.01C244.982 212.881 234.228 214.427 220.998 216.469C207.768 218.512 197.06 220.269 197.078 220.407Z" fill="#263238"/>
<path d="M197.786 224.97C197.786 225.099 208.541 223.553 221.771 221.511C235 219.468 245.691 217.711 245.691 217.582C245.691 217.454 234.936 218.999 221.706 221.042C208.477 223.084 197.768 224.841 197.786 224.97Z" fill="#263238"/>
<path d="M198.486 229.542C198.486 229.671 209.25 228.116 222.47 226.083C235.69 224.05 246.39 222.274 246.39 222.146C246.39 222.017 235.626 223.562 222.396 225.605C209.167 227.647 198.467 229.404 198.486 229.542Z" fill="#263238"/>
<path d="M199.194 234.106C199.194 234.234 209.949 232.689 223.178 230.646C236.408 228.604 247.098 226.847 247.098 226.709C247.098 226.571 236.344 228.135 223.114 230.177C209.884 232.22 199.139 233.977 199.194 234.106Z" fill="#263238"/>
<path d="M199.902 238.669C199.902 238.807 210.657 237.252 223.887 235.21C237.116 233.167 247.807 231.41 247.807 231.281C247.807 231.152 237.052 232.698 223.822 234.74C210.593 236.783 199.875 238.54 199.902 238.669Z" fill="#263238"/>
<path d="M200.602 243.241C200.602 243.37 211.366 241.825 224.586 239.782C237.806 237.74 248.506 235.983 248.506 235.845C248.506 235.707 237.751 237.261 224.522 239.304C211.292 241.346 200.583 243.112 200.602 243.241Z" fill="#263238"/>
<path d="M225.184 243.665C225.492 243.68 225.8 243.662 226.104 243.609C226.72 243.545 227.594 243.434 228.68 243.287C230.86 242.993 233.86 242.561 237.162 242.055C240.465 241.549 243.455 241.052 245.617 240.675C246.703 240.491 247.568 240.325 248.175 240.205C248.491 240.168 248.8 240.087 249.095 239.966C248.787 239.945 248.478 239.964 248.175 240.021C247.558 240.086 246.684 240.196 245.599 240.343C243.418 240.628 240.419 241.07 237.116 241.576C233.814 242.082 230.824 242.579 228.662 242.956C227.576 243.14 226.711 243.306 226.104 243.425C225.788 243.463 225.478 243.543 225.184 243.665Z" fill="#263238"/>
<path d="M193.242 209.321C194.543 209.36 195.843 209.24 197.115 208.962C198.411 208.844 199.687 208.566 200.914 208.134C198.318 208.215 195.741 208.614 193.242 209.321Z" fill="#263238"/>
<path d="M237.613 251.935C239.714 251.851 241.805 251.608 243.869 251.208C245.958 250.968 248.024 250.568 250.052 250.012C247.951 250.096 245.86 250.339 243.796 250.739C241.708 250.983 239.641 251.382 237.613 251.935Z" fill="#263238"/>
<path d="M237.834 256.149C239.972 256.058 242.1 255.809 244.2 255.404C246.323 255.163 248.424 254.757 250.484 254.189C248.349 254.28 246.224 254.529 244.127 254.934C242.001 255.175 239.897 255.581 237.834 256.149Z" fill="#263238"/>
<path d="M201.439 256.885C203.477 256.892 205.504 256.582 207.446 255.965C206.426 255.884 205.399 255.959 204.401 256.186C203.382 256.257 202.382 256.493 201.439 256.885Z" fill="#263238"/>
<path d="M201.807 260.648C203.845 260.655 205.872 260.344 207.814 259.728C205.776 259.721 203.749 260.031 201.807 260.648Z" fill="#263238"/>
<path d="M244.311 259.608C245.297 259.689 246.29 259.618 247.255 259.396C248.24 259.323 249.206 259.09 250.116 258.706C249.133 258.619 248.142 258.691 247.181 258.918C246.193 258.989 245.223 259.222 244.311 259.608Z" fill="#263238"/>
<path d="M202.267 265.036C203.005 265.157 203.76 265.122 204.484 264.935C205.231 264.898 205.961 264.703 206.628 264.365C205.891 264.233 205.134 264.264 204.41 264.457C203.663 264.494 202.932 264.692 202.267 265.036Z" fill="#263238"/>
<path d="M252.02 268.486C251.659 268.454 251.296 268.454 250.935 268.486L247.88 268.578L236.969 269.01H236.721L236.776 269.25C237.049 270.432 237.726 271.483 238.69 272.221C239.2 272.629 239.796 272.917 240.434 273.062C241.071 273.207 241.733 273.205 242.37 273.058C243.049 272.901 243.68 272.58 244.208 272.123C244.735 271.666 245.143 271.087 245.396 270.437C245.628 269.738 245.645 268.986 245.445 268.277C245.245 267.568 244.837 266.936 244.274 266.462C243.861 266.089 243.361 265.823 242.82 265.689C242.685 265.654 242.546 265.633 242.406 265.625C242.257 265.606 242.105 265.606 241.956 265.625C241.855 265.641 241.76 265.682 241.678 265.742C241.597 265.803 241.531 265.883 241.486 265.975C241.426 266.133 241.407 266.304 241.431 266.471C241.552 267.501 241.894 268.493 242.434 269.378C242.959 270.226 243.651 270.959 244.467 271.531C245.263 272.128 246.232 272.451 247.227 272.451C247.707 272.418 248.168 272.251 248.558 271.97C248.948 271.688 249.252 271.304 249.435 270.86C249.787 270.05 249.852 269.144 249.619 268.293C249.074 266.874 248.19 265.61 247.043 264.613L246.795 264.365V264.714C246.648 265.983 246.892 267.267 247.494 268.394C247.942 269.246 248.57 269.99 249.334 270.575C249.81 270.943 250.341 271.235 250.907 271.439C251.102 271.517 251.306 271.566 251.514 271.587C250.767 271.314 250.068 270.922 249.444 270.427C248.735 269.835 248.155 269.102 247.742 268.275C247.189 267.185 246.98 265.953 247.144 264.742L246.85 264.834C247.938 265.81 248.775 267.035 249.288 268.403C249.489 269.166 249.424 269.974 249.104 270.694C248.951 271.064 248.698 271.384 248.373 271.618C248.048 271.852 247.664 271.991 247.264 272.019C246.385 272.01 245.533 271.716 244.835 271.182C244.057 270.637 243.404 269.935 242.917 269.12C242.43 268.305 242.121 267.396 242.011 266.453C241.99 266.371 241.99 266.286 242.011 266.205C242.011 266.159 242.011 266.14 242.14 266.122C242.362 266.109 242.586 266.131 242.802 266.186C243.266 266.304 243.695 266.531 244.053 266.848C244.54 267.264 244.893 267.814 245.068 268.429C245.243 269.045 245.233 269.698 245.038 270.308C244.816 270.868 244.466 271.369 244.015 271.77C243.565 272.17 243.026 272.459 242.443 272.613C241.86 272.767 241.249 272.782 240.66 272.656C240.07 272.531 239.518 272.268 239.048 271.89C238.159 271.224 237.53 270.267 237.273 269.185L237.08 269.434L247.899 268.799L250.953 268.597C251.311 268.582 251.667 268.545 252.02 268.486Z" fill="#263238"/>
<path d="M206.554 275.34C206.701 275.549 206.877 275.735 207.078 275.892C207.314 276.094 207.578 276.261 207.86 276.389C208.258 276.565 208.707 276.588 209.121 276.453C209.382 276.373 209.609 276.208 209.765 275.984C209.92 275.741 210.009 275.462 210.022 275.174C210.015 274.587 209.972 274 209.894 273.417C209.774 272.166 209.636 270.795 209.489 269.314L209.093 269.47L212.608 274.227L213.482 275.404L214.052 276.177L213.914 275.257C213.537 272.801 213.196 270.51 212.893 268.495L212.552 268.679C213.988 269.889 215.259 271.281 216.334 272.819C217.106 273.932 217.474 274.659 217.52 274.604C217.475 274.42 217.404 274.243 217.309 274.08C217.073 273.603 216.812 273.14 216.527 272.69C215.517 271.078 214.277 269.621 212.847 268.367L212.433 268.008L212.516 268.56C212.792 270.565 213.123 272.865 213.436 275.331L213.868 275.147L212.948 273.969C211.697 272.295 210.51 270.694 209.406 269.231L208.918 268.569L209.01 269.388C209.185 270.869 209.342 272.24 209.489 273.482C209.575 274.046 209.63 274.614 209.654 275.184C209.669 275.405 209.613 275.625 209.494 275.812C209.375 275.999 209.199 276.143 208.992 276.223C208.674 276.309 208.34 276.316 208.019 276.242C207.698 276.168 207.4 276.016 207.152 275.8C206.966 275.631 206.766 275.477 206.554 275.34Z" fill="#263238"/>
<path d="M204.935 272.838C207.938 273.061 210.95 273.125 213.96 273.031C216.968 273.097 219.978 273.005 222.976 272.755C219.976 272.526 216.967 272.458 213.96 272.552C210.949 272.486 207.936 272.581 204.935 272.838Z" fill="#263238"/>
<path d="M202 275.699C204.38 276.194 206.789 276.535 209.213 276.72C211.618 277.059 214.043 277.243 216.472 277.272C214.094 276.764 211.684 276.419 209.259 276.242C206.854 275.897 204.429 275.716 202 275.699Z" fill="#263238"/>
<g opacity="0.2">
<path d="M282.003 180.976C282.114 183.736 281.368 186.551 279.068 188.106C281.948 189.504 283.484 192.853 283.576 196.055C283.668 199.256 282.555 202.366 281.35 205.337C277.624 214.473 269.675 227.334 263.612 235.118C263.612 235.118 266.685 226.838 267.568 224.896C271.561 216.166 275.085 207.416 279.087 198.658C279.528 197.738 280.32 195.052 280.32 195.052C279.884 194.837 279.481 194.561 279.124 194.233C276.879 192.393 272.012 189.164 272.012 189.164C272.012 189.164 282.003 181.252 282.003 180.976Z" fill="black"/>
</g>
<path d="M282.141 199.744C282.012 199.744 282.242 210.37 282.666 223.461C283.089 236.553 283.53 247.17 283.659 247.16C283.788 247.151 283.567 236.544 283.144 223.443C282.721 210.342 282.279 199.734 282.141 199.744Z" fill="#263238"/>
<path d="M266.299 171.84H267.219C267.219 171.491 265.885 136.687 264.845 122.832C264.811 121.859 264.579 120.904 264.163 120.025C263.747 119.145 263.156 118.36 262.426 117.717C259.555 115.26 255.259 115.582 255.066 115.591L255.139 116.511C255.185 116.511 259.242 116.217 261.818 118.416C262.455 118.983 262.969 119.673 263.331 120.445C263.693 121.217 263.895 122.053 263.925 122.905C264.937 136.659 266.253 171.454 266.299 171.84Z" fill="#263238"/>
<path d="M257.678 230.058H259.307V228.218H257.678C255.97 228.218 254.332 227.539 253.125 226.331C251.917 225.124 251.238 223.486 251.238 221.778V202.292H249.398V221.778C249.398 223.974 250.271 226.08 251.824 227.633C253.376 229.185 255.482 230.058 257.678 230.058Z" fill="#455A64"/>
<path d="M257.016 229.358C257.054 229.748 257.207 230.117 257.455 230.419C257.703 230.722 258.035 230.944 258.41 231.058C258.784 231.171 259.184 231.171 259.558 231.058C259.932 230.945 260.265 230.723 260.513 230.42C260.761 230.118 260.914 229.749 260.953 229.36C260.991 228.97 260.914 228.578 260.729 228.233C260.545 227.888 260.263 227.606 259.918 227.421C259.573 227.236 259.181 227.158 258.792 227.196C258.27 227.25 257.791 227.507 257.459 227.912C257.126 228.317 256.967 228.837 257.016 229.358Z" fill="#263238"/>
<path d="M273.594 230.012H275.223C277.419 230.012 279.525 229.139 281.078 227.587C282.63 226.034 283.503 223.928 283.503 221.732L283.429 202.246H281.589L281.663 221.732C281.663 223.44 280.984 225.078 279.777 226.285C278.569 227.493 276.931 228.172 275.223 228.172H273.594V230.012Z" fill="#455A64"/>
<path d="M275.876 229.303C275.838 229.69 275.686 230.058 275.44 230.359C275.193 230.659 274.863 230.881 274.491 230.994C274.119 231.107 273.721 231.108 273.349 230.996C272.976 230.884 272.645 230.664 272.398 230.363C272.15 230.063 271.997 229.697 271.958 229.31C271.919 228.923 271.995 228.533 272.177 228.189C272.359 227.845 272.639 227.563 272.981 227.378C273.324 227.193 273.713 227.114 274.1 227.15C274.359 227.175 274.609 227.25 274.839 227.371C275.068 227.492 275.271 227.658 275.436 227.858C275.6 228.058 275.724 228.289 275.8 228.537C275.876 228.785 275.901 229.045 275.876 229.303Z" fill="#263238"/>
<path d="M283.972 204.491L284.202 190.599C284.377 180.01 276.64 171.279 266.952 171.104C264.593 171.083 262.255 171.559 260.092 172.5C257.928 173.442 255.987 174.828 254.394 176.569C251.009 180.231 249.11 185.023 249.067 190.01L248.837 203.911L251.597 203.957L251.827 190.056C251.861 185.751 253.501 181.613 256.427 178.455C257.753 176.99 259.374 175.823 261.183 175.03C262.992 174.237 264.949 173.837 266.924 173.855C275.094 173.993 281.644 181.472 281.46 190.544L281.23 204.436L283.972 204.491Z" fill="#263238"/>
<path d="M205.386 172.355C205.386 171.987 209.608 135.822 210.823 124.23L210.906 123.384C211.283 119.446 211.724 114.993 216.076 113.816L215.837 112.896C210.869 114.239 210.381 119.244 209.986 123.264L209.903 124.101C208.698 135.693 204.512 171.859 204.475 172.227L205.386 172.355Z" fill="#263238"/>
<path d="M197.942 173.138C194.087 169.282 194.087 163.032 197.942 159.177C201.797 155.322 208.047 155.322 211.903 159.177C215.758 163.032 215.758 169.282 211.902 173.137C208.047 176.993 201.797 176.993 197.942 173.138Z" fill="#263238"/>
<path d="M200.16 166.155C200.16 167.099 200.44 168.023 200.965 168.808C201.49 169.594 202.237 170.206 203.11 170.567C203.983 170.928 204.943 171.022 205.87 170.837C206.796 170.652 207.647 170.196 208.314 169.528C208.982 168.859 209.436 168.007 209.619 167.08C209.802 166.154 209.706 165.193 209.344 164.321C208.981 163.449 208.367 162.703 207.581 162.18C206.794 161.656 205.87 161.378 204.926 161.38C204.299 161.38 203.679 161.503 203.1 161.743C202.521 161.983 201.995 162.335 201.553 162.779C201.11 163.222 200.759 163.749 200.52 164.328C200.281 164.907 200.159 165.528 200.16 166.155Z" fill="#455A64"/>
<path d="M263.29 235.854L275.683 266.333L176.829 293.74C172.31 294.999 167.568 295.24 162.944 294.444C158.321 293.649 153.932 291.837 150.094 289.14C139.753 281.844 137.214 269.084 138.474 256.452L140.259 243.02L263.29 235.854Z" fill="#275AA6"/>
<path d="M158.558 268.937C158.659 268.937 158.87 266.858 159.892 263.647C160.154 262.77 160.461 261.907 160.812 261.062C161.161 260.142 161.649 259.222 162.136 258.191C163.271 256.061 164.605 254.044 166.12 252.165C167.663 250.311 169.375 248.604 171.235 247.068C172.155 246.397 172.946 245.725 173.784 245.228C174.54 244.707 175.323 244.225 176.13 243.784C179.074 242.156 181.088 241.53 181.052 241.429C180.57 241.528 180.098 241.672 179.644 241.861C179.095 242.039 178.557 242.251 178.034 242.496C177.418 242.781 176.7 243.066 175.964 243.49C175.138 243.913 174.336 244.383 173.563 244.897C172.707 245.412 171.861 246.084 170.959 246.737C169.057 248.274 167.31 249.993 165.743 251.871C164.211 253.775 162.874 255.828 161.75 257.998C161.262 259.019 160.784 259.976 160.444 260.924C160.087 261.782 159.78 262.661 159.524 263.555C159.292 264.285 159.105 265.029 158.962 265.781C158.816 266.352 158.715 266.933 158.659 267.52C158.582 267.988 158.548 268.463 158.558 268.937Z" fill="#263238"/>
<g opacity="0.2">
<path d="M277.891 248.826C285.435 249.451 291.258 250.141 299.051 251.098C303.918 251.696 308.968 251.356 310.56 246.728C312.152 242.1 311.14 236.801 308.527 232.652C305.914 228.503 301.811 218.852 279.841 226.212L277.891 248.826Z" fill="black"/>
</g>
<path d="M267.716 247.492L267.66 247.289L267.449 246.682L266.621 244.364L263.447 235.798L263.401 235.679H263.281L229.655 238.724L197.124 241.815L187.271 242.8L184.594 243.094L183.904 243.186C183.822 243.188 183.741 243.204 183.664 243.232H183.904H184.603L187.289 243.03L197.161 242.183L229.701 239.239L263.309 236.047L263.143 235.936L266.455 244.456L267.375 246.737L267.624 247.326C267.67 247.436 267.706 247.501 267.716 247.492Z" fill="#263238"/>
<g opacity="0.2">
<path d="M227.042 278.928C213.003 282.691 204.466 280.51 191.714 273.537C189.102 272.005 186.594 270.303 184.207 268.44C182.389 266.954 180.772 265.237 179.396 263.334C195.818 269.618 209.461 274.374 226.389 279.103" fill="black"/>
</g>
<path d="M267.67 247.16L264.459 238.19L271.92 226.525C272.566 225.514 273.411 224.646 274.405 223.973C275.399 223.301 276.519 222.839 277.698 222.615L305.15 217.435C305.492 218.463 305.444 219.581 305.017 220.576C304.59 221.571 303.812 222.375 302.832 222.836C299.235 224.887 283.052 228.65 283.052 228.65L307.975 228.227C307.975 228.227 308.748 231.824 305.923 233.112C303.099 234.4 285.343 235.053 285.343 235.053L308.076 238.255C308.076 238.255 308.205 241.861 303.007 241.935C297.888 241.874 292.775 241.551 287.689 240.969C287.478 240.94 287.265 240.993 287.093 241.119C286.921 241.244 286.805 241.431 286.769 241.64C286.738 241.843 286.784 242.05 286.898 242.221C287.012 242.391 287.186 242.512 287.385 242.56L302.501 246.13C302.936 246.228 303.327 246.468 303.613 246.811C303.898 247.154 304.062 247.582 304.079 248.028C304.095 248.475 303.964 248.914 303.705 249.278C303.447 249.641 303.075 249.91 302.648 250.04C302.374 250.106 302.091 250.125 301.811 250.095C299.235 249.838 283.852 247.887 283.852 247.887L283.052 249.681L267.67 247.179" fill="#FFBE9D"/>
<path d="M278.958 244.391C279.167 243.896 279.453 243.436 279.804 243.03C280.211 242.614 280.709 242.299 281.258 242.11C281.937 241.902 282.648 241.824 283.356 241.88C284.883 241.99 286.263 242.432 287.293 242.561C287.849 242.696 288.43 242.696 288.986 242.561C288.451 242.409 287.907 242.289 287.358 242.202C286.058 241.817 284.728 241.54 283.383 241.374C282.611 241.313 281.834 241.413 281.102 241.668C280.506 241.899 279.975 242.272 279.556 242.754C279.336 242.961 279.167 243.217 279.063 243.502C278.959 243.786 278.923 244.091 278.958 244.391Z" fill="#C7370B"/>
<path d="M276.474 237.556C276.52 237.556 276.548 237.307 276.75 236.912C277.049 236.363 277.503 235.915 278.056 235.624C279.446 234.814 281.792 235.081 284.257 235.247C286.723 235.412 288.986 235.78 290.614 235.992C291.488 236.157 292.375 236.247 293.264 236.258C292.421 235.974 291.552 235.773 290.67 235.66C288.564 235.247 286.439 234.94 284.303 234.74C283.123 234.633 281.937 234.587 280.752 234.602C279.753 234.578 278.766 234.82 277.891 235.302C277.299 235.644 276.839 236.175 276.584 236.81C276.47 237.041 276.431 237.302 276.474 237.556Z" fill="#C7370B"/>
<path d="M274.579 233.581C274.6 232.851 274.799 232.138 275.158 231.502C275.569 230.837 276.138 230.283 276.814 229.892C277.672 229.443 278.61 229.168 279.574 229.082C281.635 228.889 283.567 229.083 284.975 228.972C285.74 228.971 286.493 228.788 287.174 228.438C287.174 228.365 286.327 228.613 284.956 228.641C283.586 228.668 281.681 228.411 279.519 228.641C278.491 228.726 277.494 229.041 276.603 229.561C275.871 230.007 275.273 230.643 274.873 231.401C274.596 231.902 274.453 232.466 274.459 233.038C274.478 233.379 274.579 233.581 274.579 233.581Z" fill="#C7370B"/>
<path d="M185.458 233.554C185.456 233.054 185.41 232.555 185.32 232.063C185.201 231.143 184.971 229.726 184.649 228.034C184.014 224.648 182.892 220.021 181.705 214.915C180.655 210.566 179.854 206.161 179.304 201.722C179.193 200.866 179.147 200.093 179.083 199.413C179.018 198.732 178.982 198.152 178.963 197.665C178.968 197.165 178.925 196.666 178.834 196.174C178.775 196.672 178.757 197.173 178.779 197.674C178.779 198.152 178.779 198.75 178.779 199.431C178.779 200.112 178.834 200.894 178.936 201.749C179.383 206.221 180.139 210.657 181.199 215.025C182.395 220.14 183.563 224.74 184.281 228.107C184.64 229.782 184.925 231.152 185.1 232.091C185.179 232.587 185.299 233.077 185.458 233.554Z" fill="#263238"/>
<path d="M175.918 293.906C176.103 293.902 176.286 293.871 176.461 293.814L177.988 293.473L183.582 292.093C188.301 290.906 194.806 289.186 201.982 287.199C209.158 285.212 215.588 283.307 220.234 281.881L225.754 280.17L227.245 279.673C227.389 279.624 227.528 279.559 227.659 279.48C227.477 279.492 227.297 279.529 227.125 279.59L225.607 279.995L220.087 281.568L201.798 286.748L183.499 291.771L177.979 293.289L176.47 293.722C176.28 293.763 176.095 293.825 175.918 293.906Z" fill="#263238"/>
<path d="M270.623 27.0597C268.599 20.8129 258.23 15.1734 252.545 11.8982C244.035 7.01295 236.15 7.98815 231.293 12.3398C222.516 4.97975 210.952 -2.10424 199.866 0.793754C188.78 3.69175 179.773 15.0445 181.797 26.3329C182.984 32.9845 187.593 38.9461 187.317 45.6529C187.133 50.2529 184.695 54.4113 182.717 58.5881C180.739 62.7649 179.285 67.6225 181.015 71.8913C182.625 75.8565 186.645 78.3313 188.807 82.0113C190.574 85.0289 190.978 88.6169 192.11 91.9197C196.287 104.156 210.731 111.019 223.482 108.866C236.233 106.713 246.859 97.1177 252.922 85.6729C258.985 74.2281 260.935 61.0905 261.634 48.1829" fill="#263238"/>
<path d="M261.23 35.6801L258.681 137.708C257.761 149.401 246.988 157.948 234.476 156.863C221.844 155.777 212.194 145.317 212.92 133.485C213.684 121.075 214.254 107.983 214.254 107.983C214.254 107.983 198.44 104.303 196.471 83.2165C195.468 72.4157 197.216 54.6965 199.047 40.6573C199.406 37.8584 200.327 35.1609 201.756 32.7274C203.184 30.2938 205.091 28.1744 207.36 26.4967C209.629 24.819 212.214 23.6176 214.959 22.965C217.704 22.3123 220.554 22.2218 223.335 22.6989" fill="#FFBE9D"/>
<path d="M203.739 55.7361C203.685 56.4324 203.906 57.1221 204.355 57.657C204.804 58.192 205.445 58.5296 206.14 58.5973C206.478 58.6477 206.823 58.6297 207.155 58.5444C207.486 58.4591 207.797 58.3082 208.069 58.1006C208.341 57.893 208.568 57.6329 208.738 57.3358C208.908 57.0387 209.016 56.7106 209.056 56.3709C209.108 55.6742 208.886 54.9847 208.438 54.4488C207.99 53.9129 207.35 53.5728 206.655 53.5005C206.316 53.4515 205.971 53.4707 205.64 53.5571C205.308 53.6436 204.998 53.7954 204.726 54.0037C204.454 54.212 204.227 54.4726 204.057 54.7702C203.888 55.0677 203.779 55.3961 203.739 55.7361Z" fill="#263238"/>
<path d="M201.08 53.0129C201.393 53.3809 203.518 52.0101 206.398 52.2033C209.277 52.3965 211.292 53.9697 211.623 53.6385C211.789 53.4913 211.494 52.8473 210.62 52.1113C209.428 51.1657 207.972 50.6129 206.453 50.5289C204.958 50.4305 203.47 50.8072 202.202 51.6053C201.273 52.2401 200.933 52.8381 201.08 53.0129Z" fill="#263238"/>
<path d="M231.339 58.6249C231.282 59.3227 231.503 60.0148 231.952 60.5517C232.401 61.0887 233.043 61.4276 233.74 61.4953C234.079 61.5444 234.424 61.5251 234.756 61.4387C235.087 61.3523 235.398 61.2005 235.669 60.9921C235.941 60.7838 236.168 60.5232 236.338 60.2257C236.507 59.9282 236.616 59.5997 236.656 59.2597C236.708 58.563 236.486 57.8735 236.038 57.3376C235.59 56.8018 234.95 56.4616 234.255 56.3893C233.916 56.3403 233.571 56.3595 233.24 56.4459C232.908 56.5324 232.598 56.6842 232.326 56.8925C232.054 57.1008 231.827 57.3614 231.657 57.659C231.488 57.9565 231.379 58.2849 231.339 58.6249Z" fill="#263238"/>
<path d="M229.352 55.3773C229.664 55.7453 231.79 54.3745 234.669 54.5677C237.549 54.7609 239.564 56.3341 239.895 56.0029C240.06 55.8557 239.766 55.2117 238.883 54.4757C237.693 53.5319 236.241 52.9792 234.724 52.8933C233.23 52.7949 231.742 53.1716 230.474 53.9697C229.499 54.5953 229.204 55.2025 229.352 55.3773Z" fill="#263238"/>
<path d="M217.539 76.0497C217.539 75.8933 215.8 75.4701 212.939 74.9089C212.212 74.7893 211.522 74.5961 211.43 74.0809C211.417 73.3183 211.639 72.57 212.065 71.9373C212.865 70.1985 213.712 68.3861 214.595 66.4817C218.128 58.6985 220.74 52.2861 220.428 52.1481C220.115 52.0101 216.996 58.2017 213.454 65.9481C212.608 67.8617 211.789 69.6925 211.016 71.4681C210.49 72.3232 210.288 73.3381 210.446 74.3293C210.535 74.5954 210.685 74.8373 210.883 75.0366C211.08 75.2359 211.321 75.3874 211.586 75.4793C211.984 75.6182 212.399 75.7018 212.819 75.7277C215.699 76.0865 217.539 76.2153 217.539 76.0497Z" fill="#263238"/>
<path d="M214.245 107.946C224.061 108.731 233.903 106.775 242.673 102.297C242.673 102.297 234.77 116.346 214.015 113.043L214.245 107.946Z" fill="#C7370B"/>
<path d="M229.333 44.0429C229.572 44.8433 232.47 44.6593 235.819 45.2849C239.168 45.9105 241.845 47.0053 242.342 46.3337C242.563 46.0117 242.13 45.2389 241.082 44.4109C239.68 43.374 238.054 42.6836 236.334 42.3961C234.617 42.0797 232.849 42.171 231.173 42.6629C229.904 43.0861 229.241 43.6657 229.333 44.0429Z" fill="#263238"/>
<path d="M202.681 44.7421C203.141 45.4321 205.174 44.8801 207.557 44.9997C209.94 45.1193 211.936 45.7265 212.442 45.0733C212.672 44.7513 212.442 44.0797 211.522 43.3989C210.384 42.5808 209.029 42.1194 207.628 42.0735C206.228 42.0277 204.845 42.3994 203.656 43.1413C202.819 43.7577 202.478 44.4109 202.681 44.7421Z" fill="#263238"/>
<path d="M221.992 81.4685C219.738 81.4685 218.615 82.1309 216.702 83.3085C216.125 83.6122 215.651 84.0795 215.34 84.6517C215.193 85.0628 215.142 85.5022 215.191 85.9361C215.241 86.37 215.389 86.7867 215.625 87.1541C216.096 87.9896 216.795 88.6734 217.641 89.1249C218.487 89.5763 219.444 89.7768 220.4 89.7025C221.353 89.6024 222.251 89.2073 222.968 88.5723C223.686 87.9373 224.187 87.0942 224.402 86.1605C224.58 85.2192 224.44 84.2453 224.004 83.3925C223.567 82.5396 222.859 81.8563 221.992 81.4501" fill="#C7370B"/>
<path d="M214.346 86.2801C214.346 86.5009 215.064 86.8321 216.324 86.7585C217.918 86.6106 219.459 86.1076 220.832 85.2865C222.218 84.5153 223.445 83.4882 224.448 82.2597C225.193 81.3397 225.423 80.5301 225.23 80.4197C224.853 80.1713 222.958 82.1585 219.977 83.7961C218.744 84.5076 217.447 85.1021 216.104 85.5717C215.073 85.9213 214.374 86.0409 214.346 86.2801Z" fill="#263238"/>
<path d="M228.56 68.3217C228.139 68.3217 227.797 67.9799 227.797 67.5581C227.797 67.1364 228.139 66.7945 228.56 66.7945C228.982 66.7945 229.324 67.1364 229.324 67.5581C229.324 67.9799 228.982 68.3217 228.56 68.3217Z" fill="#C7370B"/>
<path d="M206.177 63.8137C206.177 63.9648 206.222 64.1124 206.306 64.238C206.389 64.3635 206.509 64.4614 206.648 64.5192C206.788 64.577 206.941 64.5921 207.089 64.5627C207.238 64.5332 207.374 64.4605 207.48 64.3537C207.587 64.2469 207.66 64.1108 207.689 63.9627C207.719 63.8146 207.704 63.6611 207.646 63.5215C207.588 63.382 207.49 63.2627 207.365 63.1788C207.239 63.0949 207.091 63.0501 206.94 63.0501C206.738 63.0501 206.544 63.1306 206.4 63.2738C206.257 63.417 206.177 63.6112 206.177 63.8137Z" fill="#C7370B"/>
<path d="M201.954 65.8009C201.942 65.9089 201.953 66.0181 201.986 66.1215C202.02 66.2249 202.074 66.3201 202.147 66.401C202.219 66.4818 202.308 66.5465 202.407 66.5908C202.506 66.635 202.614 66.6579 202.722 66.6579C202.831 66.6579 202.938 66.635 203.037 66.5908C203.137 66.5465 203.225 66.4818 203.298 66.401C203.37 66.3201 203.425 66.2249 203.458 66.1215C203.491 66.0181 203.502 65.9089 203.49 65.8009C203.47 65.6117 203.38 65.4368 203.238 65.3097C203.096 65.1826 202.913 65.1123 202.722 65.1123C202.532 65.1123 202.348 65.1826 202.206 65.3097C202.065 65.4368 201.975 65.6117 201.954 65.8009Z" fill="#C7370B"/>
<path d="M200.675 62.6085C200.675 62.7596 200.72 62.9072 200.804 63.0328C200.888 63.1583 201.007 63.2562 201.147 63.314C201.286 63.3718 201.44 63.3869 201.588 63.3575C201.736 63.328 201.872 63.2553 201.979 63.1485C202.086 63.0417 202.158 62.9056 202.188 62.7575C202.217 62.6094 202.202 62.4558 202.144 62.3163C202.087 62.1768 201.989 62.0575 201.863 61.9736C201.738 61.8897 201.59 61.8449 201.439 61.8449C201.236 61.8449 201.042 61.9254 200.899 62.0686C200.756 62.2118 200.675 62.406 200.675 62.6085Z" fill="#C7370B"/>
<path d="M231.293 70.9345C231.291 71.0878 231.335 71.2381 231.419 71.3664C231.502 71.4946 231.622 71.5951 231.763 71.655C231.905 71.7149 232.06 71.7316 232.211 71.7028C232.361 71.674 232.5 71.6011 232.609 71.4934C232.718 71.3857 232.792 71.2481 232.823 71.0979C232.853 70.9478 232.839 70.7919 232.78 70.6502C232.722 70.5084 232.623 70.3872 232.496 70.3018C232.369 70.2165 232.219 70.1709 232.066 70.1709C231.862 70.1709 231.667 70.2511 231.522 70.394C231.378 70.537 231.295 70.7312 231.293 70.9345Z" fill="#C7370B"/>
<path d="M234.163 67.8801C234.163 68.0312 234.208 68.1788 234.292 68.3044C234.376 68.4299 234.495 68.5278 234.635 68.5856C234.774 68.6434 234.928 68.6585 235.076 68.6291C235.224 68.5996 235.36 68.5269 235.467 68.4201C235.574 68.3133 235.646 68.1772 235.676 68.0291C235.705 67.881 235.69 67.7275 235.632 67.5879C235.575 67.4484 235.477 67.3291 235.351 67.2452C235.225 67.1613 235.078 67.1165 234.927 67.1165C234.724 67.1165 234.53 67.197 234.387 67.3402C234.244 67.4834 234.163 67.6776 234.163 67.8801Z" fill="#C7370B"/>
<path d="M221.651 58.6249C221.737 57.5402 221.906 56.4636 222.157 55.4049C222.914 52.5276 224.619 49.9896 226.996 48.2013C228.62 46.9684 230.511 46.1363 232.516 45.7725C234.815 45.3519 237.184 45.552 239.38 46.3521C240.563 46.7744 241.674 47.3764 242.673 48.1369C243.732 48.9069 244.663 49.8382 245.433 50.8969C247.077 53.1333 247.963 55.8359 247.963 58.6111C247.963 61.3863 247.077 64.089 245.433 66.3253C243.909 68.418 241.804 70.0174 239.38 70.9253C237.184 71.7255 234.815 71.9255 232.516 71.5049C230.511 71.1412 228.62 70.309 226.996 69.0761C224.622 67.2892 222.917 64.7551 222.157 61.8817C221.907 60.8228 221.738 59.7464 221.651 58.6617C221.638 58.7316 221.638 58.8035 221.651 58.8733V59.5081C221.652 59.8532 221.679 60.1978 221.734 60.5385C221.781 61.0043 221.864 61.4657 221.982 61.9185C222.273 63.1815 222.757 64.3919 223.418 65.5065C224.998 68.2108 227.476 70.2755 230.421 71.3413C233.366 72.407 236.591 72.4063 239.536 71.3393C240.763 70.9026 241.917 70.2822 242.958 69.4993C244.06 68.7059 245.026 67.7397 245.82 66.6381C247.534 64.3268 248.459 61.5255 248.459 58.6479C248.459 55.7704 247.534 52.9691 245.82 50.6577C245.026 49.5561 244.06 48.59 242.958 47.7965C241.917 47.0137 240.763 46.3933 239.536 45.9565C237.267 45.1422 234.82 44.9516 232.452 45.4045C230.58 45.7674 228.806 46.5243 227.248 47.6251C225.69 48.7259 224.385 50.1454 223.418 51.7893C222.758 52.9047 222.274 54.1149 221.982 55.3773C221.863 55.8331 221.78 56.2976 221.734 56.7665C221.679 57.1042 221.651 57.4457 221.651 57.7877V58.4225C221.64 58.4895 221.64 58.558 221.651 58.6249Z" fill="white"/>
<path d="M215.883 54.6045C216.907 54.3228 217.968 54.1988 219.029 54.2365C220.076 54.4259 221.089 54.7669 222.038 55.2485C222.038 55.2485 221.844 54.8989 221.329 54.5493C220.653 54.1131 219.884 53.842 219.084 53.7581C218.28 53.667 217.465 53.7744 216.711 54.0709C216.14 54.3009 215.855 54.5493 215.883 54.6045Z" fill="white"/>
<path d="M224.292 19.7181C226.132 36.3425 238.496 51.3109 254.449 56.3525C249.306 63.7677 252.545 77.8805 252.416 89.6565C252.287 100.605 252.296 103.733 259.39 109.317C265.25 110.725 268.59 94.6705 272.987 90.1809C277.385 85.6913 281.516 80.1621 281.194 73.9245C281.037 70.9989 279.896 68.2021 279.74 65.2857C279.556 62.0473 280.596 58.8457 281.166 55.6901C283.705 41.5681 276.419 26.3789 264.082 18.9913C251.744 11.6037 235.359 12.1005 223.151 19.6537" fill="#263238"/>
<path d="M259.5 88.0649C261.029 82.6947 263.658 77.7008 267.219 73.4001L266.952 73.9705C268.052 71.4616 269.709 69.2359 271.796 67.4618C273.884 65.6878 276.348 64.4119 279.001 63.7307C281.655 63.0496 284.428 62.9811 287.112 63.5303C289.796 64.0796 292.32 65.2322 294.492 66.901C296.665 68.5698 298.429 70.711 299.652 73.1625C300.875 75.614 301.524 78.3115 301.55 81.0509C301.576 83.7903 300.979 86.4998 299.803 88.9741C298.627 91.4485 296.904 93.623 294.764 95.3329C296.834 94.8729 298.931 96.6577 299.364 98.7277C299.524 99.7807 299.469 100.855 299.202 101.886C298.935 102.918 298.461 103.884 297.809 104.726C293.494 111.037 283.714 112.703 277.569 108.176C272.693 111.479 265.489 109.556 261.874 104.91C258.258 100.264 257.835 93.7137 259.5 88.0649Z" fill="#263238"/>
<path d="M279.252 63.7125C279.444 63.532 279.62 63.335 279.777 63.1237C280.205 62.5078 280.517 61.8187 280.697 61.0905C281.258 59.1861 280.991 56.1777 279.482 52.9945C278.662 51.2517 277.534 49.6715 276.152 48.3301C274.638 46.7381 272.961 45.3103 271.147 44.0705C269.141 42.6883 266.952 41.5922 264.643 40.8137C262.26 39.9949 259.73 39.3601 257.154 38.7161C254.578 38.0721 252.057 37.4373 249.702 36.6093C247.431 35.8268 245.226 34.8671 243.106 33.7389C239.519 31.8294 236.185 29.4807 233.179 26.7469C231.153 24.8946 229.282 22.8792 227.585 20.7209C226.978 19.9573 226.536 19.3409 226.233 18.8809C226.089 18.664 225.926 18.4607 225.745 18.2738C225.865 18.5036 226 18.725 226.15 18.9361C226.435 19.3685 226.849 20.0033 227.438 20.7761C229.088 22.9935 230.935 25.0566 232.958 26.9401C235.967 29.7324 239.318 32.1313 242.931 34.0793C245.068 35.2245 247.292 36.1997 249.582 36.9957C251.965 37.8329 254.495 38.4769 257.071 39.1301C259.647 39.7833 262.168 40.3997 264.532 41.2001C266.814 41.9591 268.981 43.0271 270.972 44.3741C272.765 45.596 274.429 46.9953 275.94 48.5509C277.287 49.8813 278.384 51.4424 279.179 53.1601C280.697 56.2605 281.019 59.1953 280.513 61.0629C280.278 62.0231 279.849 62.9249 279.252 63.7125Z" fill="#455A64"/>
<path d="M225.764 18.3197C225.896 18.5042 226.04 18.6795 226.196 18.8441C226.49 19.1845 226.941 19.6629 227.521 20.2793C229.19 21.9966 230.962 23.6096 232.829 25.1093C235.59 27.3789 238.664 29.238 241.956 30.6293C243.932 31.3597 245.971 31.9109 248.046 32.2761C250.19 32.7085 252.425 33.0397 254.707 33.3893C259.005 33.9032 263.251 34.7928 267.394 36.0481C270.755 37.1454 273.877 38.8719 276.594 41.1357C278.42 42.6668 279.927 44.5425 281.028 46.6557C281.315 47.2363 281.57 47.8321 281.792 48.4405C281.857 48.6585 281.946 48.8683 282.058 49.0661C282.015 48.8446 281.957 48.6263 281.884 48.4129C281.7 47.7832 281.469 47.1681 281.194 46.5729C280.141 44.3964 278.65 42.4607 276.814 40.8873C274.096 38.5547 270.949 36.7736 267.55 35.6433C263.391 34.3439 259.123 33.4202 254.799 32.8833C252.508 32.5429 250.282 32.2025 248.156 31.7885C246.105 31.4333 244.088 30.8976 242.13 30.1877C238.871 28.8332 235.817 27.0277 233.059 24.8241C231.177 23.3606 229.374 21.7974 227.659 20.1413L226.27 18.7797C226.117 18.6098 225.947 18.4557 225.764 18.3197Z" fill="#455A64"/>
<path d="M202.405 0.122151C202.405 0.223351 204.199 0.287751 207.005 1.04215C207.766 1.2402 208.515 1.47976 209.25 1.75975C210.05 2.02655 210.86 2.42215 211.734 2.80855C215.454 4.60537 218.729 7.20742 221.32 10.4261C221.89 11.1897 222.461 11.8889 222.902 12.6157C223.343 13.2636 223.745 13.9363 224.108 14.6305C225.46 17.1697 225.948 18.9177 226.021 18.8809C225.96 18.4663 225.855 18.0592 225.708 17.6665C225.576 17.1893 225.41 16.722 225.212 16.2681C224.978 15.6394 224.708 15.025 224.402 14.4282C224.059 13.7101 223.668 13.0155 223.234 12.3489C222.801 11.6129 222.24 10.8862 221.67 10.1042C220.353 8.47279 218.87 6.98349 217.244 5.66055C215.591 4.37641 213.805 3.2723 211.918 2.36695C211.091 1.97854 210.244 1.63758 209.378 1.34575C208.01 0.86557 206.599 0.514442 205.165 0.296953C204.679 0.202781 204.187 0.144355 203.693 0.122151C203.265 0.0718904 202.833 0.0718904 202.405 0.122151Z" fill="#455A64"/>
<path d="M187.584 79.5549C187.584 79.5549 187.584 79.4905 187.446 79.3709L187.013 78.8649C186.627 78.4141 186.047 77.7609 185.394 76.8501C184.572 75.7768 183.948 74.5647 183.554 73.2713C183.33 72.4667 183.264 71.6262 183.361 70.7965C183.491 69.8703 183.804 68.9791 184.281 68.1745C185.274 66.4541 186.903 64.9545 188.393 63.0961C191.745 58.9026 193.897 53.8792 194.622 48.5601C194.918 45.5798 194.992 42.5815 194.842 39.5901C194.694 36.6252 194.97 33.6544 195.661 30.7673C196.397 28.2495 197.669 25.921 199.391 23.9421C201.112 21.9631 203.242 20.3808 205.634 19.3042C207.617 18.4152 209.755 17.9214 211.927 17.8505C215.969 17.6874 219.953 18.8611 223.261 21.1901L223.813 21.5765C223.933 21.6593 223.997 21.7053 224.006 21.6961C223.146 20.9032 222.184 20.2287 221.145 19.6905C218.321 18.1748 215.149 17.4232 211.945 17.5101C209.727 17.5647 207.54 18.049 205.505 18.9361C203.044 20.023 200.85 21.6341 199.077 23.657C197.304 25.68 195.993 28.0658 195.238 30.6477C194.534 33.5765 194.252 36.5908 194.401 39.5993C194.549 42.569 194.478 45.5456 194.189 48.5049C193.489 53.7476 191.385 58.7034 188.099 62.8477C186.645 64.6877 185.008 66.2149 183.996 68.0089C183.505 68.8572 183.192 69.7962 183.076 70.7689C182.984 71.638 183.065 72.5167 183.315 73.3541C183.738 74.6704 184.403 75.8965 185.274 76.9697C185.801 77.6577 186.366 78.3151 186.967 78.9385L187.446 79.4169C187.486 79.4684 187.532 79.5147 187.584 79.5549Z" fill="#455A64"/>
<path d="M189.718 55.3773C189.804 54.2926 189.973 53.2162 190.224 52.1573C190.981 49.28 192.686 46.742 195.063 44.9537C196.811 43.6395 198.859 42.7827 201.021 42.4614C203.184 42.14 205.393 42.3643 207.446 43.1137C209.871 44.0217 211.976 45.6211 213.5 47.7137C215.144 49.9481 216.031 52.6494 216.031 55.4233C216.031 58.1973 215.144 60.8986 213.5 63.1329C212.734 64.1954 211.803 65.1274 210.74 65.8929C209.738 66.6474 208.627 67.246 207.446 67.6685C205.726 68.2938 203.893 68.5529 202.066 68.4294C200.239 68.3059 198.459 67.8024 196.837 66.9512C195.216 66.0999 193.791 64.9197 192.652 63.486C191.513 62.0522 190.686 60.3966 190.224 58.6249C189.973 57.5661 189.804 56.4896 189.718 55.4049C189.704 55.4779 189.704 55.5528 189.718 55.6257C189.718 55.7913 189.718 56.0029 189.718 56.2513C189.718 56.5965 189.746 56.941 189.801 57.2817C189.848 57.7504 189.931 58.2148 190.049 58.6709C190.341 59.9334 190.825 61.1436 191.484 62.2589C192.355 63.7416 193.501 65.0439 194.861 66.0953C196.646 67.472 198.75 68.3759 200.977 68.7232C203.204 69.0706 205.483 68.8502 207.603 68.0825C208.832 67.6506 209.987 67.0298 211.025 66.2425C212.124 65.4427 213.09 64.4739 213.886 63.3721C215.601 61.0628 216.527 58.2629 216.527 55.3865C216.527 52.5102 215.601 49.7103 213.886 47.4009C213.093 46.2993 212.127 45.3332 211.025 44.5397C209.984 43.7569 208.83 43.1365 207.603 42.6997C205.334 41.8828 202.888 41.689 200.519 42.1385C198.641 42.5054 196.863 43.2699 195.305 44.3807C193.746 45.4915 192.444 46.9228 191.484 48.5785C190.824 49.69 190.34 50.8973 190.049 52.1573C189.931 52.6134 189.848 53.0778 189.801 53.5465C189.746 53.8872 189.718 54.2318 189.718 54.5769C189.718 54.8253 189.718 55.0369 189.718 55.2117C189.71 55.2666 189.71 55.3224 189.718 55.3773Z" fill="white"/>
<path d="M259.518 109.657C259.681 109.577 259.833 109.474 259.969 109.354C260.254 109.142 260.659 108.82 261.193 108.434C262.68 107.242 264.076 105.942 265.37 104.542C267.366 102.477 268.732 99.8855 269.307 97.0717C269.498 95.4107 269.572 93.7383 269.528 92.0669C269.497 90.3159 269.997 88.5964 270.963 87.1357C272.046 85.7327 273.25 84.4274 274.56 83.2349C275.776 82.0577 276.778 80.6788 277.523 79.1593C278.182 77.7844 278.664 76.3315 278.958 74.8353C279.235 73.5386 279.361 72.2142 279.335 70.8885C279.335 69.6649 279.05 68.5977 278.94 67.6593C278.832 66.8573 278.813 66.0458 278.884 65.2397C279.041 63.9149 279.298 63.2065 279.252 63.1881C279.168 63.3494 279.1 63.519 279.05 63.6941C278.897 64.1909 278.78 64.6983 278.7 65.2121C278.602 66.0341 278.602 66.865 278.7 67.6869C278.783 68.6069 279.004 69.7109 279.032 70.8977C279.018 73.6896 278.39 76.4442 277.192 78.9661C276.459 80.4357 275.479 81.7678 274.294 82.9037C272.949 84.108 271.718 85.4321 270.614 86.8597C270.079 87.6283 269.684 88.4846 269.445 89.3897C269.234 90.2608 269.12 91.1524 269.105 92.0485C269.15 93.7009 269.086 95.3544 268.912 96.9981C268.378 99.7538 267.08 102.304 265.167 104.358C263.904 105.768 262.549 107.093 261.11 108.323L259.859 109.28C259.733 109.394 259.619 109.521 259.518 109.657Z" fill="#455A64"/>
<path d="M269.979 88.2305C269.963 88.3557 269.963 88.4825 269.979 88.6077C269.979 88.8561 269.979 89.2149 270.052 89.6841C270.208 91.0065 270.517 92.3063 270.972 93.5573C272.426 97.7564 275.312 101.309 279.125 103.592C282.937 105.875 287.432 106.742 291.82 106.042C293.134 105.843 294.421 105.494 295.656 105.002C296.098 104.837 296.42 104.653 296.64 104.551C296.861 104.45 296.972 104.377 296.962 104.358C295.282 104.979 293.544 105.432 291.774 105.711C289.85 105.959 287.901 105.925 285.987 105.609C281.248 104.883 276.981 102.33 274.1 98.4977C272.921 96.9604 271.972 95.2588 271.285 93.4469C270.685 91.7535 270.248 90.0068 269.979 88.2305Z" fill="#455A64"/>
<path d="M273.521 83.9065C273.559 84.3358 273.649 84.7589 273.788 85.1669C274.114 86.2948 274.548 87.3886 275.085 88.4329C276.875 91.9004 279.588 94.8069 282.923 96.8325C286.267 98.8354 290.067 99.9502 293.963 100.071C295.135 100.107 296.307 100.045 297.468 99.8869C297.897 99.8482 298.32 99.7618 298.729 99.6293C297.146 99.7431 295.559 99.7769 293.972 99.7305C290.154 99.5195 286.444 98.3828 283.162 96.4185C279.899 94.4298 277.215 91.619 275.379 88.2673C274.665 86.856 274.044 85.3992 273.521 83.9065Z" fill="#455A64"/>
<path d="M300.431 74.7433C300.178 74.5464 299.9 74.3854 299.603 74.2649C299.274 74.0875 298.932 73.9338 298.582 73.8049C298.122 73.6125 297.652 73.4466 297.174 73.3081C295.935 72.9362 294.662 72.6897 293.374 72.5721C291.796 72.4344 290.208 72.4653 288.636 72.6641C287.067 72.8856 285.525 73.271 284.036 73.8141C282.827 74.2784 281.668 74.8641 280.577 75.5621C280.158 75.8256 279.756 76.1144 279.372 76.4269C279.067 76.6453 278.781 76.8884 278.516 77.1537C278.271 77.3595 278.052 77.5943 277.863 77.8529C277.928 77.9265 278.894 76.9329 280.761 75.8473C281.853 75.204 283.002 74.662 284.193 74.2281C285.658 73.7268 287.168 73.3633 288.701 73.1425C290.226 72.9509 291.767 72.9047 293.301 73.0045C294.566 73.1028 295.819 73.3153 297.045 73.6393C299.18 74.1913 300.339 74.8261 300.431 74.7433Z" fill="#455A64"/>
<path d="M279.252 73.0413C279.335 73.1425 285.14 68.2113 292.206 62.0013C299.272 55.7913 304.939 50.7405 304.856 50.6393C304.773 50.5381 298.968 55.4785 291.893 61.6793C284.818 67.8801 279.179 72.9493 279.252 73.0413Z" fill="#275AA6"/>
<path d="M252.747 62.9673C252.308 62.1058 251.656 61.3711 250.852 60.8329C250.151 60.1647 249.289 59.6893 248.35 59.4529C249.036 60.0962 249.774 60.6809 250.558 61.2009C251.241 61.8453 251.973 62.4359 252.747 62.9673Z" fill="white"/>
<path d="M278.581 68.1469C278.627 68.0896 278.667 68.028 278.7 67.9629C278.783 67.8065 278.884 67.6225 279.013 67.4017C279.37 66.6574 279.612 65.8633 279.731 65.0465C280.071 61.9867 279.199 58.9154 277.302 56.4905C276.703 55.6773 276.015 54.9336 275.25 54.2733C274.412 53.5714 273.506 52.955 272.546 52.4333C270.413 51.3163 268.124 50.5285 265.756 50.0965C260.779 49.0569 255.176 49.3053 249.472 48.4589C246.681 48.0898 243.972 47.2532 241.459 45.9841C239.163 44.7359 237.087 43.1198 235.313 41.2001C232.303 37.9304 229.893 34.1559 228.192 30.0497C226.684 26.5629 225.736 23.6097 225.046 21.6225L224.264 19.2949L224.052 18.6969C224.031 18.6272 224.003 18.5594 223.97 18.4945C223.97 18.4945 223.97 18.5681 223.97 18.7061L224.135 19.3225L224.899 21.7145C225.751 24.5993 226.755 27.4369 227.907 30.2153C229.582 34.3851 231.99 38.2209 235.019 41.5405C236.828 43.495 238.948 45.1364 241.293 46.3981C243.841 47.6995 246.591 48.5582 249.426 48.9373C255.204 49.8021 260.779 49.5261 265.701 50.5381C270.623 51.5501 274.846 53.6017 277.063 56.6929C278.924 59.0321 279.819 61.9946 279.565 64.9729C279.406 66.0762 279.074 67.1475 278.581 68.1469Z" fill="#FAFAFA"/>
<path d="M272.739 104.68C272.931 105.953 273.303 107.192 273.843 108.36C274.464 109.765 275.272 111.08 276.244 112.27C277.533 113.86 279.113 115.19 280.899 116.189C283.087 117.375 285.532 118.007 288.02 118.029C290.892 118.095 293.714 117.269 296.098 115.665C298.719 113.851 300.615 111.169 301.452 108.093C301.899 106.473 301.993 104.776 301.728 103.116C301.437 101.408 300.781 99.7826 299.805 98.3505C298.215 95.9369 295.775 94.2095 292.97 93.5113V93.9713C295.815 93.5312 298.518 92.4316 300.863 90.7605C303.037 89.227 304.769 87.1489 305.886 84.7345C306.869 82.5647 307.29 80.1822 307.11 77.8069C306.958 75.7545 306.27 73.778 305.114 72.0753C304.141 70.6934 302.887 69.5333 301.434 68.6713C300.354 68.0336 299.175 67.5797 297.947 67.3281C297.178 67.1755 296.393 67.1168 295.61 67.1533L295.012 67.2177C294.945 67.2077 294.877 67.2077 294.81 67.2177C295.852 67.1638 296.897 67.2442 297.919 67.4569C299.116 67.7307 300.26 68.2001 301.305 68.8461C302.699 69.7105 303.896 70.8576 304.819 72.2133C305.925 73.878 306.575 75.8034 306.705 77.7977C306.859 80.1071 306.435 82.4183 305.472 84.5229C304.374 86.8613 302.684 88.8721 300.569 90.3557C298.272 91.973 295.634 93.0401 292.859 93.4745L291.672 93.6585L292.841 93.9345C295.532 94.6083 297.87 96.2702 299.391 98.5897C300.329 99.9726 300.957 101.542 301.231 103.19C301.483 104.785 301.395 106.415 300.974 107.974C300.176 110.959 298.348 113.566 295.812 115.334C293.507 116.896 290.776 117.708 287.992 117.661C285.562 117.652 283.171 117.049 281.028 115.904C279.27 114.945 277.71 113.662 276.428 112.123C275.452 110.961 274.629 109.678 273.981 108.305C273.579 107.434 273.237 106.537 272.96 105.619C272.877 105.324 272.812 105.085 272.766 104.892L272.739 104.68Z" fill="#263238"/>
<path d="M278.158 64.8901C278.236 64.8672 278.31 64.8331 278.378 64.7889L279.022 64.4485C279.828 63.9874 280.594 63.4612 281.313 62.8753C283.986 60.6924 286.026 57.8333 287.22 54.5953C288.605 50.7572 288.728 46.5766 287.569 42.6639C286.411 38.7513 284.032 35.3114 280.78 32.8465C278.177 30.9288 275.251 29.4953 272.141 28.6145C269.031 27.7365 265.841 27.1725 262.619 26.9309C259.528 26.6365 256.547 26.4985 253.713 26.3053C251.031 26.1366 248.36 25.8295 245.709 25.3853C243.408 24.9897 241.149 24.3735 238.966 23.5453C235.796 22.3759 232.906 20.555 230.483 18.2001C229.845 17.538 229.252 16.8342 228.708 16.0933L228.284 15.5137C228.241 15.4429 228.188 15.378 228.128 15.3205C228.734 16.4176 229.482 17.4292 230.354 18.3289C232.759 20.7666 235.666 22.6503 238.874 23.8489C241.072 24.7037 243.35 25.3416 245.672 25.7533C248.335 26.2016 251.019 26.5087 253.713 26.6733C259.371 27.1241 265.673 27.1701 271.975 29.0377C275.028 29.9048 277.903 31.3065 280.467 33.1777C283.654 35.5845 285.995 38.941 287.153 42.7636C288.31 46.5862 288.224 50.6776 286.907 54.4481C285.753 57.6338 283.787 60.4626 281.203 62.6545C280.502 63.2542 279.758 63.8016 278.976 64.2921L278.369 64.6693C278.289 64.733 278.218 64.8073 278.158 64.8901Z" fill="#263238"/>
<path d="M175.633 51.3201C175.738 51.4461 175.869 51.5487 176.016 51.6215C176.164 51.6944 176.324 51.7359 176.488 51.7433C176.966 51.7527 177.436 51.6182 177.836 51.3573C178.236 51.0965 178.549 50.7213 178.733 50.2805C178.875 49.9606 178.937 49.6111 178.915 49.2619C178.892 48.9127 178.786 48.5741 178.604 48.2749C178.18 47.5677 177.533 47.021 176.764 46.7201C175.827 46.3811 174.818 46.2876 173.834 46.4486C172.85 46.6097 171.924 47.0199 171.143 47.6401C170.202 48.3192 169.477 49.2551 169.055 50.3357C168.608 51.5102 168.519 52.7905 168.797 54.0157C169.079 55.3439 169.798 56.5391 170.84 57.4105C171.942 58.3243 173.289 58.8937 174.713 59.0481C176.232 59.1583 177.756 58.9262 179.173 58.3689C180.59 57.8116 181.864 56.9433 182.901 55.8281C184.043 54.6979 184.937 53.3409 185.523 51.8445C186.122 50.2892 186.281 48.5991 185.983 46.9593C185.665 45.356 185.165 43.7942 184.492 42.3041C183.876 40.8321 183.306 39.3785 182.827 37.9249C181.871 35.1324 181.253 32.2351 180.987 29.2953C180.741 26.643 180.902 23.9684 181.466 21.3649C181.968 19.085 182.854 16.9072 184.088 14.9249C185.864 12.0417 188.414 9.71482 191.448 8.20895C192.277 7.8329 193.135 7.52521 194.014 7.28895L194.714 7.11415C194.794 7.09808 194.871 7.07018 194.944 7.03135H194.704L193.996 7.16015C193.093 7.36555 192.212 7.65826 191.365 8.03415C188.263 9.50732 185.649 11.8379 183.83 14.7501C182.55 16.724 181.617 18.902 181.07 21.1901C180.478 23.833 180.298 26.5515 180.536 29.2493C180.795 32.2262 181.413 35.1608 182.376 37.9893C182.855 39.4613 183.434 40.9333 184.051 42.3961C184.703 43.8712 185.191 45.4139 185.504 46.9961C185.779 48.5411 185.626 50.1317 185.063 51.5961C184.507 53.0358 183.651 54.3404 182.551 55.4233C181.567 56.4911 180.356 57.3253 179.008 57.8649C177.66 58.4045 176.208 58.6359 174.759 58.5421C173.409 58.4044 172.129 57.8734 171.079 57.0149C170.1 56.2088 169.42 55.0977 169.147 53.8593C168.877 52.7043 168.951 51.4956 169.358 50.3817C169.755 49.3601 170.431 48.4707 171.309 47.8149C172.042 47.2193 172.916 46.8219 173.848 46.6608C174.779 46.4997 175.735 46.5803 176.626 46.8949C177.347 47.161 177.959 47.6595 178.365 48.3117C178.541 48.5818 178.647 48.8906 178.676 49.2112C178.705 49.5319 178.655 49.8547 178.531 50.1517C178.364 50.5671 178.079 50.9243 177.711 51.1794C177.343 51.4344 176.908 51.5761 176.461 51.5869C176.166 51.5734 175.88 51.4813 175.633 51.3201Z" fill="#263238"/>
<g opacity="0.2">
<path d="M181.502 259.534C177.031 258.274 172.394 262.294 167.859 261.255C165.099 260.611 163.02 258.145 161.768 255.56C160.517 252.975 159.846 250.123 158.521 247.565C157.196 245.008 154.988 242.662 152.136 242.266C149.523 241.916 146.423 243.14 144.482 241.346C142.982 239.966 143.184 237.408 144.38 235.762C145.576 234.115 147.472 233.149 149.302 232.247C151.311 231.15 153.446 230.304 155.66 229.726C157.896 229.157 160.265 229.432 162.311 230.499C166.138 232.726 166.911 237.776 168.024 242.064C168.704 245.08 169.98 247.93 171.778 250.445C173.604 252.967 176.309 254.713 179.359 255.339C180.533 255.382 181.685 255.677 182.735 256.204C183.701 256.866 184.078 258.522 183.076 259.139" fill="black"/>
</g>
<path d="M204.806 243.002L188.044 237.16L173.02 213.672C172.287 212.527 171.328 211.543 170.202 210.78C169.076 210.018 167.806 209.493 166.47 209.238L139.523 204.15C139.181 205.177 139.227 206.294 139.652 207.289C140.078 208.284 140.853 209.089 141.832 209.551C145.429 211.602 161.612 215.375 161.612 215.375L136.689 214.951C136.689 214.951 135.926 218.549 138.75 219.837C141.574 221.125 159.33 221.768 159.33 221.768L136.579 225.007C136.579 225.007 136.45 228.623 141.648 228.687C146.766 228.64 151.879 228.333 156.966 227.767C157.177 227.735 157.392 227.788 157.564 227.914C157.736 228.039 157.852 228.228 157.886 228.438C157.919 228.641 157.874 228.849 157.76 229.02C157.645 229.191 157.47 229.312 157.27 229.358L142.154 232.928C141.718 233.025 141.327 233.263 141.04 233.606C140.754 233.949 140.589 234.377 140.571 234.823C140.553 235.269 140.684 235.709 140.942 236.073C141.2 236.438 141.571 236.707 141.998 236.838C142.274 236.908 142.561 236.927 142.844 236.893C145.411 236.636 160.802 234.685 160.802 234.685C160.802 234.685 166.23 253.711 169.745 255.247C173.259 256.784 180.628 257.207 180.628 257.207L196.268 263.398L204.806 243.002Z" fill="#FFBE9D"/>
<path d="M138.419 214.878C138.848 214.968 139.286 215.012 139.725 215.007L143.295 215.181C146.303 215.31 150.471 215.457 155.062 215.577L161.548 215.743C163.293 215.67 165.036 215.919 166.69 216.479C167.779 216.907 168.704 217.671 169.331 218.659C169.532 219.039 169.707 219.433 169.855 219.837C169.874 219.724 169.874 219.609 169.855 219.496C169.785 219.177 169.673 218.867 169.524 218.576C168.925 217.499 167.982 216.654 166.847 216.175C165.165 215.551 163.378 215.257 161.584 215.31L155.144 215.108C150.544 214.988 146.377 214.896 143.368 214.85H139.799C139.339 214.821 138.877 214.83 138.419 214.878Z" fill="#C7370B"/>
<path d="M138.042 225.071C138.445 225.087 138.849 225.059 139.247 224.988L142.504 224.574C145.264 224.216 149.054 223.654 153.24 223.047C155.328 222.753 157.325 222.376 159.128 222.219C160.71 222.029 162.312 222.317 163.728 223.047C164.672 223.572 165.486 224.301 166.111 225.182C166.552 225.807 166.727 226.203 166.764 226.184C166.75 226.079 166.718 225.977 166.672 225.881C166.56 225.6 166.425 225.329 166.267 225.071C165.675 224.118 164.861 223.322 163.894 222.753C162.433 221.938 160.754 221.597 159.091 221.778C157.251 221.916 155.255 222.284 153.157 222.569C148.971 223.194 145.181 223.792 142.448 224.243L139.21 224.804C138.813 224.855 138.422 224.945 138.042 225.071Z" fill="#C7370B"/>
<path d="M150.692 230.858C151.581 230.732 152.461 230.542 153.323 230.288C154.942 229.892 157.168 229.303 159.634 228.797C160.221 228.66 160.818 228.571 161.419 228.53C161.957 228.552 162.482 228.707 162.946 228.981C163.77 229.437 164.463 230.096 164.961 230.895C165.373 231.675 165.644 232.523 165.761 233.397C165.838 233.16 165.857 232.907 165.816 232.661C165.768 231.986 165.58 231.328 165.264 230.729C164.77 229.842 164.045 229.104 163.167 228.595C162.639 228.28 162.042 228.097 161.428 228.061C160.793 228.095 160.163 228.182 159.542 228.319C157.04 228.843 154.832 229.478 153.24 229.956C152.363 230.172 151.509 230.474 150.692 230.858Z" fill="#C7370B"/>
<path d="M329.236 255.634L278.958 249.451L190.776 235.118L179.396 263.72C212.516 275.202 246.5 285.561 279.841 294.669C282.566 295.213 285.344 295.447 288.121 295.368C299.253 295.414 326.706 290.943 329.236 255.634Z" fill="#275AA6"/>
<path d="M179.396 263.72C179.481 263.556 179.558 263.387 179.626 263.214C179.782 262.856 179.984 262.359 180.26 261.715C180.803 260.372 181.594 258.44 182.597 255.974L190.96 235.182L190.748 235.302L233.593 242.459C243.713 244.198 253.419 245.33 262.214 246.498C266.621 247.078 270.798 247.657 274.689 248.338C276.64 248.651 278.516 248.958 280.32 249.258C282.048 249.535 283.758 249.91 285.444 250.38C290.521 251.98 294.798 255.454 297.404 260.096C298.118 261.344 298.707 262.66 299.161 264.024C299.318 264.493 299.419 264.861 299.483 265.1C299.515 265.227 299.558 265.35 299.612 265.468C299.526 264.97 299.406 264.478 299.253 263.996C298.834 262.61 298.27 261.272 297.57 260.004C296.463 257.989 295.041 256.166 293.356 254.603C291.101 252.542 288.427 250.991 285.518 250.058C283.82 249.575 282.097 249.185 280.356 248.89C278.516 248.559 276.676 248.219 274.726 247.897C270.825 247.253 266.648 246.645 262.251 246.057C253.446 244.87 243.75 243.729 233.648 241.981L190.785 234.924H190.629L190.574 235.072C187.151 243.757 184.336 250.914 182.367 255.919L180.122 261.696C179.874 262.35 179.69 262.856 179.543 263.214C179.396 263.573 179.396 263.72 179.396 263.72Z" fill="#263238"/>
<path d="M302.179 293.85C302.042 293.865 301.906 293.893 301.774 293.933L300.606 294.218C299.575 294.439 298.057 294.789 296.07 295.028C290.456 295.72 284.765 295.446 279.243 294.218C277.495 293.85 275.692 293.354 273.806 292.82L267.936 291.164L255.056 287.484C245.958 284.835 235.976 281.863 225.534 278.615C208.054 273.187 191.99 267.87 179.534 263.573L179.644 263.822C183.085 255.082 185.909 247.933 187.869 242.938C188.835 240.463 189.58 238.522 190.104 237.178C190.353 236.534 190.537 236.038 190.675 235.67C190.813 235.302 190.85 235.155 190.85 235.155C190.85 235.155 190.767 235.32 190.62 235.651C190.472 235.982 190.27 236.507 190.003 237.142L187.676 242.855L179.294 263.684L179.221 263.868L179.405 263.932C191.88 268.293 207.925 273.638 225.405 279.075C235.847 282.323 245.838 285.285 254.946 287.917L267.9 291.597L273.778 293.216C275.618 293.74 277.458 294.237 279.234 294.596C284.795 295.8 290.523 296.027 296.162 295.267C298.209 294.99 300.223 294.515 302.179 293.85Z" fill="#263238"/>
<path d="M282.693 249.451C283.105 249.56 283.528 249.625 283.954 249.644L287.404 249.985L298.775 251.098L310.146 252.312L313.596 252.671C314.015 252.743 314.441 252.768 314.866 252.745C314.456 252.624 314.038 252.538 313.614 252.487C312.805 252.358 311.636 252.184 310.183 251.981C307.285 251.576 303.274 251.061 298.83 250.629C294.386 250.197 290.348 249.847 287.431 249.654C285.968 249.552 284.782 249.488 283.963 249.451C283.54 249.415 283.116 249.415 282.693 249.451Z" fill="#263238"/>
<path d="M370.544 341.681C373.083 345.315 378.033 344.11 380.324 341.893C382.614 339.676 383.58 336.465 384.464 333.401C386.478 326.4 388.512 319.058 387.012 311.928C386.645 309.765 385.691 307.744 384.252 306.086C383.526 305.27 382.598 304.659 381.562 304.315C380.525 303.971 379.415 303.906 378.346 304.127C375.852 304.78 374.307 307.218 373.184 309.546C369.885 316.402 368.157 323.907 368.124 331.515C368.124 335.048 368.529 338.765 370.526 341.681" fill="#275AA6"/>
<g opacity="0.2">
<path d="M370.544 341.681C373.083 345.315 378.033 344.11 380.324 341.893C382.614 339.676 383.58 336.465 384.464 333.401C386.478 326.4 388.512 319.058 387.012 311.928C386.645 309.765 385.691 307.744 384.252 306.086C383.526 305.27 382.598 304.659 381.562 304.315C380.525 303.971 379.415 303.906 378.346 304.127C375.852 304.78 374.307 307.218 373.184 309.546C369.885 316.402 368.157 323.907 368.124 331.515C368.124 335.048 368.529 338.765 370.526 341.681" fill="black"/>
</g>
<path d="M380.075 360.072C384.234 357.928 389.128 357.652 393.746 358.416C396.221 358.821 398.816 359.566 400.499 361.434C402.183 363.301 402.505 366.576 400.573 368.177C399.32 369.019 397.815 369.399 396.313 369.254C392.698 369.208 388.686 368.573 385.798 370.753C384.151 371.986 383.038 374.056 381.087 374.663C380.103 374.893 379.071 374.797 378.146 374.389C377.222 373.98 376.456 373.282 375.963 372.4C375.023 370.59 374.816 368.489 375.383 366.53C375.613 365.165 376.156 363.87 376.97 362.75C377.784 361.629 378.847 360.713 380.075 360.072Z" fill="#275AA6"/>
<path d="M363.561 346.898C366.321 343.613 366.846 338.838 365.613 334.735C364.38 330.632 361.611 327.136 358.418 324.284C354.659 320.936 350.285 318.352 345.538 316.676C343.702 315.926 341.723 315.59 339.742 315.691C338.752 315.747 337.791 316.044 336.942 316.557C336.094 317.07 335.384 317.784 334.876 318.635C333.514 321.22 334.82 324.367 336.228 326.915C338.708 331.426 341.541 335.733 344.701 339.795C347.24 343.07 350.148 346.3 354.012 347.781C357.876 349.262 361.905 349.087 363.957 346.401" fill="#275AA6"/>
<path d="M370.369 396.467C370.507 395.928 370.584 395.376 370.599 394.82C370.719 393.624 370.866 392.116 371.041 390.322C371.266 388.101 371.604 385.893 372.053 383.707C372.643 381.049 373.446 378.443 374.454 375.914C375.443 373.386 376.784 371.011 378.438 368.858C379.785 367.107 381.503 365.678 383.47 364.672C384.814 364.009 386.255 363.564 387.739 363.356C388.291 363.333 388.84 363.253 389.376 363.117C388.823 363.058 388.265 363.058 387.711 363.117C386.179 363.234 384.681 363.623 383.286 364.267C381.215 365.247 379.398 366.692 377.978 368.49C376.252 370.67 374.86 373.095 373.847 375.684C372.829 378.256 372.032 380.909 371.464 383.615C371.022 385.824 370.715 388.057 370.544 390.303C370.397 392.217 370.342 393.762 370.323 394.83C370.281 395.376 370.296 395.924 370.369 396.467Z" fill="#263238"/>
<path d="M370.682 393.008C370.729 392.756 370.744 392.5 370.728 392.244C370.728 391.665 370.728 390.938 370.728 390.046C370.728 388.15 370.728 385.4 370.829 382.005C370.995 375.215 371.584 365.831 372.669 355.527C373.755 345.223 375.346 335.95 376.699 329.298C377.03 327.624 377.352 326.124 377.619 324.808C377.886 323.493 378.162 322.361 378.401 321.441C378.64 320.521 378.778 319.868 378.916 319.307C378.988 319.061 379.034 318.808 379.054 318.552C378.934 318.779 378.845 319.02 378.787 319.27C378.612 319.822 378.41 320.521 378.143 321.368C377.876 322.214 377.573 323.41 377.223 324.726C376.874 326.041 376.515 327.532 376.156 329.197C374.281 337.867 372.871 346.632 371.933 355.454C370.802 365.785 370.286 375.188 370.24 381.996C370.24 385.4 370.24 388.16 370.36 390.055C370.415 390.975 370.461 391.674 370.498 392.244C370.526 392.506 370.588 392.763 370.682 393.008Z" fill="#263238"/>
<path d="M370.728 374.866C370.786 374.106 370.786 373.343 370.728 372.584C370.645 371.112 370.443 368.987 370.029 366.383C369.528 363.339 368.855 360.326 368.014 357.358C367.009 353.71 365.749 350.138 364.242 346.668C361.618 340.288 357.859 334.437 353.147 329.399C352.332 328.537 351.462 327.729 350.543 326.98C350.138 326.639 349.789 326.299 349.43 326.06L348.418 325.36C347.805 324.903 347.159 324.491 346.486 324.128C346.376 324.284 349.246 325.968 352.797 329.767C357.357 334.844 361.016 340.663 363.616 346.971C365.113 350.41 366.379 353.944 367.407 357.551C368.274 360.494 368.992 363.479 369.56 366.494C370.029 369.07 370.305 371.176 370.48 372.63C370.502 373.381 370.585 374.128 370.728 374.866Z" fill="#263238"/>
<path d="M102.925 83.1521C103.845 75.8565 110 69.0577 117.351 69.0577C121.684 69.0577 125.815 71.3209 128.777 74.4949C129.831 75.562 130.8 76.7093 131.675 77.9265C132.298 76.5608 133.024 75.2445 133.846 73.9889C136.128 70.3089 139.725 67.2637 143.966 66.4081C151.179 64.9729 158.558 70.4193 160.885 77.3929C163.213 84.3665 161.272 92.1865 157.454 98.4609C153.636 104.735 147.058 112.951 134.941 117.017C126.597 115.95 115.41 108.544 110.432 103.135C105.455 97.7249 102.024 90.4477 102.925 83.1521Z" fill="#275AA6"/>
<path d="M105.575 96.2437H105.814L106.522 96.1977L109.282 95.9677L119.274 95.0477L119.099 94.9373L123.257 105.793L123.515 106.447L123.68 105.766C124.941 100.494 126.367 94.5969 127.866 88.3777L129.219 82.7197L128.796 82.8117L136.422 93.2997L136.496 93.3917H136.579L154.142 91.5517L159.11 90.9997L160.425 90.8341L160.876 90.7513C160.723 90.7371 160.569 90.7371 160.416 90.7513L159.1 90.8525L154.114 91.2849L136.542 92.9409L136.735 93.0329L129.145 82.5173L128.842 82.1033L128.722 82.6001C128.28 84.4401 127.802 86.3445 127.36 88.2765C125.879 94.4957 124.472 100.402 123.211 105.674H123.634L119.384 94.8453L119.338 94.7257H119.209L109.227 95.7929L106.513 96.1149L105.814 96.2069L105.575 96.2437Z" fill="#FAFAFA"/>
<path d="M379.943 226.396L365.062 230.804L367.597 239.36C367.905 240.401 368.614 241.277 369.569 241.795C370.523 242.313 371.644 242.431 372.685 242.123L379.742 240.032C380.783 239.724 381.659 239.015 382.177 238.061C382.695 237.106 382.813 235.985 382.504 234.944L379.97 226.388L379.943 226.396Z" fill="#275AA6"/>
<path opacity="0.3" d="M379.943 226.396L365.062 230.804L367.599 239.369C367.906 240.405 368.612 241.277 369.562 241.793C370.512 242.309 371.628 242.426 372.665 242.119L379.722 240.029C380.235 239.877 380.713 239.625 381.129 239.288C381.545 238.952 381.89 238.536 382.146 238.066C382.401 237.595 382.561 237.079 382.617 236.547C382.673 236.015 382.624 235.477 382.472 234.964L379.935 226.398L379.943 226.396Z" fill="black"/>
<path d="M367.388 239.359C369.942 238.859 372.462 238.198 374.932 237.381C377.433 236.716 379.891 235.899 382.292 234.934C379.739 235.441 377.22 236.105 374.748 236.921C372.248 237.586 369.791 238.4 367.388 239.359Z" fill="#263238"/>
<path d="M377.619 236.24C377.556 236.005 377.447 235.785 377.299 235.592C377.15 235.399 376.965 235.238 376.753 235.117C376.542 234.996 376.309 234.919 376.067 234.889C375.826 234.859 375.581 234.877 375.346 234.943L372.366 235.863C372.134 235.936 371.92 236.054 371.735 236.21C371.549 236.367 371.397 236.558 371.286 236.773C371.175 236.989 371.107 237.224 371.087 237.466C371.067 237.707 371.095 237.951 371.17 238.181L377.619 236.24Z" fill="#263238"/>
<path d="M365.723 154.112L382.283 222.569C382.662 224.014 382.471 225.549 381.751 226.857C381.03 228.165 379.834 229.146 378.41 229.598L367.563 232.818C366.162 233.204 364.668 233.052 363.374 232.391C362.08 231.73 361.08 230.609 360.571 229.248L334.563 163.33L365.723 154.112Z" fill="#275AA6"/>
<path d="M336.706 168.758C336.706 168.887 343.57 166.973 351.951 164.489C360.332 162.005 367.103 159.889 367.066 159.761C367.03 159.632 360.203 161.545 351.813 164.029C343.422 166.513 336.67 168.629 336.706 168.758Z" fill="#263238"/>
<path d="M364.674 160.543C364.628 159.556 364.423 158.584 364.067 157.663C363.86 156.694 363.503 155.763 363.009 154.903C363.05 155.889 363.252 156.862 363.607 157.783C363.811 158.754 364.171 159.687 364.674 160.543Z" fill="#263238"/>
<path d="M362.2 161.269C361.961 159.316 361.398 157.416 360.534 155.648C360.581 156.634 360.786 157.607 361.142 158.528C361.349 159.491 361.706 160.416 362.2 161.269Z" fill="#263238"/>
<path d="M359.734 162.005C359.687 161.019 359.482 160.047 359.127 159.126C358.924 158.155 358.567 157.223 358.069 156.366C358.109 157.352 358.311 158.325 358.667 159.245C358.87 160.217 359.231 161.149 359.734 162.005Z" fill="#263238"/>
<path d="M357.259 162.732C357.021 160.779 356.458 158.879 355.594 157.111C355.844 159.062 356.406 160.96 357.259 162.732Z" fill="#263238"/>
<path d="M354.794 163.468C354.747 162.482 354.542 161.51 354.186 160.589C353.984 159.618 353.626 158.686 353.128 157.829C353.169 158.815 353.371 159.787 353.726 160.708C353.93 161.68 354.29 162.612 354.794 163.468Z" fill="#263238"/>
<path d="M352.319 164.195C352.08 162.242 351.517 160.342 350.654 158.574C350.904 160.525 351.466 162.423 352.319 164.195Z" fill="#263238"/>
<path d="M349.853 164.931C349.807 163.945 349.602 162.972 349.246 162.051C349.043 161.081 348.686 160.149 348.188 159.291C348.229 160.277 348.431 161.25 348.786 162.171C348.989 163.143 349.35 164.075 349.853 164.931Z" fill="#263238"/>
<path d="M347.388 165.658C347.335 164.672 347.131 163.701 346.78 162.778C346.579 161.806 346.219 160.873 345.713 160.018C345.765 161.004 345.97 161.975 346.32 162.898C346.522 163.87 346.882 164.803 347.388 165.658Z" fill="#263238"/>
<path d="M344.913 166.394C344.873 165.408 344.671 164.435 344.315 163.514C344.107 162.544 343.746 161.612 343.248 160.754C343.294 161.74 343.499 162.713 343.855 163.634C344.058 164.604 344.415 165.536 344.913 166.394Z" fill="#263238"/>
<path d="M342.447 167.12C342.197 165.17 341.635 163.272 340.782 161.499C341.021 163.453 341.583 165.352 342.447 167.12Z" fill="#263238"/>
<path d="M339.972 167.857C339.933 166.87 339.73 165.897 339.374 164.977C339.171 164.005 338.811 163.073 338.307 162.217C338.354 163.203 338.559 164.175 338.914 165.097C339.117 166.067 339.474 166.999 339.972 167.857Z" fill="#263238"/>
<path d="M337.507 168.583C337.257 166.632 336.694 164.734 335.842 162.962C336.08 164.915 336.643 166.815 337.507 168.583Z" fill="#263238"/>
<path d="M361.721 189.9L360.553 185.98L356.68 187.13L357.765 190.801L354.6 191.73L355.741 195.585L359.246 194.555L360.24 197.913L363.478 196.947L362.411 193.34L366.229 192.209L365.217 188.796L361.721 189.9Z" fill="white"/>
<path d="M352.356 194.325C352.411 194.325 352.153 193.589 352.089 192.236C352.012 190.329 352.561 188.448 353.653 186.882C354.396 185.809 355.387 184.932 356.542 184.325C357.872 183.642 359.366 183.346 360.856 183.469C362.503 183.62 364.067 184.261 365.346 185.309C366.722 186.428 367.728 187.937 368.232 189.638C368.736 191.338 368.715 193.152 368.17 194.84C367.67 196.412 366.708 197.797 365.41 198.815C364.226 199.725 362.812 200.289 361.326 200.443C360.026 200.564 358.717 200.371 357.508 199.882C355.733 199.154 354.248 197.86 353.285 196.202C352.595 195.033 352.42 194.288 352.365 194.306C352.383 194.489 352.427 194.669 352.494 194.84C352.65 195.345 352.86 195.833 353.119 196.294C354.063 198.027 355.563 199.392 357.379 200.167C358.727 200.744 360.203 200.952 361.658 200.771C363.113 200.59 364.493 200.026 365.659 199.137C367.04 198.074 368.066 196.618 368.603 194.96C369.187 193.187 369.219 191.278 368.693 189.487C368.167 187.696 367.109 186.107 365.659 184.932C364.307 183.829 362.651 183.164 360.912 183.027C359.343 182.9 357.771 183.219 356.376 183.947C355.176 184.599 354.15 185.53 353.386 186.661C352.294 188.286 351.779 190.229 351.923 192.181C351.96 192.71 352.049 193.234 352.19 193.745C352.214 193.946 352.27 194.142 352.356 194.325Z" fill="white"/>
</g>
<defs>
<clipPath id="clip0_2_213">
<rect width="461.859" height="428.859" fill="white" transform="matrix(-1 0 0 1 433.859 0.000152588)"/>
</clipPath>
</defs>
</svg>
