<svg width="280" height="270" viewBox="0 0 280 270" fill="none" xmlns="http://www.w3.org/2000/svg">
<path d="M140 270C217.32 270 280 234.02 280 189.636C280 145.252 217.32 109.272 140 109.272C62.6801 109.272 0 145.252 0 189.636C0 234.02 62.6801 270 140 270Z" fill="#F5F5F5"/>
<path d="M218.94 224.005C241.403 224.005 259.613 213.642 259.613 200.86C259.613 188.077 241.403 177.714 218.94 177.714C196.477 177.714 178.267 188.077 178.267 200.86C178.267 213.642 196.477 224.005 218.94 224.005Z" fill="#A4C0E9"/>
<path d="M140 231.617C165.368 231.617 185.933 219.917 185.933 205.484C185.933 191.05 165.368 179.35 140 179.35C114.632 179.35 94.0674 191.05 94.0674 205.484C94.0674 219.917 114.632 231.617 140 231.617Z" fill="#A4C0E9"/>
<path d="M59.6822 224.005C82.1453 224.005 100.355 213.642 100.355 200.86C100.355 188.077 82.1453 177.714 59.6822 177.714C37.2192 177.714 19.0093 188.077 19.0093 200.86C19.0093 213.642 37.2192 224.005 59.6822 224.005Z" fill="#A4C0E9"/>
<path d="M43.4876 170.297C43.9791 164.773 40.9344 152.977 35.7641 145.296C30.5938 137.614 21.9128 131.581 15.217 133.21C8.9807 134.726 8.9424 142.609 15.817 148.429C22.6915 154.248 33.1598 161.716 35.6045 170.964L41.4003 182.546L43.4876 170.297Z" fill="#275AA6"/>
<path opacity="0.1" d="M43.4876 170.297C43.9791 164.773 40.9344 152.977 35.7641 145.296C30.5938 137.614 21.9128 131.581 15.217 133.21C8.9807 134.726 8.9424 142.609 15.817 148.429C22.6915 154.248 33.1598 161.716 35.6045 170.964L41.4003 182.546L43.4876 170.297Z" fill="black"/>
<path d="M43.2263 177.897C43.1382 177.881 43.0576 177.837 42.9967 177.773C42.9357 177.708 42.8976 177.626 42.888 177.538C40.8135 158.35 26.7005 141.678 17.7323 137.488C17.6834 137.465 17.6397 137.433 17.6035 137.393C17.5674 137.354 17.5396 137.307 17.5218 137.257C17.504 137.207 17.4965 137.153 17.4998 137.1C17.503 137.047 17.517 136.995 17.5408 136.947C17.5655 136.901 17.5993 136.861 17.6401 136.828C17.6809 136.795 17.728 136.771 17.7785 136.756C17.8291 136.741 17.882 136.737 17.9344 136.743C17.9867 136.748 18.0374 136.764 18.0833 136.79C27.2239 141.055 41.5986 158.004 43.705 177.488C43.7112 177.54 43.7066 177.594 43.6916 177.644C43.6765 177.695 43.6513 177.742 43.6174 177.784C43.5835 177.825 43.5416 177.858 43.4941 177.883C43.4467 177.908 43.3947 177.923 43.3412 177.928C43.3013 177.924 43.2624 177.914 43.2263 177.897Z" fill="white"/>
<path d="M39.3002 189.724C38.6619 186.541 35.2789 181.08 29.432 176.305C22.9596 171.027 14.4382 168.126 12.753 164.301C10.7296 159.709 14.8467 155.896 21.8425 157.381C28.8384 158.866 40.4237 169.441 41.1449 183.936L39.3002 189.724Z" fill="#275AA6"/>
<path d="M40.96 186.585C40.8813 186.571 40.8083 186.535 40.7496 186.481C40.6908 186.428 40.6487 186.359 40.6281 186.283C36.1983 169.617 24.1917 162.861 18.4661 161.621C18.4077 161.615 18.3512 161.598 18.3004 161.569C18.2495 161.54 18.2055 161.501 18.1711 161.454C18.1367 161.407 18.1128 161.354 18.1009 161.297C18.089 161.24 18.0894 161.182 18.1022 161.126C18.1149 161.069 18.1396 161.016 18.1747 160.97C18.2098 160.923 18.2544 160.885 18.3057 160.857C18.357 160.829 18.4137 160.812 18.4722 160.807C18.5306 160.802 18.5895 160.809 18.6448 160.829C24.9768 162.2 36.9004 169.064 41.426 186.081C41.441 186.147 41.4398 186.215 41.4224 186.279C41.405 186.344 41.3721 186.404 41.3263 186.453C41.2806 186.502 41.2234 186.54 41.1596 186.563C41.0958 186.586 41.0274 186.593 40.96 186.585Z" fill="white"/>
<path d="M230.512 177.72C229.995 171.914 233.378 153.229 238.81 145.163C244.242 137.098 254.085 128.951 261.119 130.662C267.668 132.26 267.713 140.539 260.481 146.654C253.249 152.769 242.264 160.621 239.71 170.328L233.327 186.748L230.512 177.72Z" fill="#275AA6"/>
<path opacity="0.1" d="M230.512 177.72C229.995 171.914 233.378 153.229 238.81 145.163C244.242 137.098 254.085 128.951 261.119 130.662C267.668 132.26 267.713 140.539 260.481 146.654C253.249 152.769 242.264 160.621 239.71 170.328L233.327 186.748L230.512 177.72Z" fill="black"/>
<path d="M231.699 177.62C231.792 177.603 231.877 177.557 231.941 177.489C232.005 177.421 232.046 177.335 232.057 177.242C234.233 157.079 249.068 139.564 258.483 135.16C258.534 135.137 258.58 135.103 258.618 135.062C258.657 135.021 258.686 134.972 258.705 134.92C258.724 134.867 258.732 134.811 258.729 134.755C258.726 134.699 258.712 134.645 258.687 134.594C258.664 134.543 258.63 134.497 258.588 134.459C258.546 134.421 258.497 134.391 258.443 134.372C258.39 134.354 258.333 134.346 258.276 134.349C258.219 134.353 258.163 134.368 258.112 134.393C248.538 138.879 233.403 156.683 231.195 177.173C231.189 177.229 231.194 177.285 231.21 177.338C231.226 177.392 231.252 177.441 231.288 177.485C231.323 177.528 231.367 177.564 231.417 177.59C231.467 177.617 231.522 177.633 231.578 177.639C231.619 177.639 231.66 177.632 231.699 177.62Z" fill="white"/>
<path d="M235.829 190.045C236.467 186.698 239.212 181.017 244.963 175.575C251.985 168.9 263.238 165.641 265.013 161.628C267.138 156.808 263.136 153.21 255.846 155.047C246.055 157.513 234.635 168.749 233.889 183.986L235.829 190.045Z" fill="#275AA6"/>
<path d="M234.08 186.742C234.162 186.729 234.239 186.694 234.302 186.639C234.364 186.584 234.409 186.513 234.431 186.434C239.084 168.919 254.148 160.193 260.168 158.891C260.223 158.879 260.276 158.856 260.323 158.824C260.37 158.792 260.41 158.751 260.441 158.704C260.472 158.657 260.493 158.604 260.503 158.548C260.513 158.493 260.512 158.436 260.5 158.381C260.488 158.326 260.466 158.273 260.433 158.227C260.401 158.18 260.36 158.14 260.311 158.11C260.263 158.079 260.209 158.059 260.153 158.049C260.096 158.039 260.038 158.041 259.983 158.054C253.325 159.501 238.344 168.34 233.595 186.214C233.58 186.268 233.575 186.324 233.582 186.38C233.59 186.436 233.608 186.49 233.637 186.538C233.665 186.587 233.703 186.629 233.749 186.663C233.794 186.697 233.846 186.722 233.901 186.736C233.96 186.75 234.021 186.752 234.08 186.742Z" fill="white"/>
<path d="M238.363 64.4724C234.425 60.4712 227.882 51.1413 227.882 51.1413L223.848 37.3888C223.752 37.4265 225.903 37.4328 226.554 37.3888C230.914 37.6781 232.197 38.0179 234.91 40.9685C237.061 43.2899 245.021 55.4886 247.88 59.213L255.706 48.5557C257.519 45.8504 257.225 42.8244 258.17 40.6099C259.114 38.3953 260.633 37.4265 261.853 35.4322C263.072 33.4379 263.365 32.1293 264.368 33.1485C265.37 34.1677 264.214 36.9232 264.061 37.5523C263.908 38.1814 262.389 40.0688 264.936 39.0748C267.483 38.0808 271.427 33.5008 272.449 32.5634C273.47 31.626 274 33.0793 273.77 34.2306C273.54 35.3819 274.638 38.0053 274.236 39.8927C273.815 41.9121 273.515 42.8369 271.542 44.7935C269.697 46.6242 265.197 48.8639 263.436 51.2609C261.674 53.6578 257.914 61.1066 255.616 65.5985C252.693 71.3047 249.489 74.5509 245.71 71.3613C242.812 68.8763 239.825 65.9571 238.363 64.4724Z" fill="#FFBDA7"/>
<path d="M228.291 37.2817C231.629 37.5837 233.397 38.3324 236.729 42.6356C240.061 46.9387 247.798 58.2692 247.798 58.2692L254.481 50.2102C254.481 50.2102 259.083 53.6641 261.502 57.703C261.502 57.703 255.036 68.3981 252.445 71.097C249.853 73.7959 247.849 74.0098 244.325 71.097C240.802 68.1842 230.64 57.1368 230.64 57.1368L228.291 37.2817Z" fill="#F0F0F0"/>
<path d="M247.797 58.2693C246.285 60.4272 245.308 63.9314 245.576 65.6992C245.576 65.6992 243.47 63.3085 247.012 57.1243L247.797 58.2693Z" fill="#E0E0E0"/>
<path d="M198.839 197.752H206.429L207.942 184.509H198.839V197.752Z" fill="#FFBDA7"/>
<path d="M223.912 184.131L231.999 184.395L231.853 170.687L222.706 170.511L223.912 184.131Z" fill="#FFBDA7"/>
<path d="M198.922 91.3044C198.775 98.5645 197.212 146.61 197.212 146.61C196.671 150.537 196.349 154.489 196.248 158.451C196.043 168.051 198.086 190.838 198.086 190.838C198.539 192.908 206.384 193.751 207.425 191.882C207.425 191.882 211.714 158.828 212.933 149.328C213.993 141.036 217.497 113.921 217.497 113.921L220.203 140.565C220.1 143.67 220.175 146.779 220.427 149.876C220.74 154.279 222.98 180.193 222.98 180.193C223.018 181.81 231.176 183.144 232.555 180.765C232.555 180.765 235.108 142.918 235.216 138.885C235.306 134.286 234.655 90.7822 234.655 90.7822L198.922 91.3044Z" fill="#37474F"/>
<path d="M206.863 193.946L206.99 192.819C207.412 192.819 207.597 193.285 207.769 194.279C208.126 196.399 208.804 198.454 209.78 200.375C211.056 202.986 211.822 204.074 214.363 207.22C214.963 207.969 216.323 209.158 216.801 209.988C217.28 210.819 217.44 213.134 216.635 213.669C213.674 215.613 209.173 215.669 205.988 214.751C204.781 214.462 203.692 213.816 202.866 212.901C202.04 211.986 201.518 210.845 201.367 209.63C200.85 206.773 200.575 205.006 199.101 202.848C198.558 202.055 197.684 201.413 197.32 200.532C196.682 198.941 197.186 197.154 197.607 195.569C197.971 194.204 198.367 192.7 198.839 192.826V193.669C199.407 194.298 201.393 194.927 203.18 194.977C204.329 195.021 206.876 194.814 206.863 193.946Z" fill="#263238"/>
<path d="M231.974 182.231C232.171 182.363 232.612 182.86 233.448 183.628C234.281 184.342 235.155 185.007 236.065 185.622C237.916 186.958 239.862 188.163 241.886 189.227C244.293 190.529 246.463 191.322 249.342 192.599C249.644 192.719 249.918 192.899 250.146 193.128C250.32 193.33 250.441 193.572 250.497 193.832C250.581 194.368 250.513 194.916 250.3 195.416C250.087 195.916 249.738 196.348 249.291 196.663C248.389 197.285 247.365 197.713 246.284 197.922C243.842 198.597 241.269 198.673 238.791 198.142C236.649 197.544 234.616 196.618 232.765 195.399C231.223 194.321 229.468 193.577 227.614 193.216C225.999 192.989 224.014 193.065 222.61 192.115C221.058 191.058 221.678 188.799 222.118 186.855C222.597 184.741 222.705 181.508 223.682 181.577L223.758 182.426C223.848 183.339 226.095 183.76 227.831 183.76C229.273 183.76 231.999 183.389 231.986 182.722L231.974 182.231Z" fill="#263238"/>
<path d="M218.327 103.755C221.422 102.573 224.245 100.789 226.625 98.5078C226.625 98.5078 225.304 102.283 219.884 105.428L220.242 138.583L217.51 113.909L218.327 103.755Z" fill="#263238"/>
<path d="M211.153 36.4703C209.78 36.7912 205.408 37.955 201.859 39.1881C200.069 39.8615 198.517 41.0331 197.391 42.5602C194.838 46.2657 197.136 54.5135 199.031 70.0151C198.891 80.0307 198.597 92.4873 198.597 92.4873C203.27 95.8405 225.068 98.1179 234.904 91.0403C234.904 91.0403 235.23 53.4503 234.579 48.562C233.302 39.2007 229.619 36.7031 221.947 36.2627L211.153 36.4703Z" fill="#275AA6"/>
<path opacity="0.6" d="M211.153 36.4703C209.78 36.7912 205.408 37.955 201.859 39.1881C200.069 39.8615 198.517 41.0331 197.391 42.5602C194.838 46.2657 197.136 54.5135 199.031 70.0151C198.891 80.0307 198.597 92.4873 198.597 92.4873C203.27 95.8405 225.068 98.1179 234.904 91.0403C234.904 91.0403 235.23 53.4503 234.579 48.562C233.302 39.2007 229.619 36.7031 221.947 36.2627L211.153 36.4703Z" fill="white"/>
<path d="M224.55 47.4547C225.239 49.795 229.318 66.2403 228.744 72.0282C228.306 74.9984 227.491 77.9025 226.318 80.6723C224.55 84.7931 223.369 81.1064 222.386 78.6717C221.555 76.4017 220.997 74.043 220.726 71.6444C220.401 68.5366 221.671 59.0934 221.18 48.0209C221.551 47.5057 222.114 47.1567 222.746 47.0505C223.378 46.9444 224.027 47.0897 224.55 47.4547Z" fill="#275AA6"/>
<path opacity="0.2" d="M224.55 47.4547C225.239 49.795 229.318 66.2403 228.744 72.0282C228.306 74.9984 227.491 77.9025 226.318 80.6723C224.55 84.7931 223.369 81.1064 222.386 78.6717C221.555 76.4017 220.997 74.043 220.726 71.6444C220.401 68.5366 221.671 59.0934 221.18 48.0209C221.551 47.5057 222.114 47.1567 222.746 47.0505C223.378 46.9444 224.027 47.0897 224.55 47.4547Z" fill="black"/>
<path d="M224.703 42.1701C226.318 43.529 224.55 47.4484 224.55 47.4484C223.395 47.2029 222.188 47.4057 221.18 48.0146C221.18 48.0146 217.988 46.662 217.957 44.3091C217.957 42.1701 220.261 42.8558 221.901 42.5727C223.618 42.277 224.512 41.0251 224.703 42.1701Z" fill="#275AA6"/>
<path opacity="0.2" d="M224.703 42.1701C226.318 43.529 224.55 47.4484 224.55 47.4484C223.395 47.2029 222.188 47.4057 221.18 48.0146C221.18 48.0146 217.988 46.662 217.957 44.3091C217.957 42.1701 220.261 42.8558 221.901 42.5727C223.618 42.277 224.512 41.0251 224.703 42.1701Z" fill="black"/>
<path opacity="0.2" d="M224.55 47.4546C224.288 46.5361 223.018 46.6241 221.997 46.3096C221.424 46.0858 220.945 45.6779 220.637 45.152C220.114 44.2649 220.637 42.7928 221.365 42.6355C219.801 42.7424 217.943 42.3901 217.95 44.309C217.95 46.6619 221.173 48.0145 221.173 48.0145C222.184 47.4061 223.393 47.2056 224.55 47.4546Z" fill="black"/>
<path d="M213.45 14.7404C213.506 16.6735 214.142 18.547 215.277 20.1244C216.412 21.7018 217.996 22.9125 219.829 23.6036C221.661 24.2947 223.66 24.4353 225.574 24.0077C227.488 23.5801 229.23 22.6034 230.581 21.2008C231.932 19.7983 232.831 18.0327 233.165 16.127C233.499 14.2213 233.253 12.2607 232.457 10.4928C231.662 8.72487 230.353 7.22875 228.696 6.19324C227.039 5.15773 225.107 4.62923 223.146 4.67443C221.837 4.70457 220.548 4.98924 219.352 5.51206C218.156 6.03489 217.076 6.78556 216.175 7.72096C215.274 8.65635 214.569 9.75801 214.102 10.9626C213.634 12.1673 213.412 13.4511 213.45 14.7404Z" fill="#455A64"/>
<path d="M206.384 21.8495C206.384 21.8495 208.178 29.2605 208.848 30.4684C209.293 31.2126 210.01 31.7599 210.852 31.9972L210.616 26.7566L206.384 21.8495Z" fill="#455A64"/>
<path d="M208.147 11.1228C207.585 11.0745 207.02 11.1524 206.494 11.3508C205.967 11.5491 205.494 11.8627 205.108 12.2678C203.832 13.633 204.655 17.7915 206.385 21.8493L209.423 22.1198L208.147 11.1228Z" fill="#455A64"/>
<path d="M210.336 22.101C209.736 22.4722 208.842 21.3398 208.07 20.5848C207.297 19.8299 204.833 18.8359 203.672 21.3964C202.51 23.9569 204.897 27.3667 206.863 27.9204C210.208 28.8703 210.655 26.7565 210.655 26.7565L211.223 40.119C213.591 42.9689 219.164 43.1262 221.927 42.5726C224.136 42.1322 224.168 40.5909 221.991 38.2254L221.889 34.394C223.37 34.5937 224.868 34.6359 226.357 34.5198C228.789 34.0858 230.289 32.1544 230.959 29.5309C231.981 25.5234 232.236 21.0504 231.208 13.7274C229.932 4.72466 219.24 4.91969 213.578 8.58746C207.917 12.2552 210.336 22.101 210.336 22.101Z" fill="#FFBDA7"/>
<path d="M210.361 23.1076C210.055 23.1076 208.842 21.2202 208.069 20.5911C207.003 19.6788 208.146 11.1543 208.146 11.1543C207.77 10.4113 207.63 9.57407 207.744 8.75156C207.858 7.92905 208.22 7.15938 208.784 6.54279C210.182 4.95112 212.135 3.00084 218.672 3.6048C223.331 4.03889 228.425 5.34746 232.459 3.27136C232.87 4.57589 232.876 5.97165 232.477 7.27971C232.078 8.58778 231.292 9.74854 230.219 10.6132C230.219 10.6132 228.757 11.5883 224.882 12.142C221.008 12.6956 214.931 12.2867 214.101 12.1986C212.972 12.0728 212.755 13.1549 212.218 16.1117C211.721 18.6785 211.389 23.0635 210.361 23.1076Z" fill="#455A64"/>
<path d="M208.171 11.7897L204.443 9.90234C204.555 9.65521 204.716 9.433 204.917 9.24922C205.119 9.06545 205.356 8.92395 205.614 8.83332C205.873 8.7427 206.147 8.70484 206.421 8.72206C206.695 8.73929 206.962 8.81122 207.207 8.93349C207.713 9.19322 208.096 9.63641 208.275 10.1694C208.455 10.7024 208.418 11.2834 208.171 11.7897Z" fill="#455A64"/>
<path d="M221.863 34.394C221.863 34.394 216.386 33.444 214.458 32.5066C213.323 31.9557 212.384 31.0782 211.765 29.9901C212.079 31.0819 212.613 32.1003 213.335 32.9847C214.771 34.7085 221.901 35.9416 221.901 35.9416L221.863 34.394Z" fill="#F0997A"/>
<path d="M220.031 20.7862C220.011 20.9959 219.929 21.1951 219.795 21.3592C219.661 21.5232 219.481 21.6448 219.277 21.709C219.073 21.7732 218.855 21.777 218.65 21.7201C218.444 21.6631 218.259 21.5479 218.12 21.3887C217.98 21.2295 217.89 21.0333 217.862 20.8245C217.834 20.6157 217.869 20.4034 217.963 20.2139C218.056 20.0245 218.204 19.8663 218.388 19.7589C218.572 19.6515 218.784 19.5996 218.997 19.6098C219.292 19.6307 219.567 19.7664 219.761 19.987C219.955 20.2076 220.052 20.4951 220.031 20.7862Z" fill="#263238"/>
<path d="M219.323 16.7345L216.923 17.8858C216.771 17.5619 216.753 17.1928 216.872 16.8561C216.991 16.5194 217.238 16.2413 217.561 16.0802C217.719 16.0014 217.892 15.9558 218.069 15.9463C218.245 15.9369 218.422 15.9637 218.588 16.0253C218.754 16.0868 218.904 16.1816 219.031 16.3037C219.157 16.4258 219.257 16.5725 219.323 16.7345Z" fill="#263238"/>
<path d="M220.657 28.0336L224.066 28.9521C224.012 29.1741 223.914 29.3833 223.777 29.5674C223.64 29.7514 223.467 29.9066 223.269 30.0239C223.07 30.1411 222.849 30.218 222.62 30.25C222.391 30.2821 222.158 30.2686 221.934 30.2103C221.479 30.0767 221.094 29.7768 220.856 29.3721C220.619 28.9674 220.548 28.4885 220.657 28.0336Z" fill="#F0997A"/>
<path d="M230.64 17.735L228.086 16.8731C228.13 16.7041 228.21 16.546 228.319 16.4088C228.428 16.2716 228.565 16.1583 228.721 16.0761C228.877 15.9939 229.049 15.9445 229.225 15.9312C229.402 15.9178 229.579 15.9408 229.746 15.9986C230.096 16.1151 230.386 16.3622 230.553 16.6869C230.72 17.0115 230.751 17.3878 230.64 17.735Z" fill="#263238"/>
<path d="M229.363 20.4841C229.379 20.6271 229.367 20.7717 229.326 20.9098C229.285 21.0478 229.217 21.1766 229.126 21.2888C229.035 21.401 228.922 21.4943 228.794 21.5635C228.666 21.6327 228.525 21.6764 228.38 21.6921C228.085 21.7111 227.795 21.6148 227.571 21.4241C227.348 21.2333 227.21 20.9634 227.187 20.6729C227.174 20.532 227.19 20.3901 227.233 20.2552C227.276 20.1203 227.346 19.9951 227.438 19.8868C227.53 19.7784 227.643 19.689 227.77 19.6236C227.897 19.5583 228.036 19.5182 228.179 19.5059C228.322 19.4935 228.466 19.5089 228.603 19.5514C228.74 19.5938 228.867 19.6625 228.977 19.7533C229.087 19.8441 229.178 19.9554 229.244 20.0808C229.31 20.2062 229.351 20.3433 229.363 20.4841Z" fill="#263238"/>
<path d="M223.471 19.874L223.867 26.3477L227.288 25.1775L223.471 19.874Z" fill="#F0997A"/>
<path d="M221.902 42.5727C218.87 41.9435 211.689 39.1817 211.012 35.7278L210.923 33.8405C209.742 33.8405 209.206 35.1302 208.625 36.9861C208.382 41.868 213.61 46.3285 218.838 47.5301C219.013 46.3982 219.405 45.3094 219.993 44.3216C220.439 43.5647 221.103 42.9558 221.902 42.5727Z" fill="#275AA6"/>
<path d="M221.876 34.8722C222.676 35.1141 223.404 35.5462 223.995 36.1304C227.921 40.1379 225.68 45.3911 225.68 45.3911C225.477 44.5175 224.972 43.741 224.25 43.1955C223.561 42.7335 222.734 42.5121 221.902 42.5663C222.865 41.5535 222.489 39.7856 221.965 38.2191L221.876 34.8722Z" fill="#275AA6"/>
<path d="M233.289 17.5588L232.759 17.5085C230.987 17.296 229.191 17.3512 227.436 17.672C225.725 18.1313 225.106 18.6409 224.168 18.6535C223.229 18.6661 222.546 18.1439 220.759 17.6909C218.883 17.3807 216.973 17.3362 215.084 17.5588L214.51 17.6217L206.384 19.7733C207.083 19.8819 207.725 20.216 208.21 20.7233L214.133 19.1442C214.216 19.2574 214.299 19.3581 214.357 19.4273C214.439 19.5455 214.497 19.6778 214.529 19.8173C214.642 20.7228 214.841 21.6158 215.123 22.4848C215.29 22.8434 215.523 23.1678 215.812 23.4411C215.923 23.5456 216.042 23.6403 216.17 23.7242L216.38 23.85C216.584 23.9584 216.797 24.0469 217.018 24.1142L217.127 24.1457L217.293 24.1897L217.472 24.2275C217.657 24.264 217.845 24.2892 218.033 24.303H218.27H218.57C220.906 24.303 221.914 23.3215 222.533 22.3087C223.153 21.2958 223.057 19.8677 224.129 19.8677H224.231H224.327C225.119 20.025 224.965 21.3398 225.438 22.2772C225.616 22.6721 225.864 23.0322 226.172 23.3404L226.344 23.4977L226.44 23.5732L226.542 23.6487L226.631 23.7053L226.727 23.7682L226.804 23.8123H226.861C227.15 23.9638 227.46 24.0739 227.78 24.1394H227.863C228.235 24.2112 228.614 24.245 228.993 24.2401C231.176 24.2401 231.974 23.0888 232.357 22.3527C232.692 21.4855 232.948 20.5907 233.123 19.6789C233.164 19.5452 233.238 19.4239 233.34 19.3266C233.613 19.0593 233.797 18.7173 233.87 18.3452C233.875 18.1691 233.821 17.9963 233.716 17.8539C233.611 17.7115 233.461 17.6076 233.289 17.5588ZM221.953 21.3713C221.795 21.913 221.488 22.4009 221.065 22.7805C220.352 23.3646 219.437 23.6552 218.512 23.5921C218.058 23.6245 217.602 23.5488 217.183 23.3714C216.764 23.1941 216.395 22.9202 216.106 22.5729L216.029 22.4722C216.006 22.4401 215.984 22.4065 215.965 22.3716C215.942 22.3431 215.922 22.3113 215.908 22.2772L215.857 22.1954L215.825 22.1262C215.825 22.1262 215.825 22.0822 215.793 22.0633C215.761 22.0444 215.761 22.0004 215.748 21.9626C215.704 21.862 215.672 21.7613 215.64 21.667C215.64 21.604 215.601 21.5474 215.589 21.4908C215.576 21.4342 215.538 21.2895 215.518 21.2014C215.499 21.1133 215.518 21.17 215.518 21.1511V21.0945C215.365 20.3898 215.206 19.0058 215.621 18.6912C216.035 18.3767 217.108 18.0621 218.812 18.1879H218.997C219.261 18.2119 219.523 18.2518 219.782 18.3075L220.089 18.3704C220.348 18.4308 220.603 18.5043 220.855 18.5906L221.085 18.6786L221.34 18.7856H221.391L221.48 18.8359C221.673 18.9209 221.845 19.0453 221.985 19.2008C222.342 19.6664 222.176 20.5849 221.953 21.3713ZM232.095 21.0315C232.004 21.5159 231.8 21.9729 231.5 22.3669C231.2 22.7609 230.812 23.0811 230.365 23.3027C229.961 23.4686 229.527 23.5542 229.089 23.5543C228.608 23.607 228.121 23.5382 227.674 23.3544C227.228 23.1707 226.836 22.8779 226.536 22.5037C226.519 22.4842 226.504 22.4632 226.491 22.4408C226.472 22.4171 226.455 22.3919 226.44 22.3653V22.3275L226.376 22.2143L226.312 22.0822C226.311 22.0612 226.311 22.0402 226.312 22.0193V21.9626C226.308 21.9482 226.308 21.9331 226.312 21.9186C226.244 21.7503 226.195 21.5752 226.165 21.3964C226.012 20.61 225.955 19.6915 226.299 19.2574C226.644 18.8233 227.94 18.3452 229.178 18.2068C229.465 18.2068 229.734 18.1565 229.976 18.1502H230.685H230.895C231.03 18.1615 231.165 18.1804 231.297 18.2068H231.387H231.451H231.546L231.661 18.2382L231.846 18.3075C231.998 18.3631 232.14 18.4416 232.268 18.5402C232.555 18.9429 232.287 20.3332 232.095 21.0315Z" fill="#37474F"/>
<path d="M211.024 35.9354C211.024 35.9354 213.335 47.3666 214.331 55.0985C215.326 62.8304 215.141 84.6672 214.605 98.5078C214.222 108.574 212.69 127.246 212.69 127.246C212.69 127.246 210.137 127.749 204.067 126.755C198.871 125.912 196.241 124.396 195.13 123.736C195.13 123.736 196.094 95.3811 196.828 85.4787C197.498 76.3502 197.467 71.3298 197.467 71.3298L195.284 50.487C195.284 50.487 195.45 37.3887 199.573 36.8351C203.83 36.2626 211.024 35.9354 211.024 35.9354Z" fill="#FAFAFA"/>
<path d="M207.08 54.6833C207.08 54.2052 207.029 53.1734 206.946 51.8648C206.537 45.4792 207.131 36.2375 209.314 35.7782L209.512 36.659C207.91 36.9987 207.661 48.7066 207.859 51.8082C207.948 53.1419 208.012 54.1926 207.993 54.721L207.08 54.6833Z" fill="#275AA6"/>
<path d="M198.788 103.994C197.735 102.226 197.677 100.905 196.088 99.3256C195.407 98.677 194.912 97.8634 194.652 96.9664C194.166 95.5509 194.192 94.0724 194.077 92.5248L184.854 92.9463C184.931 96.328 185.311 99.6964 185.99 103.012C187.739 110.606 189.43 113.802 192.743 114.538C198.028 115.714 199.33 113.468 197.473 109.712C196.675 108.146 196.104 106.477 195.775 104.755C196.347 105.42 197.011 106.002 197.747 106.485C198.123 106.761 198.59 106.887 199.056 106.836C199.521 106.786 199.95 106.564 200.256 106.214C200.486 105.881 199.618 105.384 198.788 103.994Z" fill="#FFBDA7"/>
<path d="M201.277 36.835C201.277 36.835 196.369 36.7658 193.618 39.2068C190.867 41.6478 189.405 48.1781 187.624 54.7272C185.843 61.2764 184.26 67.6305 183.794 72.1854C183.398 75.9601 184.688 96.0039 184.688 96.0039C184.688 96.0039 190.299 97.1678 194.614 94.8337L194.799 72.5943L201.916 50.2982C203.215 45.8639 202.991 41.1306 201.277 36.835Z" fill="#F0F0F0"/>
<path d="M210.852 32.2111C210.214 32.079 209.62 32.4124 209.097 33.2932C208.573 34.174 207.418 36.0236 207.418 36.0236C207.418 36.0236 206.825 42.1638 207.418 43.6926C207.935 45.0137 211.363 51.242 211.363 51.242C211.363 51.242 211.139 57.3068 211.082 59.1186C211.025 60.9305 214.586 68.4925 214.988 72.003C214.988 72.003 215.167 57.7283 214.637 53.7585C213.718 46.8382 212.569 38.5967 211.018 35.7657L210.852 32.2111Z" fill="#EBEBEB"/>
<path d="M205.746 75.8657H205.669V75.2366C206.426 75.1788 207.151 74.9129 207.763 74.4691C207.107 74.039 206.52 73.5153 206.02 72.9152C204.992 71.6003 202.739 62.2201 203.429 60.0371C204.016 58.2063 205.841 54.1673 207.463 54.0981H207.507C209.129 54.0981 211.267 57.9169 211.976 59.6784C212.856 61.7986 211.42 71.3298 210.507 72.7264C210.063 73.3667 209.523 73.9372 208.905 74.4188C209.55 74.8144 210.297 75.0196 211.056 75.0101L211.139 75.6393C210.147 75.6539 209.172 75.3732 208.344 74.834C207.592 75.4098 206.692 75.7672 205.746 75.8657ZM207.539 54.721C206.582 54.7587 204.871 57.7596 204.086 60.2132C203.448 62.2201 205.618 71.2983 206.569 72.5125C207.083 73.1203 207.69 73.6446 208.369 74.0665C209.013 73.5918 209.576 73.0183 210.035 72.3678C210.878 71.0781 212.256 61.8552 211.446 59.9049C210.463 57.5206 208.522 54.721 207.558 54.721H207.539Z" fill="#455A64"/>
<path d="M212.129 75.2807C212.135 75.4018 212.116 75.523 212.075 75.6371C212.033 75.7512 211.969 75.856 211.885 75.9455C211.802 76.035 211.702 76.1074 211.591 76.1585C211.479 76.2096 211.358 76.2384 211.235 76.2432C211.112 76.2486 210.989 76.23 210.873 76.1885C210.757 76.147 210.65 76.0834 210.559 76.0013C210.468 75.9192 210.395 75.8203 210.343 75.7101C210.29 75.6 210.261 75.4808 210.255 75.3593C210.25 75.2379 210.269 75.1166 210.311 75.0023C210.353 74.888 210.418 74.7831 210.501 74.6934C210.584 74.6037 210.684 74.5311 210.796 74.4797C210.908 74.4282 211.029 74.399 211.152 74.3936C211.275 74.3886 211.398 74.4075 211.514 74.4494C211.63 74.4912 211.736 74.5552 211.827 74.6376C211.918 74.72 211.991 74.8192 212.043 74.9295C212.095 75.0399 212.124 75.1592 212.129 75.2807Z" fill="#263238"/>
<path d="M206.639 75.5071C206.644 75.6286 206.625 75.7499 206.583 75.864C206.54 75.9782 206.475 76.0829 206.392 76.1723C206.308 76.2618 206.208 76.334 206.096 76.385C205.984 76.4361 205.862 76.4648 205.739 76.4697C205.616 76.4756 205.493 76.4575 205.378 76.4163C205.262 76.3751 205.156 76.3118 205.065 76.2299C204.974 76.148 204.9 76.0492 204.849 75.9392C204.797 75.8292 204.768 75.7101 204.763 75.5889C204.757 75.4675 204.776 75.3462 204.818 75.2319C204.86 75.1176 204.925 75.0127 205.008 74.923C205.091 74.8333 205.192 74.7607 205.304 74.7093C205.415 74.6578 205.536 74.6286 205.659 74.6232C205.783 74.6178 205.906 74.6365 206.022 74.678C206.138 74.7195 206.244 74.7831 206.335 74.8652C206.426 74.9473 206.5 75.0462 206.552 75.1563C206.604 75.2665 206.634 75.3857 206.639 75.5071Z" fill="#263238"/>
<path d="M212.199 63.8117L211.663 63.774C211.635 63.7724 211.608 63.7654 211.583 63.7534C211.558 63.7415 211.536 63.7248 211.518 63.7044C211.499 63.6839 211.485 63.6601 211.476 63.6342C211.467 63.6084 211.463 63.581 211.465 63.5538C211.574 61.7922 211.516 60.4962 211.299 59.9804C210.354 57.7029 208.395 54.853 207.546 54.8908C206.697 54.9285 204.993 57.9294 204.239 60.276C204.079 61.4664 204.127 62.6749 204.38 63.8494C204.389 63.9037 204.376 63.9593 204.344 64.0041C204.312 64.0489 204.262 64.0793 204.208 64.0885L203.671 64.1703C203.644 64.1738 203.616 64.1719 203.589 64.1646C203.562 64.1573 203.536 64.1448 203.514 64.1278C203.493 64.1108 203.474 64.0897 203.461 64.0657C203.447 64.0417 203.438 64.0152 203.435 63.9879C203.142 62.0313 203.103 60.685 203.327 59.9929C203.722 58.7347 205.605 54.0226 207.501 53.9408C209.397 53.859 211.682 58.4013 212.186 59.6029C212.467 60.276 212.55 61.6161 212.423 63.5915C212.424 63.6209 212.42 63.6504 212.409 63.6779C212.399 63.7055 212.382 63.7305 212.361 63.7513C212.34 63.7721 212.315 63.7883 212.287 63.7987C212.259 63.8091 212.229 63.8135 212.199 63.8117Z" fill="#275AA6"/>
<path d="M221.863 34.394C222.706 34.4695 223.44 35.6963 225.381 36.2814C229.006 37.3383 232.3 38.9615 233.315 41.1571C235 44.7934 235.274 45.5106 235.868 61.7042C236.462 77.8978 236.672 123.987 236.672 123.987C234.931 124.763 233.035 125.139 231.125 125.088C231.125 125.088 231.272 74.1923 230.927 62.7485C230.583 51.3048 228.821 45.7182 226.306 41.9435C225.598 38.7979 223.338 36.6966 221.838 35.1616L221.863 34.394Z" fill="#FAFAFA"/>
<path d="M226.319 41.9562C228.834 45.7309 230.589 51.3112 230.94 62.7612C230.978 64.1201 231.017 66.0326 231.048 68.3289C231.048 68.3289 233.117 57.961 232.753 55.7465C232.389 53.532 229.963 48.9771 229.963 48.9771C230.276 45.2024 229.382 40.8866 227.908 38.2821C227.565 37.6751 227.135 37.12 226.631 36.6338C226.141 36.2422 225.618 35.8928 225.068 35.5894C224.124 34.9278 223.026 34.5103 221.876 34.3752V35.1554C223.35 36.7093 225.61 38.798 226.319 41.9562Z" fill="#EBEBEB"/>
<path d="M150.366 36.7596C155.185 36.6841 157.776 38.8168 161.313 44.3091C164.332 48.9772 171.321 60.1566 173.287 63.5224C175.509 67.2972 175.841 68.87 174.079 71.701C172.426 74.4062 156.749 92.2481 156.749 92.2481L152.708 85.1768L162.781 68.5806L150.972 51.3867L150.366 36.7596Z" fill="#B16668"/>
<path d="M150.053 36.5267C153.538 36.3442 155.709 37.0552 157.809 39.0432C159.909 41.0312 170.728 58.936 170.728 58.936C170.728 58.936 169.171 62.6038 160.043 67.3977L151.106 55.4444L150.053 36.5267Z" fill="#275AA6"/>
<path opacity="0.2" d="M150.053 36.5267C153.538 36.3442 155.709 37.0552 157.809 39.0432C159.909 41.0312 170.728 58.936 170.728 58.936C170.728 58.936 169.171 62.6038 160.043 67.3977L151.106 55.4444L150.053 36.5267Z" fill="black"/>
<path d="M173.99 200.878C174.156 200.878 174.411 202.728 173.492 203.508C172.426 204.414 169.298 205.905 165.162 205.396C161.026 204.886 158.779 203.609 157.139 202.25C155.498 200.891 153.162 198.96 151.292 198.551C149.555 198.173 147.672 197.399 147.117 196.871C146.562 196.343 146.638 193.99 146.638 193.99L173.99 200.878Z" fill="#455A64"/>
<path d="M148.298 184.911C148.142 184.91 147.991 184.965 147.874 185.066C147.756 185.167 147.68 185.306 147.66 185.459C147.532 186.088 147.398 187.975 147.124 189.057C146.693 190.932 146.555 192.86 146.715 194.776C146.945 195.978 149.773 196.814 151.585 197.494C153.712 198.415 155.687 199.645 157.445 201.143C159.36 202.722 163.477 204.364 166.171 204.345C169.362 204.345 172.943 203.307 173.766 201.828C174.788 200.023 173.99 198.979 169.26 196.796C168.366 196.387 165.226 194.55 164.154 193.889C161.256 192.09 158.409 189.586 157.049 186.402C156.943 186.013 156.704 185.671 156.373 185.434C156.083 185.312 155.761 185.283 155.453 185.352C154.666 185.462 153.9 185.688 153.181 186.025C152.543 186.327 151.643 186.654 151.656 187.472C151.674 187.75 151.734 188.023 151.834 188.283C151.892 188.447 151.936 188.667 151.79 188.762C151.643 188.856 151.47 188.762 151.349 188.642C150.884 188.172 150.457 187.668 150.073 187.132C149.853 186.855 149.603 186.604 149.326 186.384C149.046 186.226 148.775 186.054 148.515 185.868C148.228 185.635 148.298 185.283 148.298 184.911Z" fill="#275AA6"/>
<path opacity="0.9" d="M148.298 184.911C148.142 184.91 147.991 184.965 147.874 185.066C147.756 185.167 147.68 185.306 147.66 185.459C147.532 186.088 147.398 187.975 147.124 189.057C146.693 190.932 146.555 192.86 146.715 194.776C146.945 195.978 149.773 196.814 151.585 197.494C153.712 198.415 155.687 199.645 157.445 201.143C159.36 202.722 163.477 204.364 166.171 204.345C169.362 204.345 172.943 203.307 173.766 201.828C174.788 200.023 173.99 198.979 169.26 196.796C168.366 196.387 165.226 194.55 164.154 193.889C161.256 192.09 158.409 189.586 157.049 186.402C156.943 186.013 156.704 185.671 156.373 185.434C156.083 185.312 155.761 185.283 155.453 185.352C154.666 185.462 153.9 185.688 153.181 186.025C152.543 186.327 151.643 186.654 151.656 187.472C151.674 187.75 151.734 188.023 151.834 188.283C151.892 188.447 151.936 188.667 151.79 188.762C151.643 188.856 151.47 188.762 151.349 188.642C150.884 188.172 150.457 187.668 150.073 187.132C149.853 186.855 149.603 186.604 149.326 186.384C149.046 186.226 148.775 186.054 148.515 185.868C148.228 185.635 148.298 185.283 148.298 184.911Z" fill="white"/>
<path d="M157.445 201.143C156.621 200.476 155.747 199.828 154.892 199.255C154.892 199.255 160.451 202.59 162.698 201.074C164.147 200.105 163.458 198.916 163.419 198.557C163.381 198.198 166.956 196.563 168.36 196.399C168.756 196.613 169.081 196.783 169.285 196.877C174.015 199.035 174.813 200.08 173.792 201.91C172.968 203.364 170.371 204.502 166.253 204.502C163.528 204.446 159.385 202.722 157.445 201.143Z" fill="#275AA6"/>
<path opacity="0.8" d="M157.445 201.143C156.621 200.476 155.747 199.828 154.892 199.255C154.892 199.255 160.451 202.59 162.698 201.074C164.147 200.105 163.458 198.916 163.419 198.557C163.381 198.198 166.956 196.563 168.36 196.399C168.756 196.613 169.081 196.783 169.285 196.877C174.015 199.035 174.813 200.08 173.792 201.91C172.968 203.364 170.371 204.502 166.253 204.502C163.528 204.446 159.385 202.722 157.445 201.143Z" fill="white"/>
<path d="M162.979 197.425C165.921 198.582 164.664 199.123 163.847 199.243C163.03 199.362 158.102 196.506 155.057 194.153C151.911 191.7 149.951 189.02 148.757 188.12C148.323 187.78 147.851 187.371 147.436 186.981C147.513 186.352 147.576 185.767 147.634 185.459C147.654 185.306 147.73 185.167 147.848 185.066C147.965 184.965 148.116 184.91 148.272 184.911C148.272 185.283 148.215 185.635 148.502 185.918C148.762 186.104 149.033 186.277 149.313 186.434C149.59 186.655 149.84 186.906 150.059 187.183C150.444 187.718 150.871 188.223 151.336 188.692C153.915 191.901 160.068 196.267 162.979 197.425Z" fill="#275AA6"/>
<path d="M163.662 198.815C163.607 198.816 163.553 198.801 163.506 198.772C163.46 198.743 163.422 198.702 163.399 198.653C163.375 198.604 163.366 198.549 163.373 198.495C163.381 198.441 163.403 198.391 163.439 198.349C164.131 197.641 164.97 197.087 165.898 196.726C166.827 196.364 167.823 196.203 168.82 196.254C168.891 196.269 168.954 196.31 168.997 196.368C169.039 196.426 169.059 196.498 169.051 196.569C169.043 196.64 169.008 196.706 168.954 196.754C168.899 196.802 168.829 196.828 168.756 196.827C167.855 196.79 166.957 196.939 166.119 197.264C165.28 197.589 164.52 198.083 163.886 198.714C163.858 198.746 163.824 198.771 163.785 198.789C163.746 198.806 163.705 198.815 163.662 198.815Z" fill="#FAFAFA"/>
<path d="M161.096 197.261C161.028 197.259 160.963 197.234 160.911 197.192C160.852 197.143 160.816 197.073 160.808 196.998C160.801 196.923 160.824 196.848 160.872 196.789C161.567 196.084 162.407 195.534 163.335 195.174C164.262 194.813 165.257 194.652 166.253 194.701C166.292 194.704 166.329 194.714 166.363 194.732C166.397 194.75 166.427 194.774 166.452 194.803C166.476 194.833 166.494 194.866 166.505 194.903C166.516 194.939 166.52 194.977 166.515 195.015C166.511 195.052 166.5 195.088 166.481 195.121C166.463 195.154 166.439 195.183 166.409 195.207C166.379 195.23 166.345 195.247 166.309 195.258C166.272 195.268 166.234 195.271 166.196 195.267C165.295 195.231 164.396 195.381 163.556 195.706C162.717 196.031 161.955 196.524 161.319 197.154C161.293 197.188 161.259 197.215 161.22 197.233C161.181 197.252 161.139 197.261 161.096 197.261Z" fill="#FAFAFA"/>
<path d="M158.511 195.789C158.445 195.788 158.381 195.763 158.332 195.72C158.302 195.696 158.277 195.667 158.258 195.634C158.24 195.602 158.228 195.565 158.224 195.528C158.22 195.49 158.223 195.452 158.234 195.416C158.245 195.38 158.263 195.346 158.288 195.317C158.982 194.61 159.822 194.057 160.751 193.697C161.681 193.336 162.678 193.177 163.675 193.228C163.751 193.237 163.821 193.275 163.869 193.334C163.916 193.393 163.939 193.468 163.93 193.543C163.922 193.618 163.883 193.687 163.823 193.734C163.764 193.781 163.687 193.803 163.611 193.795C162.711 193.758 161.812 193.907 160.974 194.232C160.135 194.557 159.374 195.051 158.741 195.682C158.713 195.716 158.678 195.743 158.638 195.761C158.598 195.78 158.555 195.789 158.511 195.789Z" fill="#FAFAFA"/>
<path d="M156.155 194.103C156.088 194.103 156.023 194.081 155.97 194.04C155.912 193.991 155.875 193.922 155.868 193.846C155.861 193.771 155.884 193.696 155.932 193.637C156.626 192.931 157.466 192.379 158.393 192.018C159.321 191.657 160.317 191.495 161.313 191.542C161.354 191.542 161.395 191.55 161.433 191.566C161.471 191.582 161.505 191.606 161.533 191.636C161.561 191.666 161.582 191.702 161.595 191.74C161.608 191.779 161.613 191.82 161.609 191.86C161.604 191.901 161.592 191.94 161.571 191.975C161.551 192.01 161.523 192.041 161.49 192.065C161.456 192.089 161.418 192.106 161.378 192.115C161.338 192.123 161.296 192.123 161.256 192.115C160.354 192.077 159.455 192.225 158.615 192.55C157.775 192.875 157.013 193.37 156.379 194.002C156.352 194.035 156.318 194.061 156.279 194.078C156.24 194.096 156.198 194.104 156.155 194.103Z" fill="#FAFAFA"/>
<path d="M153.825 192.423C153.76 192.422 153.698 192.4 153.647 192.36C153.617 192.337 153.591 192.308 153.573 192.275C153.554 192.242 153.542 192.206 153.538 192.168C153.534 192.131 153.538 192.093 153.549 192.056C153.56 192.02 153.578 191.987 153.602 191.958C154.738 190.536 157.317 189.605 159.481 189.837C159.519 189.842 159.555 189.853 159.588 189.871C159.622 189.889 159.651 189.913 159.675 189.943C159.698 189.972 159.716 190.005 159.726 190.041C159.737 190.077 159.74 190.115 159.736 190.152C159.732 190.189 159.72 190.225 159.702 190.258C159.684 190.291 159.659 190.32 159.629 190.343C159.6 190.366 159.566 190.384 159.529 190.394C159.493 190.404 159.455 190.408 159.417 190.404C157.47 190.196 155.07 191.033 154.055 192.291C154.03 192.329 153.996 192.361 153.956 192.384C153.916 192.407 153.872 192.42 153.825 192.423Z" fill="#FAFAFA"/>
<path d="M129.283 208.063C129.404 210.831 129.155 212.7 128.332 214.417C127.508 216.135 125.683 216.82 123.742 216.537C121.802 216.254 119.242 215.229 118.457 212.907C117.672 210.586 117.615 208.944 117.787 206.345L129.283 208.063Z" fill="#455A64"/>
<path d="M119.715 188.862C118.936 189.001 119.077 192.725 119.013 196.468C118.936 200.488 117.902 202.25 117.8 205.546C117.691 209.321 118.055 210.951 119.606 213.096C121.157 215.241 126.06 216.952 128.038 213.505C129.653 210.693 129.43 207.774 128.881 204.068C128.313 200.249 127.885 197.563 127.745 194.631C127.611 191.832 127.534 189.114 126.826 188.868C126.826 189.284 126.826 189.806 126.826 190.215C126.826 190.529 126.889 192.046 126.455 192.102C126.385 191.756 126.347 191.404 126.341 191.052C126.355 190.732 126.245 190.42 126.034 190.177C125.773 189.983 125.455 189.879 125.128 189.881C124.345 189.799 123.559 189.757 122.772 189.756C122.377 189.756 121.987 189.756 121.598 189.825C121.262 189.853 120.932 189.934 120.621 190.064C120.531 190.101 120.449 190.158 120.383 190.23C120.317 190.301 120.268 190.387 120.238 190.479C120.213 190.621 120.213 190.765 120.238 190.907C120.27 191.164 120.27 191.424 120.238 191.681C120.238 191.794 120.162 191.939 120.047 191.92C119.932 191.901 119.906 191.8 119.894 191.706C119.849 191.259 119.894 190.926 119.836 190.404C119.836 190.164 119.836 189.831 119.836 189.586C119.836 189.34 119.721 189.101 119.715 188.862Z" fill="#275AA6"/>
<path opacity="0.9" d="M119.715 188.862C118.936 189.001 119.077 192.725 119.013 196.468C118.936 200.488 117.902 202.25 117.8 205.546C117.691 209.321 118.055 210.951 119.606 213.096C121.157 215.241 126.06 216.952 128.038 213.505C129.653 210.693 129.43 207.774 128.881 204.068C128.313 200.249 127.885 197.563 127.745 194.631C127.611 191.832 127.534 189.114 126.826 188.868C126.826 189.284 126.826 189.806 126.826 190.215C126.826 190.529 126.889 192.046 126.455 192.102C126.385 191.756 126.347 191.404 126.341 191.052C126.355 190.732 126.245 190.42 126.034 190.177C125.773 189.983 125.455 189.879 125.128 189.881C124.345 189.799 123.559 189.757 122.772 189.756C122.377 189.756 121.987 189.756 121.598 189.825C121.262 189.853 120.932 189.934 120.621 190.064C120.531 190.101 120.449 190.158 120.383 190.23C120.317 190.301 120.268 190.387 120.238 190.479C120.213 190.621 120.213 190.765 120.238 190.907C120.27 191.164 120.27 191.424 120.238 191.681C120.238 191.794 120.162 191.939 120.047 191.92C119.932 191.901 119.906 191.8 119.894 191.706C119.849 191.259 119.894 190.926 119.836 190.404C119.836 190.164 119.836 189.831 119.836 189.586C119.836 189.34 119.721 189.101 119.715 188.862Z" fill="white"/>
<path d="M117.87 204.471C117.87 205.012 117.749 208.61 118.796 209.151C119.843 209.693 120.226 206.893 120.226 206.893C120.226 206.893 122.645 205.893 126.43 207.094C126.302 207.692 127.068 209.535 128.007 209.038C128.945 208.541 128.926 204.427 128.926 204.376C129.443 207.918 129.602 210.749 128.038 213.48C126.06 216.927 121.157 215.185 119.606 213.071C118.055 210.957 117.691 209.296 117.8 205.521C117.813 205.169 117.838 204.811 117.87 204.471Z" fill="#275AA6"/>
<path opacity="0.8" d="M117.87 204.471C117.87 205.012 117.749 208.61 118.796 209.151C119.843 209.693 120.226 206.893 120.226 206.893C120.226 206.893 122.645 205.893 126.43 207.094C126.302 207.692 127.068 209.535 128.007 209.038C128.945 208.541 128.926 204.427 128.926 204.376C129.443 207.918 129.602 210.749 128.038 213.48C126.06 216.927 121.157 215.185 119.606 213.071C118.055 210.957 117.691 209.296 117.8 205.521C117.813 205.169 117.838 204.811 117.87 204.471Z" fill="white"/>
<path d="M120.538 207.1C120.659 208.447 119.262 208.126 119.013 206.232C118.764 204.339 119.357 199.733 119.013 196.468C119.083 192.725 118.936 189.001 119.715 188.862C119.715 188.913 119.715 188.957 119.715 189.001L119.804 190.888C119.804 191.165 119.804 191.404 119.842 191.693C120.104 194.442 120.251 199.777 120.27 202.307C120.27 203.908 120.359 205.509 120.538 207.1Z" fill="#275AA6"/>
<path d="M126.002 207.1C126.179 205.511 126.266 203.912 126.264 202.313C126.264 199.796 126.43 194.524 126.685 191.769C126.782 191.254 126.82 190.731 126.8 190.209C126.8 189.831 126.8 189.353 126.8 188.95C126.803 188.923 126.803 188.896 126.8 188.869C127.317 189.051 127.496 190.536 127.611 192.404C127.611 193.486 127.575 194.841 127.502 196.468C127.158 199.733 127.758 204.37 127.502 206.257C127.247 208.145 125.881 208.447 126.002 207.1Z" fill="#275AA6"/>
<path d="M126.512 207.195H126.404C124.438 206.522 122.299 206.522 120.333 207.195C120.297 207.215 120.256 207.227 120.214 207.23C120.173 207.233 120.131 207.228 120.091 207.214C120.052 207.199 120.016 207.177 119.986 207.148C119.956 207.12 119.933 207.085 119.918 207.046C119.903 207.008 119.896 206.967 119.898 206.925C119.901 206.884 119.912 206.844 119.931 206.807C119.951 206.771 119.978 206.739 120.011 206.713C120.044 206.688 120.082 206.67 120.123 206.66C122.211 205.914 124.498 205.9 126.595 206.622C126.631 206.636 126.664 206.656 126.692 206.682C126.72 206.708 126.742 206.739 126.758 206.774C126.773 206.808 126.781 206.845 126.782 206.883C126.783 206.921 126.775 206.959 126.761 206.994C126.743 207.047 126.71 207.094 126.666 207.13C126.622 207.166 126.569 207.188 126.512 207.195Z" fill="#FAFAFA"/>
<path d="M126.87 204.219C126.836 204.225 126.802 204.225 126.768 204.219C124.555 203.539 122.183 203.539 119.97 204.219C119.933 204.238 119.891 204.249 119.849 204.251C119.807 204.253 119.766 204.246 119.726 204.231C119.687 204.216 119.652 204.192 119.623 204.162C119.594 204.132 119.572 204.096 119.558 204.057C119.544 204.018 119.539 203.977 119.543 203.935C119.547 203.894 119.559 203.854 119.58 203.818C119.601 203.782 119.63 203.751 119.664 203.727C119.698 203.703 119.737 203.686 119.778 203.678C122.117 202.946 124.628 202.946 126.966 203.678C127.038 203.704 127.097 203.756 127.131 203.825C127.164 203.893 127.169 203.971 127.145 204.043C127.121 204.095 127.083 204.14 127.034 204.171C126.985 204.202 126.928 204.219 126.87 204.219Z" fill="#FAFAFA"/>
<path d="M119.874 201.394C119.81 201.392 119.747 201.368 119.697 201.327C119.647 201.286 119.613 201.23 119.599 201.167C119.585 201.104 119.593 201.039 119.621 200.981C119.649 200.923 119.695 200.876 119.753 200.847C123.136 199.331 126.775 200.74 126.921 200.803C126.957 200.816 126.99 200.836 127.018 200.862C127.046 200.888 127.068 200.92 127.084 200.954C127.099 200.989 127.108 201.026 127.108 201.064C127.109 201.102 127.102 201.139 127.087 201.174C127.056 201.244 126.999 201.299 126.928 201.329C126.857 201.358 126.776 201.359 126.704 201.331C126.704 201.331 123.143 199.954 119.996 201.369C119.957 201.384 119.916 201.392 119.874 201.394Z" fill="#FAFAFA"/>
<path d="M119.811 198.758C119.756 198.759 119.701 198.744 119.655 198.715C119.608 198.686 119.571 198.644 119.549 198.595C119.532 198.561 119.521 198.524 119.519 198.486C119.516 198.449 119.521 198.411 119.534 198.375C119.546 198.339 119.566 198.306 119.591 198.278C119.617 198.25 119.648 198.227 119.683 198.211C120.828 197.696 122.07 197.424 123.329 197.411C124.588 197.398 125.835 197.645 126.992 198.136C127.062 198.168 127.116 198.227 127.142 198.299C127.168 198.371 127.165 198.45 127.132 198.519C127.098 198.587 127.038 198.639 126.965 198.664C126.892 198.689 126.812 198.684 126.743 198.651C125.662 198.206 124.5 197.984 123.329 197.998C122.157 198.012 121.001 198.262 119.932 198.733C119.894 198.751 119.852 198.759 119.811 198.758Z" fill="#FAFAFA"/>
<path d="M119.746 195.801C119.692 195.801 119.638 195.785 119.592 195.756C119.546 195.728 119.509 195.686 119.485 195.638C119.452 195.569 119.447 195.491 119.472 195.419C119.497 195.347 119.55 195.288 119.619 195.254C123.091 193.568 126.832 195.179 126.985 195.254C127.02 195.269 127.051 195.291 127.077 195.318C127.103 195.346 127.124 195.378 127.138 195.413C127.151 195.448 127.158 195.485 127.157 195.523C127.156 195.56 127.147 195.597 127.132 195.632C127.116 195.666 127.094 195.697 127.066 195.723C127.039 195.748 127.006 195.769 126.971 195.782C126.935 195.796 126.897 195.802 126.859 195.801C126.821 195.8 126.783 195.792 126.749 195.776C126.71 195.776 123.098 194.203 119.874 195.776C119.834 195.794 119.79 195.803 119.746 195.801Z" fill="#EBEBEB"/>
<path d="M124.509 74.4377C122.37 79.2855 120.98 84.4216 120.385 89.6751C118.891 108.788 119.696 136.23 119.696 136.23C119.523 138.231 118.24 142.767 117.379 151.555C116.357 161.942 117.64 197.142 117.64 197.142C117.64 197.142 123.94 200.847 128.849 196.632C128.849 196.632 134.549 148.246 135.87 137.916C137.026 128.907 140.249 109.404 140.249 109.404L144.022 138.243C144.022 138.243 143.671 146.353 143.919 151.593C144.2 157.689 145.93 188.749 145.93 188.749C145.93 188.749 154.592 191.637 158.46 187.535C158.46 187.535 159.379 144.453 159.513 137.117C159.769 122.729 159.513 96.5073 157.145 81.4147L124.509 74.4377Z" fill="#275AA6"/>
<path opacity="0.2" d="M124.509 74.4377C122.37 79.2855 120.98 84.4216 120.385 89.6751C118.891 108.788 119.696 136.23 119.696 136.23C119.523 138.231 118.24 142.767 117.379 151.555C116.357 161.942 117.64 197.142 117.64 197.142C117.64 197.142 123.94 200.847 128.849 196.632C128.849 196.632 134.549 148.246 135.87 137.916C137.026 128.907 140.249 109.404 140.249 109.404L144.022 138.243C144.022 138.243 143.671 146.353 143.919 151.593C144.2 157.689 145.93 188.749 145.93 188.749C145.93 188.749 154.592 191.637 158.46 187.535C158.46 187.535 159.379 144.453 159.513 137.117C159.769 122.729 159.513 96.5073 157.145 81.4147L124.509 74.4377Z" fill="black"/>
<path opacity="0.2" d="M140.249 109.398L141.602 100.225C141.602 100.225 149.466 99.1873 153.027 95.8907C152.007 97.4641 150.648 98.7967 149.046 99.7938C147.444 100.791 145.639 101.428 143.759 101.66L142.374 109.958L143.568 134.783L140.249 109.398Z" fill="black"/>
<path d="M156.551 60.6284C156.206 64.4031 156.123 71.7701 156.123 71.7701C157.508 81.4083 158.619 90.8199 158.619 90.8199C144.015 98.5015 121.974 92.2858 119.197 89.115C120.57 79.6782 123.595 73.8022 125.58 68.4924L121.923 52.431C121.923 52.431 128.223 47.2659 127.668 36.791L136.298 35.9039L144.532 36.1367L150.385 36.5456C153.323 39.3538 155.896 42.511 158.045 45.9447C160.847 50.4618 160.955 56.0799 156.551 60.6284Z" fill="#275AA6"/>
<path opacity="0.1" d="M146.639 60.0371C146.639 60.0371 142.809 63.3588 138.149 62.044C136.84 61.7235 135.636 61.0759 134.654 60.1634C133.673 59.251 132.946 58.1046 132.545 56.8348C132.545 56.8348 132.392 62.0188 138.29 63.4154C139.865 63.8103 141.527 63.695 143.031 63.0866C144.534 62.4782 145.799 61.409 146.639 60.0371Z" fill="black"/>
<path d="M134.479 30.808C134.479 29.3673 132.424 26.3664 130.547 23.0006C128.67 19.6348 126.647 14.2244 130.547 9.15995C134.447 4.09553 143.268 1.06316 148.464 3.49786C153.66 5.93256 155.109 11.7519 155.109 11.7519L134.479 30.808Z" fill="#37474F"/>
<path d="M128.893 18.8233C128.896 18.8109 128.896 18.798 128.893 18.7855C128.706 18.4812 128.41 18.2569 128.064 18.1564C127.674 18.0138 127.26 17.9475 126.844 17.9614C126.353 17.9614 125.415 18.3074 125.447 18.9365C125.479 19.6789 126.723 19.7607 127.259 19.7355C127.724 19.7282 128.186 19.6584 128.632 19.5279C128.639 20.4056 128.512 21.2795 128.255 22.1199C128.097 22.5042 127.848 22.8452 127.527 23.1139C127.313 23.279 127.062 23.3937 126.796 23.4493C126.529 23.5049 126.253 23.4999 125.989 23.4347C125.689 23.3844 125.817 23.8059 125.989 23.8688C126.488 24.0055 127.02 23.9665 127.493 23.7587C127.966 23.5509 128.35 23.1872 128.581 22.7301C129.219 21.6166 128.983 20.3269 129.257 19.119C129.321 18.9428 129.085 18.7981 128.893 18.8233ZM126.462 19.2133C126.366 19.2133 126.117 19.1504 126.059 19.0561C126.002 18.9617 126.091 18.924 126.149 18.861C126.377 18.6842 126.648 18.5682 126.936 18.5241C127.223 18.4801 127.517 18.5094 127.789 18.6094C127.944 18.6422 128.096 18.6885 128.242 18.7478C128.322 18.7825 128.398 18.8224 128.472 18.8673L128.568 18.9177H128.625C128.228 19.1094 127.791 19.2105 127.349 19.2133C127.054 19.2541 126.756 19.2541 126.462 19.2133Z" fill="#275AA6"/>
<path d="M151.592 7.23495C153.507 8.21638 156.264 10.3114 155.843 20.0942C155.511 27.738 152.651 31.2611 151.375 31.928C150.098 32.5948 148.413 32.7584 145.821 32.4879V36.8351C145.821 36.8351 148.809 44.6488 146.996 48.6185C144.597 47.3398 142.353 45.797 140.306 44.0197C135.915 39.8612 134.6 37.9109 134.6 37.9109L134.44 26.3414C134.44 26.3414 132.717 27.5996 130.023 25.5361C127.795 23.8375 126.895 20.8114 128.44 19.0687C128.845 18.6292 129.357 18.2994 129.929 18.111C130.5 17.9227 131.11 17.882 131.702 17.9929C132.348 18.1338 132.954 18.4192 133.47 18.8272C133.987 19.2352 134.402 19.7548 134.683 20.3458C134.804 20.5786 134.989 20.824 135.251 20.8491C135.351 20.8533 135.45 20.8345 135.541 20.794C135.632 20.7536 135.712 20.6928 135.774 20.6164C135.896 20.4615 135.985 20.2839 136.036 20.0942C136.591 18.4711 136.33 16.7724 136.719 15.1178C137.022 13.8418 137.592 12.6419 138.391 11.5948C140.29 9.1918 143.053 7.59951 146.109 7.14687C147.928 6.86781 149.782 6.8976 151.592 7.23495Z" fill="#B16668"/>
<path d="M155.179 11.9344C152.582 10.356 149.51 9.71139 146.486 10.11C143.178 10.6332 140.018 11.8287 137.205 13.6205C137.52 12.9038 137.916 12.2243 138.385 11.5947C140.289 9.19146 143.056 7.59949 146.115 7.14682C147.93 6.86564 149.78 6.8933 151.586 7.22861C152.798 7.81998 154.318 8.8832 155.179 11.9344Z" fill="#B16668"/>
<path d="M143.938 17.8859C143.974 18.1837 143.889 18.4834 143.701 18.7193C143.513 18.9552 143.238 19.108 142.936 19.1442C142.792 19.1644 142.646 19.1555 142.505 19.1182C142.365 19.0809 142.234 19.0158 142.12 18.9269C142.006 18.8381 141.911 18.7273 141.842 18.6013C141.773 18.4754 141.73 18.3369 141.717 18.1942C141.693 17.9026 141.785 17.6134 141.973 17.387C142.161 17.1607 142.431 17.0148 142.726 16.98C142.866 16.9605 143.008 16.9685 143.145 17.0035C143.282 17.0386 143.41 17.1 143.523 17.1842C143.636 17.2684 143.731 17.3738 143.802 17.4942C143.873 17.6146 143.92 17.7478 143.938 17.8859Z" fill="black"/>
<path d="M144.264 25.209L148.171 26.1841C148.118 26.443 148.012 26.6884 147.859 26.9057C147.707 27.123 147.512 27.3075 147.285 27.4481C147.058 27.5887 146.805 27.6824 146.54 27.7236C146.275 27.7648 146.005 27.7526 145.745 27.6877C145.222 27.5416 144.776 27.2025 144.501 26.7409C144.225 26.2792 144.14 25.7306 144.264 25.209Z" fill="#9A4A4D"/>
<path d="M153.972 15.3192L151.706 14.212C151.772 14.0634 151.868 13.9295 151.988 13.8185C152.108 13.7075 152.249 13.6218 152.404 13.5665C152.559 13.5111 152.723 13.4874 152.887 13.4967C153.051 13.506 153.212 13.5482 153.359 13.6206C153.662 13.7735 153.894 14.0344 154.008 14.3501C154.121 14.6658 154.109 15.0124 153.972 15.3192Z" fill="black"/>
<path d="M142.974 14.4699L140.689 15.5269C140.612 15.3835 140.566 15.2263 140.553 15.0647C140.54 14.9032 140.56 14.7407 140.612 14.5871C140.665 14.4335 140.749 14.292 140.858 14.1713C140.968 14.0506 141.102 13.9531 141.251 13.8849C141.559 13.7456 141.91 13.7287 142.231 13.8376C142.552 13.9465 142.818 14.1729 142.974 14.4699Z" fill="black"/>
<path d="M152.964 17.3764C152.99 17.6674 152.899 17.9566 152.712 18.1832C152.525 18.4097 152.256 18.5558 151.962 18.5906C151.819 18.6099 151.674 18.6006 151.535 18.5632C151.395 18.5258 151.265 18.4612 151.152 18.3731C151.039 18.2849 150.945 18.1752 150.876 18.0505C150.806 17.9257 150.763 17.7885 150.749 17.6469C150.722 17.355 150.812 17.0641 150.999 16.8362C151.186 16.6083 151.456 16.4613 151.752 16.4265C151.895 16.4072 152.041 16.4167 152.18 16.4545C152.32 16.4922 152.45 16.5575 152.564 16.6462C152.677 16.735 152.771 16.8455 152.84 16.9709C152.909 17.0964 152.951 17.2344 152.964 17.3764Z" fill="black"/>
<path d="M147.276 17.1562L147.832 23.416L151.119 22.1892L147.276 17.1562Z" fill="#9A4A4D"/>
<path d="M145.796 32.488C143.064 32.0916 137.275 30.651 136.272 28.5371C136.685 29.7442 137.46 30.7994 138.494 31.5632C140.243 32.8655 145.796 34.0293 145.796 34.0293V32.488Z" fill="#9A4A4D"/>
<path d="M155.179 11.9345C155.179 11.9345 153.762 9.70737 147.277 10.2925C143.712 10.6664 140.275 11.8045 137.204 13.6268C135.288 14.7773 133.672 16.3546 132.487 18.232C132.231 18.1222 131.963 18.042 131.689 17.9929C131.095 17.8798 130.48 17.9193 129.906 18.1077C129.331 18.2961 128.816 18.6271 128.408 19.0687L128.376 19.1064C127.195 16.9737 126.321 14.8095 126.812 11.6514C127.502 7.20347 131.976 4.1019 136.949 2.05097C142.828 -0.415189 149.274 0.213931 151.853 2.61717C154.432 5.02042 155.109 11.708 155.179 11.9345Z" fill="#275AA6"/>
<path d="M127.763 91.946C125.978 90.7806 124.37 89.3697 122.989 87.756C124.144 87.8905 125.312 87.8905 126.468 87.756C128.051 87.4289 128.383 86.7746 128.28 86.2084C128.223 85.768 127.125 85.9064 125.383 85.3717C123.402 84.6967 121.358 84.2204 119.28 83.9499C118.269 83.715 117.381 83.1216 116.785 82.2827C116.236 81.6095 112.993 75.9915 110.133 70.0274L123.353 53.9093C126.653 50.2667 130.597 43.7301 126.64 37.0363C117.557 38.9236 117.627 38.7035 99.4609 65.2083C96.3268 69.782 96.5821 71.9336 107.759 85.573C110.013 88.3378 112.437 90.9641 115.016 93.437C121.47 99.3696 126.136 99.7974 128.817 98.1932C132.487 95.9724 131.293 94.236 127.763 91.946Z" fill="#B16668"/>
<path d="M127.643 36.7911C122.67 37.0113 119.006 37.7097 115.515 41.9185C111.768 46.4167 103.093 58.7726 103.093 58.7726C103.093 58.7726 105.417 65.8377 114.762 68.2095L126.532 53.3182C126.532 53.3182 130.828 45.0075 127.643 36.7911Z" fill="#275AA6"/>
<path opacity="0.2" d="M127.643 36.7911C122.67 37.0113 119.006 37.7097 115.515 41.9185C111.768 46.4167 103.093 58.7726 103.093 58.7726C103.093 58.7726 105.417 65.8377 114.762 68.2095L126.532 53.3182C126.532 53.3182 130.828 45.0075 127.643 36.7911Z" fill="black"/>
<path d="M54.6707 42.2329C50.2025 42.3524 48.9259 44.1203 46.2578 47.895C43.5896 51.6697 34.4172 66.0263 34.4172 66.0263L21.4531 70.9334L23.1893 78.3948C23.1893 78.3948 34.1554 76.2432 39.7853 75.1108C40.518 75.0111 41.2173 74.7457 41.8285 74.3353C42.4398 73.925 42.9464 73.3808 43.3088 72.7453C44.0301 71.6695 51.2366 60.4963 51.2366 60.4963L54.6707 42.2329Z" fill="#E6E6E6"/>
<path d="M58.0929 42.3524C53.8737 41.3144 52.0098 43.6107 50.6055 46.1775C48.3587 50.2416 47.0055 58.546 46.814 73.7204C46.6927 83.4781 43.2458 95.2741 42.6331 104.547C41.7011 118.438 41.2671 129.24 41.2671 129.24C49.6139 128.176 58.0261 127.688 66.4419 127.781L58.0929 42.3524Z" fill="#E0E0E0"/>
<path d="M82.4116 183.861C82.4116 183.861 84.9648 166.78 83.886 156.771C82.9796 148.183 81.6967 144.591 81.5179 142.634C81.5179 142.634 80.0498 122.502 80.452 105.397C80.6371 97.2998 80.2222 88.3725 74.3753 78.8288L74.1646 78.4513C73.6476 81.5969 68.7518 83.6101 64.3857 84.1134C60.1814 84.5747 54.9473 83.7548 48.6834 81.6535C47.2855 89.7503 45.7025 105.183 44.0812 121.999C43.2961 130.222 43.4429 137.142 43.2897 142.427C43.1046 149.599 43.7684 177.695 43.7684 177.695V178.884C43.7237 180.193 43.4046 181.105 42.4918 183.181C41.3272 185.859 39.7034 188.319 37.6917 190.454C37.0534 191.083 32.7576 194.549 32.1767 195.304C30.3065 197.317 33.9959 198.601 36.7789 198.33C39.7152 198.041 44.2854 197.072 45.6323 195.38C46.5323 194.241 47.311 190.171 48.2302 189.013C51.3387 185.119 52.6154 183.439 52.6983 182.168C52.8132 179.859 52.06 178.922 51.7983 177.613C52.1239 174.902 57.7154 160.709 58.0857 152.788C58.2644 149.014 57.4473 142.32 57.4473 142.32L62.2793 114.77C63.3708 122.509 65.4709 139.935 66.1922 145.503C67.2326 153.147 71.0624 166.075 73.4753 176.229C74.3816 180.048 74.8285 181.747 75.0519 184.238L75.1093 185.131C75.1093 186.258 75.2242 198.293 75.5944 200.859C76.3604 206.188 81.1541 205.678 82.0669 201.419C82.8392 197.796 82.4052 186.49 82.4307 185.1L82.4116 183.861Z" fill="#FFA8A7"/>
<path d="M82.5523 183.785C83.8991 183.854 82.8395 188.963 83.0757 192.285C83.331 195.839 84.4225 198.469 84.6587 201.382C84.9332 204.716 84.5885 206.1 83.2863 208.786C82.2778 210.881 77.4586 213.637 75.7671 210.542C74.0756 207.446 73.8075 203.967 74.1266 200.664C74.4522 197.255 74.7649 194.763 74.9054 192.165C75.0394 189.875 73.4309 184.439 75.1926 184.169L75.2437 185.062C75.8309 186.321 81.7799 187.365 82.5714 185.012L82.5523 183.785Z" fill="#37474F"/>
<path d="M52.9991 184.874C53.3565 186.541 52.7757 191.07 52.7757 191.07C52.7757 191.07 51.9969 192.612 49.3671 193.587L48.416 187.233L52.9991 184.874Z" fill="#263238"/>
<path d="M49.3667 193.568L43.7113 191.53L42.5049 186.484L48.8177 189.9L49.3667 193.568Z" fill="black"/>
<path d="M43.9155 178.79V177.601C43.1304 177.947 41.2155 184.056 38.758 188.208C36.5239 191.983 32.2664 194.008 30.8557 195.644C28.9408 197.833 32.3941 200.847 38.1005 199.834C40.9282 199.337 45.2496 197.701 46.4624 195.871C47.6751 194.04 48.1858 190.617 49.1752 189.271C50.1645 187.925 52.4625 186.421 53.005 184.867C53.4224 183.461 53.4686 181.974 53.1391 180.545C52.7433 179.104 52.4114 177.4 51.9135 177.513L51.8433 178.595C51.4412 179.344 50.0433 180.187 47.1773 180.243C45.8049 180.275 44.4964 180.029 43.9155 178.79Z" fill="#37474F"/>
<path d="M58.788 155.802C59.1186 151.469 58.9581 147.114 58.3092 142.817L62.4327 115.765C62.4327 115.765 65.2413 141.559 65.7136 145.535C66.1859 149.511 73.718 192.618 73.718 192.618C77.5478 194.87 82.5202 194.153 85.7373 192.473C85.7373 175.047 85.1884 157.582 84.5501 152.757C83.9864 149.46 83.2211 146.199 82.2585 142.993C82.2585 142.993 81.85 117.57 81.8692 107.919C81.8883 98.2687 81.1543 91.8139 79.3159 87.473C77.8734 84.32 76.1653 81.2917 74.2095 78.4199C74.2095 78.4199 72.7797 83.1824 61.4433 83.195C50.107 83.2075 48.8559 80.3702 48.8559 80.3702C48.8559 80.3702 45.5367 91.8013 44.4324 109.064C43.5388 122.974 43.3345 129.303 43.0664 135.488C42.8367 140.772 42.6962 146.875 42.575 157.551C42.4792 165.604 41.2983 183.345 41.2983 183.345C41.2983 183.345 46.8325 186.201 55.9794 182.942C55.9411 182.917 58.2199 162.747 58.788 155.802Z" fill="#455A64"/>
<path d="M62.4326 115.739L60.1922 99.3823C56.903 99.0474 53.8353 97.5924 51.5176 95.2678C51.5176 95.2678 52.7942 99.2313 58.1049 101.458L61.1113 115.821L58.9347 138.847L62.4326 115.739Z" fill="#37474F"/>
<path d="M67.7373 43.4911L73.0736 44.051C76.6226 44.9066 78.2183 46.448 78.5822 49.5432C79.237 52.8742 79.174 56.3038 78.3971 59.6092C77.2737 63.9627 74.2864 74.6263 74.2864 74.6263C74.2864 74.6263 78.1609 84.2204 79.9928 89.0961C67.399 97.1929 51.8499 93.997 46.6285 89.0961C47.0689 84.4595 48.7349 80.15 49.1051 76.0167C49.1051 76.0167 48.8307 69.5619 48.3136 66.7623C44.3306 62.478 44.8349 58.3761 46.6285 55.0669C49.9286 48.9644 54.9265 43.598 56.5223 43.6043L67.7373 43.4911Z" fill="#275AA6"/>
<path opacity="0.6" d="M67.7373 43.4911L73.0736 44.051C76.6226 44.9066 78.2183 46.448 78.5822 49.5432C79.237 52.8742 79.174 56.3038 78.3971 59.6092C77.2737 63.9627 74.2864 74.6263 74.2864 74.6263C74.2864 74.6263 78.1609 84.2204 79.9928 89.0961C67.399 97.1929 51.8499 93.997 46.6285 89.0961C47.0689 84.4595 48.7349 80.15 49.1051 76.0167C49.1051 76.0167 48.8307 69.5619 48.3136 66.7623C44.3306 62.478 44.8349 58.3761 46.6285 55.0669C49.9286 48.9644 54.9265 43.598 56.5223 43.6043L67.7373 43.4911Z" fill="white"/>
<path d="M58.0346 39.7917C56.4516 39.7917 56.2729 40.056 54.9069 41.849C54.0963 42.9185 48.9771 51.2418 48.9771 51.2418C48.9771 51.2418 53.0558 45.9634 56.1261 44.3655C56.7221 44.0215 57.3678 43.769 58.041 43.6168L58.0346 39.7917Z" fill="#EBEBEB"/>
<path d="M68.0371 43.4912C68.0371 43.4912 63.6391 54.8908 62.637 62.629C61.6349 70.3672 65.0753 93.7391 65.6051 107.592C65.9945 117.658 66.9647 132.204 66.9647 132.204C70.0857 132.505 73.233 132.407 76.3287 131.914C81.499 130.952 83.1012 130.115 86.0565 128.215C86.0565 128.215 83.5033 102.88 82.2267 93.0345C81.0458 83.7675 75.9904 74.6264 75.9904 74.6264L82.0671 49.8327C82.0671 49.8327 81.7671 45.6553 77.7713 44.4852C73.9861 43.3716 68.0371 43.4912 68.0371 43.4912Z" fill="#FAFAFA"/>
<path d="M75.818 66.6617C75.818 66.6617 74.9946 63.7112 73.8584 58.6719C72.7222 53.6326 72.901 50.7135 73.2903 48.5116L79.8968 58.0365L76.0031 74.6201C78.6517 79.6182 80.6075 84.9441 81.8181 90.4551C77.8415 79.3637 73.4818 76.0357 73.4818 76.0357L75.818 66.6617Z" fill="#F5F5F5"/>
<path d="M69.6966 57.5205C69.6966 57.0424 69.7413 56.0043 69.8243 54.702C70.2392 48.3102 70.4307 42.5411 68.2413 42.0756L68.0498 42.9563C69.6456 43.2961 69.1158 51.5375 68.9179 54.6454C68.8285 55.9791 68.7583 57.0298 68.7839 57.5582L69.6966 57.5205Z" fill="#275AA6"/>
<path d="M81.7034 109.291C82.5524 107.699 82.5396 106.554 83.8609 105.114C84.4273 104.522 84.8239 103.792 85.0098 103C85.2858 101.721 85.391 100.412 85.3226 99.1056L92.8929 99.2188C92.9504 101.698 93.2887 105.258 92.8163 107.901C91.6099 114.588 90.2631 117.438 87.4163 118.218C82.8651 119.477 81.6396 117.589 83.0949 114.205C83.7279 112.803 84.1577 111.32 84.3715 109.801C83.8988 110.403 83.3447 110.938 82.7247 111.392C82.4089 111.646 82.0075 111.774 81.6006 111.749C81.1937 111.725 80.811 111.55 80.5289 111.26C80.3055 110.996 81.046 110.53 81.7034 109.291Z" fill="#FFA8A7"/>
<path d="M74.3245 43.8183C74.3245 43.8183 79.2139 43.5163 82.0799 45.8252C84.9459 48.1341 86.7204 54.5888 88.8204 61.0436C90.9205 67.4984 92.8035 73.777 93.4928 78.3004C94.0737 82.0751 93.3205 102.1 93.3205 102.1C90.3175 102.379 87.294 101.853 84.5693 100.578L82.5523 79.2252L74.3564 57.3003C72.8369 52.9329 72.8257 48.1927 74.3245 43.8183Z" fill="#F0F0F0"/>
<path d="M13.5963 59.2568L37.852 67.6934L44.5287 96.1422L43.9861 96.7084L20.924 88.2216L13.0537 59.8231L13.5963 59.2568Z" fill="#275AA6"/>
<path opacity="0.35" d="M37.3091 68.2596L43.9858 96.7084L44.5283 96.1422L37.8516 67.6934L37.3091 68.2596Z" fill="black"/>
<path opacity="0.25" d="M13.0537 59.8232L37.3094 68.2597L43.9861 96.7086L20.924 88.2217L13.0537 59.8232Z" fill="black"/>
<g opacity="0.2">
<path d="M24.5305 82.44C24.3071 82.9936 22.4496 84.2267 19.7559 84.0065L19.3027 82.3645L24.5305 82.44Z" fill="black"/>
</g>
<g opacity="0.1">
<path d="M20.356 65.655L20.1582 64.6987C20.0496 64.1703 21.4731 64.4471 23.3497 65.3278L27.7285 66.6364C29.5987 67.5046 31.3605 68.1526 31.469 68.6748L31.6732 69.631L20.356 65.655Z" fill="black"/>
</g>
<path d="M18.9196 61.3393C18.8494 61.0058 19.3983 61.075 20.1962 61.2764L21.5941 61.7482C21.5941 61.7482 21.0196 60.3641 24.3261 61.2449C27.9644 62.22 28.041 64.0067 28.041 64.0067C28.611 64.25 29.195 64.4601 29.79 64.6359C30.9964 65.0259 31.1304 65.265 31.2326 65.5921L31.4113 66.2213L19.0281 61.9244C19.0281 61.9244 18.9898 61.6664 18.9196 61.3393Z" fill="#37474F"/>
<path d="M20.2154 63.1826C21.3644 63.6921 21.8367 63.9438 22.009 64.7554C22.2005 65.6802 22.2452 66.0702 22.2452 66.0702L28.6857 68.5867C28.6857 68.5867 28.3347 67.2215 28.2517 66.7623C28.1687 66.303 29.0177 66.303 30.1283 66.8126L29.8666 65.6739L19.8516 62.0061L20.2154 63.1826Z" fill="#37474F"/>
<path d="M19.9986 65.699L19.8007 64.749C19.6922 64.2206 21.1157 64.4974 22.9923 65.3781L27.3711 66.6804C29.2349 67.5486 31.003 68.1966 31.1115 68.7251L31.3094 69.6813L19.9986 65.699Z" fill="#37474F"/>
<path d="M15.7469 69.5557C15.7469 69.5557 16.6086 72.7013 16.832 73.4689C17.0555 74.2364 21.0321 76.0608 23.0236 76.3062C26.8535 76.778 27.2556 77.5645 26.3428 80.2508C25.5003 82.7044 23.0236 83.6292 19.5895 83.2328C18.5141 83.0245 17.5134 82.5402 16.6885 81.8289C15.8637 81.1175 15.2439 80.2042 14.8916 79.1813C13.7746 76.0357 14.3746 72.695 13.9341 70.858C13.4937 69.021 14.7831 68.4674 15.7469 69.5557Z" fill="#FFA8A7"/>
<path d="M77.0119 15.577L73.6161 18.3263C73.4308 18.1174 73.2907 17.8733 73.2044 17.6092C73.1182 17.345 73.0875 17.0662 73.1144 16.79C73.1413 16.5137 73.2252 16.2458 73.3608 16.0026C73.4965 15.7594 73.6811 15.5461 73.9034 15.3757C74.3494 15.0112 74.9201 14.8289 75.4983 14.8664C76.0765 14.9038 76.6181 15.1581 77.0119 15.577Z" fill="#455A64"/>
<path d="M68.1011 40.2071C68.1011 38.0996 73.0863 34.9414 75.6587 30.4998C78.2311 26.0582 76.9353 18.7793 73.4246 17.6594C73.4246 17.6594 73.3544 11.0285 64.2777 9.26695C55.2009 7.50541 52.3541 5.52997 50.7456 5.24687C49.137 4.96376 48.8306 10.6007 50.9434 12.0791C49.4239 11.4904 48.0361 10.6141 46.8583 9.49973C45.537 8.24148 45.0136 14.7969 47.8668 17.0995C47.8668 17.0995 45.5051 18.4647 45.7923 21.9123C45.8484 23.1679 46.3199 24.3709 47.1347 25.3376C47.9496 26.3043 49.0631 26.9816 50.3051 27.2661L68.1011 40.2071Z" fill="#455A64"/>
<path d="M52.622 15.3694C50.4326 16.3068 48.3517 19.6034 48.3837 28.8326C48.3837 36.6526 50.8411 38.6343 52.0731 39.2131C53.305 39.7919 55.6987 39.5025 58.0349 39.1439V43.6421C58.0349 43.6421 56.2923 45.3344 56.8987 46.4039C57.5051 47.4735 59.7838 48.3668 63.2818 47.2784C67.2712 46.0202 68.184 43.4219 68.184 43.4219L68.2606 33.5824C68.2606 33.5824 69.6074 34.9728 71.9627 32.9533C73.916 31.2736 74.6181 28.3859 73.15 26.8005C71.6819 25.2151 69.8053 25.0893 68.1138 26.8634L66.8882 26.2343C64.7243 25.9827 61.5137 25.6052 59.1902 24.4602C53.1901 21.3964 52.5518 18.1124 52.622 15.3694Z" fill="#FFA8A7"/>
<path d="M68.1008 25.5422V29.8895C67.8171 29.8991 67.5344 29.8512 67.2702 29.7487C67.006 29.6463 66.7659 29.4915 66.5649 29.294C66.3638 29.0964 66.2061 28.8603 66.1013 28.6002C65.9966 28.3401 65.9472 28.0616 65.9561 27.7819C65.9567 27.2095 66.179 26.659 66.5777 26.2427C66.9763 25.8265 67.5211 25.5759 68.1008 25.5422Z" fill="#455A64"/>
<path d="M52.4115 26.1526C52.4192 26.2911 52.399 26.4297 52.3521 26.5605C52.3052 26.6913 52.2325 26.8117 52.1381 26.9146C52.0437 27.0176 51.9296 27.1011 51.8024 27.1603C51.6751 27.2196 51.5372 27.2534 51.3966 27.2598C51.1794 27.2748 50.9627 27.2254 50.7743 27.1181C50.5859 27.0107 50.4343 26.8503 50.3391 26.6574C50.2438 26.4645 50.2093 26.248 50.2398 26.0356C50.2704 25.8232 50.3647 25.6246 50.5106 25.4655C50.6565 25.3063 50.8473 25.1937 51.0586 25.1423C51.2699 25.0908 51.492 25.1028 51.6963 25.1766C51.9007 25.2505 52.0779 25.3829 52.2054 25.5568C52.3328 25.7307 52.4046 25.9382 52.4115 26.1526Z" fill="#263238"/>
<path d="M60.8111 26.6118C60.8206 26.7607 60.8 26.91 60.7504 27.0511C60.7008 27.1921 60.6233 27.322 60.5223 27.4332C60.4213 27.5444 60.2989 27.6347 60.1622 27.6989C60.0255 27.7631 59.8772 27.7999 59.726 27.8071C59.4924 27.8245 59.2588 27.7727 59.0553 27.6582C58.8518 27.5438 58.6877 27.372 58.584 27.1649C58.4804 26.9578 58.442 26.7249 58.4737 26.4961C58.5054 26.2673 58.6059 26.053 58.7621 25.881C58.9183 25.7089 59.1232 25.5868 59.3504 25.5303C59.5776 25.4739 59.8167 25.4857 60.037 25.5643C60.2573 25.6429 60.4488 25.7846 60.5867 25.9713C60.7247 26.1579 60.8028 26.381 60.8111 26.6118Z" fill="#263238"/>
<path d="M59.0945 33.0162L55.6987 34.0606C55.7511 34.2872 55.8499 34.5008 55.9892 34.6884C56.1284 34.876 56.305 35.0336 56.5083 35.1514C56.7115 35.2693 56.9371 35.3449 57.1711 35.3737C57.4051 35.4025 57.6426 35.3838 57.869 35.3188C58.3283 35.1555 58.7089 34.8285 58.9358 34.4023C59.1626 33.9761 59.2193 33.4816 59.0945 33.0162Z" fill="#F28F8F"/>
<path d="M49.6219 24.221L52.3411 23.1578C52.2782 22.974 52.177 22.8052 52.044 22.6623C51.911 22.5193 51.7492 22.4054 51.5688 22.3277C51.3885 22.2501 51.1936 22.2105 50.9968 22.2116C50.8001 22.2126 50.6057 22.2542 50.4262 22.3337C50.0751 22.49 49.797 22.7715 49.6478 23.1216C49.4986 23.4717 49.4894 23.8645 49.6219 24.221Z" fill="#263238"/>
<path d="M54.984 25.3032L55.118 31.714L51.6265 30.9464L54.984 25.3032Z" fill="#F28F8F"/>
<path d="M58.0347 39.1187C60.4922 38.8356 65.5603 37.4452 66.3838 35.4194C66.054 36.4364 65.4226 37.3327 64.571 37.9925C63.039 39.2885 58.0283 40.6349 58.0283 40.6349L58.0347 39.1187Z" fill="#F28F8F"/>
<path d="M68.216 39.8235C68.8543 39.6976 69.4352 39.9682 69.9586 40.8489C70.482 41.7297 71.6373 43.5793 71.6373 43.5793C71.6373 43.5793 72.231 49.7195 71.6373 51.242C71.1203 52.5695 65.4266 57.5332 65.4266 57.5332C65.4266 57.5332 66.9139 63.0506 66.9649 64.8562C67.016 66.6618 63.4351 73.5381 63.033 77.0549C63.033 77.0549 61.9095 66.0012 62.4329 62.0314C63.3521 55.1111 66.6394 46.2216 68.1777 43.3969L68.216 39.8235Z" fill="#EBEBEB"/>
<path d="M68.3627 77.8096C67.5341 78.3488 66.5598 78.6294 65.5669 78.6149L65.6499 77.9857C66.4095 77.9952 67.156 77.7899 67.801 77.3944C67.1837 76.9128 66.6436 76.3423 66.1989 75.702C65.2861 74.3054 63.8499 64.7742 64.7307 62.654C65.4584 60.8925 67.5967 57.0737 69.1989 57.0737H69.2372C70.8649 57.1429 72.6904 61.1819 73.2713 63.0126C73.9671 65.1957 71.7138 74.5759 70.6862 75.8908C70.1849 76.4893 69.5979 77.0128 68.9436 77.4447C69.5549 77.8885 70.2803 78.1544 71.0372 78.2122V78.8413H70.9606C70.014 78.7428 69.1142 78.3854 68.3627 77.8096ZM65.318 62.8931C64.5137 64.8434 65.8925 74.0663 66.735 75.356C67.194 76.0049 67.7541 76.5782 68.3946 77.0546C69.0764 76.6366 69.6844 76.1118 70.1947 75.5007C71.1521 74.2865 73.3224 65.2083 72.6841 63.2014C71.8989 60.7478 70.1883 57.7469 69.2308 57.7091C68.2478 57.7029 66.3074 60.5276 65.318 62.8931Z" fill="#455A64"/>
<path d="M64.6799 78.2816C64.6747 78.403 64.694 78.5243 64.7364 78.6385C64.7789 78.7526 64.8438 78.8574 64.9274 78.9468C65.011 79.0362 65.1116 79.1085 65.2236 79.1595C65.3356 79.2105 65.4566 79.2393 65.5799 79.2441C65.829 79.2527 66.0715 79.1646 66.2554 78.9987C66.4392 78.8328 66.5496 78.6024 66.5629 78.3571C66.573 78.1068 66.4819 77.8628 66.3095 77.6787C66.1371 77.4947 65.8976 77.3856 65.6437 77.3756C65.3898 77.3656 65.1422 77.4554 64.9555 77.6253C64.7687 77.7952 64.6581 78.0313 64.6479 78.2816H64.6799Z" fill="#263238"/>
<path d="M70.1313 78.4891C70.1203 78.7343 70.2086 78.9739 70.3768 79.155C70.545 79.3361 70.7793 79.4439 71.0281 79.4548C71.277 79.4656 71.52 79.3786 71.7038 79.2128C71.8875 79.047 71.9969 78.8161 72.0079 78.5709C72.0134 78.4494 71.9945 78.3281 71.9524 78.2138C71.9102 78.0996 71.8457 77.9946 71.7624 77.9049C71.6792 77.8153 71.5788 77.7426 71.467 77.6912C71.3553 77.6398 71.2343 77.6105 71.1111 77.6052C70.9879 77.5998 70.8648 77.6184 70.7489 77.6599C70.6329 77.7014 70.5264 77.765 70.4355 77.8471C70.3445 77.9292 70.2708 78.0281 70.2186 78.1383C70.1664 78.2484 70.1367 78.3676 70.1313 78.4891Z" fill="#263238"/>
<path d="M64.5713 66.7875L65.1075 66.7498C65.1352 66.7482 65.1623 66.7412 65.1872 66.7293C65.2122 66.7173 65.2345 66.7006 65.2529 66.6802C65.2712 66.6597 65.2853 66.6359 65.2944 66.6101C65.3034 66.5842 65.3071 66.5569 65.3054 66.5296C65.152 65.3379 65.2082 64.1291 65.4714 62.9562C66.4161 60.6788 68.3693 57.8288 69.2246 57.8666C70.0799 57.9043 71.7778 60.9053 72.531 63.2519C72.7034 63.7866 72.6459 65.0826 72.3906 66.8253C72.3814 66.8795 72.3943 66.9351 72.4266 66.9799C72.4589 67.0248 72.508 67.0551 72.563 67.0643L73.0991 67.1461C73.1268 67.1496 73.155 67.1477 73.1819 67.1404C73.2088 67.1331 73.234 67.1206 73.256 67.1036C73.2779 67.0866 73.2963 67.0655 73.3099 67.0415C73.3235 67.0175 73.3322 66.991 73.3353 66.9637C73.6289 65.0071 73.6672 63.6608 73.4438 62.9688C73.0481 61.7105 71.1651 56.9984 69.2693 56.9166C67.3735 56.8348 65.0884 61.3771 64.5841 62.5787C64.3033 63.2519 64.2203 64.5919 64.3479 66.5673C64.3461 66.5967 64.3506 66.6262 64.3611 66.6537C64.3717 66.6813 64.3881 66.7063 64.4092 66.7271C64.4304 66.748 64.4557 66.7641 64.4837 66.7745C64.5116 66.785 64.5415 66.7894 64.5713 66.7875Z" fill="#275AA6"/>
<path d="M8.73193 23.9316V31.7453L15.6001 27.8385V35.6585L22.4683 31.7453V23.9316L29.3365 20.0248V12.2048L22.4492 16.1305L22.4683 8.29797L15.6001 12.2048V20.0248L8.73193 23.9316Z" fill="#275AA6"/>
<path d="M8.73166 31.7454L5.78906 30.072V22.2583L8.73166 23.9317V31.7454Z" fill="#275AA6"/>
<path d="M15.5998 20.025L12.6573 18.3516L5.78906 22.2584L8.73166 23.9319L15.5998 20.025Z" fill="#275AA6"/>
<path d="M15.6008 12.2051L12.6582 10.5316V18.3516L15.6008 20.0251V12.2051Z" fill="#275AA6"/>
<path d="M22.469 8.2981L19.5264 6.62463L12.6582 10.5315L15.6008 12.2049L22.469 8.2981Z" fill="#275AA6"/>
<path d="M15.6008 35.6586L12.6582 33.9788V29.5121L15.6008 27.8386V35.6586Z" fill="#275AA6"/>
<g opacity="0.2">
<path d="M8.73166 31.7454L5.78906 30.0719V22.2582L8.73166 23.9317V31.7454Z" fill="black"/>
<path d="M15.6008 12.2051L12.6582 10.5316V18.3516L15.6008 20.025V12.2051Z" fill="black"/>
<path d="M15.6008 35.6586L12.6582 33.9788V29.5121L15.6008 27.8386V35.6586Z" fill="black"/>
</g>
<path d="M29.337 12.2051L26.3944 10.5316L22.4561 12.7587L22.4497 16.1308L29.337 12.2051Z" fill="#275AA6"/>
<g opacity="0.5">
<path d="M15.5998 20.025L12.6573 18.3516L5.78906 22.2584L8.73166 23.9319L15.5998 20.025Z" fill="white"/>
<path d="M22.469 8.2981L19.5264 6.62463L12.6582 10.5315L15.6008 12.2049L22.469 8.2981Z" fill="white"/>
<path d="M29.337 12.2051L26.3944 10.5316L22.4561 12.7587L22.4497 16.1308L29.337 12.2051Z" fill="white"/>
</g>
<path d="M259.363 12.0791C259.363 12.8467 259.88 13.6205 260.914 14.2056C262.073 14.7858 263.355 15.0882 264.655 15.0882C265.955 15.0882 267.236 14.7858 268.395 14.2056C269.429 13.6205 269.946 12.8467 269.946 12.0791V5.22171C269.946 3.83682 269.388 2.50866 268.395 1.5294C267.401 0.550143 266.054 0 264.649 0C263.243 0 261.896 0.550143 260.902 1.5294C259.909 2.50866 259.351 3.83682 259.351 5.22171L259.363 12.0791Z" fill="#F5F5F5"/>
<path d="M259.363 21.1322C259.363 22.517 259.921 23.8452 260.915 24.8245C261.909 25.8037 263.256 26.3539 264.661 26.3539C266.066 26.3539 267.414 25.8037 268.407 24.8245C269.401 23.8452 269.959 22.517 269.959 21.1322V12.0791C269.959 12.8466 269.442 13.6205 268.408 14.2055C267.249 14.7857 265.968 15.0881 264.668 15.0881C263.368 15.0881 262.086 14.7857 260.927 14.2055C259.887 13.6205 259.363 12.8529 259.363 12.0791V21.1322Z" fill="#275AA6"/>
<path opacity="0.4" d="M266.686 23.9444C266.419 23.9453 266.156 23.8943 265.909 23.7944C265.663 23.6946 265.439 23.5478 265.251 23.3625C265.062 23.1773 264.912 22.9571 264.81 22.7148C264.708 22.4724 264.656 22.2125 264.656 21.9501V11.3243C265.961 11.2965 267.251 11.5998 268.403 12.205C268.518 12.2679 268.613 12.3308 268.715 12.4001V21.9501C268.714 22.4796 268.499 22.9869 268.119 23.3607C267.738 23.7345 267.223 23.9444 266.686 23.9444Z" fill="white"/>
<path d="M259.363 12.0791C259.363 12.8467 259.88 13.6205 260.914 14.2056C262.073 14.7858 263.355 15.0882 264.655 15.0882C265.955 15.0882 267.236 14.7858 268.395 14.2056C269.429 13.6205 269.946 12.8467 269.946 12.0791V5.22171C269.946 3.83682 269.388 2.50866 268.395 1.5294C267.401 0.550143 266.054 0 264.649 0C263.243 0 261.896 0.550143 260.902 1.5294C259.909 2.50866 259.351 3.83682 259.351 5.22171L259.363 12.0791Z" fill="#F5F5F5"/>
<path opacity="0.1" d="M268.402 14.2055C267.243 14.7857 265.961 15.0881 264.661 15.0881C263.361 15.0881 262.08 14.7857 260.921 14.2055C259.887 13.6205 259.363 12.8529 259.363 12.0791V12.8529C259.363 13.6267 259.88 14.3943 260.914 14.9856C262.073 15.5659 263.355 15.8683 264.655 15.8683C265.955 15.8683 267.236 15.5659 268.395 14.9856C269.429 14.3943 269.946 13.6267 269.946 12.8529V12.098C269.953 12.8529 269.436 13.6205 268.402 14.2055Z" fill="black"/>
<path d="M267.77 1.00646C266.981 0.440026 266.048 0.0998303 265.075 0.0235121C264.101 -0.0528061 263.126 0.137729 262.255 0.574037C261.385 1.01034 260.655 1.67541 260.144 2.49565C259.634 3.3159 259.363 4.25933 259.363 5.22157V12.079C259.363 12.8465 259.88 13.6203 260.914 14.2054C261.391 14.4797 261.901 14.6912 262.434 14.8345V4.28418C262.44 1.27698 266.257 0.176019 267.77 1.00646Z" fill="#E0E0E0"/>
<path d="M266.686 2.46606C266.147 2.46606 265.631 2.67684 265.25 3.05203C264.87 3.42721 264.656 3.93607 264.656 4.46667V15.0925C265.961 15.1181 267.251 14.8126 268.403 14.2055C268.518 14.1426 268.613 14.0796 268.715 14.0167V4.46667C268.715 3.93607 268.502 3.42721 268.121 3.05203C267.74 2.67684 267.224 2.46606 266.686 2.46606Z" fill="white"/>
<path opacity="0.1" d="M265.319 26.3098L265.619 26.2595L265.829 26.2218L266.066 26.1588L266.308 26.0896L266.423 26.0456C266.771 25.9263 267.105 25.7702 267.419 25.5801C267.532 25.5161 267.641 25.4446 267.744 25.3661C266.231 26.1903 262.414 25.0956 262.414 22.0884V14.8095C261.882 14.6662 261.372 14.4547 260.895 14.1804C259.887 13.6205 259.363 12.8529 259.363 12.0791V21.1322C259.365 22.5165 259.924 23.8437 260.917 24.8226C261.91 25.8015 263.257 26.3522 264.661 26.3539C264.827 26.3539 264.993 26.3539 265.153 26.3539L265.319 26.3098Z" fill="black"/>
</svg>
