<svg width="91" height="64" viewBox="0 0 91 64" fill="none" xmlns="http://www.w3.org/2000/svg">
<path d="M0 60.0044L0.0305453 3.18109C0.0305452 2.76316 0.112899 2.34933 0.2729 1.96324C0.432902 1.57715 0.667416 1.22637 0.963038 0.930949C1.25866 0.635529 1.6096 0.401257 1.9958 0.24152C2.382 0.0817838 2.79589 -0.000285898 3.21382 7.48293e-07L87.5302 0.0436381C88.3729 0.0442139 89.1811 0.378949 89.7774 0.974451C90.3737 1.56995 90.7095 2.37762 90.7113 3.22036L90.6807 60.0458C90.6807 60.4638 90.5984 60.8776 90.4384 61.2637C90.2784 61.6498 90.0439 62.0005 89.7482 62.296C89.4526 62.5914 89.1017 62.8257 88.7155 62.9854C88.3293 63.1451 87.9154 63.2272 87.4975 63.2269L3.18109 63.1811C2.33817 63.1811 1.52971 62.8465 0.933262 62.2509C0.336817 61.6553 0.00115627 60.8473 0 60.0044Z" fill="#263238"/>
<path d="M84.4148 61.1204L84.4458 1.91675L8.71708 1.8771L8.68608 61.0807L84.4148 61.1204Z" fill="white"/>
<path d="M4.57075 34.0189C4.09132 34.0185 3.6228 33.8759 3.22441 33.6092C2.82603 33.3425 2.51568 32.9636 2.33261 32.5205C2.14954 32.0774 2.10198 31.59 2.19593 31.1199C2.28988 30.6497 2.52114 30.218 2.86044 29.8793C3.19975 29.5406 3.63187 29.3102 4.10217 29.2171C4.57246 29.1239 5.0598 29.1724 5.50257 29.3563C5.94533 29.5401 6.32363 29.8511 6.58962 30.25C6.85561 30.6489 6.99736 31.1177 6.99693 31.5971C6.99664 31.9154 6.93366 32.2306 6.81157 32.5245C6.68949 32.8185 6.5107 33.0856 6.28541 33.3105C6.06012 33.5354 5.79274 33.7137 5.49853 33.8352C5.20433 33.9568 4.88907 34.0192 4.57075 34.0189Z" fill="#455A64"/>
<path d="M88.0803 40.8884L88.0899 22.3887C88.09 22.2417 87.9709 22.1225 87.8239 22.1224L87.3548 22.1222C87.2078 22.1221 87.0886 22.2412 87.0885 22.3882L87.0788 40.8879C87.0787 41.0349 87.1978 41.1541 87.3449 41.1542L87.8139 41.1544C87.961 41.1545 88.0802 41.0354 88.0803 40.8884Z" fill="#455A64"/>
<path d="M58.1957 16.9941H8.56152V21.637H58.1957V16.9941Z" fill="#E0E0E0"/>
<path d="M58.1957 7.8457H8.56152V16.9941H58.1957V7.8457Z" fill="#F5F5F5"/>
<path d="M15.1331 20.04L15.2334 19.8218C15.3825 19.9338 15.564 19.9943 15.7505 19.9942C15.9949 19.9942 16.0996 19.9069 16.0996 19.7913C16.0996 19.4531 15.1658 19.6734 15.1658 19.0909C15.1658 18.8378 15.3687 18.624 15.7985 18.624C15.982 18.6202 16.1629 18.6686 16.32 18.7636L16.2283 18.9818C16.0962 18.9034 15.9456 18.8612 15.792 18.8596C15.5498 18.8596 15.4516 18.9534 15.4516 19.0778C15.4516 19.4116 16.3811 19.1956 16.3811 19.7716C16.3811 20.0225 16.1782 20.2364 15.7462 20.2364C15.5258 20.2395 15.3105 20.1705 15.1331 20.04Z" fill="#263238"/>
<path d="M22.5491 20.2059V19.1673L22.032 20.0204H21.9033L21.3862 19.1739V20.1993H21.1091V18.6306H21.3557L21.9775 19.6713L22.5906 18.6306H22.8306V20.1993L22.5491 20.2059Z" fill="#263238"/>
<path d="M27.5127 18.8838H26.9934V18.6372H28.3243V18.8838H27.805V20.2059H27.5127V18.8838Z" fill="#263238"/>
<path d="M39.5783 18.8838H39.0591V18.6372H40.39V18.8838H39.8685V20.2059H39.5783V18.8838Z" fill="#263238"/>
<path d="M45.4496 18.8814V19.3657H46.2067V19.6123H45.4496V20.2123H45.1572V18.6436H46.3027V18.8879L45.4496 18.8814Z" fill="#263238"/>
<path d="M51.3271 20.04L51.4275 19.8218C51.5766 19.9338 51.7581 19.9943 51.9446 19.9942C52.189 19.9942 52.2915 19.9069 52.2915 19.7913C52.2915 19.4531 51.3599 19.6734 51.3599 19.0909C51.3599 18.8378 51.5628 18.624 51.9926 18.624C52.1761 18.6202 52.357 18.6686 52.5141 18.7636L52.4224 18.9818C52.2903 18.9034 52.1397 18.8612 51.9861 18.8596C51.7439 18.8596 51.6457 18.9534 51.6457 19.0778C51.6457 19.4116 52.5751 19.1956 52.5751 19.7716C52.5751 20.0225 52.3701 20.2364 51.9402 20.2364C51.7199 20.2395 51.5046 20.1705 51.3271 20.04Z" fill="#263238"/>
<path d="M62.7317 16.2654H59.7993C59.3439 16.2654 58.9746 16.6346 58.9746 17.0901V28.0407C58.9746 28.4961 59.3439 28.8654 59.7993 28.8654H62.7317C63.1872 28.8654 63.5564 28.4961 63.5564 28.0407V17.0901C63.5564 16.6346 63.1872 16.2654 62.7317 16.2654Z" fill="#EBEBEB"/>
<path d="M60.6961 17.592V19.1608H60.4102V17.8386H60.0786V17.5942L60.6961 17.592Z" fill="#263238"/>
<path d="M62.1208 18.6896C62.1208 18.9536 61.9201 19.1826 61.499 19.1826C61.2884 19.1862 61.0822 19.1228 60.9099 19.0016L61.0365 18.7834C61.1671 18.8857 61.3287 18.9403 61.4946 18.9383C61.7128 18.9383 61.8263 18.8466 61.8263 18.7005C61.8263 18.5543 61.7237 18.467 61.4859 18.467H61.3441V18.2685L61.6997 17.8452H60.9863V17.6008H62.0554V17.795L61.6735 18.2488C61.7321 18.2474 61.7904 18.2577 61.8449 18.2793C61.8994 18.3008 61.949 18.3331 61.9908 18.3742C62.0325 18.4154 62.0655 18.4645 62.0879 18.5187C62.1102 18.5728 62.1214 18.631 62.1208 18.6896Z" fill="#263238"/>
<path d="M35.5198 18.6372L35.0006 20.2059H34.6907L34.3024 19.0452L33.9075 20.2059H33.5976L33.0784 18.6372H33.3795L33.77 19.8285L34.1758 18.6372H34.4464L34.8435 19.8372L35.2449 18.6372H35.5198Z" fill="#263238"/>
<path d="M34.3309 41.64C35.8299 41.64 37.0451 40.4248 37.0451 38.9258C37.0451 37.4268 35.8299 36.2117 34.3309 36.2117C32.8319 36.2117 31.6167 37.4268 31.6167 38.9258C31.6167 40.4248 32.8319 41.64 34.3309 41.64Z" fill="#275AA6"/>
<path d="M16.2657 47.4042C17.7647 47.4042 18.9799 46.189 18.9799 44.69C18.9799 43.191 17.7647 41.9758 16.2657 41.9758C14.7667 41.9758 13.5515 43.191 13.5515 44.69C13.5515 46.189 14.7667 47.4042 16.2657 47.4042Z" fill="#455A64"/>
<path d="M40.501 53.8517C42 53.8517 43.2152 52.6365 43.2152 51.1375C43.2152 49.6385 42 48.4233 40.501 48.4233C39.002 48.4233 37.7869 49.6385 37.7869 51.1375C37.7869 52.6365 39.002 53.8517 40.501 53.8517Z" fill="#275AA6"/>
<path d="M45.9971 25.6931V27.2597H45.7047V25.9375H45.373V25.6931H45.9971Z" fill="#263238"/>
<path d="M52.7367 27.0022V27.2466H51.5804V27.0524L52.2022 26.4611C52.3549 26.315 52.3811 26.2233 52.3811 26.136C52.3811 25.992 52.2829 25.9179 52.0909 25.9179C52.0208 25.9134 51.9507 25.926 51.8865 25.9545C51.8223 25.983 51.766 26.0266 51.7222 26.0815L51.5193 25.9244C51.5917 25.838 51.6832 25.7696 51.7866 25.7245C51.8899 25.6795 52.0023 25.659 52.1149 25.6648C52.4553 25.6648 52.6756 25.8371 52.6756 26.1164C52.6732 26.2133 52.6485 26.3084 52.6035 26.3943C52.5585 26.4802 52.4943 26.5545 52.416 26.6117L51.9971 27.0022H52.7367Z" fill="#263238"/>
<path d="M16.5732 32.6531C16.5732 32.9171 16.3747 33.1462 15.9536 33.1462C15.7425 33.1508 15.5357 33.0865 15.3645 32.963L15.4889 32.7448C15.6204 32.8468 15.7828 32.9007 15.9492 32.8975C16.1565 32.8975 16.2809 32.8059 16.2809 32.6619C16.2809 32.5179 16.1761 32.4284 15.9383 32.4284H15.7965V32.2277L16.1521 31.8044H15.4387V31.5601H16.5078V31.7564L16.1194 32.2015C16.179 32.2009 16.2381 32.2122 16.2933 32.2347C16.3484 32.2571 16.3986 32.2903 16.4408 32.3324C16.4831 32.3744 16.5165 32.4244 16.5392 32.4795C16.562 32.5345 16.5735 32.5936 16.5732 32.6531Z" fill="#263238"/>
<path d="M22.7456 32.7663H22.4685V33.122H22.1848V32.7663H21.3252V32.5656L22.0976 31.5532H22.4096L21.6808 32.5198H22.1936V32.2034H22.4685V32.5198H22.7456V32.7663Z" fill="#263238"/>
<path d="M28.3528 32.6401C28.3528 32.9171 28.152 33.1462 27.7309 33.1462C27.5199 33.1508 27.3131 33.0865 27.1418 32.963L27.264 32.7448C27.3969 32.8457 27.5597 32.8994 27.7266 32.8975C27.9339 32.8975 28.0582 32.8059 28.0582 32.6597C28.0582 32.5135 27.9622 32.4153 27.6371 32.4153H27.2575L27.3382 31.5601H28.2589V31.8022H27.5848L27.552 32.1666H27.7026C28.1651 32.1622 28.3528 32.363 28.3528 32.6401Z" fill="#263238"/>
<path d="M34.6647 32.6356C34.6632 32.7074 34.6469 32.7783 34.6169 32.8436C34.5868 32.9089 34.5436 32.9673 34.49 33.0152C34.4364 33.0631 34.3735 33.0995 34.3052 33.122C34.2369 33.1445 34.1647 33.1527 34.0931 33.1461C33.6567 33.1461 33.4124 32.869 33.4124 32.365C33.4124 31.8283 33.7265 31.5315 34.1825 31.5315C34.3265 31.5276 34.4689 31.5623 34.5949 31.6319L34.4858 31.8501C34.3967 31.7958 34.2934 31.7692 34.1891 31.7737C33.8924 31.7737 33.7069 31.957 33.7069 32.3148C33.7605 32.2585 33.8258 32.2147 33.8981 32.1864C33.9705 32.1581 34.0483 32.1461 34.1258 32.1512C34.1937 32.1442 34.2623 32.1515 34.3272 32.1726C34.3922 32.1937 34.4519 32.2282 34.5027 32.2738C34.5535 32.3195 34.5941 32.3752 34.622 32.4375C34.6499 32.4998 34.6645 32.5673 34.6647 32.6356ZM34.3833 32.6508C34.3833 32.4872 34.2611 32.3825 34.0691 32.3825C34.0302 32.3783 33.9909 32.382 33.9535 32.3935C33.9161 32.405 33.8815 32.424 33.8517 32.4493C33.8219 32.4746 33.7975 32.5057 33.7801 32.5407C33.7627 32.5758 33.7527 32.614 33.7505 32.653C33.7505 32.7992 33.8683 32.917 34.0756 32.917C34.1129 32.9206 34.1506 32.9165 34.1862 32.9048C34.2218 32.8931 34.2546 32.8741 34.2825 32.8491C34.3104 32.8241 34.3328 32.7935 34.3482 32.7594C34.3637 32.7253 34.3719 32.6883 34.3724 32.6508H34.3833Z" fill="#263238"/>
<path d="M40.4008 31.5532V31.7496L39.7899 33.122H39.4801L40.0691 31.7998H39.4517V32.0681H39.1812V31.5532H40.4008Z" fill="#263238"/>
<path d="M46.4466 32.6748C46.4466 32.965 46.1935 33.1482 45.8029 33.1482C45.4124 33.1482 45.1636 32.965 45.1636 32.6748C45.1621 32.5941 45.1853 32.5149 45.2302 32.4478C45.2751 32.3807 45.3394 32.3289 45.4146 32.2995C45.3543 32.2686 45.3041 32.2212 45.2698 32.1629C45.2354 32.1046 45.2183 32.0377 45.2204 31.9701C45.2204 31.7017 45.456 31.5337 45.8029 31.5337C46.1498 31.5337 46.3898 31.7017 46.3898 31.9701C46.3915 32.0382 46.3738 32.1054 46.3386 32.1637C46.3034 32.2221 46.2523 32.2692 46.1913 32.2995C46.2669 32.3287 46.3318 32.3803 46.3774 32.4473C46.423 32.5144 46.4471 32.5937 46.4466 32.6748ZM46.152 32.6748C46.152 32.5199 46.0167 32.4239 45.8029 32.4239C45.5891 32.4239 45.4582 32.5199 45.4582 32.6748C45.4582 32.8297 45.5869 32.9279 45.8029 32.9279C46.0189 32.9279 46.1433 32.8231 46.1433 32.6748H46.152ZM45.4975 31.9941C45.4975 32.1271 45.6109 32.2122 45.7942 32.2122C45.9775 32.2122 46.0953 32.1271 46.0953 31.9941C46.0953 31.861 45.9731 31.7759 45.7942 31.7759C45.6153 31.7759 45.4975 31.8413 45.4975 31.9831V31.9941Z" fill="#263238"/>
<path d="M52.4945 32.3126C52.4945 32.8493 52.1826 33.146 51.7266 33.146C51.5823 33.1506 51.4395 33.1151 51.3142 33.0435L51.4233 32.8253C51.5127 32.8789 51.6158 32.9055 51.72 32.9017C52.0167 32.9017 52.2022 32.7162 52.2022 32.3606C52.1484 32.4165 52.083 32.4601 52.0107 32.4884C51.9384 32.5166 51.8608 32.5289 51.7833 32.5242C51.7154 32.5312 51.6469 32.524 51.582 32.503C51.5172 32.482 51.4574 32.4478 51.4065 32.4024C51.3556 32.357 51.3147 32.3016 51.2864 32.2395C51.2581 32.1775 51.243 32.1102 51.2422 32.042C51.244 31.9701 51.2605 31.8994 51.2908 31.8341C51.3212 31.7689 51.3646 31.7106 51.4184 31.6629C51.4723 31.6152 51.5354 31.5791 51.6038 31.5569C51.6722 31.5347 51.7444 31.5268 51.816 31.5337C52.2436 31.5315 52.4945 31.802 52.4945 32.3126ZM52.1564 32.0202C52.1564 31.8719 52.0407 31.7562 51.8313 31.7562C51.7933 31.7513 51.7547 31.7545 51.718 31.7655C51.6814 31.7766 51.6475 31.7954 51.6186 31.8205C51.5897 31.8457 51.5665 31.8767 51.5505 31.9115C51.5345 31.9463 51.5261 31.9841 51.5258 32.0224C51.5258 32.186 51.648 32.2886 51.84 32.2886C51.8787 32.2931 51.9178 32.2896 51.9551 32.2784C51.9923 32.2671 52.0269 32.2483 52.0565 32.2232C52.0862 32.198 52.1104 32.167 52.1276 32.1321C52.1447 32.0972 52.1545 32.0591 52.1564 32.0202Z" fill="#263238"/>
<path d="M15.9011 38.2014V39.7701H15.6087V38.4458H15.2771V38.2014H15.9011Z" fill="#263238"/>
<path d="M16.2065 38.9867C16.2065 38.4718 16.4902 38.1794 16.8611 38.1794C17.232 38.1794 17.5156 38.4718 17.5156 38.9867C17.5156 39.5016 17.2342 39.7918 16.8611 39.7918C16.488 39.7918 16.2065 39.5016 16.2065 38.9867ZM17.2255 38.9867C17.2255 38.6071 17.0771 38.4325 16.8611 38.4325C16.6451 38.4325 16.5011 38.6071 16.5011 38.9867C16.5011 39.3664 16.6495 39.5387 16.8611 39.5387C17.0727 39.5387 17.2255 39.3642 17.2255 38.9867Z" fill="#263238"/>
<path d="M22.1846 38.2014V39.7701H21.8945V38.4458H21.5737V38.2014H22.1846Z" fill="#263238"/>
<path d="M23.04 38.2014V39.7701H22.7477V38.4458H22.416V38.2014H23.04Z" fill="#263238"/>
<path d="M27.9228 38.2014V39.7701H27.6327V38.4458H27.301V38.2014H27.9228Z" fill="#263238"/>
<path d="M29.3696 39.5236V39.7702H28.2154V39.576L28.8372 38.9847C28.9899 38.8386 29.0161 38.7469 29.0161 38.6596C29.0161 38.5156 28.9179 38.4415 28.7259 38.4415C28.6558 38.437 28.5857 38.4496 28.5215 38.4781C28.4573 38.5066 28.401 38.5502 28.3572 38.6051L28.1543 38.448C28.2264 38.3612 28.3178 38.2925 28.4213 38.2474C28.5247 38.2023 28.6373 38.1821 28.7499 38.1884C29.0903 38.1884 29.3107 38.3607 29.3107 38.64C29.3081 38.7366 29.2833 38.8313 29.2383 38.9168C29.1932 39.0023 29.1292 39.0763 29.051 39.1331L28.6321 39.5324L29.3696 39.5236Z" fill="#263238"/>
<path d="M33.886 38.2014V39.7701H33.5958V38.4458H33.2642V38.2014H33.886Z" fill="white"/>
<path d="M35.3191 39.3011C35.3191 39.5651 35.1205 39.792 34.6994 39.792C34.4886 39.7972 34.2818 39.7337 34.1104 39.6109L34.2347 39.3927C34.3662 39.4947 34.5287 39.5486 34.6951 39.5455C34.9024 39.5455 35.0267 39.4538 35.0267 39.3098C35.0267 39.1658 34.922 39.0764 34.6842 39.0764H34.5424V38.8756L34.898 38.4524H34.1845V38.208H35.2536V38.4044L34.874 38.856C34.9917 38.8571 35.1042 38.9044 35.1875 38.9876C35.2707 39.0709 35.3179 39.1834 35.3191 39.3011Z" fill="white"/>
<path d="M39.7397 38.2014V39.7701H39.4496V38.4458H39.1179V38.2014H39.7397Z" fill="#263238"/>
<path d="M41.4502 39.4146H41.1709V39.7702H40.8894V39.4146H40.0298V39.2204L40.8022 38.208H41.1141L40.3854 39.1746H40.8982V38.8582H41.1709V39.1746H41.4502V39.4146Z" fill="#263238"/>
<path d="M45.8096 38.2014V39.7701H45.5194V38.4458H45.1877V38.2014H45.8096Z" fill="#263238"/>
<path d="M47.2605 39.288C47.2605 39.5651 47.0619 39.792 46.6409 39.792C46.43 39.7972 46.2232 39.7337 46.0518 39.6109L46.1739 39.3927C46.3069 39.4937 46.4696 39.5474 46.6365 39.5455C46.8438 39.5455 46.9681 39.4538 46.9681 39.3076C46.9681 39.1615 46.8721 39.0633 46.547 39.0633H46.1674L46.2481 38.208H47.1688V38.4524H46.4947L46.4619 38.8167H46.6125C47.075 38.8102 47.2605 39.0022 47.2605 39.288Z" fill="#263238"/>
<path d="M51.7243 38.2014V39.7701H51.432V38.4458H51.1003V38.2014H51.7243Z" fill="#263238"/>
<path d="M53.2887 39.2835C53.287 39.3554 53.2704 39.4262 53.2401 39.4914C53.2098 39.5566 53.1663 39.6149 53.1125 39.6626C53.0586 39.7103 52.9956 39.7464 52.9272 39.7686C52.8588 39.7909 52.7865 39.7988 52.7149 39.7919C52.2785 39.7919 52.0342 39.517 52.0342 39.013C52.0342 38.4762 52.3484 38.1795 52.8044 38.1795C52.9483 38.1756 53.0907 38.2102 53.2167 38.2799L53.1076 38.498C53.0185 38.4437 52.9152 38.4171 52.8109 38.4217C52.5142 38.4217 52.3287 38.605 52.3287 38.9606C52.3823 38.9043 52.4476 38.8604 52.52 38.8322C52.5924 38.8039 52.6701 38.7919 52.7476 38.797C52.8158 38.7899 52.8847 38.7973 52.9499 38.8185C53.0151 38.8398 53.0751 38.8744 53.1261 38.9203C53.177 38.9661 53.2178 39.0221 53.2459 39.0847C53.2739 39.1472 53.2885 39.215 53.2887 39.2835ZM53.0051 39.2966C53.0051 39.1351 52.8829 39.0304 52.6909 39.0304C52.6521 39.0262 52.6129 39.03 52.5757 39.0415C52.5384 39.053 52.5039 39.072 52.4743 39.0973C52.4446 39.1227 52.4205 39.1538 52.4034 39.1888C52.3862 39.2239 52.3764 39.262 52.3745 39.301C52.3745 39.4471 52.4902 39.565 52.6975 39.565C52.7357 39.5699 52.7746 39.5667 52.8115 39.5555C52.8484 39.5443 52.8826 39.5254 52.9117 39.5C52.9407 39.4746 52.9641 39.4434 52.9802 39.4083C52.9963 39.3733 53.0048 39.3352 53.0051 39.2966Z" fill="#263238"/>
<path d="M15.9011 44.0747V45.6434H15.6087V44.3191H15.2771V44.0747H15.9011Z" fill="white"/>
<path d="M17.3891 44.0747V44.2689L16.7804 45.6434H16.4684L17.0574 44.3213H16.4422V44.5874H16.1716V44.0747H17.3891Z" fill="white"/>
<path d="M21.8508 44.0747V45.6434H21.5584V44.3191H21.2268V44.0747H21.8508Z" fill="#263238"/>
<path d="M23.435 45.1919C23.435 45.4843 23.182 45.6653 22.7914 45.6653C22.4009 45.6653 22.1521 45.4843 22.1521 45.1919C22.151 45.1116 22.1745 45.0328 22.2193 44.9661C22.2641 44.8995 22.3282 44.8481 22.403 44.8188C22.3432 44.7875 22.2932 44.74 22.2589 44.6818C22.2246 44.6236 22.2073 44.5569 22.2089 44.4893C22.2089 44.221 22.4445 44.053 22.7914 44.053C23.1383 44.053 23.3783 44.2232 23.3783 44.4893C23.3795 44.5574 23.3615 44.6243 23.3264 44.6826C23.2913 44.7409 23.2405 44.7881 23.1798 44.8188C23.2556 44.8471 23.3208 44.8981 23.3665 44.9649C23.4122 45.0317 23.4361 45.111 23.435 45.1919ZM23.1405 45.1919C23.1405 45.037 23.0074 44.941 22.7914 44.941C22.5754 44.941 22.4467 45.037 22.4467 45.1919C22.4467 45.3468 22.5776 45.445 22.7914 45.445C23.0052 45.445 23.1405 45.3424 23.1405 45.1832V45.1919ZM22.4969 44.5112C22.4969 44.6443 22.6081 44.7293 22.7914 44.7293C22.9747 44.7293 23.0925 44.6421 23.0925 44.5112C23.0925 44.3803 22.9703 44.293 22.7914 44.293C22.6125 44.293 22.4969 44.3606 22.4969 44.5024V44.5112Z" fill="#263238"/>
<path d="M27.8838 44.0747V45.6434H27.5914V44.3191H27.2598V44.0747H27.8838Z" fill="#263238"/>
<path d="M29.4023 44.8319C29.4023 45.3686 29.0881 45.6653 28.6343 45.6653C28.4903 45.6696 28.3478 45.6349 28.2219 45.565L28.3288 45.3468C28.4179 45.4011 28.5212 45.4277 28.6255 45.4232C28.9223 45.4232 29.1077 45.2399 29.1077 44.8821C29.0542 44.9384 28.9889 44.9822 28.9165 45.0105C28.8441 45.0388 28.7664 45.0508 28.6888 45.0457C28.6213 45.0527 28.553 45.0455 28.4884 45.0246C28.4238 45.0038 28.3642 44.9697 28.3135 44.9245C28.2628 44.8794 28.2221 44.8241 28.1939 44.7623C28.1657 44.7006 28.1508 44.6336 28.1499 44.5657C28.1514 44.4936 28.1677 44.4226 28.1979 44.3571C28.2281 44.2916 28.2715 44.2331 28.3254 44.1852C28.3792 44.1372 28.4424 44.1009 28.511 44.0786C28.5795 44.0562 28.6519 44.0482 28.7237 44.0552C29.1514 44.0508 29.4023 44.3279 29.4023 44.8319ZM29.0641 44.5439C29.0641 44.3977 28.9463 44.2799 28.739 44.2799C28.7009 44.275 28.6622 44.2781 28.6254 44.2892C28.5887 44.3003 28.5546 44.319 28.5256 44.3441C28.4966 44.3693 28.4731 44.4002 28.4569 44.435C28.4407 44.4698 28.432 44.5077 28.4314 44.5461C28.4314 44.7097 28.5557 44.8144 28.7455 44.8144C28.7844 44.8186 28.8237 44.8149 28.8611 44.8034C28.8985 44.7919 28.9331 44.7729 28.963 44.7476C28.9928 44.7223 29.0171 44.6912 29.0345 44.6562C29.0519 44.6211 29.0619 44.5829 29.0641 44.5439Z" fill="#263238"/>
<path d="M34.2067 45.397V45.6435H33.0504V45.4472L33.6744 44.8559C33.8271 44.7097 33.8533 44.6181 33.8533 44.5308C33.8533 44.3868 33.7551 44.3126 33.5631 44.3126C33.493 44.3082 33.4229 44.3208 33.3587 44.3493C33.2945 44.3778 33.2381 44.4213 33.1944 44.4763L32.9915 44.3192C33.0634 44.2321 33.1548 44.1631 33.2582 44.1176C33.3616 44.0722 33.4743 44.0515 33.5871 44.0574C33.9275 44.0574 34.1478 44.2319 34.1478 44.509C34.1454 44.6059 34.1207 44.701 34.0757 44.7869C34.0307 44.8727 33.9665 44.9471 33.8882 45.0043L33.4671 45.4035L34.2067 45.397Z" fill="#263238"/>
<path d="M34.3682 44.858C34.3682 44.3431 34.6496 44.0508 35.0227 44.0508C35.3958 44.0508 35.6773 44.3431 35.6773 44.858C35.6773 45.373 35.3936 45.6653 35.0227 45.6653C34.6518 45.6653 34.3682 45.373 34.3682 44.858ZM35.3849 44.858C35.3849 44.4806 35.2387 44.3061 35.0227 44.3061C34.8067 44.3061 34.6627 44.4806 34.6627 44.858C34.6627 45.2355 34.8089 45.4122 35.0227 45.4122C35.2365 45.4122 35.3849 45.2377 35.3849 44.858Z" fill="#263238"/>
<path d="M40.5339 45.397V45.6435H39.3797V45.4472L40.0015 44.8559C40.1542 44.7097 40.1804 44.6181 40.1804 44.5308C40.1804 44.3868 40.0822 44.3126 39.8902 44.3126C39.8202 44.3082 39.75 44.3208 39.6858 44.3493C39.6216 44.3778 39.5653 44.4213 39.5215 44.4763L39.3186 44.3192C39.3906 44.2321 39.4819 44.1631 39.5854 44.1176C39.6888 44.0722 39.8014 44.0515 39.9142 44.0574C40.2546 44.0574 40.475 44.2319 40.475 44.509C40.4725 44.6059 40.4479 44.701 40.4028 44.7869C40.3578 44.8727 40.2937 44.9471 40.2153 45.0043L39.7964 45.4035L40.5339 45.397Z" fill="#263238"/>
<path d="M41.2451 44.0747V45.6434H40.9527V44.3191H40.6211V44.0747H41.2451Z" fill="#263238"/>
<path d="M46.3137 45.397V45.6435H45.1573V45.4472L45.7813 44.8559C45.934 44.7097 45.9602 44.6181 45.9602 44.5308C45.9602 44.3868 45.862 44.3126 45.6678 44.3126C45.5981 44.3086 45.5284 44.3213 45.4646 44.3498C45.4008 44.3783 45.3448 44.4216 45.3013 44.4763L45.0984 44.3192C45.1704 44.2321 45.2617 44.1631 45.3652 44.1176C45.4686 44.0722 45.5812 44.0515 45.694 44.0574C46.0344 44.0574 46.2526 44.2319 46.2526 44.509C46.2506 44.606 46.2262 44.7013 46.1811 44.7872C46.136 44.8732 46.0716 44.9475 45.9929 45.0043L45.574 45.397H46.3137Z" fill="#263238"/>
<path d="M47.6183 45.397V45.6435H46.462V45.4472L47.0838 44.8559C47.2365 44.7097 47.2627 44.6181 47.2627 44.5308C47.2627 44.3868 47.1645 44.3126 46.9725 44.3126C46.9024 44.3082 46.8323 44.3208 46.7681 44.3493C46.7039 44.3778 46.6475 44.4213 46.6038 44.4763L46.4009 44.3192C46.4729 44.2321 46.5642 44.1631 46.6676 44.1176C46.7711 44.0722 46.8837 44.0515 46.9965 44.0574C47.3369 44.0574 47.5572 44.2319 47.5572 44.509C47.5548 44.6059 47.5301 44.701 47.4851 44.7869C47.4401 44.8727 47.3759 44.9471 47.2976 45.0043L46.8831 45.397H47.6183Z" fill="#263238"/>
<path d="M52.3178 45.397V45.6435H51.1614V45.4472L51.7854 44.8559C51.936 44.7097 51.9643 44.6181 51.9643 44.5308C51.9643 44.3868 51.8662 44.3126 51.672 44.3126C51.6022 44.3086 51.5326 44.3213 51.4688 44.3498C51.405 44.3783 51.349 44.4216 51.3054 44.4763L51.1003 44.3192C51.1728 44.2321 51.2645 44.1631 51.3683 44.1176C51.4721 44.0722 51.585 44.0515 51.6982 44.0574C52.0385 44.0574 52.2567 44.2319 52.2567 44.509C52.2548 44.606 52.2303 44.7013 52.1852 44.7872C52.1402 44.8732 52.0758 44.9475 51.9971 45.0043L51.5782 45.4035L52.3178 45.397Z" fill="#263238"/>
<path d="M53.5984 45.1722C53.5984 45.4362 53.3998 45.6653 52.9787 45.6653C52.7681 45.6696 52.5616 45.6061 52.3896 45.4842L52.514 45.266C52.6455 45.3683 52.8078 45.423 52.9744 45.421C53.1817 45.421 53.306 45.3293 53.306 45.1831C53.306 45.0369 53.2013 44.9497 52.9657 44.9497H52.8217V44.7511L53.1773 44.3279H52.466V44.0835H53.5329V44.2777L53.1533 44.7315C53.2117 44.7303 53.2697 44.7409 53.324 44.7626C53.3782 44.7842 53.4276 44.8166 53.4691 44.8577C53.5106 44.8988 53.5434 44.9478 53.5656 45.0018C53.5878 45.0559 53.599 45.1138 53.5984 45.1722Z" fill="#263238"/>
<path d="M16.4902 51.8246V52.0711H15.3338V51.8748L15.9556 51.2813C16.1083 51.1373 16.1367 51.0457 16.1367 50.9584C16.1367 50.8144 16.0363 50.7402 15.8443 50.7402C15.7746 50.7362 15.7049 50.7489 15.6411 50.7774C15.5774 50.8059 15.5213 50.8492 15.4778 50.9039L15.2727 50.7468C15.3449 50.6601 15.4364 50.5915 15.5398 50.5464C15.6432 50.5013 15.7557 50.481 15.8683 50.4871C16.2087 50.4871 16.4291 50.6595 16.4291 50.9366C16.4273 51.0337 16.4029 51.129 16.3578 51.2149C16.3128 51.3009 16.2483 51.3752 16.1694 51.4319L15.7505 51.8311L16.4902 51.8246Z" fill="#263238"/>
<path d="M18.0217 51.7155H17.7446V52.0712H17.461V51.7155H16.6013V51.5126L17.3737 50.5024H17.6857L16.957 51.469H17.4697V51.1526H17.7446V51.469H18.0217V51.7155Z" fill="#263238"/>
<path d="M22.5512 51.8246V52.0712H21.397V51.8748L22.0188 51.2814C22.1716 51.1374 22.1978 51.0457 22.1978 50.9585C22.1978 50.8145 22.0996 50.7403 21.9076 50.7403C21.8375 50.7359 21.7674 50.7484 21.7032 50.7769C21.639 50.8054 21.5826 50.849 21.5388 50.9039L21.3359 50.7468C21.408 50.66 21.4995 50.5913 21.6029 50.5462C21.7063 50.5012 21.8189 50.4809 21.9316 50.4872C22.2719 50.4872 22.4923 50.6596 22.4923 50.9367C22.49 51.0336 22.4654 51.1287 22.4204 51.2146C22.3754 51.3005 22.3111 51.3749 22.2327 51.4319L21.8138 51.8312L22.5512 51.8246Z" fill="#263238"/>
<path d="M23.8603 51.589C23.8603 51.864 23.6618 52.093 23.2407 52.093C23.0293 52.0972 22.8222 52.0337 22.6494 51.912L22.7738 51.6938C22.9054 51.7958 23.0676 51.8503 23.2341 51.8487C23.4523 51.8487 23.5658 51.757 23.5658 51.6087C23.5658 51.4603 23.4698 51.3643 23.1447 51.3643H22.7672L22.848 50.5112H23.7687V50.7556H23.1011L23.0661 51.1178H23.2167C23.6749 51.109 23.8603 51.312 23.8603 51.589Z" fill="#263238"/>
<path d="M28.4816 51.8246V52.0712H27.3253V51.8748L27.9471 51.2814C28.0998 51.1374 28.126 51.0457 28.126 50.9585C28.126 50.8145 28.0278 50.7403 27.8358 50.7403C27.7657 50.7359 27.6956 50.7484 27.6314 50.7769C27.5672 50.8054 27.5108 50.849 27.4671 50.9039L27.2642 50.7468C27.3363 50.66 27.4277 50.5913 27.5311 50.5462C27.6346 50.5012 27.7471 50.4809 27.8598 50.4872C28.2002 50.4872 28.4205 50.6596 28.4205 50.9367C28.4183 51.0336 28.3936 51.1287 28.3486 51.2146C28.3036 51.3005 28.2393 51.3749 28.1609 51.4319L27.742 51.8312L28.4816 51.8246Z" fill="#263238"/>
<path d="M29.8932 51.5847C29.8918 51.6567 29.8754 51.7277 29.8452 51.793C29.815 51.8584 29.7716 51.9168 29.7177 51.9646C29.6638 52.0123 29.6005 52.0484 29.532 52.0705C29.4634 52.0926 29.3911 52.1003 29.3194 52.0931C28.883 52.0931 28.6409 51.8182 28.6409 51.3142C28.6409 50.7753 28.9551 50.4807 29.4111 50.4807C29.5544 50.4756 29.6964 50.5104 29.8212 50.5811L29.7143 50.7993C29.6252 50.7449 29.5219 50.7183 29.4176 50.7229C29.1209 50.7229 28.9354 50.9062 28.9354 51.2618C28.9892 51.2059 29.0546 51.1622 29.1269 51.134C29.1992 51.1057 29.2768 51.0935 29.3543 51.0982C29.4223 51.0915 29.491 51.0991 29.5559 51.1205C29.6208 51.1418 29.6806 51.1765 29.7313 51.2223C29.782 51.2681 29.8226 51.324 29.8505 51.3864C29.8784 51.4488 29.893 51.5164 29.8932 51.5847ZM29.6118 51.5978C29.6118 51.4342 29.4874 51.3316 29.2976 51.3316C29.2588 51.3271 29.2196 51.3306 29.1822 51.3418C29.1448 51.353 29.1101 51.3718 29.0803 51.3969C29.0504 51.4221 29.0261 51.4531 29.0087 51.488C28.9912 51.5229 28.9812 51.561 28.979 51.6C28.979 51.7483 29.0969 51.864 29.3041 51.864C29.3422 51.8689 29.3809 51.8657 29.4177 51.8547C29.4545 51.8436 29.4885 51.8249 29.5175 51.7997C29.5466 51.7746 29.57 51.7436 29.5862 51.7088C29.6025 51.674 29.6112 51.6362 29.6118 51.5978Z" fill="#263238"/>
<path d="M34.475 51.8246V52.0712H33.3187V51.8748L33.9427 51.2814C34.0932 51.1374 34.1216 51.0457 34.1216 50.9585C34.1216 50.8145 34.0234 50.7403 33.8292 50.7403C33.7595 50.7362 33.6898 50.749 33.626 50.7775C33.5622 50.8059 33.5062 50.8493 33.4627 50.9039L33.2576 50.7468C33.3301 50.66 33.4219 50.5913 33.5257 50.5462C33.6295 50.5011 33.7424 50.4809 33.8554 50.4872C34.1958 50.4872 34.4139 50.6596 34.4139 50.9367C34.4122 51.0337 34.3878 51.129 34.3427 51.215C34.2976 51.301 34.2331 51.3753 34.1543 51.4319L33.7354 51.8312L34.475 51.8246Z" fill="#263238"/>
<path d="M35.8188 50.5024V50.6966L35.21 52.0712H34.898L35.4871 50.749H34.8697V51.0152H34.5991V50.5024H35.8188Z" fill="#263238"/>
<path d="M40.3943 51.8246V52.0712H39.2466V51.8748L39.8685 51.2814C40.0212 51.1374 40.0474 51.0457 40.0474 50.9585C40.0474 50.8145 39.9492 50.7403 39.7572 50.7403C39.6871 50.7359 39.617 50.7484 39.5528 50.7769C39.4886 50.8054 39.4322 50.849 39.3885 50.9039L39.1855 50.7468C39.2576 50.66 39.3491 50.5913 39.4525 50.5462C39.556 50.5012 39.6685 50.4809 39.7812 50.4872C40.1215 50.4872 40.3419 50.6596 40.3419 50.9367C40.3396 51.0336 40.315 51.1287 40.27 51.2146C40.225 51.3005 40.1607 51.3749 40.0823 51.4319L39.6634 51.8312L40.3943 51.8246Z" fill="white"/>
<path d="M41.8364 51.6196C41.8364 51.912 41.5833 52.0931 41.1928 52.0931C40.8023 52.0931 40.5535 51.912 40.5535 51.6196C40.5521 51.5392 40.5754 51.4603 40.6203 51.3936C40.6652 51.3269 40.7295 51.2756 40.8044 51.2465C40.7444 51.2154 40.6943 51.168 40.66 51.1097C40.6256 51.0515 40.6084 50.9847 40.6103 50.9171C40.6103 50.6487 40.8459 50.4807 41.1928 50.4807C41.5397 50.4807 41.7797 50.6487 41.7797 50.9171C41.7812 50.9854 41.7631 51.0528 41.7276 51.1112C41.692 51.1696 41.6404 51.2165 41.579 51.2465C41.655 51.2748 41.7205 51.3257 41.7666 51.3925C41.8126 51.4592 41.837 51.5385 41.8364 51.6196ZM41.5419 51.6196C41.5419 51.4669 41.4066 51.3687 41.1928 51.3687C40.979 51.3687 40.8481 51.4669 40.8481 51.6196C40.8481 51.7723 40.9768 51.8727 41.1928 51.8727C41.4088 51.8727 41.5419 51.7702 41.5419 51.6109V51.6196ZM40.8873 50.9389C40.8873 51.0742 41.0008 51.1571 41.1841 51.1571C41.3673 51.1571 41.483 51.072 41.483 50.9389C41.483 50.8058 41.363 50.7207 41.1841 50.7207C41.0052 50.7207 40.8961 50.784 40.8961 50.9302L40.8873 50.9389Z" fill="white"/>
<path d="M46.3964 51.8246V52.0712H45.24V51.8748L45.864 51.2814C46.0146 51.1374 46.043 51.0457 46.043 50.9585C46.043 50.8145 45.9448 50.7403 45.7506 50.7403C45.6809 50.7362 45.6112 50.749 45.5474 50.7775C45.4836 50.8059 45.4276 50.8493 45.384 50.9039L45.179 50.7468C45.2515 50.66 45.3433 50.5913 45.4471 50.5462C45.5509 50.5011 45.6638 50.4809 45.7768 50.4872C46.1171 50.4872 46.3353 50.6596 46.3353 50.9367C46.3335 51.0337 46.3092 51.129 46.2641 51.215C46.219 51.301 46.1545 51.3753 46.0757 51.4319L45.6568 51.8312L46.3964 51.8246Z" fill="#263238"/>
<path d="M47.7709 51.2596C47.7709 51.7985 47.4589 52.0931 47.0029 52.0931C46.8588 52.0983 46.7161 52.0636 46.5906 51.9927L46.6975 51.7745C46.7874 51.8289 46.8914 51.8555 46.9964 51.8509C47.2931 51.8509 47.4786 51.6676 47.4786 51.312C47.4247 51.3679 47.3594 51.4115 47.2871 51.4398C47.2147 51.468 47.1372 51.4803 47.0596 51.4756C46.9918 51.4826 46.9233 51.4754 46.8584 51.4544C46.7935 51.4334 46.7337 51.3991 46.6828 51.3538C46.6319 51.3084 46.591 51.2529 46.5627 51.1909C46.5345 51.1289 46.5194 51.0616 46.5186 50.9934C46.52 50.9214 46.5363 50.8505 46.5666 50.7851C46.5968 50.7197 46.6402 50.6613 46.6941 50.6136C46.748 50.5658 46.8112 50.5297 46.8798 50.5076C46.9483 50.4855 47.0207 50.4778 47.0924 50.4851C47.52 50.4807 47.7709 50.7556 47.7709 51.2596ZM47.4327 50.9738C47.4327 50.8254 47.3171 50.7076 47.1076 50.7076C47.0695 50.703 47.0309 50.7065 46.9942 50.7178C46.9576 50.7292 46.9237 50.7482 46.8949 50.7735C46.8661 50.7988 46.8429 50.8299 46.8269 50.8648C46.811 50.8997 46.8025 50.9376 46.8022 50.976C46.8022 51.1396 46.9244 51.2422 47.1164 51.2422C47.155 51.2467 47.1942 51.2432 47.2314 51.232C47.2687 51.2207 47.3032 51.2019 47.3329 51.1767C47.3626 51.1516 47.3867 51.1206 47.4039 51.0857C47.4211 51.0507 47.4309 51.0127 47.4327 50.9738Z" fill="#263238"/>
<path d="M52.2959 51.6C52.2959 51.864 52.0951 52.093 51.674 52.093C51.4635 52.0966 51.2572 52.0332 51.085 51.912L51.2115 51.6938C51.3421 51.7961 51.5038 51.8507 51.6697 51.8487C51.8879 51.8487 52.0013 51.7571 52.0013 51.6109C52.0013 51.4647 51.8988 51.3774 51.661 51.3774H51.517V51.1789L51.8748 50.7556H51.1613V50.5112H52.2304V50.7054L51.8486 51.1592C51.9072 51.1578 51.9655 51.1681 52.02 51.1897C52.0745 51.2112 52.1241 51.2435 52.1658 51.2846C52.2075 51.3258 52.2406 51.3749 52.2629 51.4291C52.2853 51.4832 52.2965 51.5414 52.2959 51.6Z" fill="#263238"/>
<path d="M52.4858 51.288C52.4858 50.7709 52.7673 50.4807 53.1404 50.4807C53.5135 50.4807 53.7949 50.7709 53.7949 51.288C53.7949 51.8051 53.5113 52.0931 53.1404 52.0931C52.7695 52.0931 52.4858 51.8029 52.4858 51.288ZM53.5026 51.288C53.5026 50.9084 53.3542 50.7338 53.1404 50.7338C52.9266 50.7338 52.7782 50.9084 52.7782 51.288C52.7782 51.6676 52.9266 51.84 53.1404 51.84C53.3542 51.84 53.5026 51.6567 53.5026 51.288Z" fill="#263238"/>
<path d="M16.3505 14.1293C16.322 14.1295 16.2946 14.1185 16.2741 14.0988L15.0763 12.9009C15.0569 12.8807 15.0461 12.8537 15.0461 12.8257C15.0461 12.7976 15.0569 12.7707 15.0763 12.7504L16.2741 11.402C16.2945 11.382 16.3219 11.3708 16.3505 11.3708C16.379 11.3708 16.4064 11.382 16.4268 11.402C16.437 11.4122 16.4452 11.4242 16.4507 11.4375C16.4562 11.4508 16.4591 11.4651 16.4591 11.4795C16.4591 11.4939 16.4562 11.5081 16.4507 11.5214C16.4452 11.5347 16.437 11.5468 16.4268 11.5569L15.3032 12.8202L16.4268 13.946C16.4418 13.9613 16.4519 13.9806 16.456 14.0015C16.4601 14.0225 16.4579 14.0442 16.4498 14.0639C16.4417 14.0837 16.4279 14.1006 16.4103 14.1126C16.3926 14.1246 16.3718 14.1312 16.3505 14.1315V14.1293Z" fill="#263238"/>
<path d="M52.7476 14.1294C52.7344 14.1297 52.7212 14.1273 52.7088 14.1225C52.6964 14.1176 52.6852 14.1103 52.6756 14.1011C52.6652 14.0913 52.6569 14.0795 52.6512 14.0663C52.6455 14.0532 52.6426 14.039 52.6426 14.0247C52.6426 14.0104 52.6455 13.9962 52.6512 13.9831C52.6569 13.97 52.6652 13.9581 52.6756 13.9484L53.8058 12.6785L52.68 11.5527C52.6595 11.5322 52.6479 11.5043 52.6479 11.4753C52.6479 11.4462 52.6595 11.4183 52.68 11.3978C52.7005 11.3773 52.7284 11.3657 52.7575 11.3657C52.7865 11.3657 52.8144 11.3773 52.8349 11.3978L54.0327 12.5956C54.0511 12.6164 54.0613 12.6432 54.0613 12.6709C54.0613 12.6986 54.0511 12.7254 54.0327 12.7462L52.8327 14.0924C52.8221 14.1044 52.809 14.114 52.7943 14.1204C52.7796 14.1268 52.7637 14.1299 52.7476 14.1294Z" fill="#263238"/>
<path d="M58.1956 60.4254C58.1629 60.4254 58.1389 47.4262 58.1389 31.4073C58.1389 15.3883 58.1629 2.37598 58.1956 2.37598C58.2284 2.37598 58.2524 15.3709 58.2524 31.4073C58.2524 47.4436 58.2284 60.4254 58.1956 60.4254Z" fill="#263238"/>
<path d="M84.2075 14.0184C84.2075 14.0511 78.454 14.0751 71.3587 14.0751C64.2634 14.0751 58.5078 14.0511 58.5078 14.0184C58.5078 13.9857 64.2591 13.9617 71.3587 13.9617C78.4584 13.9617 84.2075 13.9879 84.2075 14.0184Z" fill="#263238"/>
<path d="M45.2574 12.4996C45.2574 12.5323 40.776 12.5563 35.2472 12.5563C29.7185 12.5563 25.2349 12.5323 25.2349 12.4996C25.2349 12.4669 29.7163 12.4429 35.2472 12.4429C40.7781 12.4429 45.2574 12.4691 45.2574 12.4996Z" fill="#263238"/>
<path d="M84.443 1.85474H8.56152V7.84383H84.443V1.85474Z" fill="#275AA6"/>
<path d="M43.6101 4.84157C43.6148 4.71089 43.658 4.58449 43.7341 4.47818C43.8103 4.37187 43.916 4.29034 44.0382 4.24379C44.1604 4.19724 44.2936 4.18772 44.4212 4.21643C44.5488 4.24514 44.6651 4.31079 44.7556 4.4052L44.6072 4.54484C44.5659 4.49909 44.5154 4.4626 44.459 4.43778C44.4026 4.41296 44.3416 4.40037 44.2799 4.40084C44.1642 4.40084 44.0532 4.44681 43.9714 4.52865C43.8895 4.61048 43.8436 4.72147 43.8436 4.8372C43.8436 4.95294 43.8895 5.06392 43.9714 5.14576C44.0532 5.22759 44.1642 5.27357 44.2799 5.27357C44.3417 5.27376 44.4028 5.26083 44.4593 5.23563C44.5157 5.21043 44.5661 5.17353 44.6072 5.12738L44.7556 5.2692C44.6651 5.36361 44.5488 5.42927 44.4212 5.45798C44.2936 5.48669 44.1604 5.47717 44.0382 5.43062C43.916 5.38406 43.8103 5.30254 43.7341 5.19623C43.658 5.08991 43.6148 4.96352 43.6101 4.83284V4.84157Z" fill="white"/>
<path d="M45.7397 5.18397H45.1244L45.0023 5.46761H44.7688L45.3208 4.23706H45.539L46.0953 5.46761H45.8553L45.7397 5.18397ZM45.6633 5.00288L45.4321 4.46615L45.2008 5.00288H45.6633Z" fill="white"/>
<path d="M46.2566 4.22607H46.4857V5.26244H47.1293V5.45662H46.2566V4.22607Z" fill="white"/>
<path d="M48.2335 5.26462V5.45662H47.3193V4.22607H48.2161V4.41807H47.5375V4.74753H48.1332V4.93517H47.5375V5.27335L48.2335 5.26462Z" fill="white"/>
<path d="M49.5797 4.22607V5.45662H49.3921L48.7135 4.62317V5.45662H48.4954V4.22607H48.683L49.3615 5.05953V4.22607H49.5797Z" fill="white"/>
<path d="M49.9092 4.22606H50.4481C50.5332 4.21888 50.619 4.22946 50.6998 4.25712C50.7807 4.28478 50.8549 4.32893 50.9178 4.38676C50.9807 4.44459 51.031 4.51486 51.0653 4.5931C51.0997 4.67135 51.1174 4.75588 51.1174 4.84133C51.1174 4.92679 51.0997 5.01131 51.0653 5.08956C51.031 5.16781 50.9807 5.23807 50.9178 5.2959C50.8549 5.35374 50.7807 5.39788 50.6998 5.42554C50.619 5.4532 50.5332 5.46378 50.4481 5.4566H49.9092V4.22606ZM50.4372 5.26242C50.5489 5.26242 50.656 5.21806 50.7349 5.13909C50.8139 5.06012 50.8583 4.95301 50.8583 4.84133C50.8583 4.72965 50.8139 4.62255 50.7349 4.54358C50.656 4.46461 50.5489 4.42024 50.4372 4.42024H50.1383V5.26242H50.4372Z" fill="white"/>
<path d="M52.1411 5.18397H51.5258L51.4058 5.46761H51.1702L51.7243 4.23706H51.9425L52.4967 5.46761H52.2589L52.1411 5.18397ZM52.0669 5.00288L51.8334 4.46615L51.6044 5.00288H52.0669Z" fill="white"/>
<path d="M53.4655 5.45662L53.2103 5.09662H52.8852V5.45444H52.667V4.22607H53.1732C53.4961 4.22607 53.6968 4.39189 53.6968 4.66244C53.7003 4.7478 53.6761 4.83202 53.6277 4.90243C53.5793 4.97285 53.5094 5.02568 53.4284 5.05298L53.7099 5.45662H53.4655ZM53.1557 4.42026H52.8874V4.90898H53.1557C53.3564 4.90898 53.459 4.81953 53.459 4.66462C53.459 4.50971 53.3564 4.42026 53.1557 4.42026Z" fill="white"/>
<path d="M12.6437 4.85015C12.6437 4.95112 12.6137 5.04983 12.5576 5.13379C12.5015 5.21775 12.4218 5.28319 12.3285 5.32183C12.2352 5.36047 12.1325 5.37058 12.0335 5.35088C11.9345 5.33118 11.8435 5.28256 11.7721 5.21116C11.7007 5.13975 11.6521 5.04878 11.6324 4.94975C11.6127 4.85071 11.6228 4.74806 11.6614 4.65477C11.7001 4.56148 11.7655 4.48174 11.8495 4.42564C11.9334 4.36954 12.0321 4.3396 12.1331 4.3396C12.2685 4.3396 12.3984 4.39339 12.4941 4.48914C12.5899 4.58488 12.6437 4.71474 12.6437 4.85015Z" fill="white"/>
<path d="M14.0335 4.85015C14.0335 4.95112 14.0036 5.04983 13.9475 5.13379C13.8914 5.21775 13.8117 5.28319 13.7184 5.32183C13.6251 5.36047 13.5224 5.37058 13.4234 5.35088C13.3244 5.33118 13.2334 5.28256 13.162 5.21116C13.0906 5.13975 13.042 5.04878 13.0223 4.94975C13.0026 4.85071 13.0127 4.74806 13.0513 4.65477C13.09 4.56148 13.1554 4.48174 13.2394 4.42564C13.3233 4.36954 13.422 4.3396 13.523 4.3396C13.59 4.3396 13.6564 4.35281 13.7184 4.37846C13.7803 4.40412 13.8366 4.44173 13.884 4.48914C13.9314 4.53654 13.969 4.59283 13.9947 4.65477C14.0203 4.71671 14.0335 4.7831 14.0335 4.85015Z" fill="white"/>
<path d="M15.4647 4.85015C15.4647 4.95112 15.4348 5.04983 15.3787 5.13379C15.3226 5.21775 15.2428 5.28319 15.1495 5.32183C15.0562 5.36047 14.9536 5.37058 14.8545 5.35088C14.7555 5.33118 14.6645 5.28256 14.5931 5.21116C14.5217 5.13975 14.4731 5.04878 14.4534 4.94975C14.4337 4.85071 14.4438 4.74806 14.4825 4.65477C14.5211 4.56148 14.5865 4.48174 14.6705 4.42564C14.7545 4.36954 14.8532 4.3396 14.9542 4.3396C15.0896 4.3396 15.2194 4.39339 15.3152 4.48914C15.4109 4.58488 15.4647 4.71474 15.4647 4.85015Z" fill="white"/>
<path d="M76.9308 11.2079C76.9308 11.2384 74.4348 11.2646 71.3585 11.2646C68.2821 11.2646 65.7839 11.2384 65.7839 11.2079C65.7839 11.1773 68.2778 11.1511 71.3585 11.1511C74.4392 11.1511 76.9308 11.1751 76.9308 11.2079Z" fill="#263238"/>
<path d="M62.592 19.9417C61.7057 20.0203 60.8142 20.0203 59.928 19.9417C60.8144 19.8661 61.7056 19.8661 62.592 19.9417Z" fill="#263238"/>
<path d="M82.0516 16.2654H65.6203C64.9118 16.2654 64.3374 16.8398 64.3374 17.5483V27.5825C64.3374 28.291 64.9118 28.8654 65.6203 28.8654H82.0516C82.7601 28.8654 83.3345 28.291 83.3345 27.5825V17.5483C83.3345 16.8398 82.7601 16.2654 82.0516 16.2654Z" fill="#275AA6"/>
<path d="M73.0014 19.067C73.0014 19.0997 71.5548 19.1237 69.7723 19.1237C67.9897 19.1237 66.541 19.0997 66.541 19.067C66.541 19.0343 67.9876 19.0103 69.7723 19.0103C71.557 19.0103 73.0014 19.0364 73.0014 19.067Z" fill="white"/>
<path d="M70.763 20.2059C69.3888 20.2816 68.0114 20.2816 66.6372 20.2059C68.0114 20.1303 69.3888 20.1303 70.763 20.2059Z" fill="white"/>
<path d="M81.792 20.3695L81.48 20.0204V19.1913C81.4796 18.9975 81.4099 18.8103 81.2834 18.6634C81.157 18.5165 80.9821 18.4198 80.7905 18.3906V18.0415H80.5724V18.3884C80.3751 18.4109 80.1929 18.5051 80.0605 18.6532C79.9282 18.8012 79.8549 18.9927 79.8545 19.1913V19.9833L79.5513 20.3695H80.3804C80.3999 20.4218 80.432 20.4685 80.4739 20.5055C80.5157 20.5425 80.566 20.5686 80.6204 20.5815C80.6747 20.5945 80.7314 20.5938 80.7854 20.5797C80.8394 20.5655 80.8892 20.5383 80.9302 20.5004C80.9692 20.4642 80.9991 20.4194 81.0175 20.3695H81.792Z" fill="white"/>
<path d="M62.7317 30.5127H59.7993C59.3439 30.5127 58.9746 30.8819 58.9746 31.3374V38.0989C58.9746 38.5544 59.3439 38.9236 59.7993 38.9236H62.7317C63.1872 38.9236 63.5564 38.5544 63.5564 38.0989V31.3374C63.5564 30.8819 63.1872 30.5127 62.7317 30.5127Z" fill="#EBEBEB"/>
<path d="M60.6961 31.8416V33.4081H60.4102V32.0837H60.0786V31.8416H60.6961Z" fill="#263238"/>
<path d="M62.1906 31.8416V32.0357L61.5797 33.4081H61.2699L61.8589 32.0881H61.2415V32.3543H60.9709V31.8416H62.1906Z" fill="#263238"/>
<path d="M62.592 34.202C61.7056 34.2776 60.8144 34.2776 59.928 34.202C60.8144 34.1264 61.7056 34.1264 62.592 34.202Z" fill="#263238"/>
<path d="M82.0516 30.5127H65.6203C64.9118 30.5127 64.3374 31.0871 64.3374 31.7956V37.1672C64.3374 37.8758 64.9118 38.4502 65.6203 38.4502H82.0516C82.7601 38.4502 83.3345 37.8758 83.3345 37.1672V31.7956C83.3345 31.0871 82.7601 30.5127 82.0516 30.5127Z" fill="#455A64"/>
<path d="M73.0014 33.3163C73.0014 33.3468 71.5548 33.373 69.7723 33.373C67.9897 33.373 66.541 33.3468 66.541 33.3163C66.541 33.2857 67.9876 33.2595 69.7723 33.2595C71.557 33.2595 73.0014 33.2835 73.0014 33.3163Z" fill="white"/>
<path d="M70.763 34.4554C69.3888 34.5311 68.0114 34.5311 66.6372 34.4554C68.0114 34.3798 69.3888 34.3798 70.763 34.4554Z" fill="white"/>
<path d="M81.7921 34.8895L81.4888 34.5426V33.7135C81.4888 33.5196 81.4193 33.3321 81.2927 33.1851C81.1662 33.0382 80.9911 32.9415 80.7993 32.9128V32.5615H80.5811V32.9106C80.3838 32.9331 80.2017 33.0273 80.0693 33.1754C79.937 33.3234 79.8637 33.5149 79.8633 33.7135V34.5033L79.5601 34.8917H80.3891C80.4135 34.9565 80.4571 35.0123 80.514 35.0517C80.5709 35.0911 80.6385 35.1122 80.7077 35.1122C80.7769 35.1122 80.8445 35.0911 80.9014 35.0517C80.9583 35.0123 81.0019 34.9565 81.0262 34.8917L81.7921 34.8895Z" fill="white"/>
<path d="M62.7317 39.7769H59.7993C59.3439 39.7769 58.9746 40.1461 58.9746 40.6016V56.5267C58.9746 56.9822 59.3439 57.3514 59.7993 57.3514H62.7317C63.1872 57.3514 63.5564 56.9822 63.5564 56.5267V40.6016C63.5564 40.1461 63.1872 39.7769 62.7317 39.7769Z" fill="#EBEBEB"/>
<path d="M61.2829 42.4255V42.672H60.1265V42.4778L60.7505 41.8844C60.9011 41.7404 60.9294 41.6488 60.9294 41.5593C60.9294 41.4175 60.8312 41.3411 60.6371 41.3411C60.5673 41.3371 60.4976 41.3498 60.4339 41.3783C60.3701 41.4068 60.3141 41.4501 60.2705 41.5048L60.0654 41.3477C60.138 41.2608 60.2298 41.1921 60.3336 41.147C60.4374 41.102 60.5503 41.0818 60.6632 41.088C61.0036 41.088 61.2218 41.2604 61.2218 41.5375C61.22 41.6345 61.1956 41.7299 61.1506 41.8158C61.1055 41.9018 61.041 41.9761 60.9622 42.0328L60.5432 42.432L61.2829 42.4255Z" fill="#263238"/>
<path d="M62.7295 42.2202C62.7295 42.5126 62.4764 42.6937 62.0859 42.6937C61.6953 42.6937 61.4488 42.5126 61.4488 42.2202C61.4474 42.1398 61.4707 42.0609 61.5156 41.9942C61.5604 41.9275 61.6247 41.8761 61.6997 41.8471C61.6391 41.8165 61.5884 41.7693 61.5536 41.7109C61.5189 41.6526 61.5014 41.5856 61.5033 41.5177C61.5033 41.2493 61.739 41.0813 62.0859 41.0813C62.4328 41.0813 62.6728 41.2493 62.6728 41.5177C62.6748 41.5858 62.6571 41.6531 62.6219 41.7115C62.5867 41.77 62.5354 41.817 62.4742 41.8471C62.55 41.8754 62.6152 41.9265 62.6609 41.9933C62.7066 42.06 62.7306 42.1393 62.7295 42.2202ZM62.4372 42.2202C62.4372 42.0675 62.3019 41.9693 62.0859 41.9693C61.8699 41.9693 61.7412 42.0675 61.7412 42.2202C61.7412 42.3729 61.8721 42.4733 62.0859 42.4733C62.2997 42.4733 62.4372 42.3708 62.4372 42.2115V42.2202ZM61.7826 41.5395C61.7826 41.6748 61.8939 41.7577 62.0772 41.7577C62.2604 41.7577 62.3782 41.6726 62.3782 41.5395C62.3782 41.4064 62.2582 41.3213 62.0772 41.3213C61.8961 41.3213 61.7913 41.3889 61.7913 41.5308L61.7826 41.5395Z" fill="#263238"/>
<path d="M62.592 43.4552C61.7056 43.5308 60.8144 43.5308 59.928 43.4552C60.8144 43.3795 61.7056 43.3795 62.592 43.4552Z" fill="#263238"/>
<path d="M82.0516 39.7769H65.6203C64.9118 39.7769 64.3374 40.3512 64.3374 41.0598V56.0685C64.3374 56.777 64.9118 57.3514 65.6203 57.3514H82.0516C82.7601 57.3514 83.3345 56.777 83.3345 56.0685V41.0598C83.3345 40.3512 82.7601 39.7769 82.0516 39.7769Z" fill="#275AA6"/>
<path d="M73.0014 42.5782C73.0014 42.6109 71.5548 42.6349 69.7723 42.6349C67.9897 42.6349 66.541 42.6109 66.541 42.5782C66.541 42.5455 67.9876 42.5215 69.7723 42.5215C71.557 42.5215 73.0014 42.5477 73.0014 42.5782Z" fill="white"/>
<path d="M70.763 43.7169C69.3888 43.7926 68.0114 43.7926 66.6372 43.7169C68.0114 43.6412 69.3888 43.6412 70.763 43.7169Z" fill="white"/>
<path d="M81.792 44.1534L81.48 43.8021V42.9709C81.4796 42.7771 81.4099 42.5898 81.2834 42.4429C81.157 42.2961 80.9821 42.1993 80.7905 42.1701V41.821H80.5724V42.168C80.3749 42.1909 80.1927 42.2856 80.0604 42.434C79.9281 42.5824 79.8548 42.7742 79.8545 42.973V43.7629L79.5513 44.149H80.3804C80.4001 44.2012 80.4322 44.2477 80.474 44.2846C80.5158 44.3215 80.566 44.3476 80.6201 44.3607C80.6743 44.3738 80.7309 44.3735 80.7849 44.3598C80.8389 44.3461 80.8888 44.3195 80.9302 44.2821C80.9688 44.2448 80.9986 44.1993 81.0175 44.149L81.792 44.1534Z" fill="white"/>
<path d="M80.7994 51.2203C80.7994 51.2508 77.7078 51.277 73.8918 51.277C70.0758 51.277 66.9841 51.2508 66.9841 51.2203C66.9841 51.1898 70.0758 51.1636 73.8918 51.1636C77.7078 51.1636 80.7994 51.1767 80.7994 51.2203Z" fill="white"/>
<path d="M72.7092 54.1876C72.7092 54.2181 71.4285 54.2443 69.8467 54.2443C68.2649 54.2443 66.9841 54.2181 66.9841 54.1876C66.9841 54.157 68.2649 54.1309 69.8467 54.1309C71.4285 54.1309 72.7092 54.1549 72.7092 54.1876Z" fill="white"/>
<path d="M80.7994 52.6212C80.7994 52.6517 77.7078 52.6779 73.8918 52.6779C70.0758 52.6779 66.9841 52.6517 66.9841 52.6212C66.9841 52.5906 70.0758 52.5645 73.8918 52.5645C77.7078 52.5645 80.7994 52.5906 80.7994 52.6212Z" fill="white"/>
</svg>
