<svg width="37" height="34" viewBox="0 0 37 34" fill="none" xmlns="http://www.w3.org/2000/svg">
<path d="M0 12.2533H37V22.2741H0V12.2533Z" fill="#E6E7E8"/>
<path d="M31.2188 5.39694H5.78125C1.95002 5.39694 0 7.99445 0 11.1985V13.3081H37V11.1985C37 7.99445 35.05 5.39694 31.2188 5.39694Z" fill="#EC1C24"/>
<path d="M0 22.8016C0 26.0056 1.95002 28.6031 5.78125 28.6031H31.2188C35.05 28.6031 37 26.0056 37 22.8016V21.2193H0V22.8016Z" fill="#25333A"/>
<path fill-rule="evenodd" clip-rule="evenodd" d="M11.6087 18.0443L14.763 13.8556C14.8439 13.9125 14.8358 13.9816 14.8474 14.0381C14.8867 14.2121 14.9231 14.3888 14.9971 14.5549C15.0359 14.6367 15.0145 14.6968 14.9197 14.7026C14.8011 14.71 14.741 14.778 14.6815 14.8524C14.2375 15.3798 13.8345 15.9389 13.4217 16.4879C13.1882 16.797 12.9558 17.1087 12.7089 17.4409C12.8477 17.4494 12.9604 17.4625 13.0749 17.4625C13.6628 17.4668 14.249 17.4657 14.8387 17.4726C14.9376 17.4742 14.9642 17.4494 14.9642 17.3597C14.9613 17.1519 14.9734 16.9457 14.9763 16.7368C14.9762 16.7007 14.9852 16.6651 15.0027 16.6328C15.0201 16.6004 15.0455 16.5721 15.0769 16.5501C15.2949 16.3803 15.5203 16.2194 15.7568 16.0744C15.8302 16.0301 15.8845 16.0269 15.9545 16.0776C16.1788 16.2463 16.4049 16.4125 16.6338 16.5781C16.6876 16.6161 16.6962 16.6614 16.6962 16.7168C16.6933 17.4757 16.6916 18.2363 16.6974 18.9942C16.6997 19.136 16.6118 19.1081 16.5245 19.1081H11.0381C10.7953 19.1081 10.5508 19.1165 10.3068 19.106C10.1819 19.0996 10.1438 19.1482 10.1224 19.2463C10.0831 19.4203 10.0276 19.5933 9.9235 19.7457C9.86535 19.8324 9.78708 19.9064 9.6942 19.9625C9.60131 20.0186 9.49607 20.0555 9.38588 20.0705C9.2757 20.0854 9.16325 20.0782 9.05647 20.0492C8.94968 20.0203 8.85115 19.9703 8.76782 19.9029C8.65773 19.8112 8.56392 19.7044 8.48975 19.5864C8.59843 19.5864 8.66954 19.6397 8.7499 19.6629C9.29161 19.8106 9.69225 19.4699 9.56506 18.962C9.5267 18.816 9.45013 18.6806 9.3419 18.5675C9.21298 18.4224 9.21761 18.386 9.38989 18.3027C9.53442 18.2315 9.6246 18.1255 9.69456 18C9.72057 17.9525 9.73792 17.8808 9.80093 17.8824C9.8732 17.8845 9.88303 17.9615 9.90442 18.0121C9.95992 18.1376 10.0177 18.2621 10.0542 18.3924C10.0802 18.482 10.1305 18.5105 10.2212 18.5105H10.815C10.782 18.3781 10.7161 18.2621 10.6508 18.1482C10.6236 18.0991 10.5878 18.0464 10.6583 18.0089C10.9422 17.8565 11.111 17.6134 11.2931 17.375C11.3058 17.3592 11.3226 17.3492 11.3526 17.3238C11.3821 17.4321 11.3944 17.5436 11.389 17.6551C11.3925 17.9077 11.396 18.1593 11.3908 18.4098C11.389 18.491 11.4145 18.5158 11.5052 18.5158C12.9939 18.5132 14.4849 18.5132 15.9736 18.5158C16.0753 18.5168 16.0961 18.4868 16.0961 18.3998C16.0932 17.9024 16.088 17.4051 16.0961 16.9067C16.1008 16.7527 15.9637 16.7374 15.8753 16.6741C15.7955 16.6176 15.7614 16.7131 15.7071 16.7389C15.5799 16.7975 15.5573 16.8924 15.5608 17.0158C15.5695 17.3291 15.5608 17.6429 15.5648 17.9562C15.5654 18.0353 15.5469 18.0654 15.4533 18.0654C14.2062 18.0591 12.9615 18.0559 11.7168 18.0533C11.6902 18.0527 11.6671 18.0496 11.6087 18.0443ZM27.0661 18.2911C26.9851 18.5569 26.9117 18.7827 26.8984 19.0189C26.8926 19.0759 26.8429 19.0659 26.8013 19.0664C26.3723 19.0733 25.9445 19.0785 25.5144 19.088C25.4213 19.0901 25.3999 19.058 25.3999 18.9789C25.4039 17.7558 25.3935 16.5354 25.4253 15.3128C25.4253 15.2696 25.4074 15.2121 25.4519 15.1905C25.5097 15.1657 25.5462 15.2226 25.5809 15.2537C25.7728 15.4278 25.9589 15.6034 26.1492 15.7812C26.2116 15.8365 26.237 15.8824 26.1382 15.9346C26.0474 15.9842 26.0306 16.0755 26.026 16.1646C25.9884 16.9077 26.0133 17.6519 26.004 18.395C26.0029 18.4652 26.026 18.4899 26.1023 18.4868C26.2671 18.4815 26.4313 18.4826 26.5955 18.4857C26.7672 18.4857 26.8868 18.3813 27.0661 18.2906M17.1622 15.2079C17.2038 15.2353 17.2414 15.2537 17.2697 15.2791C17.4628 15.4579 17.6577 15.6366 17.8479 15.816C17.9086 15.8724 17.9386 15.9199 17.838 15.9737C17.7409 16.0259 17.7282 16.1229 17.723 16.2142C17.6964 16.9499 17.7137 17.6856 17.7074 18.4203C17.7074 18.5021 17.7415 18.5174 17.8201 18.5163C18.1311 18.5095 18.4503 18.5569 18.7093 18.3507C18.7659 18.394 18.7387 18.4319 18.726 18.4636C18.6568 18.6258 18.6164 18.7971 18.6064 18.9709C18.6023 19.0543 18.5815 19.0975 18.4676 19.0975C18.0548 19.0959 17.6409 19.1007 17.2281 19.1102C17.1258 19.1139 17.105 19.0796 17.105 18.9947C17.1131 17.8006 17.1165 16.6071 17.1223 15.4125C17.1223 15.3482 17.1194 15.2854 17.1605 15.2079" fill="#007A3D"/>
<path fill-rule="evenodd" clip-rule="evenodd" d="M10.8098 19.4477C10.9514 19.587 11.0879 19.7283 11.2301 19.8633C11.2758 19.9082 11.2607 19.9351 11.2226 19.9709C11.0832 20.1033 10.9457 20.2388 10.8063 20.3754C10.6676 20.2388 10.5369 20.1033 10.4011 19.9741C10.349 19.9266 10.3432 19.8955 10.3999 19.8464C10.5363 19.7183 10.6676 19.5859 10.8098 19.4477Z" fill="#017A3D"/>
<path fill-rule="evenodd" clip-rule="evenodd" d="M22.256 14.98C22.2803 14.9784 22.3 14.9737 22.3167 14.9769C22.6191 15.0365 22.8735 14.9769 23.0585 14.7358C23.0862 14.7 23.1203 14.6873 23.1666 14.711C23.1903 14.7226 23.2163 14.7274 23.2406 14.7374C23.5482 14.8408 23.6152 14.8091 23.7077 14.5101C23.7129 14.4874 23.7077 14.4531 23.7418 14.4563C23.7632 14.4595 23.7892 14.4795 23.8014 14.4985C23.869 14.6013 23.8725 14.7095 23.8135 14.816C23.7592 14.9194 23.6615 14.9958 23.5372 14.9747C23.3013 14.9368 23.1088 14.9663 22.907 15.0992C22.7336 15.2168 22.3757 15.143 22.256 14.98Z" fill="#027A3E"/>
<path fill-rule="evenodd" clip-rule="evenodd" d="M22.9521 14.4104C22.9521 14.4468 22.9591 14.4742 22.9308 14.4869C22.9013 14.498 22.8799 14.4769 22.8637 14.46C22.7415 14.3331 22.6522 14.1828 22.6024 14.0201C22.5845 13.9695 22.5845 13.911 22.6608 13.8909C22.729 13.873 22.7776 13.9036 22.8059 13.9542C22.8857 14.1008 22.9221 14.2601 22.9521 14.4104Z" fill="#057C41"/>
<path fill-rule="evenodd" clip-rule="evenodd" d="M24.975 14.5549C24.975 14.4531 24.9605 14.3524 24.949 14.2517C24.9455 14.229 24.949 14.1989 24.9172 14.1915C24.8865 14.1815 24.8674 14.2026 24.8542 14.2232C24.7015 14.4384 24.4807 14.5897 24.2835 14.7664C24.1858 14.8492 24.1858 14.9225 24.2882 14.9921C24.3749 15.0533 24.3859 15.1303 24.3859 15.2226C24.3824 16.2031 24.3836 17.1857 24.3836 18.1666C24.3836 18.4868 24.3824 18.4799 24.0292 18.4899C23.8869 18.4931 23.8569 18.4599 23.8569 18.3323C23.8586 17.3259 23.8736 16.3202 23.8361 15.3139C23.8343 15.2595 23.8494 15.2021 23.8049 15.1398C23.5684 15.3487 23.3395 15.5475 23.1163 15.7516C23.0729 15.7896 23.014 15.8555 23.1111 15.903C23.2094 15.9547 23.2285 16.0296 23.2348 16.1213C23.2741 16.7927 23.2499 17.4657 23.2545 18.1371C23.2585 18.4884 23.2545 18.482 22.8694 18.4884C22.7486 18.4894 22.7174 18.4609 22.7203 18.3512C22.7238 17.7289 22.7174 17.1055 22.7174 16.4805V16.1208C22.7018 16.1155 22.6844 16.1113 22.6694 16.1055C22.4387 16.3086 22.2248 16.5311 21.982 16.7221C21.9202 16.7711 21.9098 16.8455 22.0011 16.8882C22.0936 16.9357 22.1109 17.0148 22.1127 17.0971C22.1162 17.1783 22.1144 17.2621 22.1127 17.3449C22.1069 17.5279 22.1069 17.5279 21.9051 17.5195C21.4369 17.5032 21.1455 17.6972 21.0501 18.0923C20.9749 18.3982 21.0148 18.7115 20.9824 19.0179C20.9709 19.107 21.0512 19.0854 21.1027 19.0854C22.3555 19.0875 23.606 19.0854 24.857 19.0875C24.964 19.0886 24.9894 19.058 24.9894 18.9636C24.9819 17.4952 24.9813 16.0248 24.975 14.5549ZM22.1179 18.2357C22.1179 18.4868 22.1179 18.4868 21.8514 18.4868H21.8045C21.5814 18.4868 21.5357 18.4219 21.6236 18.2299C21.6414 18.1896 21.6673 18.1525 21.6999 18.1208C21.7988 18.0153 21.9358 17.9625 22.0699 18.0037C22.1786 18.0385 22.089 18.1661 22.1179 18.2357Z" fill="#007A3D"/>
</svg>
