<svg width="91" height="116" viewBox="0 0 91 116" fill="none" xmlns="http://www.w3.org/2000/svg">
<path d="M88.734 92.9954C86.5798 92.3366 85.735 93.5733 85.735 93.5733C85.735 93.5733 86.4232 89.1445 84.2187 78.2238C82.0142 67.303 71.6659 57.6399 70.1552 54.6485C68.7005 51.7678 67.0471 39.829 66.261 33.6035C66.0768 32.1112 65.5693 30.6856 64.779 29.4404C63.9888 28.1952 62.9375 27.165 61.7093 26.4318C59.7832 25.319 57.7982 24.3272 55.7644 23.4613C56.0637 23.2667 53.5627 19.1074 51.3218 19.1044C49.288 19.1044 38.7663 14.9122 32.6759 21.5C31.8366 22.4163 30.5665 26.7133 30.5665 26.7133C30.5665 26.7133 28.4543 29.0939 26.6499 30.8816C24.8454 32.6693 18.1956 51.2228 15.5574 56.0768C12.9193 60.9308 13.518 71.2587 13.518 71.2587C7.33253 72.8727 2.3752 75.957 0.525996 83.5359C-1.32321 91.1149 4.72238 96.5707 4.72238 96.5707L91 96.5228C90.8546 94.7292 89.8195 93.3278 88.734 92.9954Z" fill="#A4C0E9"/>
<g opacity="0.5">
<path d="M49.2402 21.3864C49.5424 21.2905 53.5961 21.4762 54.7067 27.4411L50.46 27.6747L49.2402 21.3864Z" fill="black"/>
</g>
<g opacity="0.5">
<path d="M81.3234 82.3203C78.4922 75.7325 68.1187 78.8198 65.8695 77.2537C64.8903 76.571 63.4384 76.1068 62.1123 74.6725L62.3921 78.3946L63.5726 96.6607L83.4999 96.5679C83.4999 96.5679 84.1629 88.9081 81.3234 82.3203Z" fill="black"/>
</g>
<g opacity="0.5">
<path d="M30.8797 60.0925C30.5244 60.3769 23.1808 63.5031 23.1808 63.7876C23.1808 64.0721 22.2072 74.5826 22.2072 74.5826L9.64323 76.4781L4.32781 79.5115L2.26039 83.9253L0.970703 88.5217L4.06484 94.4058L5.76857 96.5918L36.4525 96.6846V72.0283C36.4525 72.0283 31.7218 60.0925 31.2882 60.0925" fill="black"/>
</g>
<g opacity="0.5">
<path d="M30.7876 29.6C30.7876 29.6 32.0885 26.5008 32.2983 26.3062C32.3962 26.2103 32.5976 25.2491 32.7795 24.261C32.9058 23.4976 33.1844 22.7725 33.5964 22.1349C33.987 21.6086 34.4733 21.1726 35.0259 20.8533L37.4962 26.8931L35.5547 29.8576L30.7876 29.6Z" fill="black"/>
</g>
<path d="M56.5925 27.6748L50.7399 26.7016L33.5264 28.2677C33.5264 28.2677 27.3717 43.4016 27.7438 43.8209C27.9284 44.0335 32.8102 60.6916 32.8102 60.6916L32.4689 74.4031C32.4689 74.4031 30.726 76.7088 30.4266 78.3558C29.4894 83.5482 61.6701 84.7909 62.459 81.7066V31.3999L56.5925 27.6748Z" fill="#455A64"/>
<path d="M33.5262 28.2676C33.5262 28.2676 28.1017 28.8665 26.6189 32.7592C25.1362 36.652 20.5762 58.8648 20.5762 58.8648C20.5762 58.8648 19.8991 63.6919 21.7931 66.2851C23.4073 68.492 28.3423 68.0188 31.3049 66.5845C36.2315 64.1889 40.1341 48.1896 40.1341 48.1896L42.2631 42.6499L34.2676 39.8471L30.6307 48.2615L33.5262 28.2676Z" fill="#455A64"/>
<path d="M53.048 27.1415C53.3445 27.2194 62.7333 28.6388 64.4398 30.2947C66.1463 31.9506 65.9393 46.7941 65.9393 46.7941C65.9393 46.7941 64.4426 65.5124 63.0326 66.7281C61.6226 67.9439 55.4539 72.4325 51.9933 63.9463C50.9834 61.4699 48.7677 58.4425 47.3829 55.3073C45.6863 51.4058 44.192 47.4071 42.9067 43.3295L50.7931 39.3798L56.9087 50.4593L55.7896 34.5498L53.048 27.1415Z" fill="#455A64"/>
<path d="M32.7039 15.0799C32.3452 12.8515 32.7849 10.5603 33.9351 8.6637C35.0853 6.76705 36.8614 5.40444 38.9089 4.84785L39.3286 4.73406C43.9446 3.77584 47.2821 7.42907 48.0487 12.3969L51.873 32.0913C51.9091 32.2541 51.9021 32.4244 51.8527 32.5831C51.8032 32.7419 51.7134 32.8827 51.5932 32.9897L42.5962 40.886L40.4924 30.5731C40.4924 30.5731 35.9491 31.0403 34.7797 26.3809C34.2034 24.1171 33.3921 19.3769 32.7039 15.0799Z" fill="#FFBE9D"/>
<path d="M40.4448 30.5644C42.4742 30.0118 44.3124 28.8466 45.7407 27.2076C45.7407 27.2076 45.1979 30.9417 40.7386 31.6992L40.4448 30.5644Z" fill="#EB996E"/>
<path d="M36.9029 17.847C36.8162 17.7661 36.3657 18.2033 35.6747 18.2752C34.9837 18.347 34.4466 18.0296 34.3795 18.1284C34.3459 18.1734 34.4438 18.3261 34.6788 18.4728C34.9978 18.6638 35.3646 18.7434 35.7279 18.7004C36.086 18.664 36.424 18.5067 36.6931 18.2512C36.8833 18.0476 36.9449 17.8829 36.9029 17.847Z" fill="#263238"/>
<path d="M43.4941 17.0414C43.3933 16.9815 43.0325 17.5025 42.375 17.7181C41.7176 17.9337 41.1245 17.7391 41.0769 17.8499C41.0518 17.9008 41.1749 18.0295 41.435 18.1254C41.7827 18.2436 42.156 18.2436 42.5037 18.1254C42.8486 18.0133 43.1513 17.7868 43.3682 17.4786C43.5164 17.245 43.5416 17.0683 43.4941 17.0414Z" fill="#263238"/>
<path d="M39.8234 22.1799C39.8234 22.138 39.3786 22.1799 38.682 22.2667C38.5058 22.2967 38.3351 22.3027 38.2764 22.1859C38.2162 22.0005 38.2104 21.7999 38.2596 21.6109C38.3155 21.1228 38.3743 20.6108 38.433 20.0748C38.6624 17.8918 38.7827 16.1161 38.7128 16.1072C38.6428 16.0982 38.3771 17.8619 38.1533 20.0419C38.1001 20.5809 38.0497 21.0929 38.0022 21.581C37.9477 21.8324 37.9774 22.0963 38.0861 22.3266C38.1269 22.3842 38.1793 22.4313 38.2393 22.4645C38.2993 22.4976 38.3655 22.516 38.433 22.5183C38.5338 22.5202 38.6345 22.5082 38.7324 22.4823C39.401 22.3356 39.829 22.2218 39.8234 22.1799Z" fill="#263238"/>
<path d="M43.0911 14.3345C42.9456 14.1907 42.3693 14.613 41.6027 14.9334C40.8362 15.2538 40.148 15.3466 40.1284 15.5592C40.1284 15.661 40.3047 15.7748 40.6236 15.8167C41.0405 15.8577 41.4606 15.7962 41.8519 15.6369C42.2432 15.4776 42.5952 15.2246 42.8812 14.8974C43.0939 14.6219 43.1582 14.4063 43.0911 14.3345Z" fill="#263238"/>
<path d="M36.6794 16.0681C36.5563 15.8795 35.9576 15.9633 35.2666 15.8675C34.5756 15.7717 34.0105 15.5681 33.851 15.7148C33.7811 15.7926 33.851 15.9723 34.086 16.1699C34.4137 16.4157 34.7927 16.5715 35.1898 16.6237C35.5868 16.6759 35.9898 16.6229 36.3633 16.4694C36.629 16.3197 36.7326 16.158 36.6794 16.0681Z" fill="#263238"/>
<path d="M48.2134 16.0383C48.2805 15.9844 50.9914 14.2685 51.6572 17.4906C52.323 20.7126 49.1646 20.7665 49.1394 20.6766C49.1142 20.5868 48.2134 16.0383 48.2134 16.0383Z" fill="#FFBE9D"/>
<path d="M49.5423 19.3081C49.5423 19.3081 49.6038 19.335 49.7017 19.359C49.8388 19.3856 49.9801 19.3544 50.0962 19.2721C50.376 19.0715 50.5438 18.4696 50.4375 17.8827C50.3881 17.6053 50.281 17.3433 50.1242 17.1161C50.0757 17.0215 50.0062 16.941 49.9218 16.882C49.8374 16.823 49.7406 16.7872 49.6402 16.7778C49.5763 16.7758 49.5137 16.7973 49.4628 16.8387C49.4119 16.8801 49.3757 16.9389 49.3604 17.0053C49.338 17.1042 49.3604 17.164 49.3604 17.173C49.3604 17.182 49.2849 17.1341 49.2793 16.9964C49.2802 16.9122 49.3079 16.8309 49.3576 16.7658C49.3923 16.7217 49.4349 16.6857 49.4831 16.66C49.5312 16.6342 49.5837 16.6193 49.6374 16.6161C49.7664 16.6125 49.8942 16.6444 50.0083 16.7089C50.1225 16.7735 50.2192 16.8683 50.2892 16.9844C50.4754 17.2336 50.6021 17.5275 50.6585 17.8408C50.7732 18.4936 50.5886 19.1763 50.1801 19.4129C50.1045 19.4575 50.0205 19.4833 49.9343 19.4885C49.8481 19.4937 49.7619 19.4781 49.6822 19.4428C49.5647 19.3859 49.5339 19.317 49.5423 19.3081Z" fill="#EB996E"/>
<path d="M40.0922 15.9664C40.0922 15.9844 39.9747 16.0293 39.7761 16.0024C39.514 15.9668 39.2736 15.828 39.1019 15.6131C38.9303 15.3982 38.8387 15.1232 38.8445 14.8405C38.8445 14.6249 38.9088 14.5081 38.9256 14.5141C38.9424 14.5201 38.9256 14.6429 38.9452 14.8375C38.9698 15.0852 39.0623 15.3197 39.211 15.5113C39.3654 15.6991 39.5692 15.8327 39.7957 15.8946C39.9607 15.9515 40.0894 15.9515 40.0922 15.9664Z" fill="#EB996E"/>
<path d="M49.3607 10.8847C49.3607 10.9506 49.3943 11.0135 49.4055 11.0764C49.9426 13.8552 49.2404 17.4635 49.2404 17.4635C47.324 17.9606 46.9604 13.972 46.9604 13.972C44.395 13.5677 44.4733 9.57316 43.7627 9.14196C43.0521 8.71076 41.5246 7.67767 37.166 11.5764C35.4707 13.0916 32.9137 13.6726 31.4505 13.6726H31.2883H31.2435C30.7671 13.6627 30.295 13.5728 29.8447 13.406C29.3213 13.2339 28.8633 12.8865 28.5382 12.4149C28.3799 12.1781 28.2894 11.8971 28.278 11.6062C28.2666 11.3152 28.3346 11.0271 28.4739 10.7769C27.9901 10.3894 27.6218 9.85993 27.4136 9.25275C27.3133 8.9496 27.2863 8.6242 27.3353 8.30689C27.3842 7.98958 27.5074 7.6907 27.6934 7.43812C27.8904 7.19476 28.1622 7.03477 28.4597 6.987C28.7572 6.93923 29.0609 7.00683 29.316 7.1776C29.2269 6.97811 29.1781 6.76079 29.1726 6.53976C29.1672 6.31874 29.2053 6.09897 29.2845 5.89475C29.3636 5.69053 29.4821 5.50644 29.6321 5.35446C29.7821 5.20247 29.9604 5.086 30.1552 5.01262C30.9106 4.77606 31.6967 5.2372 32.4828 5.27613C33.258 5.26278 34.0082 4.98007 34.6202 4.47062C35.2524 4.00349 35.8148 3.43155 36.461 2.9734C37.8312 2.04357 39.4859 1.72136 41.0742 2.07507C42.6437 2.42841 43.897 2.85063 44.7782 4.28497C45.735 3.68608 47.0611 4.20112 47.9423 4.9138C47.9423 4.9138 49.1565 5.65343 49.2544 8.23464C49.3691 10.5224 49.3607 10.8847 49.3607 10.8847Z" fill="#263238"/>
<path d="M29.5283 6.36914C29.5283 6.35417 29.6906 6.52785 30.0123 6.76142C30.4728 7.08579 30.9862 7.31437 31.5258 7.43517C32.3272 7.60599 33.1508 7.6202 33.9569 7.47709C34.9426 7.2812 35.9099 6.99056 36.8468 6.6087C37.7928 6.22713 38.7658 5.92673 39.7563 5.71037C40.5751 5.55309 41.4134 5.55309 42.2322 5.71037C42.7851 5.81548 43.3134 6.03519 43.7876 6.35717C43.9159 6.44686 44.0374 6.54697 44.1513 6.65661C44.1916 6.69213 44.229 6.73119 44.2632 6.7734C44.2632 6.78837 44.0926 6.62966 43.7597 6.41406C43.2829 6.11627 42.7597 5.91337 42.2154 5.81517C41.4075 5.68129 40.5842 5.6975 39.7815 5.86308C38.7994 6.08468 37.8344 6.38497 36.8944 6.76142C35.9491 7.1466 34.9722 7.43632 33.9765 7.62681C33.1548 7.76576 32.3161 7.73936 31.5034 7.54896C30.9548 7.41655 30.4364 7.16813 29.9787 6.81831C29.8566 6.7221 29.7416 6.61598 29.6346 6.5009C29.5946 6.4615 29.5589 6.41729 29.5283 6.36914Z" fill="#455A64"/>
<path d="M44.0874 7.73182C44.0874 7.73182 43.9056 7.60007 43.5503 7.4174C43.0444 7.17745 42.4978 7.05108 41.9445 7.04609C41.122 7.04119 40.3056 7.19749 39.5358 7.50724C38.6601 7.83663 37.7453 8.3397 36.7382 8.78587C36.2517 9.00711 35.7504 9.18927 35.2387 9.33086C34.76 9.45679 34.2708 9.53102 33.7783 9.55245C32.9428 9.58902 32.1074 9.47876 31.3052 9.22605C30.767 9.0557 30.2488 8.81958 29.761 8.52236C29.5903 8.42054 29.4616 8.32772 29.3749 8.26483C29.3294 8.235 29.2872 8.19985 29.249 8.16003C29.249 8.16003 29.4393 8.27681 29.789 8.45947C30.2822 8.73053 30.7996 8.94821 31.3332 9.10926C32.1255 9.34645 32.948 9.44752 33.7699 9.40871C34.2539 9.38343 34.7346 9.30822 35.2051 9.18413C35.7088 9.04117 36.2025 8.86005 36.6822 8.64213C37.6726 8.19895 38.593 7.69888 39.4798 7.37249C40.2661 7.06479 41.0991 6.91653 41.9361 6.9353C42.5013 6.95113 43.0566 7.09718 43.5643 7.36351C43.7009 7.43773 43.8311 7.52491 43.9531 7.62402C44.0019 7.65388 44.047 7.69009 44.0874 7.73182Z" fill="#455A64"/>
<path d="M49.3325 7.95904C49.1804 8.12837 48.9937 8.25754 48.787 8.33635C48.2967 8.56301 47.7575 8.64072 47.2287 8.56093C46.7172 8.43573 46.2246 8.23412 45.7656 7.96204C45.4047 7.78836 45.1613 7.75842 45.1641 7.73446C45.383 7.7166 45.6025 7.75886 45.8019 7.85723C46.1852 7.99797 46.6608 8.31538 47.2511 8.40222C47.7555 8.47881 48.2698 8.42017 48.7478 8.23154C49.1171 8.0908 49.3185 7.93509 49.3325 7.95904Z" fill="#455A64"/>
<path d="M49.4026 8.80366C49.2344 8.9386 49.0449 9.04004 48.8431 9.1031C48.357 9.28956 47.8432 9.37986 47.3268 9.36961C46.8104 9.36036 46.3001 9.24867 45.8217 9.04021C45.6174 8.96804 45.4275 8.85528 45.2622 8.70783C45.2622 8.68687 45.486 8.80365 45.8525 8.9384C46.8067 9.28528 47.8381 9.3062 48.8039 8.99829C49.0001 8.92201 49.2 8.85703 49.4026 8.80366Z" fill="#455A64"/>
<path d="M37.8401 15.0531C37.8848 15.1816 37.9007 15.3194 37.8866 15.4557C37.8726 15.5919 37.8288 15.7227 37.759 15.8376C37.5604 16.2509 37.2163 16.4006 37.1995 16.3587C37.1827 16.3168 37.4513 16.1311 37.6247 15.7598C37.7129 15.5303 37.785 15.2941 37.8401 15.0531Z" fill="#EB996E"/>
<path d="M29.0919 51.8847C29.1291 51.8149 29.1628 51.7429 29.1926 51.6691L29.4723 51.0372L30.5103 48.6058L34.2282 39.7901L34.2506 39.7362L34.301 39.7572L42.3357 42.6708L42.4028 42.6947L42.3776 42.7666L38.4974 53.2471C37.7029 55.4091 36.9083 57.5082 36.1782 59.5564C35.8238 60.5662 35.4089 61.5504 34.936 62.503C34.4798 63.4195 33.9022 64.2607 33.2211 65.0003C32.5787 65.7114 31.8414 66.3169 31.0334 66.797C30.2667 67.2398 29.4367 67.5433 28.5771 67.6953C27.7753 67.8319 26.9619 67.8731 26.1516 67.8181C25.4013 67.7898 24.658 67.6538 23.9415 67.4139C23.2883 67.1894 22.6919 66.8073 22.1986 66.2969C21.7709 65.8306 21.4326 65.2793 21.2027 64.6739C20.8451 63.7066 20.6263 62.6869 20.5536 61.6496C20.4993 60.9974 20.4891 60.3419 20.5229 59.6882C20.548 59.242 20.5844 59.0085 20.5844 59.0085C20.5844 59.0085 20.5844 59.0683 20.5844 59.1821C20.5844 59.2959 20.5648 59.4666 20.5592 59.6912C20.5365 60.3426 20.5552 60.9949 20.6152 61.6436C20.6975 62.6715 20.9219 63.6806 21.281 64.638C21.5107 65.2307 21.8462 65.7698 22.2686 66.2251C22.7541 66.7221 23.3399 67.0929 23.9807 67.3091C24.6885 67.5421 25.4225 67.6721 26.1628 67.6953C26.964 67.7499 27.7683 67.7067 28.5603 67.5666C29.4069 67.4123 30.2237 67.1088 30.9775 66.6683C31.7723 66.1915 32.4979 65.5933 33.1316 64.8925C33.7998 64.1603 34.3652 63.3282 34.8101 62.4221C35.2792 61.4744 35.6904 60.4952 36.0411 59.4906C36.7685 57.4454 37.5658 55.3403 38.3603 53.1783C39.7311 49.4831 41.046 45.9347 42.2461 42.6977L42.2881 42.7935L34.2618 39.859L34.3318 39.826C32.7707 43.5062 31.4782 46.5246 30.5662 48.6207C30.1102 49.6688 29.7521 50.4863 29.5003 51.0372C29.3744 51.3127 29.2765 51.5223 29.2206 51.6631C29.1876 51.743 29.1442 51.8176 29.0919 51.8847Z" fill="#263238"/>
<path d="M31.4141 46.7222C31.4212 46.6036 31.44 46.4862 31.47 46.3718L31.6686 45.4316C31.8449 44.638 32.0939 43.5481 32.3764 42.3413C32.8828 40.1913 33.2297 38.73 33.4059 37.9844C33.4927 37.9844 33.0786 39.9697 32.5163 42.3802C32.2366 43.578 31.9708 44.674 31.7694 45.4585C31.6686 45.8508 31.5847 46.1682 31.5232 46.3868C31.5011 46.5033 31.4644 46.6162 31.4141 46.7222Z" fill="#263238"/>
<path d="M37.7927 22.1858C37.7927 22.1858 36.9395 21.2366 36.1813 22.1858C35.4232 23.1351 35.5071 25.4318 36.9451 27.7645C38.383 30.0971 37.8123 38.8649 37.8123 38.8649L46.317 35.4632L46.9017 38.254C48.031 37.5578 49.0041 36.6052 49.7524 35.4632C50.8435 33.6905 49.1929 31.4267 48.8516 30.0103C48.5103 28.5939 45.4385 26.3361 44.5377 24.8539C43.6369 23.3716 41.396 20.3472 37.7927 22.1858Z" fill="#FAFAFA"/>
<path d="M43.4579 42.8565C43.4579 42.8565 41.0659 37.3886 40.733 36.3855C40.4001 35.3823 38.9873 32.0345 39.1692 31.3787C39.351 30.723 40.1707 31.3787 40.1707 31.3787C40.1707 31.3787 38.5061 27.9351 39.0153 27.2045C39.064 27.1278 39.1283 27.0639 39.2033 27.0176C39.2784 26.9713 39.3623 26.9437 39.4487 26.9371C39.5351 26.9305 39.6218 26.9449 39.7023 26.9793C39.7828 27.0137 39.8549 27.0671 39.9133 27.1356C39.9133 27.1356 38.8726 25.1533 39.7539 24.5574C40.2099 24.258 40.982 25.4557 40.982 25.4557C40.982 25.4557 41.7122 24.5933 42.3808 25.6803C43.0494 26.7673 45.805 31.6213 45.805 31.6213C45.805 31.6213 45.6428 29.3216 46.0316 27.9351C46.2946 27.0009 47.5647 26.4708 47.6403 29.3096C47.6906 31.1482 49.6909 39.7901 49.6909 39.7901L43.4579 42.8565Z" fill="#FFBE9D"/>
<path d="M43.4576 42.8565L43.5667 42.7936L43.8884 42.6289L45.1222 42.006L49.6654 39.7303L49.6375 39.7902C49.1283 37.5743 48.5184 34.9242 47.9589 31.9297C47.8246 31.1781 47.6792 30.4086 47.598 29.603C47.5617 29.1928 47.5617 28.8005 47.4945 28.4053L47.433 28.1058C47.4106 28.01 47.3742 27.9172 47.3434 27.8064C47.2826 27.6227 47.1751 27.4609 47.0329 27.3392C46.9636 27.2847 46.881 27.2528 46.7951 27.2475C46.7092 27.2422 46.6237 27.2637 46.5489 27.3093C46.3887 27.4095 46.2602 27.5586 46.1797 27.7375C46.1016 27.9293 46.0453 28.1303 46.0118 28.3364C45.9708 28.5462 45.94 28.7581 45.9195 28.9712C45.8363 29.8448 45.8232 30.7244 45.8803 31.6003C45.8811 31.6208 45.8747 31.6409 45.8622 31.6564C45.8497 31.672 45.8322 31.6819 45.8132 31.6842C45.7998 31.6844 45.7866 31.6809 45.7749 31.6741C45.7631 31.6673 45.7532 31.6573 45.746 31.6453L44.0115 28.6358L42.7106 26.378L42.3805 25.833C42.2879 25.6507 42.1635 25.4891 42.014 25.3569C41.9446 25.2949 41.8631 25.2501 41.7756 25.2258C41.688 25.2015 41.5965 25.1982 41.5077 25.2162C41.3276 25.2599 41.1633 25.3587 41.0349 25.5007C41.0281 25.508 41.0201 25.5138 41.0112 25.5178C41.0023 25.5218 40.9928 25.5238 40.9831 25.5238C40.9735 25.5238 40.964 25.5218 40.9551 25.5178C40.9462 25.5138 40.9381 25.508 40.9314 25.5007C40.7354 25.1898 40.4891 24.919 40.204 24.7011C40.0641 24.6113 39.8991 24.5514 39.7844 24.6502C39.6491 24.7477 39.5501 24.8929 39.5046 25.0605C39.4441 25.4151 39.4711 25.7805 39.5829 26.1205C39.6796 26.4651 39.809 26.7982 39.969 27.1147C39.9734 27.1231 39.9761 27.1324 39.9771 27.1419C39.978 27.1515 39.9772 27.1612 39.9746 27.1704C39.972 27.1796 39.9676 27.1882 39.9619 27.1956C39.9561 27.203 39.949 27.2091 39.941 27.2135C39.929 27.2221 39.9149 27.2267 39.9005 27.2267C39.886 27.2267 39.8719 27.2221 39.8599 27.2135C39.7897 27.1339 39.6999 27.0774 39.6008 27.0503C39.5018 27.0233 39.3976 27.0269 39.3004 27.0608C39.2082 27.1067 39.1283 27.1767 39.0682 27.2644C39.0122 27.3528 38.982 27.457 38.9815 27.5638C38.992 28.0259 39.0762 28.4826 39.2304 28.9143C39.5077 29.7576 39.8377 30.5799 40.218 31.3758C40.2218 31.3836 40.2241 31.3922 40.2248 31.401C40.2254 31.4098 40.2244 31.4186 40.2218 31.427C40.2192 31.4354 40.215 31.4431 40.2096 31.4498C40.2041 31.4564 40.1975 31.4618 40.19 31.4656C40.1805 31.4708 40.1699 31.4736 40.1592 31.4736C40.1485 31.4736 40.138 31.4708 40.1285 31.4656C39.9454 31.3229 39.7319 31.2313 39.5074 31.1991C39.4593 31.1953 39.4111 31.2049 39.3675 31.2269C39.3238 31.249 39.2863 31.2827 39.2584 31.3249C39.2314 31.3699 39.2151 31.4213 39.2109 31.4746V31.5554V31.6453C39.2767 32.1142 39.3903 32.5741 39.5494 33.0167C39.8291 33.8971 40.1508 34.7206 40.4418 35.4931C40.9789 37.0592 41.5608 38.3708 42.0112 39.4638L43.0799 41.9881C43.2011 42.2715 43.2944 42.4931 43.3597 42.6528C43.3905 42.7247 43.4128 42.7786 43.4296 42.8235L43.452 42.8834C43.452 42.8834 43.452 42.8834 43.4212 42.8265L43.3429 42.6618L43.0463 42.003L41.9469 39.4937C41.4881 38.4097 40.895 37.0981 40.3495 35.535C40.0697 34.7625 39.7368 33.942 39.4431 33.0556C39.2803 32.6021 39.1631 32.1313 39.0934 31.6512C39.0836 31.5858 39.0836 31.5191 39.0934 31.4536C39.1007 31.3834 39.1227 31.3159 39.1577 31.256C39.1953 31.1939 39.248 31.1438 39.31 31.1111C39.3721 31.0784 39.4413 31.0644 39.5102 31.0703C39.76 31.1044 39.9972 31.2076 40.1984 31.3698L40.1089 31.4536C39.7217 30.654 39.3871 29.8266 39.1073 28.9772C38.9443 28.528 38.8563 28.0516 38.8472 27.5698C38.85 27.4357 38.89 27.3054 38.9619 27.1955C39.0342 27.0882 39.1304 27.0017 39.2416 26.944C39.3618 26.8913 39.4953 26.8849 39.6193 26.926C39.7397 26.9672 39.8503 27.0356 39.9438 27.1266L39.8347 27.2165C39.67 26.8901 39.536 26.5471 39.4347 26.1924C39.3164 25.8259 39.2885 25.4329 39.3535 25.0515C39.4065 24.8515 39.5208 24.6764 39.6781 24.5544C39.7213 24.5214 39.7705 24.4983 39.8225 24.4865C39.8744 24.4746 39.9281 24.4743 39.9802 24.4855C40.0798 24.5042 40.1749 24.5439 40.26 24.6023C40.561 24.8317 40.8215 25.1166 41.0293 25.4438H40.9174C41.0683 25.2745 41.2632 25.1577 41.4769 25.1084C41.5854 25.087 41.6969 25.0912 41.8036 25.1207C41.9104 25.1501 42.0099 25.2042 42.0952 25.2791C42.2598 25.4196 42.3967 25.5936 42.498 25.7911C42.6071 25.9768 42.7134 26.1624 42.8197 26.3481L44.1234 28.6059L45.8579 31.6213L45.7236 31.6662C45.6675 30.7802 45.6815 29.8907 45.7656 29.0072C45.7908 28.7886 45.8188 28.573 45.8635 28.3604C45.8978 28.1424 45.958 27.9301 46.0426 27.7285C46.1367 27.5221 46.2869 27.351 46.4734 27.2374C46.5712 27.1803 46.6821 27.1536 46.7933 27.1605C46.9046 27.1674 47.0118 27.2075 47.1029 27.2764C47.2649 27.4163 47.3886 27.6004 47.4609 27.8094C47.4917 27.9112 47.5309 28.01 47.5533 28.1088L47.6204 28.4083C47.6848 28.8185 47.6875 29.2377 47.7211 29.627C47.7967 30.4175 47.9421 31.1901 48.0736 31.9387C48.6331 34.9332 49.2318 37.5832 49.7298 39.8021C49.7321 39.814 49.7306 39.8264 49.7255 39.8373C49.7205 39.8482 49.7121 39.8569 49.7018 39.862L45.111 42.0989L43.8772 42.6978L43.5611 42.8475L43.4576 42.8565Z" fill="#EB996E"/>
<path d="M44.0285 32.0765C43.9921 32.0944 43.2815 30.6271 42.4395 28.7975C41.5974 26.9679 40.9456 25.4677 40.9819 25.4468C41.0183 25.4258 41.7289 26.8961 42.571 28.7406C43.413 30.5852 44.0649 32.0555 44.0285 32.0765Z" fill="#EB996E"/>
<path d="M42.6127 33.4509C42.5763 33.4689 41.9413 32.0704 41.1971 30.3277C40.4529 28.5849 39.8738 27.1596 39.913 27.1416C39.9522 27.1236 40.5816 28.522 41.3286 30.2618C42.0755 32.0016 42.649 33.4329 42.6127 33.4509Z" fill="#EB996E"/>
<path d="M41.8129 35.3164C41.6727 35.1639 41.5539 34.9904 41.4604 34.8014C40.9574 33.9315 40.5597 32.9967 40.277 32.0195C40.2065 31.8194 40.1622 31.6098 40.1455 31.3967C40.1875 31.3967 40.456 32.295 40.9176 33.388C41.3792 34.4809 41.8492 35.2924 41.8129 35.3164Z" fill="#EB996E"/>
<path d="M37.6358 27.1087C37.5536 26.952 37.4243 26.8295 37.269 26.761C37.1137 26.6926 36.9413 26.6821 36.7798 26.7315C36.0272 26.953 34.7599 27.3663 34.413 27.7017C33.9094 28.1868 32.8212 29.4714 32.824 30.3368C32.824 30.6003 32.575 31.0794 32.4883 31.5345C32.4408 31.8318 32.4408 32.1356 32.4883 32.4329C32.6304 32.8567 32.8723 33.2342 33.1905 33.5288C33.5122 33.8283 34.7487 36.9755 34.7487 36.9755L35.4705 40.1316L38.7381 41.3593L41.4294 42.3445L40.0306 38.0564L37.8289 38.8829L38.0527 33.3971L38.6961 32.0975L38.5199 31.274L37.9911 31.0974C38.118 30.9811 38.1982 30.8169 38.2148 30.639C38.2315 30.461 38.1834 30.2831 38.0806 30.1421L37.6218 29.7259C38.1814 29.5013 38.4303 29.1031 38.1338 28.4233C38.019 28.3269 37.8858 28.259 37.7436 28.2243C37.6014 28.1896 37.4537 28.189 37.3113 28.2227C37.4496 28.082 37.5521 27.9058 37.6089 27.7109C37.6657 27.5159 37.6749 27.3086 37.6358 27.1087Z" fill="#FFBE9D"/>
<path d="M37.4879 37.2988C37.4879 37.2988 37.4515 37.2629 37.3928 37.188C37.334 37.1131 37.2501 36.9994 37.1494 36.8437C37.0251 36.6561 36.9192 36.4554 36.8333 36.2448C36.7153 35.9631 36.6672 35.6538 36.6934 35.3464C36.7441 34.9764 36.8796 34.6256 37.0878 34.3253C37.321 33.9887 37.5742 33.6687 37.846 33.3671C38.1386 33.0431 38.3653 32.6577 38.5118 32.2352C38.5852 32.0196 38.5921 31.7845 38.5314 31.5644C38.5028 31.4598 38.4442 31.3673 38.3639 31.3002C38.2836 31.233 38.1856 31.1945 38.0838 31.1901C37.8655 31.2355 37.6682 31.3591 37.5243 31.5405L37.0123 32.0256L36.0499 32.9419C35.4289 33.5168 34.8805 34.0528 34.6092 34.6487C34.3826 35.1086 34.3238 35.6422 34.4441 36.1459C34.528 36.5023 34.6204 36.6879 34.6064 36.6939C34.5924 36.6999 34.5784 36.652 34.5364 36.5652C34.4757 36.4359 34.4269 36.3005 34.391 36.1609C34.3272 35.9411 34.2989 35.7112 34.307 35.4812C34.3183 35.1742 34.3898 34.8733 34.5169 34.5978C34.7966 33.975 35.3561 33.4 35.9604 32.8341C36.2654 32.5346 36.5871 32.2352 36.92 31.9118L37.4264 31.4237C37.5919 31.2191 37.8181 31.0817 38.067 31.0344C38.2 31.0377 38.3286 31.0857 38.4346 31.1717C38.5405 31.2578 38.6185 31.3774 38.6573 31.5135C38.7268 31.7648 38.72 32.0333 38.6377 32.2801C38.4855 32.7281 38.2462 33.1364 37.9355 33.4779C37.6642 33.7723 37.4101 34.0843 37.1746 34.4122C36.9754 34.6949 36.8421 35.0244 36.7857 35.3734C36.7556 35.6644 36.794 35.9588 36.8976 36.2298C36.9726 36.4386 37.0663 36.6392 37.1774 36.8287C37.3816 37.1221 37.4963 37.2898 37.4879 37.2988Z" fill="#EB996E"/>
<path d="M35.205 33.6966C35.205 33.6966 35.205 33.6966 35.1715 33.6487C35.1432 33.5986 35.118 33.5465 35.0959 33.493C35.0584 33.4053 35.0321 33.3126 35.0176 33.2175C35.0032 33.1492 35.0017 33.0785 35.0132 33.0096C35.0247 32.9407 35.0491 32.8749 35.0847 32.8162L37.3228 31.4627C37.5848 31.3409 37.8173 31.1565 38.0026 30.9237C38.0851 30.8037 38.131 30.6594 38.1341 30.5105C38.1327 30.4366 38.1174 30.3637 38.089 30.2963C38.0607 30.2289 38.0199 30.1683 37.969 30.1182C37.854 30.0161 37.7171 29.9462 37.5706 29.9149C37.4241 29.8835 37.2726 29.8917 37.1298 29.9386C36.8082 30.0461 36.4956 30.1823 36.1954 30.3458L33.644 31.5855C33.461 31.6727 33.3014 31.8076 33.1796 31.9778C33.0783 32.1458 33.0302 32.3442 33.0425 32.5437C33.0813 32.9168 33.1757 33.2807 33.3222 33.6217C33.5114 34.1352 33.731 34.6353 33.9797 35.1189C34.1559 35.4603 34.2594 35.643 34.2594 35.649C34.2594 35.6549 34.2231 35.61 34.1671 35.5262C34.1112 35.4423 34.0328 35.3166 33.9377 35.1489C33.6657 34.6771 33.4299 34.1823 33.2327 33.6696C33.0762 33.3196 32.975 32.9442 32.9334 32.5587C32.9176 32.3313 32.9706 32.1046 33.0845 31.9119C33.2158 31.7203 33.3899 31.5669 33.5908 31.4657C34.3769 31.0675 35.2386 30.6542 36.1478 30.211C36.4561 30.0444 36.7771 29.9062 37.1074 29.7978C37.2751 29.742 37.4534 29.7331 37.6253 29.7719C37.7972 29.8107 37.9569 29.8959 38.0893 30.0194C38.1541 30.0831 38.2058 30.1604 38.2414 30.2464C38.2771 30.3324 38.2958 30.4254 38.2964 30.5195C38.2913 30.6977 38.2357 30.87 38.1369 31.0136C37.944 31.2564 37.702 31.4489 37.4291 31.5765L35.1519 32.8761C35.0895 32.9776 35.0655 33.1007 35.0847 33.2205C35.096 33.3124 35.1166 33.4028 35.1463 33.49C35.1703 33.5573 35.1899 33.6263 35.205 33.6966Z" fill="#EB996E"/>
<path d="M32.8267 31.1272C32.8597 31.0128 32.9057 30.9032 32.9637 30.8008C33.1005 30.5062 33.2636 30.2264 33.4505 29.9653C33.7368 29.575 34.1087 29.2664 34.5332 29.067C35.0461 28.8386 35.5745 28.6524 36.1138 28.51L36.9391 28.2645C37.1978 28.1597 37.4743 28.1148 37.7504 28.1327C37.8874 28.1513 38.0165 28.2116 38.1225 28.3064C38.2183 28.4005 38.2848 28.5238 38.3127 28.6598C38.3383 28.7786 38.3383 28.9021 38.3126 29.021C38.2869 29.1398 38.2362 29.2508 38.1645 29.3455C38.063 29.4749 37.9385 29.5815 37.7983 29.6591C37.6581 29.7367 37.5049 29.7838 37.3476 29.7977C37.2365 29.8178 37.123 29.8178 37.0119 29.7977C37.1193 29.768 37.2288 29.7469 37.3392 29.7348C37.6315 29.6855 37.8965 29.5223 38.0833 29.2766C38.1428 29.1922 38.1838 29.0945 38.2031 28.9908C38.2225 28.8872 38.2198 28.7801 38.1952 28.6777C38.1693 28.5653 38.1106 28.4646 38.0276 28.3903C37.9446 28.316 37.8416 28.2719 37.7336 28.2645C37.476 28.2547 37.2191 28.3006 36.9783 28.3993L36.139 28.6478C35.6071 28.7889 35.0847 28.9679 34.5752 29.1838C34.1681 29.3714 33.8086 29.6598 33.5261 30.0252C33.3342 30.2747 33.1611 30.54 33.0085 30.8188C32.9604 30.9294 32.8993 31.0331 32.8267 31.1272Z" fill="#EB996E"/>
<path d="M36.1531 28.4384C36.2713 28.3972 36.3919 28.3642 36.514 28.3395C36.8404 28.277 37.1422 28.1124 37.3813 27.8664C37.4592 27.7846 37.52 27.6859 37.5595 27.5769C37.5991 27.468 37.6165 27.3513 37.6107 27.2346C37.6051 27.1055 37.5607 26.9818 37.4841 26.882C37.4074 26.7821 37.3027 26.7115 37.1854 26.6806C36.8994 26.6838 36.6179 26.7575 36.3629 26.8962C36.0832 27.007 35.7671 27.1118 35.4565 27.2226C35.1565 27.325 34.8622 27.446 34.5753 27.585C34.3326 27.748 34.1233 27.9619 33.9598 28.2138C33.7892 28.4533 33.6381 28.6929 33.487 28.9115C33.334 29.0959 33.199 29.2965 33.0842 29.5104C32.9446 29.8352 32.8657 30.1862 32.852 30.5435C32.838 30.798 32.852 30.9387 32.852 30.9387C32.8145 30.81 32.7993 30.675 32.8072 30.5405C32.7995 30.1703 32.8663 29.8026 33.003 29.4625C33.0506 29.3484 33.1107 29.2408 33.1821 29.1421C33.2548 29.0402 33.3276 28.9474 33.4003 28.8426C33.5458 28.624 33.6801 28.3815 33.8647 28.1359C34.0371 27.8635 34.2611 27.633 34.5221 27.4592C34.8146 27.3139 35.1155 27.1888 35.423 27.0849L36.3266 26.7615C36.6032 26.6131 36.9097 26.5401 37.219 26.5489C37.3735 26.5791 37.511 26.6725 37.6023 26.8094C37.685 26.9333 37.7335 27.0796 37.7422 27.2316C37.7467 27.3659 37.7241 27.4997 37.6758 27.6237C37.6275 27.7478 37.5547 27.8592 37.4624 27.9503C37.2041 28.2032 36.8784 28.3634 36.5308 28.4084C36.4069 28.4377 36.2797 28.4477 36.1531 28.4384Z" fill="#EB996E"/>
<path d="M54.1056 45.7432L54.0413 45.6354L53.8595 45.312L53.1768 44.0633C52.581 42.9673 51.7277 41.3893 50.659 39.4339L50.7234 39.4549L42.8481 43.4225L42.8817 43.3357C43.7769 46.0876 44.8652 49.073 46.1661 52.1184C47.5649 55.3943 49.0532 58.4337 50.4828 61.1556C51.1989 62.5151 51.8816 63.8057 52.553 64.9915C53.1388 66.1108 53.9128 67.1046 54.8358 67.9231C55.2493 68.261 55.7113 68.525 56.2038 68.7046C56.6513 68.8568 57.1165 68.9404 57.5858 68.9531C58.3324 68.9849 59.0764 68.8407 59.7652 68.5309C60.201 68.3367 60.5959 68.0505 60.9262 67.6895C61.1528 67.4439 61.2451 67.2882 61.2535 67.2942C61.2619 67.3002 61.2311 67.3331 61.1835 67.405C61.1122 67.5108 61.0336 67.6109 60.9485 67.7045C60.622 68.0778 60.2267 68.3745 59.7875 68.5758C59.0932 68.9002 58.3403 69.0556 57.583 69.031C57.108 69.0182 56.6371 68.9335 56.1842 68.7795C55.681 68.6004 55.2085 68.3343 54.7855 67.9919C53.8902 67.2763 53.1405 66.2222 52.4607 65.0424C51.7808 63.8626 51.0954 62.566 50.3765 61.2065C48.9413 58.5055 47.4418 55.4781 46.0458 52.1843C44.7421 49.1329 43.6566 46.1415 42.767 43.3806L42.7446 43.3207L42.8006 43.2907L50.6926 39.356L50.7345 39.3351L50.7569 39.38C51.8004 41.3444 52.6397 42.9314 53.2244 44.0334C53.5042 44.5784 53.7308 45.0006 53.8846 45.297C53.9574 45.4378 54.0133 45.5456 54.0525 45.6264C54.075 45.6626 54.0929 45.7019 54.1056 45.7432Z" fill="#263238"/>
<path d="M38.3773 25.7581C38.2309 25.7961 38.0774 25.7878 37.9353 25.7341C37.5813 25.639 37.2629 25.43 37.0233 25.1352C36.7843 24.8413 36.6367 24.475 36.6009 24.0872C36.5696 23.9298 36.5833 23.766 36.64 23.6171C36.6624 23.6171 36.64 23.7967 36.7016 24.0722C36.7649 24.4278 36.9144 24.7593 37.1352 25.0334C37.3613 25.3081 37.6507 25.5146 37.9745 25.6323C38.1109 25.6659 38.2454 25.7079 38.3773 25.7581Z" fill="#E0E0E0"/>
<path d="M43.1473 24.1501C43.2146 24.2215 43.2729 24.302 43.3207 24.3896C43.4242 24.5483 43.5641 24.7849 43.7236 25.0873C44.1421 25.8724 44.487 26.6999 44.7531 27.5578C45.0195 28.4155 45.2069 29.2991 45.3126 30.1959C45.3518 30.5402 45.3741 30.8187 45.3797 31.0134C45.3914 31.1128 45.3914 31.2134 45.3797 31.3128C45.3546 31.3128 45.3182 30.8876 45.2147 30.2078C45.0776 29.3244 44.8775 28.4534 44.616 27.6027C44.3472 26.7549 44.0189 25.9301 43.634 25.1353C43.3375 24.5274 43.1277 24.1651 43.1473 24.1501Z" fill="#E0E0E0"/>
<path d="M38.9342 26.7494C38.7823 26.7863 38.6246 26.7863 38.4726 26.7494C37.7273 26.6294 37.0523 26.2109 36.5842 25.5786C36.4782 25.4572 36.3988 25.3119 36.3521 25.1534C36.6838 25.5675 37.0702 25.9276 37.4991 26.2224C37.9506 26.4727 38.4342 26.6503 38.9342 26.7494Z" fill="#E0E0E0"/>
<path d="M46.7144 99.775L56.3073 104.431C56.3073 104.431 58.9622 105.479 59.6644 105.309C60.4449 105.117 61.715 104.602 61.3206 102.069C60.9261 99.5354 56.3772 96.4542 56.3772 96.4542L46.7144 99.775Z" fill="#A4C0E9"/>
<path d="M45.4523 91.8695L31.6993 96.6606C30.8768 96.9601 29.9033 97.8853 30.1942 99.0562L35.5656 115.615C35.5656 115.615 37.2217 116.181 36.914 105.434L48.5688 101.326L45.4523 91.8695Z" fill="#A4C0E9"/>
<path d="M36.8972 110.54C36.8776 110.597 36.2538 110.202 35.4117 110.22C34.5696 110.237 33.9542 110.648 33.9346 110.591C34.0476 110.479 34.1809 110.393 34.3262 110.339C34.6669 110.173 35.0347 110.079 35.4089 110.064C35.7834 110.058 36.155 110.135 36.5 110.291C36.6461 110.346 36.7811 110.43 36.8972 110.54Z" fill="white"/>
<path d="M32.7064 96.4631C32.7064 96.4631 32.8043 96.4631 32.9554 96.5589C33.1641 96.7035 33.3269 96.9122 33.4226 97.1578C33.556 97.5151 33.6262 97.8959 33.6296 98.2807C33.6587 98.7474 33.6333 99.2161 33.5541 99.6761C33.473 100.139 33.3076 100.581 33.0673 100.976C32.8683 101.298 32.6092 101.572 32.3064 101.781C32.1039 101.923 31.8793 102.024 31.6433 102.081C31.5581 102.108 31.4688 102.117 31.3804 102.108C31.688 102.017 31.9806 101.875 32.2476 101.688C32.5281 101.474 32.7682 101.205 32.9554 100.895C33.179 100.512 33.3337 100.087 33.4114 99.6432C33.4893 99.1951 33.5175 98.7388 33.4953 98.2837C33.4977 97.9148 33.441 97.5481 33.3275 97.1997C33.2461 96.969 33.1067 96.7669 32.9246 96.6158C32.7932 96.502 32.7008 96.4751 32.7064 96.4631Z" fill="white"/>
<path d="M40.9762 104.111C40.9012 104.008 40.8374 103.897 40.786 103.778C40.6713 103.56 40.5063 103.239 40.316 102.844C39.9272 102.051 39.4096 100.943 38.8669 99.706C38.3241 98.4693 37.8569 97.3344 37.5324 96.508C37.3702 96.0977 37.2527 95.7593 37.1575 95.5258C37.1075 95.4073 37.0682 95.284 37.04 95.1575C37.1071 95.2661 37.1643 95.3815 37.2107 95.5018C37.3198 95.7594 37.4597 96.0798 37.6275 96.466L38.9984 99.6402L40.3971 102.793L40.8252 103.752C40.8866 103.866 40.9372 103.986 40.9762 104.111Z" fill="white"/>
<path d="M77.1042 79.7569C75.1264 77.9603 74.7319 77.6399 70.874 77.3224C67.0161 77.005 60.6628 77.8944 60.6628 77.8944C60.6628 77.8944 48.6332 81.874 42.8841 81.1344C37.1351 80.3947 31.8924 76.9421 31.8924 76.9421C31.8924 76.9421 18.2542 76.5678 16.377 77.0979C14.4998 77.6279 10.9357 79.0053 10.2447 81.332C9.55365 83.6587 9.05568 86.4226 11.0336 89.0607C13.0115 91.6988 22.9765 96.5797 22.9765 96.5797L32.3512 96.424L38.5926 94.3279L42.6911 103.644C42.6911 103.644 71.6657 93.8308 72.9498 93.726C74.2339 93.6212 79.9662 89.9141 79.9662 88.0156C79.9662 86.1171 79.0821 81.5566 77.1042 79.7569Z" fill="#263238"/>
<path d="M44.8036 91.0374L44.7336 91.0194L44.5322 90.9536L43.7657 90.687C43.097 90.4535 42.1403 90.0882 40.9681 89.645C38.6069 88.7466 35.3729 87.3961 31.8787 85.7223C28.3845 84.0484 25.2988 82.3535 23.0943 81.0719C21.992 80.4311 21.108 79.901 20.5009 79.5237L19.8043 79.0896L19.6253 78.9728C19.5842 78.9468 19.5647 78.9318 19.5665 78.9279L19.6309 78.9578L19.8183 79.0626L20.5289 79.4728C21.1416 79.8322 22.0368 80.3472 23.1446 80.9701C25.3575 82.2247 28.4601 83.8986 31.9403 85.5725C35.4205 87.2464 38.6545 88.5999 41.0017 89.5342C42.1766 90.0013 43.1306 90.3726 43.7992 90.6242L44.5602 90.9236L44.756 91.0045C44.784 91.0224 44.8064 91.0344 44.8036 91.0374Z" fill="#455A64"/>
<path d="M66.6107 80.7153C66.6091 80.7507 66.6045 80.7858 66.5967 80.8201C66.5799 80.898 66.5603 80.9998 66.5351 81.1196C66.4764 81.3981 66.3925 81.7933 66.2862 82.3174H66.2694C63.8802 83.3325 58.5312 85.5603 52.3122 88.1266C46.0931 90.6928 40.7302 92.8878 38.3242 93.852L38.3382 93.807L38.9117 94.8491L39.0572 95.1216C39.088 95.1845 39.102 95.2144 39.102 95.2174C39.0795 95.1909 39.0598 95.1618 39.0432 95.1306L38.8866 94.8671L38.2823 93.852L38.2627 93.819L38.2963 93.8041C40.6854 92.7889 46.0344 90.5611 52.2562 87.9948C58.4781 85.4286 63.8355 83.2337 66.2442 82.2695L66.2274 82.2934C66.3468 81.7863 66.44 81.3941 66.5072 81.1166L66.5827 80.8171C66.5896 80.7825 66.599 80.7485 66.6107 80.7153Z" fill="#455A64"/>
<path d="M85.1197 90.8515L83.0019 77.5562L77.2221 65.8779L70.0323 58.6642L67.881 49.0521L66.7619 37.5863L66.0038 33.1575C65.8268 32.1528 65.3973 31.2188 64.7614 30.4559C64.1255 29.6929 63.3073 29.13 62.3949 28.8276L54.5477 26.2254C54.5477 26.2254 54.7071 28.3035 54.0525 32.8461C53.3978 37.3887 53.6328 44.797 53.6328 44.797C53.6328 44.797 58.9035 56.0171 58.8951 61.6976C58.8951 69.4233 60.3946 72.9178 62.1151 74.7803C63.444 76.2147 64.8959 76.6818 65.8751 77.3616C68.1132 78.9306 78.4978 75.8404 81.3262 82.4282C83.0241 86.4116 83.7922 90.777 83.5642 95.1486L86.1073 95.0977L85.1197 90.8515Z" fill="#A4C0E9"/>
<path d="M33.708 21.1168C33.708 21.1168 32.8156 23.6861 32.8967 25.881C32.9331 26.9171 32.3652 27.7825 31.8169 28.555C31.1566 29.4893 30.0516 30.7769 28.9074 32.885C28.5297 33.5827 28.5241 34.5409 28.1828 35.4902C26.784 39.3829 31.1874 46.7732 31.0475 47.2314C30.9076 47.6895 22.6296 62.8025 24.2214 69.2645C25.8132 75.7265 23.4269 77.3495 23.4269 77.3495C23.4269 77.3495 18.5759 77.9484 15.1125 77.649C11.649 77.3495 2.85902 78.4844 2.01415 85.165C1.16928 91.8456 5.68179 96.5439 5.68179 96.5439H4.80894C4.80894 96.5439 -0.44773 91.0192 0.243274 86.6622C0.934279 82.3053 3.09961 77.7508 3.09961 77.7508L10.8042 74.3431L15.7615 73.7442L15.202 65.0334L16.5141 57.0262L22.5932 40.955L25.3908 34.2894L26.5098 31.1153L31.1259 27.2225L32.5806 22.5422L33.708 21.1168Z" fill="#A4C0E9"/>
<path d="M64.9181 62.3174C64.8972 62.2432 64.8832 62.167 64.8761 62.0898C64.8537 61.9251 64.823 61.7065 64.7838 61.431C64.7083 60.8621 64.5992 60.0356 64.4425 59.0205C64.2858 58.0054 64.076 56.7986 63.7403 55.4781C63.3915 54.0524 62.8961 52.6725 62.2632 51.3637C61.6142 50.0654 60.768 48.8915 59.7593 47.8902C58.9375 47.0721 57.9914 46.4098 56.9617 45.9318C56.2695 45.6092 55.5374 45.3953 54.788 45.297C54.2565 45.2341 53.9487 45.2371 53.9487 45.2191C54.0203 45.2112 54.0925 45.2112 54.1641 45.2191C54.3715 45.2156 54.5788 45.2246 54.7852 45.2461C55.5489 45.3233 56.2971 45.5253 57.0037 45.845C58.0526 46.3137 59.0173 46.9744 59.8544 47.7973C60.8808 48.7982 61.7415 49.9777 62.4002 51.2859C63.0399 52.605 63.5355 53.9986 63.8774 55.4392C64.1599 56.61 64.3822 57.7966 64.5432 58.9936C64.6887 60.0147 64.781 60.8411 64.8397 61.4161L64.9069 62.0749C64.9173 62.1552 64.9211 62.2364 64.9181 62.3174Z" fill="#263238"/>
<path d="M66.0342 50.7859C66.0342 50.7859 65.9419 50.5853 65.7768 50.2229C65.5415 49.7167 65.2693 49.2311 64.9627 48.7706C63.957 47.2365 62.5676 46.0367 60.9541 45.309C59.3405 44.5813 57.568 44.3551 55.8398 44.6563C55.3169 44.7421 54.8013 44.8733 54.2983 45.0485C54.1155 45.1242 53.9287 45.1882 53.7388 45.2402C53.7808 45.2108 53.8259 45.1866 53.8731 45.1683C53.9654 45.1264 54.0969 45.0575 54.2759 44.9916C54.7752 44.791 55.2914 44.6426 55.8174 44.5484C57.5672 44.2112 59.3708 44.4247 61.0095 45.163C62.6482 45.9013 64.0516 47.1326 65.0494 48.7077C65.3532 49.1793 65.6146 49.6806 65.83 50.205C65.9111 50.3876 65.9558 50.5373 65.9922 50.6362C66.0125 50.6838 66.0266 50.7342 66.0342 50.7859Z" fill="#263238"/>
<path d="M71.5371 60.7633C71.5418 60.8131 71.5418 60.8632 71.5371 60.913C71.5371 61.0118 71.5371 61.1556 71.5204 61.3382C71.5008 61.7096 71.4616 62.2366 71.3861 62.9013C71.2243 64.6267 70.7832 66.3087 70.0824 67.8721C69.6742 68.7241 69.1447 69.503 68.5129 70.1808C67.9969 70.7352 67.4032 71.1999 66.7533 71.5583C66.3161 71.8004 65.8503 71.9777 65.3685 72.0853C65.2383 72.1164 65.1066 72.1394 64.974 72.1542C64.9286 72.1621 64.8823 72.1621 64.8369 72.1542C65.4867 72.0126 66.1154 71.7768 66.7057 71.4535C67.3379 71.0867 67.915 70.6203 68.4178 70.07C69.0332 69.3979 69.5509 68.6308 69.9537 67.7943C70.6453 66.2466 71.0978 64.5891 71.2937 62.8864C71.3805 62.2336 71.4336 61.6886 71.47 61.3352C71.4896 61.1646 71.5036 61.0358 71.5175 60.91C71.5173 60.8604 71.5239 60.8109 71.5371 60.7633Z" fill="#263238"/>
<path d="M84.0788 82.1705C84.0648 82.1705 84.0312 81.8891 83.9193 81.392C83.7535 80.6898 83.4974 80.0156 83.1584 79.3887C82.6532 78.4606 82.0075 77.6288 81.2476 76.9273C80.3183 76.0668 79.2649 75.3731 78.1283 74.8731C76.9847 74.3888 75.7953 74.0394 74.581 73.831C73.4619 73.6274 72.4408 73.5316 71.5847 73.4627C70.7287 73.3938 70.0321 73.3639 69.5509 73.3339L68.9914 73.301C68.9265 73.2992 68.8619 73.2912 68.7983 73.277C68.8634 73.2692 68.9291 73.2692 68.9942 73.277H69.5537C70.0349 73.277 70.7315 73.307 71.5903 73.3579C72.5994 73.4117 73.6052 73.5227 74.6033 73.6903C75.8295 73.8939 77.0306 74.2434 78.1843 74.7323C79.3363 75.2396 80.4017 75.9479 81.3371 76.8284C82.1029 77.5446 82.7491 78.3953 83.2479 79.3438C83.5827 79.9823 83.8269 80.6706 83.9725 81.386C84.0146 81.5833 84.0445 81.7834 84.062 81.9849C84.0736 82.046 84.0792 82.1082 84.0788 82.1705Z" fill="#263238"/>
<path d="M54.0747 45.4318C54.1016 45.2635 54.1428 45.0981 54.1978 44.9378C54.2929 44.5964 54.4188 44.1442 54.5727 43.5992C54.8888 42.4673 55.3112 40.9042 55.7337 39.1615C56.1561 37.4187 56.4974 35.8316 56.7324 34.6698C56.8471 34.1128 56.9394 33.6517 57.0122 33.3043C57.04 33.1358 57.0792 32.9697 57.1297 32.8073C57.1234 32.9786 57.1028 33.1489 57.0681 33.3163C57.0206 33.6427 56.9422 34.1128 56.8359 34.6908C56.6261 35.8526 56.3016 37.4457 55.8791 39.1824C55.4567 40.9192 55.0175 42.4913 54.6734 43.6142C54.5027 44.1742 54.3601 44.6263 54.2537 44.9378C54.2078 45.1078 54.1479 45.2731 54.0747 45.4318Z" fill="#263238"/>
<path d="M21.1806 71.6182C21.1707 71.5972 21.1632 71.5751 21.1582 71.5523C21.1582 71.5014 21.1274 71.4385 21.1078 71.3607C21.0687 71.187 20.9931 70.9385 20.9316 70.6091C20.7404 69.6809 20.6124 68.7392 20.5483 67.7913C20.3375 64.6466 20.8046 61.4922 21.9135 58.5714C23.04 55.6596 24.7774 53.0643 26.9912 50.9865C27.6571 50.3565 28.3669 49.7819 29.1145 49.2677C29.3747 49.079 29.5901 48.9682 29.73 48.8634L29.8951 48.7646C29.9314 48.7436 29.951 48.7317 29.9538 48.7346C29.9382 48.7522 29.9203 48.7673 29.9007 48.7796L29.7468 48.8904C29.6097 48.9922 29.3999 49.1209 29.1453 49.3186C27.3281 50.6437 25.7293 52.283 24.4146 54.1696C22.4827 56.9304 21.2397 60.1725 20.8029 63.5901C20.5019 65.9216 20.5643 68.2904 20.9875 70.6001C21.0407 70.9295 21.105 71.181 21.1358 71.3547C21.1358 71.4355 21.1638 71.4984 21.1722 71.5523C21.1784 71.5736 21.1812 71.5959 21.1806 71.6182Z" fill="#263238"/>
<path d="M30.0739 48.0727C29.9972 48.0994 29.9186 48.1194 29.8389 48.1326C29.6851 48.1685 29.4529 48.2074 29.1619 48.2823C28.331 48.4713 27.5117 48.7143 26.7084 49.01C25.5163 49.4416 24.3688 50.0035 23.2842 50.6868C21.9531 51.5131 20.742 52.5431 19.6893 53.7442C18.6488 54.9586 17.8062 56.3514 17.1966 57.8645C16.6956 59.103 16.3721 60.4154 16.237 61.7573C16.1404 62.6587 16.1404 63.5689 16.237 64.4703C16.2594 64.7907 16.3182 65.0362 16.335 65.2039C16.3523 65.2886 16.3626 65.3748 16.3657 65.4614C16.3398 65.3795 16.3201 65.2953 16.307 65.2099C16.279 65.0422 16.2119 64.7997 16.1783 64.4793C16.0571 63.5736 16.0392 62.6556 16.1251 61.7453C16.2469 60.3939 16.563 59.0707 17.0623 57.8226C17.6722 56.2881 18.5239 54.8772 19.5802 53.6513C20.6435 52.4383 21.8691 51.4009 23.217 50.5731C24.3133 49.8954 25.4732 49.3434 26.6777 48.9261C27.4865 48.6386 28.3128 48.4105 29.1507 48.2434C29.4305 48.1775 29.6767 48.1506 29.8333 48.1236C29.9117 48.0979 29.9923 48.0809 30.0739 48.0727Z" fill="#263238"/>
<path d="M22.4085 50.1899C22.2292 50.0883 22.0697 49.9511 21.9385 49.7857C21.6024 49.4034 21.3435 48.9512 21.1779 48.4571C21.0123 47.963 20.9436 47.4377 20.9761 46.914C20.9772 46.6964 21.0201 46.4813 21.102 46.2822C21.1244 46.2822 21.0824 46.5307 21.0796 46.92C21.071 47.941 21.4034 48.9318 22.0168 49.7138C22.1552 49.8649 22.2859 50.0239 22.4085 50.1899Z" fill="#263238"/>
<path d="M4.80908 76.2324C4.8425 76.1831 4.87995 76.137 4.92099 76.0947L5.26229 75.7234L5.51128 75.4569C5.6036 75.364 5.7127 75.2682 5.82461 75.1574C6.05401 74.9478 6.303 74.6963 6.61073 74.4627L7.08632 74.0824C7.25138 73.9507 7.43602 73.8339 7.62066 73.7021C7.98714 73.4296 8.40678 73.1901 8.84321 72.9265C9.80475 72.3884 10.8094 71.9434 11.845 71.597C12.8873 71.2702 13.9545 71.0427 15.0343 70.9173C15.5322 70.8784 16.005 70.8274 16.4527 70.8364C16.6737 70.8364 16.8891 70.8364 17.0961 70.8364L17.6864 70.8694C18.0669 70.8694 18.4026 70.9412 18.7019 70.9802C18.8502 71.0011 18.9817 71.0161 19.116 71.0371L19.4601 71.1119L19.9356 71.2197C19.9925 71.2273 20.0481 71.2434 20.1007 71.2676C20.0435 71.2658 19.9865 71.2598 19.9301 71.2497L19.4517 71.1718L19.1048 71.1119C18.9789 71.0939 18.839 71.082 18.6907 71.067C18.3942 71.0371 18.0585 70.9861 17.6808 70.9802L17.0933 70.9562C16.8891 70.9562 16.6737 70.9562 16.4527 70.9562C16.0106 70.9562 15.5434 71.0071 15.0539 71.052C13.9845 71.1824 12.9277 71.4119 11.8954 71.7378C10.8659 72.0855 9.86632 72.5273 8.90755 73.0583C8.47392 73.3158 8.06827 73.5494 7.6906 73.8159C7.50596 73.9447 7.31852 74.0585 7.15346 74.1872L6.66948 74.5585C6.35895 74.7831 6.10996 75.0287 5.87497 75.2293C5.76026 75.3311 5.64836 75.4209 5.55324 75.5287L5.29866 75.7833C5.15039 75.924 5.0189 76.0408 4.94057 76.1336C4.90033 76.1717 4.85622 76.2048 4.80908 76.2324Z" fill="#263238"/>
<path d="M26.3507 39.4041C26.3335 39.3455 26.3213 39.2853 26.3144 39.2244C26.2859 39.0539 26.2653 38.882 26.2528 38.7093C26.2013 38.0545 26.2192 37.3955 26.306 36.745C26.499 35.095 27.232 32.8851 28.4825 30.7351C29.0868 29.6511 29.6855 28.639 30.1443 27.6598C30.545 26.7945 30.9045 25.908 31.2213 25.0038C31.5011 24.2312 31.7193 23.6054 31.8844 23.1772C31.9655 22.9616 32.0326 22.7969 32.0774 22.6861C32.099 22.6279 32.1252 22.5718 32.1557 22.5184C32.1468 22.5805 32.1298 22.6409 32.1054 22.698C32.0634 22.8268 32.0075 22.9975 31.9375 23.1981L31.3164 25.0397C31.0131 25.9583 30.6619 26.8581 30.2645 27.7347C29.8085 28.7199 29.2099 29.741 28.6056 30.825C27.3635 32.963 26.6277 35.14 26.4095 36.7689C26.3144 37.4114 26.2806 38.0626 26.3088 38.7123C26.3255 39.1495 26.3675 39.4041 26.3507 39.4041Z" fill="#263238"/>
<path d="M51.6099 19.1525C51.6505 19.1501 51.6911 19.1552 51.7302 19.1675C51.8436 19.1901 51.9557 19.2201 52.0659 19.2573C52.4741 19.3965 52.8614 19.5982 53.2157 19.8562C54.1277 20.482 55.146 21.7127 55.9042 23.2758C56.5349 24.6219 56.9554 26.0694 57.1491 27.5609C57.2302 28.1298 57.2722 28.591 57.2974 28.9114C57.316 29.0773 57.3216 29.2445 57.3141 29.4114C57.2776 29.25 57.2523 29.0858 57.2386 28.9204C57.1994 28.6029 57.1407 28.1418 57.0484 27.5788C56.8266 26.1076 56.3974 24.681 55.7755 23.3477C55.0257 21.8026 54.0382 20.5838 53.1569 19.946C52.6817 19.5993 52.1601 19.3317 51.6099 19.1525Z" fill="#263238"/>
<path d="M53.7278 36.2896C53.72 36.231 53.72 36.1716 53.7278 36.113C53.7278 35.9962 53.7278 35.8135 53.7278 35.6039C53.7474 35.1667 53.7894 34.5319 53.8593 33.7474C53.9292 32.9628 54.0244 32.0345 54.1391 31.0015C54.2006 30.4864 54.2705 29.9484 54.3489 29.3874C54.4377 28.8168 54.4686 28.2375 54.4412 27.6597C54.3842 26.6448 54.1253 25.6547 53.6819 24.7557C53.2385 23.8566 52.6209 23.0692 51.8702 22.4463C51.4127 22.0706 50.8895 21.7967 50.3315 21.6408C49.9371 21.536 49.7077 21.524 49.7105 21.5061C49.7653 21.4994 49.8207 21.4994 49.8755 21.5061C50.0336 21.5175 50.1907 21.5416 50.3455 21.5779C50.9188 21.716 51.459 21.9801 51.9318 22.3535C52.7079 22.9757 53.3476 23.7718 53.8062 24.6863C54.2648 25.6008 54.5312 26.6115 54.5867 27.6477C54.6154 28.2357 54.5826 28.8252 54.4888 29.4054C54.4142 29.9664 54.3423 30.5044 54.2733 31.0194C54.1391 32.0465 54.0327 32.9748 53.9488 33.7563C53.8649 34.5379 53.8117 35.1697 53.7754 35.6069L53.7334 36.11C53.7376 36.1699 53.7357 36.2302 53.7278 36.2896Z" fill="#263238"/>
<path d="M31.5174 47.6237C31.5034 47.6045 31.4903 47.5846 31.4782 47.5638L31.3719 47.3842L30.9803 46.6775C30.6474 46.0636 30.1606 45.1803 29.6318 44.0274C28.9967 42.6964 28.5121 41.289 28.1883 39.8352C27.7849 38.0386 27.8109 36.1623 28.2638 34.3793C28.3958 33.9114 28.5653 33.4566 28.7702 33.0198C28.9709 32.6044 29.1981 32.2042 29.45 31.822C29.9396 31.0644 30.4739 30.3877 30.9551 29.7259C31.4232 29.1109 31.8407 28.4537 32.2028 27.7616C32.5178 27.1607 32.7407 26.5096 32.8631 25.8331C32.9259 25.2667 32.9586 24.6968 32.961 24.1263C32.9913 23.691 33.0857 23.2635 33.2407 22.8597C33.3301 22.5995 33.466 22.3605 33.6408 22.156C33.7011 22.0837 33.777 22.0282 33.8618 21.9943C33.7881 22.0463 33.7204 22.1076 33.6604 22.1769C33.5012 22.3871 33.3772 22.6252 33.2939 22.8806C33.1467 23.2809 33.058 23.7031 33.0309 24.1323C33.042 24.7001 33.0205 25.2681 32.9666 25.8331C32.8498 26.5236 32.6287 27.1892 32.3119 27.8035C31.9516 28.5062 31.5341 29.1736 31.0642 29.7978C30.583 30.4626 30.0515 31.1393 29.5703 31.8939C29.0597 32.6578 28.6702 33.5067 28.4177 34.4062C27.9705 36.1674 27.9417 38.0202 28.3338 39.7962C28.647 41.2469 29.1164 42.6537 29.7326 43.9885C30.2473 45.1353 30.7201 46.0337 31.039 46.6565C31.1929 46.956 31.3188 47.2015 31.4055 47.3752L31.5006 47.5668C31.5118 47.5998 31.5202 47.6207 31.5174 47.6237Z" fill="#263238"/>
<g opacity="0.3">
<path d="M29.151 49.079C26.4179 50.1689 24.0469 52.0994 22.336 54.6277C20.6366 57.1584 19.5408 60.0953 19.144 63.1828C19.0741 63.7009 19.1188 64.3806 19.586 64.5363C19.7387 64.5666 19.8965 64.5444 20.0367 64.4728C20.1769 64.4013 20.2924 64.2841 20.3665 64.138C20.5065 63.8422 20.5901 63.5195 20.6127 63.1888C21.0239 60.3246 22.0104 57.5899 23.5043 55.1731C24.9981 52.7564 26.9637 50.715 29.2657 49.1898" fill="black"/>
</g>
<path d="M54.788 21.6557C54.3863 21.7129 53.9976 21.8478 53.641 22.054C53.308 22.3016 53.0191 22.6109 52.7877 22.9673C52.7709 22.9673 52.8045 22.8116 52.9248 22.599C53.0851 22.3221 53.3047 22.0901 53.5655 21.9222C53.8241 21.7523 54.1163 21.6497 54.4187 21.6228C54.5423 21.5973 54.6701 21.6087 54.788 21.6557Z" fill="#FAFAFA"/>
<path d="M56.3995 35.4932C56.0262 35.2012 55.6303 34.9438 55.2162 34.7236C54.7814 34.5518 54.3341 34.4186 53.8789 34.3253C54.3584 34.2635 54.8443 34.3519 55.2777 34.5799C55.7266 34.7612 56.1164 35.0786 56.3995 35.4932Z" fill="#FAFAFA"/>
<path d="M66.146 33.8941C66.1321 33.8941 66.0901 33.7594 65.9642 33.5378C65.7837 33.2254 65.5469 32.9547 65.2676 32.7413C64.8542 32.4247 64.3849 32.2016 63.8884 32.0855C63.2748 31.9471 62.6533 31.8531 62.028 31.804C60.6935 31.6573 59.485 31.5046 58.6121 31.4087L57.5798 31.271C57.4521 31.2601 57.3256 31.236 57.2021 31.1991C57.3296 31.1853 57.458 31.1853 57.5854 31.1991L58.6233 31.289C59.499 31.3698 60.7075 31.4926 62.042 31.6393C62.674 31.6873 63.3016 31.7874 63.9192 31.9388C64.4308 32.0653 64.912 32.305 65.3319 32.6424C65.6137 32.8719 65.8457 33.1641 66.0118 33.4989C66.0572 33.5887 66.0946 33.683 66.1237 33.7803C66.1374 33.8165 66.145 33.8551 66.146 33.8941Z" fill="#FAFAFA"/>
<path d="M67.7154 48.6416C67.7154 48.6416 67.6343 48.432 67.4832 48.0427C67.2662 47.5138 66.996 47.0118 66.6775 46.5455C66.2075 45.8507 65.647 45.2316 65.0129 44.7069C64.2374 44.0664 63.3739 43.5583 62.4531 43.2007C60.7589 42.5776 58.9618 42.34 57.1769 42.503C56.4915 42.5569 55.9404 42.6348 55.5599 42.7006L55.1235 42.7725C55.0723 42.7864 55.0195 42.7924 54.9668 42.7905C55.0151 42.768 55.0659 42.7519 55.1179 42.7426C55.2158 42.7186 55.3613 42.6767 55.5515 42.6408C56.0859 42.5266 56.6257 42.4437 57.1685 42.3922C58.9706 42.1943 60.7914 42.4202 62.5035 43.054C63.4389 43.4229 64.3141 43.9473 65.0969 44.6081C65.7355 45.1457 66.2964 45.7814 66.7614 46.4946C67.0761 46.9749 67.3363 47.4936 67.5364 48.0397C67.591 48.1878 67.6386 48.3387 67.679 48.4919C67.6968 48.54 67.709 48.5903 67.7154 48.6416Z" fill="#FAFAFA"/>
<path d="M66.1155 71.9476C66.1032 71.8969 66.0985 71.8443 66.1015 71.7919C66.1015 71.6721 66.1015 71.5254 66.0876 71.3457C66.0736 71.1661 66.0736 70.9176 66.0596 70.6421C66.0456 70.3666 66.0288 70.0432 66.0036 69.7108C65.9085 68.3333 65.6791 66.4379 65.3546 64.3567C65.0301 62.2756 64.6916 60.3981 64.4594 59.0356C64.3419 58.3558 64.2523 57.8019 64.1936 57.4216C64.1656 57.2449 64.146 57.0982 64.1292 56.9814C64.1196 56.9301 64.1149 56.878 64.1153 56.8257C64.1363 56.873 64.1504 56.9235 64.1572 56.9754L64.2495 57.4096C64.3279 57.8109 64.4314 58.3529 64.5601 59.0146C64.8202 60.3711 65.1727 62.2456 65.5001 64.3328C65.7904 66.1107 65.9921 67.9039 66.1043 69.7048C66.1267 70.0522 66.1379 70.3636 66.1407 70.6391C66.1435 70.9146 66.1407 71.1511 66.1407 71.3457C66.1407 71.5404 66.1407 71.6721 66.1407 71.7919C66.1402 71.8449 66.1317 71.8975 66.1155 71.9476Z" fill="#FAFAFA"/>
<g opacity="0.3">
<path d="M64.8732 60.9819C64.9011 61.7874 65.1166 62.56 65.2313 63.3565C65.346 64.153 65.7908 65.0244 66.5321 65.1202C67.1588 65.2011 67.7463 64.6621 67.9589 64.0242C68.131 63.369 68.1368 62.6764 67.9757 62.018C67.4526 59.1403 66.1824 56.4902 64.8676 53.933C63.7094 51.6722 62.4784 49.3994 60.6992 47.6656C58.9199 45.9318 56.486 44.7849 54.1108 45.2101C54.1108 45.2101 57.6526 45.3269 59.8907 47.6806C62.1287 50.0342 64.8256 59.6464 64.8732 60.9819Z" fill="black"/>
</g>
<g opacity="0.3">
<path d="M54.4102 44.6981C56.3237 38.6433 58.0471 31.5226 56.8105 26.0996C58.9703 28.7437 59.4375 32.882 58.6262 36.158C57.8149 39.4339 55.8286 42.3654 54.1108 45.2102" fill="black"/>
</g>
<path d="M75.3338 78.5355C75.3086 78.5355 75.2946 78.1942 75.1855 77.6582C75.0397 76.9609 74.7893 76.2934 74.4442 75.6818C74.0964 75.0727 73.6579 74.5285 73.1461 74.0708C72.7516 73.7205 72.4719 73.5498 72.4859 73.5258C72.5594 73.5467 72.6292 73.5801 72.6929 73.6246C72.8737 73.7301 73.0468 73.8502 73.2104 73.984C74.3069 74.879 75.0481 76.1834 75.2862 77.6372C75.323 77.8536 75.3426 78.073 75.345 78.293C75.3531 78.374 75.3494 78.4558 75.3338 78.5355Z" fill="#FAFAFA"/>
<path d="M85.164 85.3327C85.1886 85.5178 85.1723 85.7065 85.1165 85.8837C85.0137 86.3218 84.8228 86.7306 84.5569 87.0815C84.2885 87.4305 83.9513 87.7117 83.5694 87.9049C83.4167 87.9942 83.2478 88.0473 83.0742 88.0606C83.2197 87.9667 83.3701 87.8817 83.5246 87.8061C83.8749 87.5926 84.1866 87.3137 84.445 86.9826C84.7006 86.6494 84.8968 86.2688 85.0241 85.8597C85.0615 85.6814 85.1082 85.5054 85.164 85.3327Z" fill="#FAFAFA"/>
<path d="M74.4719 60.6136C74.496 60.6593 74.5157 60.7074 74.5306 60.7574C74.5614 60.8562 74.6173 60.9969 74.6677 61.1856C74.8189 61.714 74.9238 62.2563 74.981 62.8056C75.1874 64.6346 74.9023 66.4887 74.159 68.1504C73.4157 69.812 72.2452 71.2124 70.7846 72.1872C70.3485 72.4844 69.8878 72.738 69.4082 72.9448C69.2404 73.0226 69.1033 73.0616 69.0138 73.0975C68.9685 73.1191 68.9204 73.1332 68.8711 73.1394C69.0386 73.0463 69.2104 72.9624 69.3858 72.8879C69.8521 72.6613 70.3011 72.396 70.7287 72.0943C72.3562 70.9389 73.6048 69.2669 74.2992 67.3131C74.9936 65.3593 75.099 63.2217 74.6006 61.2006C74.5482 61.0074 74.5052 60.8115 74.4719 60.6136Z" fill="#FAFAFA"/>
<g opacity="0.3">
<path d="M76.8332 73.1842C76.3931 72.8084 75.8796 72.5433 75.3309 72.4086C74.7304 72.2683 74.1419 72.075 73.5712 71.8307C73.2868 71.706 73.0304 71.5182 72.8187 71.2798C72.607 71.0413 72.4449 70.7576 72.3431 70.4473C72.2004 69.9053 72.3291 69.3303 72.413 68.7734C72.6864 66.976 72.5117 65.1332 71.9066 63.4313C71.8808 63.3221 71.8193 63.2265 71.7332 63.1618C71.6644 63.1309 71.5876 63.1275 71.5167 63.1522C71.4458 63.177 71.3856 63.2282 71.3471 63.2965C71.2715 63.4343 71.2274 63.5892 71.2184 63.7487C70.9583 65.734 70.3791 67.7193 69.2237 69.3004C68.0683 70.8815 66.4989 72.196 64.6245 72.1631L64.521 72.4895C65.4647 73.0647 66.532 73.3671 67.6179 73.3668C68.695 73.4088 69.7749 73.292 70.8519 73.292C73.1226 73.2927 75.3679 73.8027 77.4431 74.7892C77.4761 74.4883 77.4375 74.1834 77.3308 73.9028C77.2242 73.6222 77.053 73.375 76.8332 73.1842Z" fill="black"/>
</g>
<path d="M16.8611 77.9575C16.8331 77.9575 16.7884 77.5023 16.6009 76.7926C16.4883 76.3782 16.348 75.9729 16.1813 75.5799C15.9733 75.1016 15.7281 74.6428 15.4483 74.2084C15.1608 73.7825 14.8418 73.3819 14.4943 73.0106C14.2063 72.7093 13.8988 72.4301 13.5739 72.1752C13.0144 71.744 12.6255 71.5434 12.6395 71.5164C12.7372 71.546 12.8311 71.5883 12.9193 71.6422C13.0272 71.6937 13.1319 71.7527 13.2326 71.8189C13.3501 71.8967 13.49 71.9746 13.6327 72.0854C13.9715 72.331 14.2906 72.6065 14.5866 72.9088C15.3155 73.6531 15.8993 74.5447 16.3044 75.532C16.4689 75.9323 16.6009 76.3471 16.6988 76.7717C16.7401 76.9343 16.7728 77.0992 16.7967 77.2658C16.8204 77.3904 16.8372 77.5163 16.8471 77.6431C16.8617 77.7471 16.8664 77.8524 16.8611 77.9575Z" fill="#FAFAFA"/>
<path d="M24.1518 65.9287C23.9647 66.0018 23.7662 66.0353 23.5671 66.0275C22.595 66.0578 21.6463 65.7051 20.901 65.0364C20.7401 64.9105 20.6041 64.7517 20.501 64.5692C20.9927 65.0471 21.5695 65.4139 22.1969 65.6475C22.8242 65.8811 23.4891 65.9767 24.1518 65.9287Z" fill="#FAFAFA"/>
<path d="M21.7121 58.7272C21.6898 58.7272 21.5611 58.4876 21.2673 58.1582C21.0989 57.9653 20.9113 57.7925 20.7078 57.6432C20.4539 57.4639 20.1817 57.3162 19.8965 57.203C19.6093 57.0967 19.3118 57.0254 19.0097 56.9904C18.7633 56.9613 18.5147 56.9613 18.2683 56.9904C17.8459 57.0443 17.5941 57.1551 17.5857 57.1251C17.5773 57.0952 17.6416 57.0832 17.7535 57.0323C17.9139 56.9624 18.0809 56.9111 18.2515 56.8796C18.5053 56.831 18.7637 56.8159 19.0209 56.8347C19.3365 56.8628 19.6476 56.9333 19.9469 57.0443C20.2442 57.1607 20.5263 57.3177 20.7861 57.5114C20.993 57.6733 21.1809 57.8613 21.3457 58.0714C21.4543 58.2116 21.5481 58.3642 21.6254 58.5265C21.6954 58.6553 21.7233 58.7212 21.7121 58.7272Z" fill="#FAFAFA"/>
<path d="M16.1614 63.2217C15.6584 63.1665 15.151 63.1785 14.6507 63.2576C14.1624 63.3922 13.6923 63.5934 13.252 63.8565C13.3473 63.7312 13.4665 63.6292 13.6017 63.5571C13.9175 63.3498 14.2651 63.2038 14.6284 63.1259C14.9914 63.0469 15.3648 63.0388 15.7306 63.1019C15.8806 63.1082 16.0276 63.149 16.1614 63.2217Z" fill="#FAFAFA"/>
<path d="M21.7764 51.2199C21.6095 51.258 21.4369 51.258 21.27 51.2199C20.4467 51.1041 19.6885 50.6797 19.1299 50.0221C19.009 49.8955 18.9137 49.7436 18.8501 49.5759C19.6052 50.4881 20.6461 51.0729 21.7764 51.2199Z" fill="#FAFAFA"/>
<path d="M27.3547 50.196C27.3183 50.2169 27.1365 49.8786 26.7952 49.5971C26.4539 49.3156 26.1014 49.2108 26.1126 49.1659C26.3928 49.1833 26.6617 49.2906 26.8842 49.4738C27.1067 49.6569 27.2726 49.9075 27.3603 50.193L27.3547 50.196Z" fill="#FAFAFA"/>
<path d="M30.4995 48.0279C30.4559 48.0346 30.4117 48.0346 30.3681 48.0279C30.2813 48.0279 30.1526 48.01 29.9932 47.977C29.5337 47.8996 29.0821 47.7753 28.6447 47.6057C27.1829 47.0536 25.9053 46.0529 24.9715 44.7285C24.0376 43.4041 23.4889 41.8147 23.3937 40.1585C23.3597 39.6595 23.3709 39.1581 23.4272 38.6613C23.444 38.4846 23.472 38.3619 23.486 38.2601C23.4907 38.2126 23.502 38.1662 23.5196 38.1223C23.516 38.3045 23.5038 38.4864 23.4832 38.6673C23.4472 39.1576 23.4472 39.6502 23.4832 40.1406C23.6052 41.7666 24.1576 43.3217 25.0758 44.6237C25.9939 45.9257 27.2397 46.9206 28.6671 47.4919C29.097 47.6687 29.5395 47.8079 29.9904 47.9082C30.3205 47.992 30.5023 48.016 30.4995 48.0279Z" fill="#FAFAFA"/>
<path d="M28.0373 34.6008C28.0373 34.6158 27.9338 34.5739 27.8163 34.4511C27.6613 34.2856 27.5502 34.0789 27.4945 33.8522C27.4336 33.6303 27.4259 33.3955 27.4722 33.1695C27.5141 32.9988 27.5729 32.909 27.5869 32.915C27.5623 33.2153 27.5783 33.5178 27.6344 33.8133C27.7317 34.0956 27.8675 34.361 28.0373 34.6008Z" fill="#FAFAFA"/>
<path d="M32.441 26.8572C32.441 26.8722 32.3263 26.9411 32.1109 26.9501C31.8281 26.9484 31.5532 26.8494 31.327 26.6677C31.1008 26.486 30.9353 26.2312 30.8548 25.9409C30.8166 25.8226 30.8166 25.694 30.8548 25.5756C30.88 25.5756 30.8912 25.7104 30.9639 25.908C31.0622 26.16 31.2217 26.3792 31.4258 26.543C31.63 26.7068 31.8713 26.8091 32.1249 26.8393C32.3095 26.8602 32.4354 26.8303 32.441 26.8572Z" fill="#FAFAFA"/>
<path d="M4.00601 81.1556C3.85572 81.1284 3.71481 81.0592 3.59756 80.955C3.29317 80.7326 3.04361 80.4346 2.87019 80.0866C2.69418 79.7395 2.59826 79.3525 2.59043 78.9577C2.57725 78.7953 2.60125 78.6318 2.66037 78.4816C2.68401 78.637 2.69524 78.7943 2.69394 78.9517C2.72918 79.3227 2.83182 79.6828 2.99608 80.0117C3.1611 80.3411 3.38551 80.6322 3.65631 80.8681C3.87173 81.0478 4.0172 81.1316 4.00601 81.1556Z" fill="#FAFAFA"/>
<path d="M1.79605 89.0907C1.45728 89.1338 1.11422 89.067 0.811299 88.8991C0.488463 88.7789 0.20614 88.559 0 88.2672C0.0279759 88.2343 0.374877 88.5307 0.867252 88.7553C1.35963 88.9799 1.79885 89.0458 1.79605 89.0907Z" fill="#FAFAFA"/>
<path d="M45.0328 0C44.8077 0.699694 44.6401 1.4191 44.532 2.15001C44.4732 2.8883 44.4732 3.6306 44.532 4.3689C44.4544 4.1634 44.4072 3.94618 44.3921 3.72509C44.3296 3.19618 44.3296 2.66095 44.3921 2.13204C44.4529 1.60282 44.5751 1.08377 44.7558 0.586911C44.8176 0.376405 44.9112 0.178145 45.0328 0Z" fill="#263238"/>
<path d="M47.2568 1.73077C46.6745 2.05788 46.1251 2.44821 45.6174 2.89561C45.1429 3.3831 44.7181 3.92313 44.3501 4.50662C44.4033 4.30344 44.4894 4.11186 44.6047 3.94067C45.1114 3.07247 45.8394 2.3774 46.7029 1.93739C46.8761 1.8375 47.0631 1.76776 47.2568 1.73077Z" fill="#263238"/>
<path d="M34.2144 1.05696C34.0331 0.92536 33.8178 0.858297 33.5989 0.865316C33.3444 0.880845 33.1005 0.979034 32.8995 1.14679C32.7656 1.24986 32.6556 1.38446 32.578 1.54021C32.5004 1.69596 32.4573 1.8687 32.4519 2.04513C32.4525 2.48184 32.6109 2.90137 32.8939 3.21596C33.0493 3.39012 33.2332 3.53223 33.4366 3.63518C33.6565 3.73949 33.8909 3.80424 34.1304 3.82682C34.6511 3.8615 35.1718 3.75867 35.6467 3.52738C36.1589 3.27987 36.6471 2.97897 37.1043 2.62904C37.5675 2.26831 38.0547 1.94405 38.5618 1.65884C39.0435 1.39368 39.5733 1.2435 40.1145 1.21866C40.6003 1.20411 41.0855 1.26462 41.5552 1.39833C41.9662 1.50176 42.3664 1.64924 42.7498 1.83851C43.07 1.99842 43.3521 2.23388 43.5751 2.52723C43.7409 2.75121 43.8523 3.01558 43.8996 3.2968C43.9288 3.47479 43.9231 3.65732 43.8828 3.83281C43.8706 3.89274 43.8498 3.95031 43.8213 4.00349C43.8779 3.77675 43.8856 3.53917 43.8437 3.30878C43.7883 3.04134 43.6742 2.79188 43.5107 2.58113C43.2905 2.30552 43.0151 2.0865 42.705 1.94032C42.3268 1.7588 41.9321 1.61933 41.5273 1.52409C41.0704 1.39993 40.5996 1.3445 40.1285 1.3594C39.6063 1.3904 39.0962 1.5394 38.6317 1.79659C38.1311 2.07899 37.6505 2.40026 37.1938 2.75781C36.7288 3.11866 36.2311 3.42864 35.7083 3.68309C35.2113 3.92001 34.6676 4.02282 34.1248 3.98253C33.8714 3.95636 33.6237 3.88554 33.3919 3.77292C33.1742 3.66099 32.9786 3.50547 32.8156 3.31477C32.5132 2.97582 32.3483 2.52267 32.3568 2.05411C32.3644 1.84936 32.4191 1.64979 32.5162 1.47319C32.6037 1.31883 32.7199 1.18532 32.8575 1.08091C33.0749 0.908902 33.337 0.813658 33.6073 0.808421C33.7763 0.804273 33.943 0.850958 34.0885 0.94317C34.1254 0.967565 34.16 0.99564 34.192 1.02702C34.206 1.04498 34.2172 1.05397 34.2144 1.05696Z" fill="#263238"/>
<path d="M32.687 14.1549C32.687 14.1369 32.8633 14.1818 33.1766 14.1968C33.6186 14.2109 34.0598 14.1482 34.4831 14.0111C35.1102 13.7989 35.7014 13.4804 36.2344 13.0679C36.8796 12.5496 37.4875 11.9801 38.0528 11.364C38.6231 10.7407 39.2356 10.1632 39.8852 9.63623C40.4252 9.21238 41.0262 8.88568 41.6645 8.66902C42.0968 8.52485 42.5493 8.46204 43.0017 8.48337C43.1239 8.49181 43.2454 8.50881 43.3654 8.53428C43.408 8.53913 43.4495 8.55126 43.4885 8.57021C42.884 8.50416 42.2733 8.5735 41.6952 8.77383C41.0743 9.00259 40.4901 9.3329 39.9635 9.75302C39.3242 10.2821 38.7194 10.8573 38.1535 11.4748C37.5842 12.0983 36.9675 12.6702 36.3099 13.1846C35.7642 13.6024 35.1558 13.9173 34.511 14.1159C34.0759 14.2484 33.6219 14.2961 33.171 14.2567C33.0494 14.2453 32.9288 14.2243 32.8101 14.1938C32.7679 14.1855 32.7267 14.1724 32.687 14.1549Z" fill="#263238"/>
<path d="M49.6239 5.99163C49.4969 5.72453 49.3539 5.46647 49.1959 5.21906C48.7982 4.63421 48.2227 4.21592 47.5681 4.03612C46.9136 3.85633 46.2209 3.92626 45.6093 4.23389C45.3588 4.36855 45.1168 4.52059 44.8848 4.68904C44.8848 4.68904 44.9323 4.61418 45.0414 4.50638C45.2013 4.35979 45.3769 4.23413 45.5646 4.13207C46.195 3.78692 46.9221 3.70207 47.6072 3.89369C48.2923 4.0853 48.8877 4.54 49.2798 5.17115C49.3964 5.35728 49.4904 5.55852 49.5595 5.77004C49.5938 5.83893 49.6156 5.9141 49.6239 5.99163Z" fill="#263238"/>
<path d="M66.8627 34.7806C66.8377 34.6466 66.8274 34.5099 66.8319 34.3733C66.8319 34.0739 66.8123 33.7116 66.8011 33.2684C66.7899 32.8252 66.7815 32.2353 66.7731 31.6274C66.7778 31.3076 66.7562 30.988 66.7088 30.6722C66.6887 30.5088 66.6374 30.3516 66.5579 30.2104C66.4785 30.0692 66.3727 29.9471 66.2472 29.8517C66.1044 29.755 65.9721 29.6415 65.8527 29.5133C65.7334 29.3697 65.672 29.1813 65.6821 28.9893C65.6821 28.8096 65.7184 28.6479 65.7128 28.4982C65.7129 28.4288 65.6998 28.3601 65.6743 28.2963C65.6489 28.2324 65.6115 28.1748 65.5646 28.1269C65.337 27.9725 65.0996 27.8354 64.854 27.7167C64.6549 27.556 64.4986 27.3423 64.4008 27.0968C64.3237 26.9087 64.2219 26.7332 64.0986 26.5758C64.0001 26.4642 63.877 26.3808 63.7405 26.3332C63.6223 26.298 63.4961 26.3097 63.3853 26.3662C63.4334 26.3167 63.493 26.2819 63.558 26.2656C63.623 26.2493 63.6909 26.252 63.7545 26.2734C63.9053 26.314 64.0433 26.3967 64.1546 26.5129C64.2929 26.6698 64.4063 26.8498 64.4903 27.0459C64.5864 27.2692 64.7348 27.4621 64.9211 27.6059C65.1752 27.7227 65.4203 27.8609 65.6541 28.0191C65.7154 28.0795 65.7646 28.1525 65.7987 28.2339C65.8329 28.3152 65.8512 28.4031 65.8527 28.4922C65.8527 28.6659 65.8275 28.8306 65.8248 28.9893C65.8199 29.0657 65.8293 29.1424 65.8523 29.2148C65.8754 29.2873 65.9116 29.3542 65.959 29.4115C66.0742 29.5291 66.1997 29.6344 66.3339 29.7259C66.4792 29.8333 66.5997 29.9746 66.6864 30.1392C66.7652 30.2976 66.82 30.4684 66.8487 30.6452C66.8965 30.968 66.9162 31.2948 66.9074 31.6214C66.9074 32.2203 66.9074 32.7893 66.9074 33.2684C66.9074 33.7475 66.9074 34.0829 66.8934 34.3763C66.8937 34.5118 66.8834 34.647 66.8627 34.7806Z" fill="#263238"/>
<path d="M67.8917 36.1909C67.8267 36.1042 67.7833 36.0011 67.7658 35.8915C67.6994 35.5963 67.6994 35.2884 67.7658 34.9931C67.8329 34.6218 68.0008 34.2056 68.1211 33.7415C68.2414 33.2773 68.3057 32.7084 67.9896 32.2682C67.9141 32.1574 67.8273 32.0466 67.7574 31.9238C67.6848 31.7972 67.639 31.6552 67.6231 31.5076C67.6208 31.2446 67.6414 30.982 67.6846 30.7231C67.7164 30.2993 67.6118 29.8766 67.3881 29.5253C67.2375 29.2845 67.0411 29.0804 66.8118 28.9264C66.7214 28.8801 66.6335 28.8281 66.5488 28.7707C66.6474 28.7865 66.7423 28.8221 66.8286 28.8755C67.0808 29.0117 67.2987 29.2109 67.4636 29.4564C67.7161 29.8234 67.839 30.2743 67.8105 30.7291C67.7722 30.9784 67.7544 31.2309 67.7574 31.4837C67.8067 31.7437 67.9252 31.9829 68.0987 32.1724C68.2617 32.4093 68.3499 32.6956 68.3505 32.9899C68.3521 33.2556 68.3163 33.5201 68.2442 33.7744C68.1099 34.2535 67.9336 34.6548 67.8581 35.0141C67.7823 35.291 67.7632 35.5821 67.8021 35.8675C67.8553 36.0801 67.9057 36.1849 67.8917 36.1909Z" fill="#263238"/>
<path d="M17.7729 43.4314C17.7729 43.4314 17.7729 43.3925 17.7729 43.3116C17.7778 43.1973 17.7881 43.0834 17.8037 42.9702C17.8626 42.5521 17.9649 42.1424 18.1087 41.7485C18.2849 41.2454 18.5283 40.6735 18.8192 40.0357C18.9709 39.6961 19.1763 39.3871 19.4263 39.1224C19.6893 38.8559 20.0138 38.6373 20.1229 38.275C20.232 37.9126 20.1845 37.4874 20.3327 37.1131C20.4762 36.7736 20.6515 36.4505 20.8559 36.1489C21.2168 35.568 21.5441 35.0439 21.8211 34.5918L22.4841 33.5527C22.5609 33.4221 22.6469 33.2979 22.7415 33.1814C22.6826 33.3224 22.6124 33.4577 22.5316 33.5856L21.9078 34.6547L20.9706 36.2268C20.7735 36.5212 20.6048 36.8362 20.467 37.167C20.3299 37.5054 20.3831 37.9066 20.2628 38.3229C20.1425 38.7391 19.7676 38.9816 19.5242 39.2212C19.2841 39.4736 19.0863 39.7683 18.9395 40.0926C18.6458 40.7154 18.38 41.2904 18.2038 41.7755C18.0551 42.1626 17.9399 42.5636 17.8597 42.9732C17.7981 43.2697 17.7841 43.4344 17.7729 43.4314Z" fill="#263238"/>
<path d="M11.4255 67.456C11.4851 67.4554 11.5438 67.4403 11.5971 67.4117C11.6505 67.3832 11.697 67.342 11.7332 67.2913C11.8162 67.1734 11.8587 67.0285 11.8535 66.881C11.8279 66.6836 11.7546 66.4968 11.6409 66.339C11.4951 66.139 11.3677 65.9244 11.2604 65.6982C11.1454 65.429 11.0762 65.14 11.0562 64.8448C11.0337 64.5169 11.0708 64.1875 11.1653 63.8746C11.273 63.5456 11.4371 63.2409 11.6493 62.9763C11.7481 62.8464 11.8326 62.7047 11.901 62.5541C11.9616 62.4088 11.994 62.2519 11.9962 62.0929C11.9864 61.7812 11.948 61.4713 11.8815 61.1676C11.8274 60.8777 11.8188 60.5802 11.8563 60.2873C11.8925 60.0333 11.9651 59.7868 12.0717 59.5566C12.2219 59.2229 12.4433 58.9316 12.7179 58.7062C12.79 58.6432 12.8678 58.588 12.9501 58.5415C13.0089 58.5116 13.0397 58.4966 13.0425 58.5026C13.0453 58.5086 12.9306 58.5864 12.7627 58.7511C12.5112 58.9871 12.3099 59.2782 12.1724 59.6045C11.966 60.085 11.9129 60.6248 12.0213 61.1407C12.0939 61.4546 12.1361 61.7757 12.1472 62.0989C12.1458 62.2773 12.1106 62.4535 12.0437 62.6169C11.9659 62.778 11.8722 62.9296 11.764 63.0691C11.5599 63.3205 11.4023 63.6111 11.2996 63.9255C11.2099 64.2148 11.1719 64.5195 11.1877 64.8239C11.2029 65.1025 11.2635 65.3761 11.3667 65.6324C11.4677 65.8552 11.5876 66.0677 11.7248 66.2672C11.8439 66.4426 11.9156 66.6499 11.9318 66.8661C11.933 67.0328 11.8762 67.194 11.7724 67.3182C11.709 67.3993 11.6187 67.4508 11.5206 67.462C11.4889 67.4692 11.4561 67.4671 11.4255 67.456Z" fill="#263238"/>
<path d="M77.1688 58.7721C77.1521 58.7721 77.1856 58.6104 77.1521 58.3229C77.098 57.9199 76.9245 57.5462 76.6569 57.2569C76.4741 57.0598 76.2495 56.9129 76.0022 56.8287C75.8578 56.779 75.7167 56.7189 75.5798 56.649C75.4256 56.5691 75.2971 56.4419 75.2105 56.2837C75.0427 55.9333 75.1238 55.5381 75.1238 55.1787C75.1339 54.9992 75.1042 54.8196 75.0371 54.6547C74.9568 54.4941 74.8288 54.3666 74.6734 54.2924C74.0187 53.969 73.2522 54.2924 72.6116 53.975C72.4565 53.8991 72.3225 53.7815 72.2227 53.6336C72.135 53.4937 72.0759 53.3355 72.0493 53.1695C72.0107 52.884 71.9957 52.5954 72.0045 52.3071C72.0085 52.0775 71.9695 51.8495 71.8898 51.6363C71.822 51.4788 71.7119 51.3464 71.5737 51.256C71.4541 51.1827 71.3165 51.1503 71.1792 51.1632C71.2473 51.1328 71.3213 51.1205 71.3949 51.1273C71.4684 51.1341 71.5393 51.1597 71.6016 51.2021C71.7563 51.2897 71.8815 51.4269 71.9597 51.5944C72.0523 51.8159 72.1009 52.0555 72.1024 52.2981C72.103 52.5798 72.1236 52.8611 72.1639 53.1395C72.1861 53.2918 72.2435 53.4357 72.331 53.5581C72.4185 53.6805 72.5332 53.7775 72.6647 53.8402C72.9748 53.9581 73.3046 54.005 73.6327 53.978C74.0075 53.9427 74.3848 54.0011 74.7349 54.1487C74.9184 54.2375 75.069 54.3892 75.163 54.5799C75.2423 54.7675 75.2769 54.9733 75.2637 55.1787C75.2637 55.562 75.1881 55.9303 75.328 56.2148C75.4679 56.4993 75.7756 56.5981 76.0414 56.7089C76.3028 56.8041 76.5388 56.9654 76.7296 57.179C77.0029 57.4905 77.1704 57.8913 77.2052 58.3169C77.2135 58.4309 77.2088 58.5455 77.1912 58.6583C77.1899 58.6973 77.1823 58.7358 77.1688 58.7721Z" fill="#263238"/>
<path d="M53.3361 66.336C51.098 63.4434 49.6992 59.7782 47.2541 55.023C47.2541 55.023 42.6297 76.5261 48.527 77.0322C51.2631 77.2687 52.8661 75.4182 51.9877 70.2408C51.403 66.7912 53.3361 66.336 53.3361 66.336Z" fill="#A4C0E9"/>
<path d="M49.8697 60.1104C49.8777 60.164 49.8777 60.2186 49.8697 60.2721C49.8529 60.3949 49.8333 60.5476 49.8109 60.7333L49.5871 62.4221C49.4081 63.8475 49.1843 65.8238 49.0276 68.0157C48.8709 70.2077 48.801 72.208 49.0612 73.6154C49.1513 74.1735 49.3054 74.7176 49.52 75.2354C49.671 75.6007 49.7997 75.7893 49.7745 75.7983C49.7388 75.7582 49.7087 75.7129 49.685 75.6636C49.6044 75.5344 49.5324 75.3993 49.4696 75.2593C49.2307 74.7461 49.0593 74.1999 48.9605 73.6363C48.6807 72.211 48.7367 70.1957 48.8821 68.0038C49.0276 65.8118 49.2766 63.8295 49.4808 62.4042C49.5815 61.6915 49.6794 61.1195 49.7606 60.7213C49.7941 60.5386 49.8221 60.3889 49.8473 60.2661C49.8495 60.2135 49.857 60.1613 49.8697 60.1104Z" fill="#263238"/>
<path d="M49.0671 73.9329C48.6197 74.2006 48.1245 74.3641 47.6139 74.4126C47.1034 74.4611 46.589 74.3935 46.1045 74.2143C46.602 74.2634 47.102 74.2774 47.6012 74.2563C48.0961 74.184 48.5859 74.076 49.0671 73.9329Z" fill="#FAFAFA"/>
<path d="M52.077 67.2134C52.0603 67.2553 51.4084 66.9649 50.5635 66.7792C49.7187 66.5935 49.0137 66.5786 49.0137 66.5337C49.5412 66.4544 50.0781 66.4859 50.5943 66.6265C51.1197 66.7162 51.6235 66.9156 52.077 67.2134Z" fill="#FAFAFA"/>
<path d="M49.5815 60.0566C49.1666 59.7153 48.7269 59.4099 48.2666 59.1433C47.7848 58.9229 47.2871 58.7446 46.7783 58.6103C47.3147 58.62 47.8427 58.7543 48.3258 59.0041C48.8088 59.2538 49.2354 59.6129 49.5759 60.0566H49.5815Z" fill="#FAFAFA"/>
<g opacity="0.3">
<path d="M49.8391 60.2932C49.8391 60.2932 47.5143 75.7984 50.3986 76.1877C50.3986 76.1877 51.2659 76.4871 51.7526 74.7384C52.2394 72.9896 51.6156 70.9204 51.4729 69.7586C51.4158 69.2682 51.4515 68.7704 51.5779 68.2951C51.7044 67.8197 51.9188 67.3765 52.2086 66.9917C52.4879 66.6008 52.8944 66.3368 53.3473 66.2521C53.2885 66.3569 49.8699 60.356 49.8391 60.2932Z" fill="black"/>
</g>
<path d="M36.545 20.3264C36.545 20.539 36.0582 20.7336 35.4399 20.6797C34.8216 20.6258 34.3656 20.3533 34.3992 20.1437C34.4328 19.9341 34.9251 19.8442 35.4959 19.9041C36.0666 19.964 36.5394 20.1108 36.545 20.3264Z" fill="#EB996E"/>
<path d="M45.5111 18.9789C45.6006 19.1646 44.8117 19.7844 43.6815 20.1767C42.5512 20.569 41.5721 20.548 41.5441 20.3384C41.5161 20.1288 42.3834 19.7994 43.4605 19.4401C44.5375 19.0807 45.4188 18.7813 45.5111 18.9789Z" fill="#EB996E"/>
</svg>
