<svg width="51" height="103" viewBox="0 0 51 103" fill="none" xmlns="http://www.w3.org/2000/svg">
<path d="M42.5552 102.871L7.60887 102.852C5.59038 102.851 3.65505 102.048 2.22827 100.62C0.801478 99.1921 -4.96663e-07 97.2562 0 95.2378L0.018697 7.61154C0.0186967 6.61153 0.215747 5.62132 0.598597 4.6975C0.981447 3.77368 1.54259 2.93435 2.24995 2.22748C2.95732 1.52061 3.79703 0.960063 4.72113 0.577862C5.64522 0.19566 6.63557 -0.000699888 7.63558 1.87436e-06L42.5819 0.0320502C44.6004 0.0334662 46.5357 0.836301 47.9625 2.26409C49.3893 3.69188 50.1908 5.62777 50.1908 7.64626L50.1748 95.2618C50.1741 96.2617 49.9764 97.2517 49.5931 98.1752C49.2098 99.0987 48.6484 99.9377 47.9408 100.644C47.2333 101.351 46.3935 101.911 45.4695 102.293C44.5454 102.675 43.5551 102.871 42.5552 102.871Z" fill="#263238"/>
<path d="M42.5445 3.13005H35.7689C35.3229 3.14056 34.8992 3.32752 34.5908 3.64994C34.2824 3.97236 34.1144 4.40392 34.1238 4.84999V6.07852C34.1287 6.29949 34.0901 6.51928 34.0101 6.72532C33.9301 6.93136 33.8103 7.11962 33.6575 7.27934C33.5047 7.43906 33.322 7.56712 33.1197 7.65619C32.9174 7.74526 32.6996 7.79361 32.4786 7.79847H19.2719C19.0509 7.79361 18.8331 7.74526 18.6308 7.65619C18.4285 7.56712 18.2458 7.43906 18.093 7.27934C17.9402 7.11962 17.8204 6.93136 17.7404 6.72532C17.6604 6.51928 17.6218 6.29949 17.6267 6.07852V4.83397C17.6361 4.3879 17.4681 3.95634 17.1597 3.63392C16.8513 3.3115 16.4276 3.12454 15.9816 3.11403H13.5966H7.66764C6.251 3.11403 4.89239 3.67679 3.89068 4.6785C2.88897 5.68021 2.3262 7.03883 2.3262 8.45546L2.31018 93.9745C2.31018 95.3888 2.8711 96.7454 3.86993 97.7467C4.86875 98.7481 6.22394 99.3124 7.63826 99.3159L42.5178 99.3346C43.9345 99.3346 45.2931 98.7719 46.2948 97.7701C47.2965 96.7684 47.8593 95.4098 47.8593 93.9932L47.878 8.47416C47.8787 7.05845 47.3173 5.70036 46.3173 4.6983C45.3172 3.69624 43.9602 3.13218 42.5445 3.13005Z" fill="white"/>
<path d="M47.8752 8.46348C47.8752 7.04684 47.3125 5.68822 46.3107 4.68651C45.309 3.6848 43.9504 3.12204 42.5338 3.12204H35.7582C35.3121 3.13255 34.8885 3.31951 34.5801 3.64193C34.2717 3.96435 34.1037 4.39591 34.113 4.84198V6.07051C34.118 6.29148 34.0794 6.51127 33.9994 6.71731C33.9194 6.92335 33.7995 7.11161 33.6468 7.27133C33.494 7.43105 33.3112 7.5591 33.109 7.64818C32.9067 7.73725 32.6888 7.7856 32.4679 7.79045H19.2612C19.0402 7.7856 18.8223 7.73725 18.6201 7.64818C18.4178 7.5591 18.235 7.43105 18.0822 7.27133C17.9295 7.11161 17.8097 6.92335 17.7297 6.71731C17.6497 6.51127 17.611 6.29148 17.616 6.07051V4.83397C17.6253 4.3879 17.4574 3.95634 17.149 3.63392C16.8406 3.3115 16.4169 3.12454 15.9708 3.11403H13.5859H7.6569C6.24026 3.11403 4.88164 3.67679 3.87993 4.6785C2.87821 5.68021 2.31546 7.03883 2.31546 8.45546L2.29944 16.6332H47.8725L47.8752 8.46348Z" fill="#F5F5F5"/>
<path d="M44.1682 11.4681C44.1682 11.4921 43.351 11.5215 42.3441 11.5295C41.7359 11.5504 41.1271 11.5397 40.52 11.4975C41.7348 11.4254 42.9524 11.4155 44.1682 11.4681Z" fill="#263238"/>
<path d="M44.1843 12.4002C43.5787 12.4524 42.9707 12.4729 42.3629 12.4616C41.7547 12.4825 41.1459 12.4718 40.5388 12.4295C40.5388 12.4055 41.3534 12.3788 42.3629 12.3681C43.3724 12.3574 44.1843 12.3761 44.1843 12.4002Z" fill="#263238"/>
<path d="M44.1843 13.3349C44.1843 13.3589 43.3698 13.3856 42.3629 13.3936C41.7548 13.4146 41.146 13.4048 40.5388 13.3643C41.7527 13.2922 42.9695 13.2824 44.1843 13.3349Z" fill="#263238"/>
<path d="M12.4321 76.046L12.6164 75.6587C12.9409 75.9219 13.3471 76.0635 13.7648 76.0593C14.3631 76.0593 14.6221 75.827 14.6221 75.5252C14.6221 74.6786 12.5176 75.2127 12.5176 73.9228C12.5176 73.3886 12.9342 72.9293 13.853 72.9293C14.2473 72.9217 14.6353 73.0294 14.9693 73.2391L14.8064 73.6317C14.5214 73.4499 14.191 73.3518 13.853 73.3486C13.2627 73.3486 13.009 73.5969 13.009 73.9014C13.009 74.7507 15.1135 74.2192 15.1135 75.5038C15.1135 76.038 14.6862 76.492 13.7782 76.492C13.2911 76.5058 12.8146 76.3479 12.4321 76.046Z" fill="#263238"/>
<path d="M15.5194 75.1273C15.5166 74.9463 15.551 74.7667 15.6207 74.5997C15.6903 74.4327 15.7937 74.2818 15.9242 74.1565C16.0548 74.0311 16.2098 73.9341 16.3796 73.8714C16.5493 73.8087 16.7302 73.7816 16.9109 73.7919C17.1231 73.7795 17.3347 73.8252 17.5229 73.924C17.7111 74.0228 17.8688 74.171 17.9791 74.3528L17.6186 74.5851C17.5415 74.4664 17.4351 74.3694 17.3098 74.3035C17.1845 74.2375 17.0444 74.2049 16.9028 74.2085C16.666 74.2213 16.4431 74.3243 16.2799 74.4965C16.1168 74.6686 16.0258 74.8968 16.0258 75.1339C16.0258 75.3711 16.1168 75.5993 16.2799 75.7714C16.4431 75.9436 16.666 76.0466 16.9028 76.0593C17.0445 76.0638 17.1849 76.0315 17.3104 75.9655C17.4358 75.8995 17.542 75.8021 17.6186 75.6828L17.9791 75.9124C17.8685 76.0941 17.7108 76.2424 17.5227 76.3416C17.3346 76.4408 17.1232 76.4872 16.9109 76.476C16.7291 76.486 16.5473 76.4583 16.3768 76.3946C16.2063 76.3309 16.0508 76.2326 15.9201 76.106C15.7894 75.9793 15.6864 75.827 15.6174 75.6585C15.5484 75.4901 15.5151 75.3092 15.5194 75.1273Z" fill="#263238"/>
<path d="M20.6819 74.8549V76.4413H20.2305V76.0941C20.1302 76.2246 19.9985 76.3275 19.8477 76.3934C19.6968 76.4592 19.5318 76.4858 19.3679 76.4706C18.7723 76.4706 18.3931 76.1528 18.3931 75.6961C18.3931 75.2394 18.6601 74.927 19.4614 74.927H20.2172V74.8335C20.2172 74.4329 19.9821 74.1979 19.5121 74.1979C19.2103 74.1954 18.9166 74.2952 18.6788 74.481L18.4785 74.1231C18.7937 73.8938 19.1759 73.7755 19.5655 73.7866C20.2759 73.7866 20.6819 74.1338 20.6819 74.8549ZM20.2065 75.6374V75.2715H19.472C18.9993 75.2715 18.8658 75.4531 18.8658 75.6774C18.8658 75.9018 19.0848 76.1048 19.4453 76.1048C19.6052 76.1166 19.7647 76.0778 19.9013 75.9939C20.038 75.91 20.1447 75.7853 20.2065 75.6374Z" fill="#263238"/>
<path d="M24.063 74.927V76.4413H23.585V74.9831C23.585 74.4676 23.3179 74.2139 22.8772 74.2139C22.762 74.2052 22.6462 74.2221 22.5383 74.2635C22.4303 74.3048 22.3329 74.3696 22.253 74.4531C22.1731 74.5366 22.1126 74.6368 22.076 74.7464C22.0394 74.856 22.0276 74.9724 22.0413 75.0872V76.4413H21.5659V73.8106H22.0173V74.2085C22.1301 74.0676 22.275 73.9557 22.44 73.8822C22.605 73.8088 22.7851 73.776 22.9654 73.7866C23.6197 73.7866 24.063 74.1551 24.063 74.927Z" fill="#263238"/>
<path d="M27.4415 74.927V76.4413H26.9661V74.9831C26.9661 74.4676 26.6991 74.2139 26.2557 74.2139C26.1406 74.2051 26.0249 74.222 25.917 74.2634C25.8092 74.3048 25.7119 74.3696 25.6322 74.4531C25.5524 74.5367 25.4923 74.6369 25.456 74.7466C25.4197 74.8562 25.4083 74.9726 25.4225 75.0872V76.4413H24.9551V73.8106H25.4118V74.2085C25.5243 74.0672 25.6692 73.9551 25.8342 73.8816C25.9993 73.8082 26.1796 73.7756 26.3599 73.7866C26.9902 73.7866 27.4415 74.1551 27.4415 74.927Z" fill="#263238"/>
<path d="M28.2427 72.9961C28.24 72.9315 28.2568 72.8677 28.2907 72.8127C28.3247 72.7578 28.3744 72.7143 28.4333 72.6879C28.4922 72.6614 28.5577 72.6532 28.6213 72.6644C28.6849 72.6755 28.7438 72.7055 28.7902 72.7504C28.8366 72.7952 28.8685 72.853 28.8818 72.9162C28.8951 72.9794 28.8892 73.0452 28.8647 73.1049C28.8403 73.1647 28.7985 73.2158 28.7448 73.2516C28.691 73.2874 28.6278 73.3063 28.5632 73.3059C28.5217 73.3069 28.4804 73.2997 28.4418 73.2847C28.4031 73.2696 28.3678 73.247 28.338 73.2181C28.3082 73.1893 28.2844 73.1548 28.268 73.1167C28.2517 73.0786 28.243 73.0375 28.2427 72.9961ZM28.3255 73.8106H28.8036V76.4413H28.3255V73.8106Z" fill="#263238"/>
<path d="M32.2087 74.927V76.4413H31.7306V74.9831C31.7306 74.4676 31.4635 74.2139 31.0202 74.2139C30.905 74.2051 30.7894 74.222 30.6815 74.2634C30.5737 74.3048 30.4764 74.3696 30.3967 74.4531C30.3169 74.5367 30.2568 74.6369 30.2205 74.7466C30.1842 74.8562 30.1728 74.9726 30.1869 75.0872V76.4413H29.7115V73.8106H30.1682V74.2085C30.281 74.0676 30.426 73.9557 30.591 73.8822C30.7559 73.8088 30.9361 73.776 31.1163 73.7866C31.7546 73.7866 32.2087 74.1551 32.2087 74.927Z" fill="#263238"/>
<path d="M35.622 73.8106V76.086C35.622 77.0128 35.1519 77.4348 34.2572 77.4348C33.8059 77.4537 33.3621 77.3149 33.002 77.0422L33.229 76.6763C33.5174 76.9027 33.8746 77.0233 34.2412 77.0181C34.8635 77.0181 35.1466 76.7297 35.1466 76.1341V75.9258C35.0283 76.0593 34.882 76.1649 34.7181 76.2351C34.5541 76.3053 34.3767 76.3383 34.1985 76.3317C34.0264 76.3396 33.8546 76.3126 33.6933 76.2522C33.5321 76.1918 33.3847 76.0993 33.2602 75.9803C33.1357 75.8614 33.0366 75.7184 32.9688 75.5601C32.9011 75.4018 32.8662 75.2314 32.8662 75.0592C32.8662 74.8869 32.9011 74.7165 32.9688 74.5582C33.0366 74.3999 33.1357 74.2569 33.2602 74.138C33.3847 74.019 33.5321 73.9265 33.6933 73.8661C33.8546 73.8057 34.0264 73.7787 34.1985 73.7866C34.3828 73.7792 34.5664 73.8144 34.735 73.8894C34.9036 73.9645 35.0527 74.0773 35.1706 74.2192V73.8106H35.622ZM35.1546 75.0578C35.1647 74.8762 35.1201 74.6957 35.0265 74.5397C34.9328 74.3837 34.7945 74.2595 34.6294 74.183C34.4643 74.1066 34.2801 74.0815 34.1006 74.1111C33.9211 74.1406 33.7546 74.2234 33.6226 74.3487C33.4907 74.4739 33.3995 74.6359 33.3607 74.8137C33.322 74.9914 33.3375 75.1767 33.4053 75.3455C33.4732 75.5144 33.5901 75.6589 33.741 75.7605C33.892 75.862 34.07 75.9159 34.2519 75.9151C34.3689 75.9241 34.4864 75.9085 34.597 75.8692C34.7076 75.8299 34.8087 75.7679 34.8937 75.6871C34.9788 75.6063 35.046 75.5085 35.0909 75.4001C35.1359 75.2917 35.1575 75.1751 35.1546 75.0578Z" fill="#263238"/>
<path d="M36.3055 76.1288C36.3047 76.0842 36.313 76.0399 36.3298 75.9985C36.3467 75.9572 36.3717 75.9197 36.4033 75.8882C36.435 75.8568 36.4727 75.8321 36.5142 75.8156C36.5557 75.7991 36.6 75.7912 36.6446 75.7923C36.7346 75.7923 36.8209 75.828 36.8845 75.8916C36.9481 75.9552 36.9838 76.0415 36.9838 76.1315C36.9838 76.2214 36.9481 76.3077 36.8845 76.3713C36.8209 76.4349 36.7346 76.4706 36.6446 76.4706C36.5998 76.471 36.5553 76.4624 36.5138 76.4453C36.4723 76.4282 36.4347 76.403 36.403 76.3711C36.3714 76.3393 36.3465 76.3014 36.3298 76.2598C36.313 76.2182 36.3048 76.1736 36.3055 76.1288Z" fill="#263238"/>
<path d="M37.4327 76.1288C37.4319 76.0842 37.4402 76.0399 37.457 75.9985C37.4739 75.9572 37.4989 75.9197 37.5305 75.8882C37.5622 75.8568 37.5999 75.8321 37.6414 75.8156C37.6829 75.7991 37.7272 75.7912 37.7718 75.7923C37.8618 75.7923 37.9481 75.828 38.0117 75.8916C38.0753 75.9552 38.111 76.0415 38.111 76.1315C38.111 76.2214 38.0753 76.3077 38.0117 76.3713C37.9481 76.4349 37.8618 76.4706 37.7718 76.4706C37.727 76.471 37.6825 76.4624 37.641 76.4453C37.5995 76.4282 37.5618 76.403 37.5302 76.3711C37.4986 76.3393 37.4737 76.3014 37.457 76.2598C37.4402 76.2182 37.4319 76.1736 37.4327 76.1288Z" fill="#263238"/>
<path d="M38.5597 76.1288C38.559 76.0842 38.5673 76.0399 38.5841 75.9985C38.6009 75.9572 38.6259 75.9197 38.6576 75.8882C38.6893 75.8568 38.727 75.8321 38.7685 75.8156C38.8099 75.7991 38.8543 75.7912 38.8989 75.7923C38.9889 75.7923 39.0751 75.828 39.1388 75.8916C39.2024 75.9552 39.2381 76.0415 39.2381 76.1315C39.2381 76.2214 39.2024 76.3077 39.1388 76.3713C39.0751 76.4349 38.9889 76.4706 38.8989 76.4706C38.854 76.471 38.8096 76.4624 38.7681 76.4453C38.7266 76.4282 38.6889 76.403 38.6573 76.3711C38.6257 76.3393 38.6008 76.3014 38.584 76.2598C38.5673 76.2182 38.559 76.1736 38.5597 76.1288Z" fill="#263238"/>
<path d="M9.76941 48.9756V50.6288H11.4226V48.9756V47.3197H9.76941V48.9756Z" fill="#263238"/>
<path d="M11.4226 39.0539H9.76941V40.7071H11.4226V39.0539Z" fill="#263238"/>
<path d="M21.6407 57.2575H19.9875V58.9107H21.6407V57.2575Z" fill="#263238"/>
<path d="M11.4226 42.3602V44.0134H9.76941V45.6666H11.4226V47.3198H13.0757H14.7316V48.9756H16.3848V47.3198H18.0379V45.6666V44.0134H16.3848V45.6666H14.7316H13.0757V44.0134V42.3602V40.7071H11.4226V42.3602Z" fill="#263238"/>
<path d="M14.7317 39.0539H13.0758V40.7071H14.7317H16.3848V39.0539H14.7317Z" fill="#263238"/>
<path d="M22.1722 52.346H23.0589V50.6929H22.1722H21.2828V52.346H22.1722Z" fill="#263238"/>
<path d="M18.0379 40.7071H16.3848V42.3602H18.0379V40.7071Z" fill="#263238"/>
<path d="M29.6129 47.3197H27.9597V48.9729H29.6129V47.3197Z" fill="#263238"/>
<path d="M31.266 29.1322H29.6128V30.7853H31.266V29.1322Z" fill="#263238"/>
<path d="M21.3443 42.3602V40.7071H22.9975V39.0539H21.3443V37.4007H19.6911V39.0539H18.038V40.7071H19.6911V42.3602V44.0134V45.6666V47.3198H21.3443V45.6666V44.0134H22.9975V42.3602H21.3443Z" fill="#263238"/>
<path d="M29.6129 58.8947H31.2661V57.2415H29.6129H27.9597V58.8947H29.6129Z" fill="#263238"/>
<path d="M27.9597 29.1322H26.3065V30.7853H27.9597V29.1322Z" fill="#263238"/>
<path d="M27.5457 42.3603V40.7071H25.8925V39.0539H24.2394V40.7071V42.3603H22.5862V44.0134H24.2394H25.8925V42.3603H27.5457Z" fill="#263238"/>
<path d="M36.8772 39.0539H35.224V40.7071H36.8772V39.0539Z" fill="#263238"/>
<path d="M19.7392 47.3197H18.0861V48.9729H19.7392V47.3197Z" fill="#263238"/>
<path d="M26.3066 37.4007V35.7475H27.9597V34.0917H29.6129H31.2661V32.4385H29.6129V30.7854H27.9597V32.4385H26.3066V34.0917H24.6507V35.7475H22.9976V37.4007H24.6507H26.3066Z" fill="#263238"/>
<path d="M26.3066 48.9756V47.3198H27.9597V45.6666H26.3066H24.6507V47.3198H22.9976V48.9756H24.6507H26.3066Z" fill="#263238"/>
<path d="M31.266 55.5883V53.9325H29.6128H27.9596V52.2793H26.3064V53.9325H24.6506V55.5883H22.9974H21.3442V57.2415H22.9974H24.6506H26.3064V55.5883H27.9596V57.2415H29.6128V55.5883H31.266Z" fill="#263238"/>
<path d="M24.6506 30.7853V29.1322H22.9974H21.3442V30.7853H19.691V32.4385H21.3442H22.9974V30.7853H24.6506Z" fill="#263238"/>
<path d="M24.6507 32.4386H22.9976V34.0917H24.6507V32.4386Z" fill="#263238"/>
<path d="M28.785 39.0539H27.1318V40.7071V42.3603V44.0134H28.785H30.4382V42.3603H28.785V40.7071H30.4382V39.0539H32.0914V37.4007H30.4382V35.7476H28.785V37.4007V39.0539Z" fill="#263238"/>
<path d="M22.9974 34.0917H21.3442V35.7449H22.9974V34.0917Z" fill="#263238"/>
<path d="M27.9597 50.6288V52.2819H29.6129H31.2661V50.6288H32.9192H34.5724V48.9756H32.9192H31.2661H29.6129V50.6288H27.9597Z" fill="#263238"/>
<path d="M36.8772 44.0134H35.224V45.6666H36.8772V44.0134Z" fill="#263238"/>
<path d="M31.266 45.6666H29.6128V47.3198H31.266V45.6666Z" fill="#263238"/>
<path d="M35.4003 40.7071H33.7472H32.0913V42.3602H33.7472V44.0134H35.4003V42.3602V40.7071Z" fill="#263238"/>
<path d="M34.5724 45.6666H32.9192V47.3198H34.5724V45.6666Z" fill="#263238"/>
<path d="M16.3848 55.6203H21.347V48.9729H14.6996V50.6288H13.0785V52.2819H14.6996V53.9351H13.0785V55.5883H14.6996V55.6203H14.7317V57.2415H13.0785V60.5478H14.7317V58.8893H16.3848V55.6203ZM20.0731 50.2442V54.3785H15.9388V50.2442H20.0731Z" fill="#263238"/>
<path d="M37.8787 48.9756H39.5319V47.3197H37.8787H36.2256H34.5724V48.9756H36.2256H37.8787Z" fill="#263238"/>
<path d="M37.8788 42.3603H39.532V40.7071V39.0539H37.8788V40.7071V42.3603Z" fill="#263238"/>
<path d="M24.7148 50.6929H23.059V52.346V53.9992H24.7148V52.346V50.6929Z" fill="#263238"/>
<path d="M41.185 48.9756H39.5319V50.6288H41.185V48.9756Z" fill="#263238"/>
<path d="M41.1877 45.6666V44.0134H39.5319V45.6666V47.3198H41.1877V45.6666Z" fill="#263238"/>
<path d="M11.4226 57.2415H9.76941V58.8947V60.5478H11.4226V58.8947V57.2415Z" fill="#263238"/>
<path d="M41.1877 37.4007V29.1215H32.9084V37.4007H41.1877ZM34.1583 36.1588V30.3714H39.9458V36.1588H34.1583Z" fill="#263238"/>
<path d="M38.7067 31.6133H35.4004V34.9196H38.7067V31.6133Z" fill="#263238"/>
<path d="M41.1877 52.2819H32.9084V60.5478H41.1877V52.2819ZM34.1583 59.3086V53.5211H39.9458V59.3086H34.1583Z" fill="#263238"/>
<path d="M38.7067 54.7604H35.4004V58.0667H38.7067V54.7604Z" fill="#263238"/>
<path d="M9.75073 29.1322V37.4114H18.0113V29.1322H9.75073ZM16.7774 30.3714V36.1588H10.9899V30.3714H16.7774Z" fill="#263238"/>
<path d="M15.5356 31.6133H12.2292V34.9196H15.5356V31.6133Z" fill="#263238"/>
<path d="M7.39251 34.8956V29.02C7.35492 28.4809 7.52073 27.9473 7.85722 27.5244C8.05868 27.302 8.30677 27.1268 8.58378 27.0114C8.86078 26.8959 9.15986 26.8431 9.45965 26.8567H15.6343C15.6832 26.8567 15.7301 26.8373 15.7646 26.8027C15.7992 26.7682 15.8186 26.7213 15.8186 26.6724C15.8186 26.6235 15.7992 26.5767 15.7646 26.5421C15.7301 26.5076 15.6832 26.4881 15.6343 26.4881H9.53443C9.01785 26.4622 8.50532 26.5915 8.06286 26.8594C7.74484 27.0711 7.48359 27.3577 7.30201 27.6938C7.12042 28.03 7.02403 28.4056 7.02128 28.7876C7.00526 29.7544 7.02128 30.7239 7.02128 31.688V34.8929C7.02674 34.9383 7.04864 34.9801 7.08284 35.0104C7.11704 35.0408 7.16118 35.0575 7.2069 35.0575C7.25262 35.0575 7.29675 35.0408 7.33096 35.0104C7.36516 34.9801 7.38705 34.9383 7.39251 34.8929V34.8956Z" fill="#A4C0E9"/>
<path d="M15.1002 63.3414H9.2246C8.68565 63.3777 8.15249 63.212 7.729 62.8767C7.50688 62.675 7.3319 62.4269 7.2165 62.1499C7.10111 61.873 7.04813 61.574 7.06132 61.2743V55.0916C7.06132 55.0427 7.04191 54.9958 7.00735 54.9613C6.97279 54.9267 6.92591 54.9073 6.87704 54.9073C6.82817 54.9073 6.78129 54.9267 6.74673 54.9613C6.71217 54.9958 6.69276 55.0427 6.69276 55.0916V61.1995C6.66715 61.716 6.79642 62.2285 7.06399 62.6711C7.27573 62.9889 7.5623 63.2499 7.89853 63.431C8.23475 63.6122 8.61034 63.708 8.99225 63.71C9.95905 63.726 10.9258 63.71 11.8926 63.71H15.0975C15.1464 63.71 15.1933 63.6906 15.2278 63.656C15.2624 63.6214 15.2818 63.5746 15.2818 63.5257C15.2818 63.4768 15.2624 63.4299 15.2278 63.3954C15.1933 63.3608 15.1464 63.3414 15.0975 63.3414H15.1002Z" fill="#A4C0E9"/>
<path d="M43.3671 55.0328V60.9084C43.4047 61.4475 43.2389 61.9811 42.9024 62.404C42.7011 62.6265 42.453 62.8018 42.176 62.9172C41.8989 63.0327 41.5998 63.0854 41.3 63.0716H35.1173C35.0684 63.0716 35.0215 63.0911 34.987 63.1256C34.9524 63.1602 34.933 63.2071 34.933 63.2559C34.933 63.3048 34.9524 63.3517 34.987 63.3862C35.0215 63.4208 35.0684 63.4402 35.1173 63.4402H41.2252C41.7418 63.4661 42.2543 63.3368 42.6968 63.069C43.0146 62.8572 43.2756 62.5707 43.4567 62.2344C43.6379 61.8982 43.7337 61.5226 43.7357 61.1407C43.7544 60.1739 43.7357 59.2071 43.7357 58.2403V55.0355C43.7357 54.9866 43.7163 54.9397 43.6817 54.9052C43.6471 54.8706 43.6003 54.8512 43.5514 54.8512C43.5025 54.8512 43.4556 54.8706 43.4211 54.9052C43.3865 54.9397 43.3671 54.9866 43.3671 55.0355V55.0328Z" fill="#A4C0E9"/>
<path d="M35.2241 26.8594H41.0997C41.6391 26.8225 42.1728 26.9893 42.5953 27.3267C42.8184 27.5276 42.9941 27.7756 43.1096 28.0528C43.2251 28.3299 43.2775 28.6293 43.2629 28.9292V35.1199C43.2629 35.1688 43.2824 35.2156 43.3169 35.2502C43.3515 35.2848 43.3984 35.3042 43.4472 35.3042C43.4961 35.3042 43.543 35.2848 43.5775 35.2502C43.6121 35.2156 43.6315 35.1688 43.6315 35.1199V29.004C43.6575 28.4865 43.5282 27.9731 43.2603 27.5297C43.0485 27.2119 42.762 26.9509 42.4257 26.7697C42.0895 26.5886 41.7139 26.4928 41.332 26.4908C40.3652 26.4748 39.3984 26.4908 38.4316 26.4908H35.2268C35.1779 26.4908 35.131 26.5102 35.0965 26.5448C35.0619 26.5793 35.0425 26.6262 35.0425 26.6751C35.0425 26.724 35.0619 26.7708 35.0965 26.8054C35.131 26.84 35.1779 26.8594 35.2268 26.8594H35.2241Z" fill="#A4C0E9"/>
</svg>
