<svg width="388" height="263" viewBox="0 0 388 263" fill="none" xmlns="http://www.w3.org/2000/svg">
<path d="M369.782 156.629C377.847 154.698 382.821 146.586 380.893 138.511C378.964 130.437 370.863 125.456 362.798 127.387C354.733 129.318 349.759 137.43 351.688 145.505C353.617 153.58 361.718 158.56 369.782 156.629Z" fill="white"/>
<path d="M366.289 126.982L366.531 127.013L367.245 127.066L367.77 127.097L368.396 127.197C368.917 127.268 369.433 127.375 369.94 127.518C371.338 127.874 372.675 128.437 373.906 129.191C377.166 131.178 379.546 134.335 380.563 138.018C381.58 141.701 381.157 145.634 379.38 149.016C379.033 149.649 378.642 150.258 378.209 150.836C377.772 151.429 377.294 151.992 376.78 152.519C376.239 153.043 375.664 153.53 375.057 153.976C373.818 154.895 372.437 155.606 370.97 156.08C367.933 157.104 364.645 157.104 361.608 156.08C360.142 155.604 358.762 154.893 357.521 153.976C356.916 153.528 356.341 153.041 355.798 152.519C355.286 151.989 354.809 151.427 354.369 150.836C353.936 150.258 353.545 149.649 353.198 149.016C351.63 146.022 351.1 142.592 351.69 139.264C352.079 137.186 352.903 135.215 354.107 133.479C355.311 131.743 356.869 130.282 358.677 129.191C359.907 128.437 361.245 127.873 362.643 127.518C363.15 127.375 363.666 127.268 364.188 127.197L364.813 127.097L365.338 127.066L366.053 127.013L366.294 126.982C366.214 126.97 366.133 126.97 366.053 126.982H365.338H364.813C364.618 126.982 364.408 127.034 364.182 127.066C363.65 127.121 363.123 127.218 362.606 127.355C361.186 127.691 359.825 128.243 358.572 128.991C356.721 130.083 355.124 131.556 353.887 133.314C352.65 135.072 351.8 137.073 351.396 139.185C350.891 141.854 351.11 144.609 352.031 147.164C352.276 147.844 352.565 148.507 352.898 149.147C353.61 150.457 354.493 151.665 355.525 152.74C356.077 153.277 356.665 153.776 357.285 154.234C358.558 155.183 359.978 155.919 361.487 156.411C364.597 157.463 367.965 157.463 371.075 156.411C372.584 155.918 374.004 155.183 375.277 154.234C375.898 153.777 376.486 153.278 377.037 152.74C377.564 152.2 378.052 151.623 378.498 151.015C378.94 150.422 379.338 149.798 379.69 149.147C380.025 148.507 380.314 147.845 380.557 147.164C381.478 144.609 381.698 141.854 381.193 139.185C380.788 137.073 379.939 135.072 378.701 133.314C377.464 131.556 375.867 130.083 374.017 128.991C372.763 128.242 371.403 127.69 369.982 127.355C369.464 127.221 368.938 127.124 368.406 127.066C368.18 127.034 367.97 126.997 367.776 126.982H367.25H366.531C366.45 126.97 366.369 126.97 366.289 126.982Z" fill="#E0E0E0"/>
<path d="M355.651 121.716C355.149 121.715 354.657 121.864 354.239 122.142C353.821 122.421 353.495 122.818 353.303 123.282C353.11 123.747 353.059 124.258 353.157 124.751C353.255 125.245 353.496 125.698 353.852 126.053C354.207 126.409 354.659 126.651 355.152 126.749C355.645 126.847 356.155 126.796 356.619 126.603C357.083 126.41 357.479 126.084 357.758 125.665C358.036 125.247 358.184 124.755 358.183 124.252C358.183 123.579 357.916 122.934 357.441 122.459C356.967 121.983 356.323 121.716 355.651 121.716Z" fill="white"/>
<path d="M355.651 121.716C355.651 121.748 355.877 121.753 356.25 121.864C356.777 122.023 357.238 122.35 357.563 122.795C357.826 123.149 357.984 123.57 358.022 124.01C358.06 124.449 357.975 124.891 357.776 125.285C357.578 125.679 357.274 126.01 356.899 126.242C356.524 126.473 356.092 126.596 355.651 126.596C355.21 126.596 354.778 126.473 354.403 126.242C354.028 126.01 353.724 125.679 353.526 125.285C353.327 124.891 353.242 124.449 353.28 124.01C353.318 123.57 353.476 123.149 353.739 122.795C354.062 122.35 354.521 122.023 355.047 121.864C355.425 121.753 355.651 121.748 355.651 121.716C355.443 121.662 355.224 121.662 355.015 121.716C354.428 121.834 353.902 122.159 353.534 122.632C353.253 122.983 353.067 123.4 352.993 123.844C352.92 124.288 352.961 124.744 353.114 125.167C353.301 125.691 353.645 126.144 354.099 126.464C354.554 126.784 355.096 126.956 355.651 126.956C356.207 126.956 356.749 126.784 357.203 126.464C357.657 126.144 358.001 125.691 358.188 125.167C358.341 124.744 358.382 124.288 358.309 123.844C358.235 123.4 358.049 122.983 357.768 122.632C357.399 122.16 356.874 121.835 356.287 121.716C356.078 121.662 355.859 121.662 355.651 121.716Z" fill="#E0E0E0"/>
<path d="M366.089 148.953C365.826 148.969 365.562 148.932 365.314 148.843C365.066 148.754 364.838 148.616 364.645 148.436C364.452 148.257 364.298 148.04 364.191 147.798C364.084 147.557 364.027 147.297 364.024 147.033C364.107 146.542 364.36 146.096 364.739 145.774C365.119 145.453 365.6 145.276 366.097 145.276C366.594 145.276 367.075 145.453 367.454 145.774C367.834 146.096 368.087 146.542 368.169 147.033C368.165 147.298 368.107 147.559 367.999 147.8C367.89 148.042 367.734 148.259 367.54 148.439C367.345 148.618 367.116 148.756 366.867 148.845C366.618 148.933 366.353 148.97 366.089 148.953ZM367.476 144.124H364.718L364.024 135.987H368.154L367.476 144.124Z" fill="#E0E0E0"/>
<path d="M25.7783 156.064C31.0036 158.112 36.6334 158.915 42.2219 158.407C47.8104 157.899 53.2041 156.096 57.976 153.14C48.2626 150.531 34.4253 150.925 25.7783 156.064Z" fill="#EBEBEB"/>
<path d="M19.9629 146.633C24.4242 148.381 29.2307 149.064 34.0015 148.629C38.7724 148.193 43.3763 146.651 47.4483 144.124C39.1586 141.91 27.3491 142.246 19.9629 146.633Z" fill="#EBEBEB"/>
<path d="M16.1753 138.038C19.7468 139.439 23.595 139.986 27.4148 139.639C31.2346 139.291 34.9209 138.057 38.1815 136.034C31.5203 134.251 22.0643 134.524 16.1753 138.038Z" fill="#EBEBEB"/>
<path d="M56.61 121.832C59.1558 126.925 60.4813 132.543 60.4813 138.238C60.4813 143.934 59.1558 149.551 56.61 154.644C53.085 145.066 52.2182 131.042 56.61 121.832Z" fill="#EBEBEB"/>
<path d="M46.5712 116.825C48.7423 121.172 49.8727 125.966 49.8727 130.827C49.8727 135.687 48.7423 140.481 46.5712 144.829C43.561 136.65 42.8255 124.688 46.5712 116.825Z" fill="#EBEBEB"/>
<path d="M37.5615 113.769C39.3001 117.251 40.2052 121.092 40.2052 124.985C40.2052 128.879 39.3001 132.719 37.5615 136.202C35.1503 129.654 34.5566 120.065 37.5615 113.769Z" fill="#EBEBEB"/>
<path d="M12.792 114.936C16.2172 122.863 25.6206 130.653 34.0417 132.52C29.9126 123.284 21.8015 116.188 12.792 114.936Z" fill="#EBEBEB"/>
<path d="M70.647 166.248C70.4789 166.432 61.191 158.184 49.8438 147.838C38.4966 137.491 29.4819 128.923 29.6448 128.738C29.8076 128.554 39.127 136.802 50.448 147.148C61.7689 157.495 70.8151 166.063 70.647 166.248Z" fill="#EBEBEB"/>
<path d="M270.179 73.3823C269.104 80.1416 269.616 87.0586 271.674 93.5855C273.732 100.112 277.28 106.07 282.036 110.986C282.629 98.746 278.542 82.3558 270.179 73.3823Z" fill="#EBEBEB"/>
<path d="M279.882 64.0037C278.966 69.7712 279.404 75.6729 281.16 81.2419C282.916 86.8108 285.943 91.8941 290 96.0897C290.509 85.6538 287.021 71.6622 279.882 64.0037Z" fill="#EBEBEB"/>
<path d="M289.117 57.2446C288.382 61.8669 288.732 66.5971 290.139 71.0606C291.546 75.5241 293.971 79.5984 297.223 82.9607C297.617 74.5815 294.833 63.3777 289.117 57.2446Z" fill="#EBEBEB"/>
<path d="M318.904 101.239C313.506 105.595 307.17 108.633 300.397 110.112C293.624 111.591 286.6 111.47 279.882 109.76C290.362 103.096 306.795 98.3936 318.904 101.239Z" fill="#EBEBEB"/>
<path d="M322.25 87.9682C317.643 91.6889 312.233 94.2835 306.45 95.5462C300.667 96.8089 294.67 96.705 288.934 95.2428C297.891 89.5357 311.927 85.5434 322.25 87.9682Z" fill="#EBEBEB"/>
<path d="M323.537 76.4278C319.848 79.4049 315.518 81.481 310.888 82.4917C306.259 83.5024 301.458 83.4198 296.866 82.2506C304.027 77.6849 315.269 74.4869 323.537 76.4278Z" fill="#EBEBEB"/>
<path d="M315.726 47.2032C307.194 53.3469 300.375 66.5811 300.349 77.1063C310.231 69.7844 316.561 58.2703 315.726 47.2032Z" fill="#EBEBEB"/>
<path d="M269.743 129.522C269.496 129.396 276.851 116.12 286.233 99.94C295.616 83.7602 303.417 70.7417 303.679 70.8943C303.942 71.0468 296.556 84.2915 287.184 100.487C277.812 116.683 270.021 129.675 269.743 129.522Z" fill="#EBEBEB"/>
<path d="M323.08 196.829C318.111 194.646 312.701 193.652 307.281 193.926C301.861 194.2 296.579 195.734 291.854 198.407C301.153 201.311 314.533 201.458 323.08 196.829Z" fill="#EBEBEB"/>
<path d="M328.333 206.192C324.091 204.331 319.474 203.485 314.849 203.719C310.223 203.954 305.716 205.263 301.683 207.544C309.616 209.99 321.036 210.121 328.333 206.192Z" fill="#EBEBEB"/>
<path d="M331.674 214.608C328.278 213.117 324.581 212.439 320.877 212.627C317.173 212.815 313.564 213.864 310.335 215.692C316.681 217.68 325.828 217.764 331.674 214.608Z" fill="#EBEBEB"/>
<path d="M291.981 228.721C289.72 223.699 288.658 218.22 288.879 212.717C289.1 207.213 290.597 201.837 293.252 197.013C296.288 206.408 296.577 219.989 291.981 228.721Z" fill="#EBEBEB"/>
<path d="M301.489 233.944C299.563 229.657 298.659 224.981 298.851 220.285C299.042 215.588 300.323 211.001 302.592 206.886C305.156 214.903 305.413 226.496 301.489 233.944Z" fill="#EBEBEB"/>
<path d="M310.078 237.226C308.533 233.794 307.807 230.049 307.959 226.287C308.11 222.526 309.134 218.851 310.95 215.555C313.02 221.972 313.225 231.272 310.078 237.226Z" fill="#EBEBEB"/>
<path d="M334.055 237.068C331.05 229.278 322.266 221.388 314.202 219.263C317.827 228.342 325.397 235.511 334.055 237.068Z" fill="#EBEBEB"/>
<path d="M280.124 185.262C280.292 185.094 288.975 193.421 299.519 203.862C310.062 214.303 318.468 222.914 318.3 223.082C318.131 223.25 309.448 214.929 298.904 204.483C288.361 194.036 279.955 185.431 280.124 185.262Z" fill="#EBEBEB"/>
<path d="M298.247 12.7134H83.1865V249.119H298.247V12.7134Z" fill="#FAFAFA"/>
<path d="M47.4255 65.2381C56.0872 62.5551 60.9366 53.3495 58.257 44.6769C55.5775 36.0042 46.3836 31.1486 37.7219 33.8316C29.0602 36.5146 24.2108 45.7202 26.8904 54.3928C29.57 63.0655 38.7638 67.9211 47.4255 65.2381Z" fill="white"/>
<path d="M42.5523 33.0959C42.6406 33.1133 42.7302 33.1238 42.8202 33.1275L43.5977 33.1853L44.1703 33.2274C44.3804 33.2274 44.6063 33.2958 44.8532 33.3326C45.4247 33.4099 45.99 33.5277 46.5448 33.685C48.0733 34.0707 49.5345 34.6861 50.8788 35.5102C54.1221 37.4586 56.5869 40.4764 57.8503 44.0459C59.1137 47.6153 59.0969 51.5138 57.8027 55.0722C57.5386 55.7938 57.2261 56.4967 56.8676 57.1762C56.4906 57.8689 56.0639 58.5334 55.5911 59.1645C55.1081 59.8149 54.5816 60.4318 54.0151 61.0107C53.423 61.577 52.7948 62.1041 52.1344 62.5887C50.7783 63.5975 49.2688 64.3807 47.6638 64.9084C46.0099 65.4437 44.2851 65.7274 42.547 65.75C40.8077 65.727 39.0815 65.4452 37.425 64.9137C35.8307 64.3838 34.3318 63.6006 32.986 62.594C32.3233 62.1123 31.6949 61.585 31.1053 61.016C30.5403 60.4356 30.0138 59.8189 29.5293 59.1697C28.5845 57.9268 27.8384 56.5445 27.3176 55.0722C26.0301 51.5127 26.0172 47.6159 27.2811 44.0479C28.5449 40.4799 31.0071 37.4621 34.2468 35.5102C35.5912 34.6778 37.0544 34.0552 38.586 33.664C39.139 33.5062 39.7025 33.3884 40.2723 33.3116C40.5192 33.2747 40.7451 33.2274 40.9553 33.2064L41.5279 33.1643L42.3106 33.138L42.5733 33.1064C42.4844 33.095 42.3943 33.095 42.3054 33.1064H41.5226L40.9763 33.138C40.7609 33.138 40.535 33.1958 40.2828 33.2274C39.7068 33.2906 39.1361 33.3961 38.5755 33.543C37.0217 33.9091 35.5334 34.5122 34.1627 35.3314C30.8402 37.286 28.3058 40.3433 26.9989 43.973C25.692 47.6028 25.6951 51.576 27.0077 55.2037C27.2732 55.9493 27.5909 56.6752 27.9585 57.3761C28.3442 58.0863 28.7796 58.7682 29.2613 59.4169C29.7432 60.0815 30.2698 60.7124 30.8373 61.3053C31.4416 61.8924 32.0839 62.4388 32.7601 62.9412C34.1484 63.975 35.6932 64.7794 37.3357 65.3239C39.0342 65.8708 40.805 66.1598 42.5891 66.1813C44.3737 66.1615 46.1449 65.8706 47.8424 65.3187C49.4872 64.7795 51.0328 63.9746 52.418 62.9359C53.0975 62.4396 53.7401 61.8947 54.3408 61.3053C54.9055 60.7099 55.4319 60.0792 55.9168 59.4169C56.3967 58.767 56.832 58.0851 57.2196 57.3761C57.5834 56.6741 57.8993 55.9484 58.1652 55.2037C59.1717 52.4095 59.4129 49.3964 58.8639 46.4773C58.4196 44.1672 57.4901 41.9779 56.1371 40.0546C54.784 38.1312 53.0382 36.5177 51.0154 35.3209C49.6448 34.5017 48.1564 33.8985 46.6026 33.5325C46.0402 33.3855 45.4678 33.2801 44.89 33.2169C44.6431 33.1853 44.412 33.1432 44.2018 33.1275H43.624H42.8412C42.7468 33.1036 42.6496 33.093 42.5523 33.0959Z" fill="#E0E0E0"/>
<path d="M54.9813 65.8079C54.4327 65.8079 53.8964 65.9708 53.4403 66.2759C52.9841 66.5811 52.6286 67.0148 52.4187 67.5223C52.2087 68.0298 52.1538 68.5882 52.2608 69.127C52.3678 69.6657 52.632 70.1606 53.0199 70.549C53.4079 70.9374 53.9021 71.2019 54.4401 71.3091C54.9782 71.4162 55.5359 71.3612 56.0428 71.151C56.5496 70.9408 56.9828 70.5848 57.2876 70.1281C57.5924 69.6714 57.755 69.1344 57.755 68.5851C57.7557 68.2202 57.6845 67.8588 57.5453 67.5215C57.4062 67.1842 57.2019 66.8778 56.9442 66.6198C56.6865 66.3617 56.3804 66.1572 56.0436 66.0179C55.7067 65.8785 55.3457 65.8072 54.9813 65.8079Z" fill="white"/>
<path d="M54.9813 65.8078C54.9813 65.8447 55.2282 65.8447 55.6432 65.9709C56.2194 66.1459 56.7229 66.5041 57.0774 66.9913C57.3701 67.3821 57.5483 67.8467 57.5921 68.3331C57.6359 68.8196 57.5436 69.3087 57.3254 69.7455C57.1073 70.1824 56.7719 70.5498 56.357 70.8065C55.942 71.0633 55.4639 71.1993 54.9761 71.1993C54.4883 71.1993 54.0101 71.0633 53.5951 70.8065C53.1802 70.5498 52.8449 70.1824 52.6267 69.7455C52.4085 69.3087 52.3162 68.8196 52.36 68.3331C52.4038 67.8467 52.582 67.3821 52.8747 66.9913C53.2284 66.5033 53.7322 66.1448 54.3089 65.9709C54.7186 65.8447 54.9708 65.8447 54.9656 65.8078C54.738 65.7502 54.4997 65.7502 54.2721 65.8078C53.632 65.9397 53.059 66.2937 52.6541 66.8072C52.3485 67.1921 52.1458 67.6485 52.0649 68.1334C51.984 68.6183 52.0277 69.1159 52.1918 69.5793C52.3945 70.1537 52.7701 70.651 53.2669 71.0027C53.7637 71.3545 54.3571 71.5434 54.9656 71.5434C55.574 71.5434 56.1675 71.3545 56.6642 71.0027C57.161 70.651 57.5366 70.1537 57.7393 69.5793C57.9026 69.1161 57.9464 68.6191 57.8665 68.1345C57.7866 67.6498 57.5856 67.1933 57.2823 66.8072C56.8764 66.2947 56.3038 65.941 55.6642 65.8078C55.4399 65.7534 55.2057 65.7534 54.9813 65.8078Z" fill="#E0E0E0"/>
<path d="M42.946 57.0289C42.657 57.0507 42.3668 57.0124 42.0933 56.9164C41.8199 56.8205 41.5693 56.669 41.3571 56.4714C41.145 56.2738 40.9759 56.0344 40.8606 55.7683C40.7453 55.5021 40.6862 55.215 40.687 54.9249C40.7345 54.3556 40.9938 53.825 41.4137 53.4382C41.8336 53.0514 42.3833 52.8368 42.9538 52.8368C43.5244 52.8368 44.0741 53.0514 44.494 53.4382C44.9138 53.825 45.1732 54.3556 45.2206 54.9249C45.2155 55.2146 45.1519 55.5002 45.0335 55.7646C44.9152 56.029 44.7446 56.2667 44.532 56.4633C44.3195 56.6599 44.0694 56.8114 43.7968 56.9086C43.5242 57.0058 43.2348 57.0467 42.946 57.0289ZM44.4642 51.7689H41.4435L40.687 42.848H45.1786L44.4642 51.7689Z" fill="#E0E0E0"/>
<path d="M145.47 122.411H117.107V129.922H145.47V122.411Z" fill="#E0E0E0"/>
<path d="M133.482 137.812C133.474 137.767 133.474 137.72 133.482 137.675C133.482 137.575 133.482 137.449 133.482 137.291C133.482 136.939 133.482 136.444 133.482 135.813C133.482 134.519 133.482 132.657 133.435 130.301L133.524 130.39L105.156 130.448C105.219 130.38 105.009 130.59 105.298 130.301V134.13C105.298 135.382 105.298 136.618 105.298 137.812L105.156 137.675L125.371 137.738L131.339 137.775H132.952H133.372H133.524C133.481 137.783 133.436 137.783 133.393 137.775H132.988H131.412L125.481 137.817L105.167 137.88H105.025V130.327C105.314 130.038 105.104 130.248 105.172 130.185L133.54 130.238H133.624V130.327C133.624 132.699 133.587 134.582 133.577 135.892C133.577 136.518 133.577 137.002 133.577 137.349C133.577 137.502 133.577 137.623 133.577 137.723C133.548 137.755 133.516 137.785 133.482 137.812Z" fill="#263238"/>
<path d="M274.644 198.691H246.282V206.203H274.644V198.691Z" fill="#E0E0E0"/>
<path d="M183.1 179.361H154.737V186.872H183.1V179.361Z" fill="#EBEBEB"/>
<path d="M262.667 214.119C262.667 214.119 262.667 214.066 262.667 213.982V213.593C262.667 213.24 262.667 212.746 262.667 212.115C262.667 210.821 262.667 208.959 262.619 206.602L262.703 206.692L234.335 206.75L234.483 206.602V208.522C234.483 209.159 234.483 209.79 234.483 210.416V214.098L234.341 213.956L254.556 214.019L260.518 214.061H262.136H262.556C262.605 214.053 262.655 214.053 262.703 214.061H262.572H262.168H260.592L254.661 214.098L234.346 214.161H234.204V206.608L234.346 206.466L262.714 206.518H262.803V206.608C262.803 208.98 262.766 210.863 262.756 212.173C262.756 212.799 262.756 213.282 262.756 213.635C262.756 213.782 262.756 213.908 262.756 214.003C262.732 214.046 262.702 214.085 262.667 214.119Z" fill="#263238"/>
<path d="M183.1 63.162H154.737V70.6733H183.1V63.162Z" fill="#E0E0E0"/>
<path d="M131.381 31.56H103.018V39.0713H131.381V31.56Z" fill="#EBEBEB"/>
<path d="M171.107 78.5896C171.107 78.5896 171.107 78.537 171.107 78.4529C171.107 78.3687 171.107 78.2214 171.107 78.0636C171.107 77.7112 171.107 77.2168 171.107 76.5856C171.107 75.2916 171.08 73.4296 171.059 71.0731L171.143 71.1625L142.775 71.2204L142.922 71.0731V72.993C142.922 73.6295 142.922 74.2607 142.922 74.8866V78.5686L142.781 78.4266L162.995 78.4897L168.963 78.5318H170.576H170.996C171.045 78.5241 171.095 78.5241 171.143 78.5318H171.012H170.608H169.032L163.101 78.5686L142.786 78.6317H142.644V71.0784L142.786 70.9363L171.154 70.9889H171.243V71.0784C171.243 73.4506 171.206 75.3337 171.196 76.6434C171.196 77.2694 171.196 77.7533 171.196 78.1057C171.196 78.253 171.196 78.3792 171.196 78.4739C171.176 78.519 171.145 78.5586 171.107 78.5896Z" fill="#263238"/>
<path d="M269.36 89.0413C269.356 88.9958 269.356 88.95 269.36 88.9045C269.36 88.8046 269.36 88.6731 269.36 88.5153C269.36 88.1628 269.36 87.6684 269.36 87.0372C269.36 85.7432 269.36 83.8812 269.312 81.5247L269.402 81.6141L241.034 81.672C241.097 81.6036 240.887 81.814 241.176 81.5247V85.3382C241.176 86.5901 241.176 87.8262 241.176 89.0202L241.039 88.8782L261.248 88.9413L267.216 88.9834H268.829H269.249C269.3 88.976 269.351 88.976 269.402 88.9834H269.27H268.866H267.29L261.354 89.0202L241.044 89.0886H240.902V88.9466C240.902 87.7368 240.902 86.5007 240.902 85.2646V81.53C241.191 81.2407 240.981 81.4511 241.049 81.388L269.417 81.4406H269.507V81.53C269.507 83.9022 269.465 85.7853 269.454 87.0951C269.454 87.721 269.454 88.2049 269.454 88.5573V88.9255C269.365 89.0044 269.36 89.0413 269.36 89.0413Z" fill="#263238"/>
<path d="M273.205 81.53C273.201 81.4827 273.201 81.4352 273.205 81.388C273.205 81.2828 273.205 81.1513 273.205 80.9882C273.205 80.62 273.205 80.1203 273.205 79.4838C273.205 78.1688 273.173 76.3278 273.147 74.0187L273.252 74.1239L256.21 74.1607L256.352 74.0187V77.8848C256.352 79.1419 256.352 80.357 256.352 81.5247L256.216 81.388L268.403 81.4511L271.955 81.4932H272.916H273.257C273.154 81.5006 273.051 81.5006 272.948 81.4932H272.018L268.498 81.53L256.216 81.5931H256.079V81.53C256.079 80.3623 256.079 79.149 256.079 77.8901C256.079 77.2589 256.079 76.6224 256.079 75.9754V74.024L256.226 73.8767L273.268 73.9188H273.373V74.024C273.373 76.3384 273.331 78.232 273.315 79.5522C273.315 80.1782 273.315 80.6726 273.315 81.0355C273.289 81.2024 273.252 81.3676 273.205 81.53Z" fill="#263238"/>
<path d="M234.057 147.127C234.053 147.082 234.053 147.036 234.057 146.991C234.057 146.891 234.057 146.764 234.057 146.607C234.057 146.249 234.057 145.76 234.057 145.129C234.057 143.829 234.057 141.973 234.01 139.616L234.099 139.7L205.731 139.758L205.873 139.616V143.419C205.873 144.676 205.873 145.907 205.873 147.101L205.731 146.959L225.946 147.022L231.914 147.064H233.527H233.947H234.099H233.968H233.564H231.988L226.057 147.106L205.742 147.17H205.6V139.627L205.747 139.479L234.115 139.537H234.205V139.627C234.205 141.999 234.168 143.882 234.157 145.192C234.157 145.812 234.157 146.302 234.157 146.649C234.157 146.801 234.157 146.922 234.157 147.017C234.127 147.056 234.093 147.093 234.057 147.127Z" fill="#263238"/>
<path d="M250.989 35.3261C250.982 35.2808 250.982 35.2347 250.989 35.1894V34.8001C250.989 34.4477 250.989 33.9533 250.989 33.3221C250.989 32.0281 250.962 30.1661 250.941 27.8096L251.031 27.899L222.663 27.9569C222.726 27.8885 222.515 28.0989 222.804 27.8096V31.6231C222.804 32.875 222.804 34.1111 222.804 35.3051L222.663 35.1631L242.877 35.2262L248.845 35.2683H250.458H250.878C250.929 35.2613 250.98 35.2613 251.031 35.2683H250.899H250.495H248.919L242.988 35.3051L222.673 35.3682H222.531V27.8149C222.82 27.5256 222.61 27.736 222.678 27.6728L251.046 27.7254H251.13V27.8149C251.13 30.1871 251.094 32.0702 251.083 33.3799C251.083 34.0059 251.083 34.4898 251.083 34.8422C251.083 34.9895 251.083 35.1105 251.083 35.2104C251.054 35.2511 251.023 35.2898 250.989 35.3261Z" fill="#263238"/>
<path d="M152.058 239.393C152.058 239.393 152.058 239.346 152.058 239.256C152.058 239.167 152.058 239.03 152.058 238.872C152.058 238.52 152.058 238.026 152.058 237.394C152.058 236.095 152.027 234.238 152.006 231.882L152.095 231.966L123.727 232.024L123.869 231.882V239.383L123.727 239.241L143.942 239.304L149.904 239.346H151.517H151.943H152.09C152.046 239.351 152.002 239.351 151.958 239.346H151.554H149.978L144.042 239.388L123.732 239.451H123.59V239.309C123.59 238.099 123.59 236.872 123.59 235.627V231.824L123.737 231.677L152.105 231.735H152.195V231.824C152.195 234.196 152.158 236.079 152.147 237.389C152.147 238.01 152.147 238.499 152.147 238.846C152.147 238.999 152.147 239.12 152.147 239.214C152.147 239.309 152.063 239.398 152.058 239.393Z" fill="#263238"/>
<path d="M80.4862 96.5052L70.0269 109.497C72.3698 113.004 74.7111 116.526 77.0506 120.065C79.2543 116.604 80.6999 112.715 81.2921 108.654C81.8844 104.593 81.6097 100.452 80.4862 96.5052Z" fill="#263238"/>
<path d="M44.2858 81.2775C47.2329 78.5002 51.3147 77.1484 55.3545 76.917C59.3944 76.6855 63.4289 77.4903 67.3321 78.5686C69.5228 79.1735 71.7344 79.8889 73.5521 81.2565C76.8669 83.7497 80.56 87.0793 81.6002 91.0927C83.6595 99.0405 82.6509 107.125 81.763 109.355C80.6336 112.217 77.3765 113.769 74.65 115.194L39.978 91.1453C40.0066 89.2966 40.4021 87.4721 41.1417 85.778C41.8812 84.0839 42.95 82.5541 44.2858 81.2775Z" fill="#263238"/>
<path d="M40.7816 86.6585L46.865 83.8497C45.5464 93.081 49.5494 112.348 49.8436 121.669C46.6023 118.876 38.4281 109.881 37.6454 105.663C36.8626 101.444 33.0172 87.9314 40.7816 86.6585Z" fill="#263238"/>
<path d="M40.6661 101.171C39.4 94.68 41.6222 85.738 48.1521 84.7807L63.828 84.686C68.8554 84.6597 73.0371 87.842 74.6446 92.576C74.7234 92.8127 74.6446 92.5129 74.7129 92.697L76.8142 106.799L82.6665 129.417C81.8049 135.876 73.2577 139.937 64.968 143.619C64.7736 143.093 63.2501 138.28 63.2501 138.28C63.2501 138.28 61.1015 129.864 61.1015 129.901C61.1015 129.938 50.3742 131.211 45.9352 120.996C43.713 115.941 42.0267 108.382 40.6661 101.171Z" fill="#FFBE9D"/>
<path d="M48.0682 108.119C48.1533 108.479 48.3761 108.791 48.6886 108.987C49.001 109.184 49.3781 109.25 49.7387 109.171C50.0918 109.106 50.4045 108.903 50.6084 108.607C50.8122 108.312 50.8906 107.947 50.8262 107.593C50.7398 107.234 50.5168 106.923 50.2047 106.727C49.8926 106.53 49.5161 106.464 49.1556 106.541C48.9802 106.572 48.8127 106.638 48.6627 106.734C48.5128 106.831 48.3835 106.956 48.2824 107.103C48.1812 107.249 48.1102 107.415 48.0734 107.589C48.0366 107.764 48.0349 107.944 48.0682 108.119Z" fill="#263238"/>
<path d="M43.3451 104.926C43.5605 105.058 44.3958 104.027 45.8615 103.648C47.3272 103.27 48.5985 103.732 48.7088 103.512C48.7666 103.412 48.5144 103.133 47.9576 102.912C47.2079 102.636 46.3912 102.599 45.6198 102.807C44.8545 102.999 44.1712 103.432 43.6708 104.043C43.3084 104.506 43.2401 104.869 43.3451 104.926Z" fill="#263238"/>
<path d="M60.697 104.911C60.7821 105.27 61.0049 105.582 61.3174 105.779C61.6298 105.976 62.007 106.042 62.3676 105.963C62.5433 105.932 62.7113 105.867 62.8615 105.771C63.0118 105.675 63.1414 105.55 63.2427 105.403C63.3439 105.256 63.4149 105.09 63.4514 104.915C63.4878 104.74 63.4891 104.56 63.455 104.385C63.371 104.025 63.1493 103.714 62.8377 103.517C62.5261 103.32 62.1496 103.254 61.7897 103.333C61.6141 103.364 61.4464 103.429 61.2963 103.526C61.1461 103.622 61.0165 103.747 60.9149 103.894C60.8133 104.04 60.7418 104.206 60.7044 104.38C60.667 104.555 60.6645 104.735 60.697 104.911Z" fill="#263238"/>
<path d="M57.2616 101.292C57.477 101.423 58.3122 100.392 59.7832 100.014C61.2541 99.6349 62.5149 100.098 62.6305 99.8769C62.6883 99.7769 62.4308 99.4982 61.874 99.2772C61.1243 99.0012 60.3077 98.9645 59.5363 99.172C58.7729 99.3651 58.0916 99.7984 57.5925 100.408C57.2616 100.871 57.1723 101.229 57.2616 101.292Z" fill="#263238"/>
<path d="M55.6855 114.021C55.6855 113.937 54.7189 114.021 53.1902 114.205C52.8067 114.263 52.4337 114.279 52.3023 114.042C52.1714 113.662 52.1586 113.251 52.2656 112.864C52.3864 111.864 52.5072 110.818 52.6386 109.708C53.1271 105.242 53.3793 101.613 53.2007 101.592C53.022 101.571 52.481 105.2 52.0082 109.655C51.8978 110.755 51.7875 111.801 51.6877 112.811C51.5684 113.324 51.6335 113.862 51.8716 114.331C51.9588 114.451 52.0726 114.548 52.2039 114.615C52.3352 114.683 52.4804 114.719 52.6281 114.721C52.851 114.726 53.0737 114.702 53.29 114.647C54.7819 114.337 55.6855 114.105 55.6855 114.021Z" fill="#263238"/>
<path d="M74.2085 122.458C74.2085 122.458 72.6325 130.674 61.7529 132.426L61.0962 129.922C66.073 128.698 70.6124 126.114 74.2085 122.458Z" fill="#FF9A6C"/>
<path d="M56.3527 95.8635C56.5996 96.2264 58.018 95.6583 59.7936 95.4216C61.5692 95.1849 63.0822 95.2901 63.2188 94.8956C63.2766 94.6958 62.9351 94.3696 62.2732 94.1435C61.3981 93.8602 60.47 93.7807 59.5596 93.9111C58.6492 94.0414 57.7806 94.3782 57.0198 94.8956C56.4788 95.2954 56.2423 95.6899 56.3527 95.8635Z" fill="#263238"/>
<path d="M42.6519 100.308C42.9986 100.576 43.9179 99.9663 45.1314 99.6349C46.345 99.3035 47.4324 99.2772 47.5795 98.8669C47.6425 98.6723 47.3904 98.383 46.8598 98.1831C46.1587 97.9597 45.407 97.9505 44.7005 98.1566C43.9941 98.3627 43.3651 98.7748 42.8935 99.3403C42.5521 99.7927 42.4995 100.177 42.6519 100.308Z" fill="#263238"/>
<path d="M41.0234 90.6982C41.2546 88.9308 42.757 87.5106 44.4591 86.9741C46.1886 86.522 48.011 86.5731 49.7125 87.1214C56.9988 89.136 62.5516 97.1154 69.796 99.293C71.5716 99.819 73.3525 98.4461 74.981 99.3403C76.6095 100.235 77.9754 101.97 77.6812 103.822C78.2878 102.475 78.6966 101.047 78.8947 99.5823C78.9889 98.8484 78.9256 98.1028 78.7091 97.3952C78.4926 96.6877 78.1278 96.0346 77.6392 95.4795C76.8512 94.68 75.7112 94.2119 75.1754 93.2282C74.7026 92.3656 74.8181 91.3031 74.5292 90.3615C74.1709 89.4195 73.5948 88.5759 72.8481 87.8998C69.2706 84.2178 64.8788 81.1565 59.9039 79.852C56.6474 78.9446 53.2053 78.9446 49.9489 79.852C46.6916 80.8052 43.8818 82.8927 42.0268 85.738C40.9762 87.4107 39.852 89.1412 41.0392 90.7245" fill="#263238"/>
<path d="M75.1963 100.697C75.2278 100.366 80.25 96.9155 81.8575 102.801C83.4335 108.514 77.3502 108.893 77.2976 108.729C77.2451 108.566 75.1963 100.697 75.1963 100.697Z" fill="#FFBF9D"/>
<path d="M78.4742 106.084C78.4742 106.057 78.5898 106.126 78.7789 106.157C79.0443 106.192 79.313 106.125 79.5302 105.968C80.0555 105.584 80.3234 104.49 80.0555 103.448C79.938 102.955 79.7098 102.494 79.3883 102.102C79.2883 101.937 79.1492 101.799 78.9833 101.701C78.8174 101.603 78.63 101.547 78.4375 101.539C78.3131 101.537 78.192 101.579 78.0958 101.658C77.9996 101.737 77.9345 101.848 77.9121 101.97C77.8806 102.149 77.9437 102.254 77.9121 102.27C77.8806 102.286 77.765 102.212 77.744 101.96C77.7389 101.81 77.7853 101.664 77.8754 101.544C77.9379 101.462 78.0169 101.393 78.1073 101.342C78.1977 101.291 78.2976 101.26 78.4007 101.25C78.6475 101.232 78.8948 101.278 79.1185 101.384C79.3422 101.49 79.5347 101.652 79.6773 101.855C80.0561 102.282 80.3232 102.797 80.4547 103.354C80.7279 104.516 80.4548 105.752 79.672 106.215C79.531 106.302 79.3722 106.356 79.2075 106.372C79.0427 106.389 78.8765 106.367 78.7212 106.31C78.5215 106.215 78.4585 106.099 78.4742 106.084Z" fill="#FF9A6C"/>
<path d="M76.6987 97.1575C76.5647 97.136 76.4328 97.1026 76.3047 97.0575C76.0473 96.9734 75.6638 96.8734 75.1858 96.6946C73.8432 96.163 72.5611 95.4894 71.3613 94.6853C69.6042 93.4697 67.9153 92.1579 66.3024 90.756C64.3508 89.0315 62.2579 87.4743 60.0457 86.1009C58.8832 85.427 57.65 84.8837 56.3683 84.4809C55.1728 84.1206 53.938 83.9069 52.691 83.8444C50.5712 83.7298 48.4487 84.0153 46.4343 84.686C45.0727 85.1316 43.7761 85.756 42.5783 86.5428C42.1476 86.811 41.8376 87.0688 41.6222 87.2161C41.5148 87.3023 41.4006 87.3797 41.2808 87.4475C41.3721 87.3455 41.4743 87.2538 41.5855 87.174C41.8822 86.9165 42.1945 86.6776 42.5205 86.4586C43.7046 85.6277 45.0013 84.9705 46.3712 84.5072C48.405 83.799 50.5564 83.4917 52.7068 83.6024C53.9764 83.6582 55.2344 83.8702 56.4524 84.2336C57.753 84.6415 59.0055 85.1901 60.1875 85.8695C62.4218 87.2499 64.5312 88.8234 66.4915 90.5719C68.0919 91.9767 69.7629 93.2987 71.4979 94.5327C72.6789 95.3439 73.9371 96.0364 75.2541 96.5999C75.7216 96.7945 76.1051 96.9102 76.352 97.0102C76.4724 97.0472 76.5885 97.0965 76.6987 97.1575Z" fill="#455A64"/>
<path d="M75.6901 99.1562C76.1839 100.697 76.6882 102.312 76.3257 103.89C75.9633 105.468 74.3925 106.894 72.827 106.468C71.5557 106.126 70.8518 104.79 70.3369 103.575C68.845 100.061 67.6315 96.4368 66.1343 92.9442L75.6901 99.1562Z" fill="#263238"/>
<path d="M41.7222 87.6053C41.7222 87.6369 42.2002 87.3791 43.109 87.1109C44.4002 86.7497 45.7503 86.6495 47.0806 86.8163C47.9961 86.9183 48.898 87.1194 49.7703 87.416C50.7732 87.7682 51.7538 88.181 52.7069 88.652C54.9012 89.7074 56.9597 91.025 58.8375 92.576C59.8304 93.4071 60.7497 94.2908 61.7006 95.0798C62.6075 95.8584 63.6039 96.5258 64.6687 97.068C66.4811 97.9396 68.3862 98.6031 70.3476 99.0458C72.0129 99.4351 73.3788 99.6612 74.3244 99.8138L75.4118 99.9768C75.5376 100.005 75.6666 100.016 75.7953 100.008C75.6743 99.9637 75.5494 99.9302 75.4223 99.9085L74.3454 99.6875C73.4103 99.4929 72.0549 99.2352 70.4054 98.8144C68.4732 98.3457 66.5987 97.6648 64.8158 96.784C63.7757 96.2482 62.8024 95.5914 61.916 94.8273C60.9809 94.0435 60.0668 93.1546 59.0634 92.313C57.1589 90.7458 55.0679 89.4208 52.8382 88.368C51.8712 87.9022 50.8764 87.4964 49.8596 87.153C48.9663 86.8583 48.043 86.6642 47.1068 86.5743C45.7485 86.4249 44.374 86.5629 43.0723 86.9794C42.7218 87.0941 42.381 87.2366 42.0531 87.4054C41.9342 87.4566 41.8228 87.5238 41.7222 87.6053Z" fill="#455A64"/>
<path d="M74.2822 95.0324C74.4717 95.1287 74.6731 95.1994 74.8811 95.2428L76.5517 95.7162L77.1138 95.8688C77.3335 95.9337 77.5648 95.9498 77.7915 95.9161C77.9309 95.8944 78.0588 95.8258 78.1539 95.7215C78.2056 95.6637 78.243 95.5946 78.2631 95.5196C78.2832 95.4447 78.2854 95.3661 78.2695 95.2902C78.1889 95.0289 78.0291 94.7991 77.8125 94.6327L75.4275 92.3761L75.2541 92.6444C75.9236 92.9128 76.6347 93.0623 77.3554 93.0862C78.0677 93.1116 78.7789 93.0119 79.4568 92.7917C79.6322 92.7426 79.7988 92.6663 79.9506 92.5655C80.0413 92.5125 80.1193 92.4404 80.1792 92.3541C80.2391 92.2678 80.2794 92.1694 80.2973 92.0658C80.3051 91.9597 80.2866 91.8533 80.2436 91.756C80.2005 91.6588 80.1342 91.5737 80.0504 91.5082C79.9186 91.4048 79.778 91.3133 79.6301 91.2347C78.6856 90.6999 77.8149 90.0439 77.0402 89.2832C76.344 88.5581 75.6997 87.7848 75.1123 86.9688C75.2095 87.2241 75.3384 87.4662 75.4958 87.6895C75.8924 88.3213 76.3537 88.9101 76.8721 89.4463C77.646 90.253 78.5304 90.9454 79.4988 91.503C79.7667 91.6502 80.0241 91.8238 80.0241 92.029C80.0241 92.2341 79.6984 92.4024 79.399 92.4813C78.7523 92.6861 78.0751 92.7769 77.3975 92.7496C76.7226 92.7273 76.0565 92.5904 75.4275 92.3446L74.6132 92.0237L75.2593 92.6128L77.6706 94.8431C77.8447 94.9673 77.9796 95.1389 78.0594 95.3375C78.0961 95.5006 77.9806 95.6321 77.7967 95.6689C77.4101 95.6904 77.023 95.6369 76.6567 95.5111L74.9599 95.1324C74.7389 95.0717 74.5113 95.0382 74.2822 95.0324Z" fill="#455A64"/>
<path d="M57.6869 116.477C57.8836 116.075 58.1799 115.729 58.5477 115.473C58.9155 115.217 59.3425 115.059 59.7882 115.015C60.1073 114.97 60.4322 114.989 60.7436 115.073C61.055 115.156 61.3464 115.301 61.6006 115.499C61.8426 115.689 62.0196 115.949 62.1071 116.244C62.1946 116.539 62.1884 116.854 62.0892 117.145C61.9153 117.45 61.6557 117.697 61.3428 117.855C61.0299 118.013 60.6774 118.075 60.3293 118.034C59.607 117.953 58.9075 117.732 58.27 117.382C58.077 117.308 57.8991 117.199 57.7447 117.061C57.6761 116.995 57.6286 116.909 57.6081 116.816C57.5875 116.722 57.5949 116.625 57.6291 116.535" fill="#FF9A6C"/>
<path d="M60.7231 113.248C60.492 113.29 60.8334 114.826 59.7565 116.193C58.6796 117.561 56.9985 117.771 57.0353 117.998C57.0353 118.098 57.466 118.213 58.1647 118.071C59.0707 117.877 59.8818 117.376 60.4604 116.651C61.007 115.96 61.2632 115.082 61.1749 114.205C61.0856 113.553 60.8282 113.216 60.7231 113.248Z" fill="#263238"/>
<path d="M61.191 131.784C61.191 131.784 50.222 137.286 47.3064 144.413C44.3908 151.541 45.0002 156.059 45.888 163.391C46.7758 170.724 50.6948 198.207 52.5598 202.941C54.0149 206.623 55.9009 211.357 65.6301 209.669C75.3592 207.98 82.6456 206.718 82.6456 206.718V128.954C82.6456 128.954 79.399 135.519 71.6504 136.134C66.77 136.523 61.191 131.784 61.191 131.784Z" fill="#275AA6"/>
<path d="M61.3589 191.764C61.6009 191.651 61.8523 191.56 62.1101 191.49C62.5987 191.327 63.3131 191.117 64.2114 190.885C66.5303 190.28 68.89 189.844 71.2719 189.581C73.6541 189.314 76.0523 189.22 78.448 189.297C79.3673 189.328 80.108 189.371 80.6229 189.423C80.8882 189.434 81.1519 189.469 81.4109 189.528C81.1453 189.555 80.8779 189.555 80.6124 189.528C80.087 189.528 79.3621 189.492 78.4427 189.481C76.0578 189.464 73.674 189.587 71.3034 189.849C68.9338 190.118 66.5816 190.523 64.2587 191.064C63.3657 191.275 62.646 191.453 62.1574 191.59C61.898 191.676 61.6304 191.734 61.3589 191.764Z" fill="#263238"/>
<path d="M57.025 151.067C57.0455 151.208 57.0561 151.351 57.0565 151.493C57.0565 151.798 57.0565 152.203 57.0985 152.714C57.1353 153.766 57.1826 155.307 57.2666 157.2C57.4276 162.129 58.0396 167.033 59.0948 171.849C59.7003 174.493 60.51 177.085 61.5166 179.603C62.3585 181.655 63.415 183.612 64.6686 185.441C65.5151 186.669 66.4585 187.826 67.4896 188.902C67.8469 189.292 68.1568 189.565 68.3459 189.765C68.4537 189.861 68.5521 189.966 68.6401 190.081C68.5222 189.999 68.4115 189.908 68.3091 189.807C68.1043 189.618 67.7838 189.36 67.4161 188.976C66.3468 187.923 65.3728 186.777 64.5057 185.552C63.2294 183.725 62.1566 181.763 61.3064 179.703C60.275 177.177 59.4493 174.572 58.8374 171.913C57.7711 167.073 57.1817 162.14 57.0775 157.185C57.0145 155.291 56.9987 153.755 56.9987 152.698C56.9987 152.172 56.9987 151.777 56.9987 151.472C56.9942 151.337 57.003 151.201 57.025 151.067Z" fill="#263238"/>
<path d="M82.6454 241.113C82.5718 241.113 82.5088 191.706 82.5088 130.769C82.5088 69.8318 82.5718 20.4193 82.6454 20.4193C82.7189 20.4193 82.782 69.816 82.782 130.769C82.782 191.722 82.7242 241.113 82.6454 241.113Z" fill="#263238"/>
<path d="M88.1456 168.904C88.1456 168.904 89.648 167.426 88.1718 166.405C86.6956 165.385 86.2754 165.353 83.302 165.879C80.3286 166.405 78.4742 167.321 78.222 168.809C78.1414 169.221 78.1465 169.645 78.2369 170.055C78.3272 170.465 78.501 170.852 78.7473 171.192C78.7473 171.192 77.2554 171.892 77.2922 174.348L78.1064 176.678C78.1064 176.678 77.019 178.393 77.4813 179.834C77.7196 180.647 78.2133 181.361 78.8892 181.87C78.8892 181.87 78.0329 185.026 78.8892 186.688C79.7455 188.35 82.5035 191.785 82.5035 191.785L82.4509 182.785C82.4509 182.785 88.4765 178.861 88.7287 176.841C88.9808 174.821 88.3872 174.28 88.3872 174.28C88.3872 174.28 89.8844 172.865 88.4713 171.602C88.4818 171.581 89.8004 170.045 88.1456 168.904Z" fill="#FFBE9D"/>
<path d="M88.214 174.285C87.7348 174.647 87.231 174.976 86.7063 175.268C85.7659 175.858 84.4526 176.652 83.0289 177.572C82.3197 178.035 81.6525 178.488 81.0747 178.935C80.5708 179.33 80.1189 179.788 79.7298 180.297C79.4669 180.641 79.2432 181.013 79.0627 181.407C79.0086 181.558 78.9455 181.705 78.8735 181.849C78.939 181.237 79.1819 180.657 79.5722 180.181C79.9497 179.643 80.3966 179.156 80.9013 178.735C81.4844 178.267 82.1516 177.809 82.8661 177.346C84.2897 176.42 85.6188 175.647 86.5907 175.105C87.1076 174.786 87.6506 174.512 88.214 174.285Z" fill="#FF9A6C"/>
<path d="M88.4817 171.581C88.3342 171.671 88.1751 171.74 88.0089 171.786L86.6904 172.26C85.5819 172.665 84.0637 173.207 82.3826 173.901C81.6035 174.215 80.8469 174.582 80.1184 175C79.1684 175.633 78.4062 176.511 77.912 177.541C77.7754 177.841 77.7334 178.019 77.7124 178.014C77.7868 177.365 78.054 176.753 78.4794 176.257C78.8816 175.673 79.3937 175.173 79.9871 174.785C80.7203 174.347 81.4861 173.968 82.2776 173.648C83.9481 172.949 85.5031 172.433 86.6273 172.07C87.1947 171.892 87.6517 171.76 87.9722 171.676C88.1374 171.623 88.3086 171.591 88.4817 171.581Z" fill="#FF9A6C"/>
<path d="M88.2559 168.772C87.8011 168.93 87.3336 169.048 86.8585 169.125C85.9917 169.319 84.7992 169.577 83.4807 169.887C82.1621 170.198 80.9906 170.524 80.1553 170.808C79.32 171.092 78.8525 171.366 78.8262 171.334C78.7999 171.302 78.926 171.229 79.1309 171.087C79.436 170.906 79.7559 170.751 80.087 170.624C81.1734 170.216 82.2862 169.882 83.4176 169.624C84.7414 169.309 85.9445 169.098 86.8218 168.935C87.2923 168.828 87.7733 168.773 88.2559 168.772Z" fill="#FF9A6C"/>
<path d="M362.611 92.7811C363.544 93.5682 364.744 93.9642 365.961 93.8862C367.178 93.8083 368.318 93.2625 369.142 92.3628C369.967 91.4631 370.412 90.2792 370.386 89.0584C370.359 87.8376 369.862 86.6743 368.999 85.8116C369.999 85.5336 370.886 84.9478 371.534 84.1372C372.183 83.3266 372.56 82.3322 372.613 81.2948C372.666 80.2574 372.392 79.2297 371.829 78.3572C371.266 77.4846 370.443 76.8115 369.477 76.433C369.953 75.5289 370.187 74.5168 370.157 73.4952C370.127 72.4736 369.833 71.4773 369.304 70.6031C368.775 69.7289 368.029 69.0066 367.139 68.5064C366.249 68.0063 365.245 67.7453 364.224 67.7488C363.702 66.3587 362.731 65.1833 361.465 64.4094C360.199 63.6355 358.711 63.3075 357.237 63.4777C356.47 62.8182 355.512 62.4224 354.503 62.3482C353.495 62.2741 352.489 62.5256 351.634 63.0658C350.779 63.606 350.12 64.4065 349.752 65.3497C349.385 66.2929 349.329 67.3291 349.593 68.3063" fill="#263238"/>
<path d="M353.99 67.0124L354.889 67.5384C359.259 70.096 362.507 74.2075 363.987 79.0548C365.467 83.902 365.069 89.1293 362.874 93.6964C358.634 102.507 353.843 112.185 351.153 116.667C345.58 125.94 335.393 121.927 335.393 121.927L329.615 133.62L317.238 136.102L307.377 119.654L329.153 77.7638C333.996 67.5752 343.946 61.8997 353.99 67.0124Z" fill="#AE7461"/>
<path d="M335.394 121.932C335.394 121.932 329.31 118.834 325.344 111.223C325.344 111.223 324.404 119.728 334.207 124.341L335.394 121.932Z" fill="#6F4439"/>
<path d="M364.476 88.894C364.476 88.894 365.432 81.5984 363.425 78.5844C360.977 74.9339 357.321 77.8217 354.6 75.0076C351.878 72.1935 349.546 68.6956 344.755 69.2742C339.502 69.8949 340.085 72.8247 337.437 76.8433C326.71 93.1178 320.868 96.0739 324.619 87.6474C325.029 86.7216 323.043 84.6281 324.813 80.7515C327.13 75.7282 330.314 69.8528 333.345 67.0755C335.898 64.7559 338.666 63.7354 342.832 63.2725C349.409 62.5361 355.745 66.1497 359.769 69.0585C363.793 71.9673 369.146 81.793 364.476 88.894Z" fill="#263238"/>
<path d="M325.354 87.7421C325.543 87.3924 325.659 87.0081 325.695 86.6123C325.731 86.2166 325.686 85.8176 325.564 85.4396C325.442 85.0615 325.244 84.7122 324.983 84.4127C324.723 84.1132 324.404 83.8698 324.046 83.6971C322.208 82.8397 319.691 82.6977 317.706 86.3639C314.175 92.8758 321.43 95.0745 321.541 94.8957C321.651 94.7168 323.899 90.472 325.354 87.7421Z" fill="#AE7461"/>
<path d="M321.456 91.6818C321.456 91.645 321.299 91.6818 321.062 91.6818C320.73 91.6516 320.423 91.4931 320.206 91.24C319.681 90.614 319.681 89.2096 320.274 88.0156C320.559 87.4505 320.967 86.9563 321.467 86.5691C321.638 86.3986 321.848 86.2722 322.078 86.2007C322.309 86.1292 322.553 86.1149 322.791 86.1588C322.94 86.1944 323.071 86.2814 323.163 86.4045C323.254 86.5276 323.299 86.679 323.29 86.8321C323.29 87.0635 323.169 87.1687 323.195 87.2003C323.221 87.2318 323.395 87.1687 323.489 86.8689C323.536 86.6944 323.524 86.5091 323.453 86.3429C323.405 86.2246 323.333 86.1171 323.243 86.0267C323.153 85.9364 323.045 85.865 322.927 85.8169C322.632 85.725 322.318 85.7106 322.015 85.7751C321.712 85.8395 321.431 85.9807 321.199 86.1851C320.62 86.5921 320.147 87.1335 319.823 87.7631C319.155 89.0991 319.161 90.6877 319.954 91.4714C320.1 91.617 320.277 91.7276 320.471 91.795C320.666 91.8624 320.874 91.8848 321.078 91.8606C321.357 91.8291 321.472 91.7028 321.456 91.6818Z" fill="#6F4439"/>
<path d="M332.709 75.4389C333.203 76.4909 333.76 77.585 334.679 78.2688C335.599 78.9526 337.096 79.0473 337.831 78.1531C338.162 77.7533 338.357 77.1747 338.85 77.0011C339.439 76.796 340.006 77.3009 340.505 77.6691C342.249 78.9526 345.611 78.1952 347.14 76.6435C347.183 77.1303 347.408 77.5829 347.771 77.9099C348.133 78.2369 348.606 78.4141 349.094 78.4055C349.895 78.3873 350.686 78.2289 351.432 77.9374C352.367 77.6218 353.491 77.5114 354.264 78.1215C354.695 78.4687 354.973 79.0052 355.472 79.2419C356.355 79.6574 357.337 78.9158 357.952 78.1583C358.566 77.4009 359.228 76.4856 360.205 76.4488C361.104 76.412 361.818 77.1537 362.522 77.7217C363.226 78.2898 364.329 78.6896 364.965 78.0479C365.116 77.865 365.229 77.6532 365.297 77.4254C365.365 77.1976 365.386 76.9585 365.359 76.7223C365.291 75.6459 364.862 74.6238 364.142 73.8212C363.423 73.0186 362.454 72.4822 361.393 72.2987C361.699 71.0514 361.629 69.7411 361.192 68.5335C360.755 67.3259 359.97 66.2751 358.937 65.514C357.903 64.7529 356.668 64.3157 355.386 64.2575C354.105 64.1993 352.835 64.5228 351.737 65.1872C351.418 64.1756 350.86 63.256 350.111 62.5062C349.362 61.7564 348.443 61.1986 347.433 60.8802C346.422 60.5617 345.35 60.4919 344.307 60.6767C343.264 60.8615 342.28 61.2954 341.44 61.9417C340.778 61.2828 339.938 60.8328 339.023 60.6474C338.108 60.462 337.159 60.5494 336.294 60.8988C335.428 61.2482 334.684 61.8443 334.153 62.6131C333.622 63.3819 333.329 64.2897 333.308 65.224C331.774 65.224 330.13 65.75 329.331 67.0808C328.533 68.4115 329.053 70.4577 330.529 70.8575C329.921 71.2062 329.476 71.7826 329.292 72.4598C329.109 73.137 329.201 73.8595 329.549 74.4684C329.898 75.0774 330.473 75.5228 331.15 75.7068C331.826 75.8908 332.548 75.7982 333.156 75.4494" fill="#263238"/>
<path d="M360.788 74.4553C360.788 74.4553 360.788 74.5026 360.715 74.571C360.641 74.6394 360.589 74.7604 360.479 74.8919C360.139 75.2727 359.74 75.596 359.297 75.8492C358.593 76.2518 357.805 76.4859 356.996 76.533C355.922 76.6121 354.851 76.3368 353.949 75.7492L354.138 75.6703C353.991 76.364 353.575 76.9711 352.982 77.3588C352.36 77.7652 351.682 78.0789 350.97 78.2898C350.603 78.436 350.22 78.5418 349.83 78.6054C349.409 78.6369 348.986 78.5628 348.601 78.3898C348.192 78.2242 347.83 77.9606 347.547 77.6222C347.264 77.2837 347.068 76.8808 346.977 76.4488L347.256 76.5225C346.777 77.1295 346.177 77.6301 345.494 77.9923C344.811 78.3545 344.06 78.5705 343.29 78.6265C342.421 78.7259 341.544 78.5413 340.789 78.1005C340.101 77.6522 339.493 77.0902 338.992 76.4383H339.208C338.424 77.0175 337.509 77.3917 336.544 77.5271C336.09 77.6097 335.623 77.5903 335.177 77.4703C334.731 77.3502 334.317 77.1325 333.965 76.8328C333.38 76.2952 332.964 75.5981 332.769 74.8272C332.574 74.0563 332.608 73.2451 332.867 72.4933L332.972 72.6458C332.092 72.6078 331.252 72.2679 330.592 71.6833C330.095 71.2556 329.707 70.7144 329.463 70.1053C329.308 69.7234 329.221 69.3177 329.205 68.906C329.199 68.7632 329.21 68.6202 329.237 68.4799C329.253 69.0225 329.369 69.5575 329.578 70.0579C329.836 70.6343 330.222 71.1437 330.708 71.5465C331.344 72.0868 332.144 72.3946 332.977 72.4197H333.135L333.082 72.5722C332.848 73.2768 332.823 74.0342 333.009 74.7529C333.196 75.4717 333.586 76.121 334.133 76.6224C334.455 76.8934 334.834 77.0885 335.241 77.1932C335.648 77.2979 336.074 77.3096 336.487 77.2273C337.398 77.0896 338.26 76.7282 338.998 76.1753L339.113 76.0859L339.213 76.1963C339.694 76.8141 340.275 77.3474 340.931 77.7743C341.627 78.1857 342.439 78.3592 343.242 78.2688C343.971 78.2148 344.681 78.0092 345.326 77.665C345.971 77.3208 346.537 76.8457 346.988 76.27L347.203 75.9912L347.266 76.3384C347.348 76.7195 347.521 77.075 347.771 77.3738C348.021 77.6726 348.34 77.9058 348.701 78.0531C349.04 78.2066 349.411 78.2752 349.783 78.253C350.142 78.1912 350.494 78.0924 350.833 77.9584C351.521 77.7624 352.176 77.4664 352.777 77.08C353.313 76.7333 353.691 76.189 353.828 75.5651L353.865 75.381L354.022 75.4862C354.876 76.0569 355.892 76.3338 356.917 76.2752C357.7 76.2437 358.467 76.0371 359.16 75.6703C359.77 75.3648 360.322 74.9534 360.788 74.4553Z" fill="#455A64"/>
<path d="M353.465 100.177C353.365 100.353 353.231 100.507 353.071 100.631C352.911 100.755 352.728 100.846 352.533 100.899C352.338 100.953 352.134 100.967 351.933 100.941C351.733 100.916 351.539 100.851 351.364 100.75C351.188 100.663 351.031 100.541 350.902 100.392C350.774 100.243 350.677 100.07 350.616 99.8825C350.555 99.6954 350.533 99.498 350.549 99.3019C350.566 99.1058 350.621 98.915 350.712 98.7407C350.813 98.5648 350.946 98.4105 351.106 98.2865C351.266 98.1625 351.449 98.0712 351.644 98.018C351.839 97.9647 352.043 97.9505 352.244 97.9761C352.444 98.0018 352.638 98.0668 352.814 98.1674C352.99 98.2549 353.146 98.3767 353.275 98.5257C353.403 98.6746 353.501 98.8478 353.561 99.0349C353.622 99.2221 353.645 99.4195 353.628 99.6155C353.612 99.8116 353.556 100.002 353.465 100.177Z" fill="#263238"/>
<path d="M359.102 97.4836C358.834 97.5572 358.277 96.2159 356.848 95.3796C355.419 94.5432 353.959 94.6169 353.906 94.3276C353.906 94.2013 354.232 93.9909 354.883 93.9331C355.755 93.873 356.623 94.0862 357.368 94.5432C358.109 94.9833 358.691 95.6485 359.028 96.4421C359.265 97.0523 359.228 97.452 359.102 97.4836Z" fill="#263238"/>
<path d="M337.09 101.87C337.342 101.991 336.88 103.37 337.4 104.948C337.92 106.526 339.081 107.425 338.945 107.656C338.887 107.772 338.482 107.699 337.952 107.315C337.256 106.781 336.741 106.047 336.476 105.211C336.207 104.389 336.207 103.502 336.476 102.68C336.686 102.086 336.975 101.807 337.09 101.87Z" fill="#263238"/>
<path d="M340.416 93.3966C340.213 93.7438 339.882 93.9977 339.494 94.1038C339.106 94.21 338.692 94.16 338.341 93.9646C338.165 93.8772 338.008 93.7554 337.88 93.6063C337.752 93.4572 337.654 93.2839 337.594 93.0966C337.534 92.9092 337.512 92.7118 337.529 92.5157C337.546 92.3197 337.603 92.1292 337.695 91.9553C337.897 91.6086 338.227 91.3546 338.613 91.2475C339 91.1404 339.413 91.1887 339.765 91.382C339.941 91.4695 340.099 91.5915 340.228 91.7408C340.356 91.8902 340.454 92.0639 340.515 92.2517C340.575 92.4394 340.598 92.6375 340.581 92.8341C340.564 93.0308 340.508 93.222 340.416 93.3966Z" fill="#263238"/>
<path d="M344.96 89.4516C344.692 89.5252 344.13 88.1786 342.706 87.3476C341.283 86.5165 339.817 86.5849 339.765 86.2956C339.733 86.1746 340.085 85.9642 340.742 85.9063C341.613 85.8462 342.482 86.0595 343.227 86.5165C343.968 86.9565 344.549 87.6217 344.887 88.4153C345.144 89.0202 345.086 89.42 344.96 89.4516Z" fill="#263238"/>
<path d="M343.515 103.454C343.557 103.37 344.529 103.748 346.074 104.422C346.457 104.606 346.846 104.737 347.056 104.527C347.312 104.169 347.453 103.741 347.461 103.301C347.643 102.218 347.837 101.08 348.044 99.8874C348.911 95.0482 349.767 91.1611 349.961 91.1979C350.156 91.2347 349.615 95.185 348.742 100.024C348.522 101.213 348.312 102.344 348.107 103.427C348.073 104.004 347.836 104.55 347.44 104.969C347.31 105.064 347.161 105.129 347.002 105.159C346.844 105.189 346.681 105.183 346.526 105.142C346.292 105.075 346.068 104.98 345.858 104.858C344.366 104.069 343.468 103.538 343.515 103.454Z" fill="#263238"/>
<path d="M348.968 84.4072C348.606 84.7228 347.266 83.7287 345.449 82.987C343.631 82.2453 342.002 81.935 341.976 81.4563C341.976 81.2302 342.417 80.9935 343.184 80.9303C344.184 80.8739 345.184 81.0468 346.107 81.4361C347.031 81.8253 347.853 82.4206 348.511 83.1764C348.995 83.7707 349.136 84.2547 348.968 84.4072Z" fill="#263238"/>
<path d="M361.035 92.0132C360.578 92.1868 359.722 91.2347 358.461 90.4878C357.2 89.7409 355.997 89.3464 355.945 88.8625C355.945 88.6363 356.292 88.4048 356.938 88.368C357.793 88.3556 358.634 88.5952 359.354 89.0571C360.087 89.4936 360.674 90.1379 361.041 90.9086C361.293 91.524 361.245 91.9238 361.035 92.0132Z" fill="#263238"/>
<path d="M342.885 139.106L333.219 127.723C323.763 127.387 314.622 120.422 312.872 108.924L303.238 104.474L298.247 105.784L298.462 208.354C298.462 208.354 326.2 179.761 326.2 179.271C326.2 178.782 342.885 139.106 342.885 139.106Z" fill="#275AA6"/>
<path d="M307.998 176.531L318.562 183.679L333.13 155.17L342.885 139.195C342.885 139.195 350.003 146.075 347.088 159.331C344.172 172.586 338.257 186.577 338.257 186.577L335.073 195.341C335.073 195.341 332.72 203.867 329.951 206.508C327.183 209.148 317.958 211.126 313.477 208.885C308.996 206.644 299.44 189.328 299.44 189.328C305.744 185.568 309.421 180.118 307.998 176.531Z" fill="#275AA6"/>
<path d="M337.737 151.872C337.691 151.941 337.642 152.008 337.59 152.072L337.122 152.629L335.341 154.733L328.916 162.208V162.182L323.08 174.537C321.504 177.793 320.038 180.902 318.683 183.737L318.63 183.569C320.664 184.655 322.519 186.048 324.131 187.698C325.399 188.993 326.461 190.474 327.283 192.09C327.815 193.142 328.239 194.245 328.549 195.383C328.659 195.777 328.712 196.093 328.759 196.298C328.787 196.401 328.807 196.507 328.817 196.614C328.774 196.516 328.743 196.413 328.722 196.308C328.659 196.103 328.591 195.782 328.47 195.409C328.129 194.289 327.686 193.203 327.146 192.164C326.316 190.575 325.254 189.119 323.994 187.845C322.378 186.224 320.525 184.859 318.499 183.795L318.394 183.737L318.447 183.627L322.823 174.416C324.976 169.903 327.025 165.674 328.717 162.087L335.236 154.644L337.07 152.577L337.558 152.051C337.611 151.985 337.671 151.925 337.737 151.872Z" fill="#263238"/>
<path d="M307.714 202.631C307.648 202.558 307.59 202.479 307.54 202.394C307.42 202.21 307.262 201.973 307.068 201.668C306.647 201.016 306.059 200.09 305.323 198.938C303.837 196.571 301.756 193.263 299.329 189.392L299.256 189.276L299.377 189.213C301.827 187.97 304.004 186.25 305.78 184.153C306.699 183.042 307.411 181.775 307.882 180.413C308.098 179.768 308.232 179.098 308.281 178.419C308.31 178.094 308.31 177.766 308.281 177.441C308.26 177.285 308.225 177.132 308.176 176.983C308.144 176.854 308.077 176.735 307.982 176.641L308.118 176.426L317.396 182.648L320.022 184.452L320.721 184.942C320.805 184.996 320.884 185.058 320.957 185.126C320.866 185.087 320.78 185.037 320.7 184.978L319.975 184.526L317.285 182.78L307.95 176.636L308.087 176.42C308.239 176.543 308.347 176.71 308.397 176.899C308.451 177.07 308.49 177.247 308.512 177.425C308.556 177.774 308.566 178.126 308.544 178.477C308.494 179.178 308.358 179.871 308.139 180.539C307.674 181.93 306.962 183.225 306.038 184.363C304.239 186.491 302.028 188.232 299.54 189.481L299.587 189.302L305.497 198.896L307.178 201.668L307.619 202.41C307.654 202.482 307.686 202.556 307.714 202.631Z" fill="#263238"/>
<path d="M305.529 174.243L304.972 174.548L299.44 178.987C299.44 178.987 298.358 182.669 298.389 182.906C298.421 183.143 300.927 188.308 300.927 188.308C308.523 183.832 308.281 178.03 308.281 178.03C308.281 178.03 305.812 174.632 305.529 174.243Z" fill="#AE7461"/>
<path d="M298.247 241.96C298.169 241.96 298.111 193.105 298.111 132.857C298.111 72.609 298.169 23.7384 298.247 23.7384C298.326 23.7384 298.389 72.588 298.389 132.862C298.389 193.137 298.321 241.96 298.247 241.96Z" fill="#263238"/>
<path d="M298.058 94.6327C298.058 94.6327 304.494 96.8682 305.135 98.5724C305.49 99.6827 305.394 100.889 304.867 101.928C304.867 101.928 305.697 103.743 305.361 105.237C305.024 106.731 304.494 106.815 304.494 106.815C304.918 107.071 305.244 107.464 305.416 107.929C305.589 108.395 305.599 108.905 305.445 109.376C305.258 110.344 304.733 111.213 303.963 111.828C303.963 111.828 304.709 114.01 303.753 115.662C302.797 117.314 302.582 119.286 300.769 119.497C298.957 119.707 290.609 117.046 289.968 115.236C289.327 113.427 292.043 112.464 292.043 112.464C292.043 112.464 286.617 110.918 286.722 109.056C286.827 107.194 288.823 106.552 288.823 106.552C288.823 106.552 287.174 105.752 288.503 104.153C289.832 102.554 292.39 103.512 293.509 103.627C293.509 103.627 293.294 101.281 295.637 101.439L298.085 101.386L298.058 94.6327Z" fill="#AE7461"/>
<path d="M304.588 102.354C304.544 102.525 304.479 102.689 304.394 102.844C304.252 103.149 304.037 103.59 303.748 104.127C303.606 104.39 303.443 104.685 303.222 104.984C303.124 105.161 302.992 105.317 302.834 105.442C302.637 105.521 302.43 105.571 302.219 105.589C301.346 105.677 300.469 105.719 299.592 105.715C298.668 105.715 297.79 105.715 296.966 105.647C296.248 105.525 295.567 105.247 294.969 104.832C294.559 104.581 294.166 104.304 293.793 104.001C293.53 103.785 293.399 103.648 293.414 103.638C293.572 103.714 293.72 103.807 293.856 103.917C294.139 104.101 294.544 104.369 295.064 104.669C295.65 105.034 296.301 105.282 296.981 105.4C297.775 105.442 298.652 105.447 299.571 105.442C300.491 105.437 301.368 105.416 302.151 105.337C302.33 105.326 302.507 105.291 302.676 105.232C302.806 105.129 302.915 105.002 302.996 104.858C303.196 104.569 303.364 104.29 303.522 104.027C304.194 102.991 304.551 102.333 304.588 102.354Z" fill="#6F4439"/>
<path d="M301.751 98.7302C301.074 99.1512 300.473 99.6848 299.976 100.308C299.817 100.526 299.68 100.758 299.566 101.003L299.529 101.081H299.44C298.924 101.078 298.414 101.191 297.948 101.413C297.948 101.413 298.042 101.255 298.294 101.108C298.647 100.905 299.049 100.807 299.455 100.824L299.329 100.903C299.442 100.638 299.585 100.387 299.755 100.156C300.098 99.6718 300.545 99.271 301.063 98.9827C301.462 98.7565 301.741 98.6986 301.751 98.7302Z" fill="#6F4439"/>
<path d="M299.965 96.4894C299.965 96.5263 299.766 96.6472 299.44 96.8945C299.053 97.2156 298.741 97.6178 298.526 98.0727C298.319 98.53 298.215 99.0275 298.221 99.5297C298.238 99.745 298.238 99.9614 298.221 100.177C298.19 100.177 298.069 99.9558 298.011 99.5455C297.947 99.003 298.034 98.4533 298.263 97.9575C298.493 97.4617 298.854 97.0391 299.309 96.7367C299.687 96.5157 299.965 96.4579 299.965 96.4894Z" fill="#6F4439"/>
<path d="M304.562 106.909C304.467 107.125 304.349 107.329 304.21 107.52C303.865 108.064 303.461 108.568 303.007 109.024C302.324 109.732 301.403 110.161 300.422 110.229C299.303 110.271 298.174 109.85 296.997 109.518C294.638 108.808 292.532 108.061 291.013 107.509C290.257 107.236 289.642 106.983 289.222 106.841C289 106.766 288.786 106.671 288.581 106.557C288.813 106.592 289.04 106.652 289.259 106.736L291.076 107.33C292.61 107.856 294.722 108.545 297.076 109.255C298.258 109.592 299.377 110.008 300.412 109.976C301.338 109.92 302.212 109.532 302.875 108.882C303.334 108.447 303.751 107.969 304.12 107.457C304.252 107.262 304.399 107.079 304.562 106.909Z" fill="#6F4439"/>
<path d="M304.242 111.975C304.167 112.128 304.074 112.271 303.963 112.401C303.687 112.777 303.379 113.128 303.044 113.453C302.549 113.941 301.964 114.327 301.321 114.589C300.519 114.884 299.655 114.975 298.81 114.852C297.975 114.735 297.16 114.51 296.383 114.184C295.668 113.9 295.038 113.616 294.507 113.39C293.456 112.927 292.763 112.738 292.774 112.695C292.952 112.695 293.13 112.725 293.299 112.785C293.742 112.903 294.179 113.046 294.607 113.211C295.694 113.595 297.139 114.347 298.867 114.579C299.671 114.7 300.491 114.622 301.258 114.352C301.879 114.107 302.45 113.751 302.944 113.3C303.769 112.522 304.2 111.938 304.242 111.975Z" fill="#6F4439"/>
<path d="M284.069 161.771C284.069 161.771 282.797 159.846 285.298 158.868C287.798 157.889 292.695 156.29 294.229 156.148C295.763 156.006 303.8 158 303.8 158C303.8 158 306.626 158.831 306.59 160.867L306.064 162.786C306.722 163.541 307.084 164.509 307.083 165.511C307 166.439 306.674 167.328 306.138 168.089L305.812 174.632C305.812 174.632 305.523 179.366 303.711 181.275C301.898 183.185 298.925 182.69 298.925 182.69L298.4 182.885C298.4 182.885 294.917 180.218 295.862 176.846L291.922 174.164C291.922 174.164 283.548 173.001 283.112 170.75L283.26 169.588C283.26 169.588 280.144 169.12 280.144 166.958V165.869C279.856 165.587 279.662 165.223 279.59 164.826C279.519 164.429 279.573 164.019 279.745 163.654C280.36 162.381 280.974 161.982 282.372 161.95C282.943 161.977 283.515 161.916 284.069 161.771Z" fill="#AE7461"/>
<path d="M298.594 171.15C297.835 171.175 297.077 171.094 296.34 170.908C295.647 170.787 294.833 170.619 293.924 170.44C293.472 170.35 292.994 170.256 292.505 170.187C292.017 170.119 291.491 170.119 290.961 170.077C288.828 169.945 286.9 169.803 285.503 169.693L283.853 169.546C283.649 169.539 283.446 169.507 283.249 169.451C283.451 169.427 283.656 169.427 283.858 169.451L285.518 169.514C286.916 169.577 288.844 169.688 290.971 169.819C291.497 169.861 292.022 169.877 292.547 169.94C293.073 170.003 293.525 170.114 293.982 170.208L296.382 170.734C297.065 170.887 297.617 170.992 298 171.06C298.2 171.075 298.399 171.105 298.594 171.15Z" fill="#6F4439"/>
<path d="M299.671 166.584C299.416 166.628 299.156 166.637 298.899 166.61C298.405 166.61 297.691 166.547 296.797 166.474C295.904 166.4 294.864 166.305 293.703 166.19L291.875 166.006C291.25 165.948 290.588 165.942 289.916 165.921C287.221 165.885 284.778 165.921 283.007 165.921H280.906C280.65 165.928 280.394 165.916 280.139 165.885C280.391 165.832 280.649 165.807 280.906 165.811C281.4 165.811 282.114 165.758 283.007 165.732C284.778 165.679 287.21 165.622 289.926 165.658C290.604 165.658 291.26 165.685 291.907 165.748L293.735 165.948L296.818 166.295L298.92 166.511C299.171 166.521 299.422 166.546 299.671 166.584Z" fill="#6F4439"/>
<path d="M301.221 161.603C301.007 161.69 300.778 161.731 300.548 161.724C299.929 161.741 299.309 161.716 298.694 161.65C297.916 161.582 296.992 161.461 295.972 161.345C294.872 161.201 293.762 161.134 292.652 161.145C292.078 161.174 291.507 161.235 290.94 161.329C290.378 161.408 289.842 161.461 289.327 161.508C288.276 161.598 287.367 161.656 286.59 161.703C285.812 161.75 285.182 161.771 284.746 161.782C284.521 161.807 284.294 161.807 284.068 161.782C284.288 161.724 284.514 161.692 284.741 161.687L286.579 161.519L289.301 161.266C289.826 161.214 290.351 161.156 290.877 161.077C291.45 160.975 292.029 160.91 292.61 160.882C293.737 160.871 294.862 160.945 295.978 161.103L298.688 161.466C299.461 161.561 300.086 161.619 300.522 161.629C300.958 161.64 301.21 161.582 301.221 161.603Z" fill="#6F4439"/>
</svg>
