<svg width="25" height="25" viewBox="0 0 25 25" fill="none" xmlns="http://www.w3.org/2000/svg">
<path d="M11.75 17.5H13.75V13.5H17.75V11.5H13.75V7.5H11.75V11.5H7.75V13.5H11.75V17.5ZM12.75 22.5C11.3667 22.5 10.0667 22.2373 8.85 21.712C7.63333 21.1873 6.575 20.475 5.675 19.575C4.775 18.675 4.06267 17.6167 3.538 16.4C3.01267 15.1833 2.75 13.8833 2.75 12.5C2.75 11.1167 3.01267 9.81667 3.538 8.6C4.06267 7.38333 4.775 6.325 5.675 5.425C6.575 4.525 7.63333 3.81233 8.85 3.287C10.0667 2.76233 11.3667 2.5 12.75 2.5C14.1333 2.5 15.4333 2.76233 16.65 3.287C17.8667 3.81233 18.925 4.525 19.825 5.425C20.725 6.325 21.4373 7.38333 21.962 8.6C22.4873 9.81667 22.75 11.1167 22.75 12.5C22.75 13.8833 22.4873 15.1833 21.962 16.4C21.4373 17.6167 20.725 18.675 19.825 19.575C18.925 20.475 17.8667 21.1873 16.65 21.712C15.4333 22.2373 14.1333 22.5 12.75 22.5ZM12.75 20.5C14.9833 20.5 16.875 19.725 18.425 18.175C19.975 16.625 20.75 14.7333 20.75 12.5C20.75 10.2667 19.975 8.375 18.425 6.825C16.875 5.275 14.9833 4.5 12.75 4.5C10.5167 4.5 8.625 5.275 7.075 6.825C5.525 8.375 4.75 10.2667 4.75 12.5C4.75 14.7333 5.525 16.625 7.075 18.175C8.625 19.725 10.5167 20.5 12.75 20.5Z" fill="#808080"/>
</svg>
