<svg width="50" height="50" viewBox="0 0 50 50" fill="none" xmlns="http://www.w3.org/2000/svg">
<path d="M45.5417 26L39.8959 16.6667C39.5323 16.0369 39.0103 15.5133 38.3816 15.1478C37.753 14.7823 37.0397 14.5877 36.3125 14.5833H31.25V10.4167C31.25 9.86413 31.0305 9.33422 30.6398 8.94352C30.2491 8.55282 29.7192 8.33333 29.1667 8.33333H8.33335C7.22828 8.33333 6.16848 8.77231 5.38708 9.55372C4.60567 10.3351 4.16669 11.3949 4.16669 12.5V33.3333C4.16744 34.064 4.36032 34.7816 4.72598 35.4142C5.09165 36.0468 5.61723 36.5722 6.25002 36.9375C6.17543 38.8714 6.87212 40.7557 8.18683 42.1759C9.50153 43.5961 11.3266 44.4358 13.2604 44.5104C15.1943 44.585 17.0786 43.8883 18.4988 42.5736C19.919 41.2589 20.7588 39.4339 20.8334 37.5H27.2917C27.5221 39.2431 28.3781 40.8431 29.7003 42.0021C31.0225 43.1611 32.7209 43.8001 34.4792 43.8001C36.2375 43.8001 37.9358 43.1611 39.2581 42.0021C40.5803 40.8431 41.4363 39.2431 41.6667 37.5C42.7718 37.5 43.8316 37.061 44.613 36.2796C45.3944 35.4982 45.8334 34.4384 45.8334 33.3333V27.0833C45.8301 26.7033 45.7297 26.3303 45.5417 26ZM13.5417 39.5833C12.9236 39.5833 12.3194 39.4 11.8055 39.0567C11.2916 38.7133 10.8911 38.2252 10.6546 37.6542C10.418 37.0832 10.3562 36.4549 10.4767 35.8487C10.5973 35.2425 10.8949 34.6857 11.332 34.2486C11.769 33.8116 12.3258 33.514 12.932 33.3934C13.5382 33.2728 14.1666 33.3347 14.7376 33.5712C15.3086 33.8077 15.7966 34.2083 16.14 34.7222C16.4834 35.2361 16.6667 35.8403 16.6667 36.4583C16.6667 37.2871 16.3374 38.082 15.7514 38.668C15.1653 39.2541 14.3705 39.5833 13.5417 39.5833ZM25 22.9167H20.8334V27.0833H16.6667V22.9167H12.5V18.75H16.6667V14.5833H20.8334V18.75H25V22.9167ZM34.375 39.5833C33.757 39.5833 33.1528 39.4 32.6389 39.0567C32.125 38.7133 31.7244 38.2252 31.4879 37.6542C31.2514 37.0832 31.1895 36.4549 31.3101 35.8487C31.4306 35.2425 31.7283 34.6857 32.1653 34.2486C32.6023 33.8116 33.1592 33.514 33.7654 33.3934C34.3716 33.2728 34.9999 33.3347 35.5709 33.5712C36.1419 33.8077 36.63 34.2083 36.9734 34.7222C37.3167 35.2361 37.5 35.8403 37.5 36.4583C37.5 37.2871 37.1708 38.082 36.5847 38.668C35.9987 39.2541 35.2038 39.5833 34.375 39.5833ZM31.25 25V18.75H36.3125L40.0625 25H31.25Z" fill="#932626"/>
</svg>
