<svg width="25" height="25" viewBox="0 0 25 25" fill="none" xmlns="http://www.w3.org/2000/svg">
<path d="M11.494 16.6309C11.6407 16.779 11.723 16.979 11.723 17.1875C11.723 17.396 11.6407 17.596 11.494 17.7441L8.36902 20.8691C8.21969 21.0135 8.0201 21.0942 7.81238 21.0942C7.60466 21.0942 7.40507 21.0135 7.25574 20.8691L4.13074 17.7441C4.00616 17.5923 3.94249 17.3996 3.95212 17.2035C3.96176 17.0074 4.044 16.8218 4.18286 16.683C4.32171 16.5441 4.50725 16.4619 4.70339 16.4522C4.89952 16.4426 5.09223 16.5063 5.24402 16.6309L7.03113 18.4277V4.6875C7.03113 4.4803 7.11344 4.28159 7.25995 4.13507C7.40646 3.98856 7.60518 3.90625 7.81238 3.90625C8.01958 3.90625 8.21829 3.98856 8.36481 4.13507C8.51132 4.28159 8.59363 4.4803 8.59363 4.6875V18.4277L10.3807 16.6309C10.5289 16.4842 10.7289 16.4019 10.9374 16.4019C11.1459 16.4019 11.3459 16.4842 11.494 16.6309ZM20.869 7.25586L17.744 4.13086C17.5959 3.98416 17.3959 3.90186 17.1874 3.90186C16.9789 3.90186 16.7789 3.98416 16.6307 4.13086L13.5057 7.25586C13.3812 7.40765 13.3175 7.60036 13.3271 7.79649C13.3368 7.99263 13.419 8.17817 13.5579 8.31702C13.6967 8.45588 13.8823 8.53812 14.0784 8.54775C14.2745 8.55739 14.4672 8.49372 14.619 8.36914L16.4061 6.57227V20.3125C16.4061 20.5197 16.4884 20.7184 16.635 20.8649C16.7815 21.0114 16.9802 21.0938 17.1874 21.0938C17.3946 21.0938 17.5933 21.0114 17.7398 20.8649C17.8863 20.7184 17.9686 20.5197 17.9686 20.3125V6.57227L19.7557 8.36914C19.9051 8.51353 20.1047 8.59425 20.3124 8.59425C20.5201 8.59425 20.7197 8.51353 20.869 8.36914C21.0157 8.22102 21.098 8.02097 21.098 7.8125C21.098 7.60403 21.0157 7.40398 20.869 7.25586Z" fill="white"/>
</svg>
