<svg width="25" height="25" viewBox="0 0 25 25" fill="none" xmlns="http://www.w3.org/2000/svg">
<g clip-path="url(#clip0_162_321)">
<path d="M22.75 2.74738L16.7448 2.74741V1.25265C16.7448 0.83828 16.4091 0.502655 15.9948 0.502655C15.5804 0.502655 15.2448 0.83828 15.2448 1.25265V2.74703H9.24475V1.25265C9.24475 0.83828 8.90913 0.502655 8.49475 0.502655C8.08038 0.502655 7.74475 0.83828 7.74475 1.25265V2.74703H1.75C0.921625 2.74703 0.25 3.41865 0.25 4.24703V22.997C0.25 23.8254 0.921625 24.497 1.75 24.497H22.75C23.5784 24.497 24.25 23.8254 24.25 22.997V4.24703C24.25 3.41901 23.5784 2.74738 22.75 2.74738ZM22.75 22.997H1.75V4.24703H7.74475V5.00266C7.74475 5.41701 8.08038 5.75266 8.49475 5.75266C8.90913 5.75266 9.24475 5.41701 9.24475 5.00266V4.24741H15.2448V5.00303C15.2448 5.4174 15.5804 5.75303 15.9948 5.75303C16.4091 5.75303 16.7448 5.4174 16.7448 5.00303V4.24741H22.75V22.997ZM17.5 12.4974H19C19.414 12.4974 19.75 12.1614 19.75 11.7474V10.2474C19.75 9.83338 19.414 9.49738 19 9.49738H17.5C17.086 9.49738 16.75 9.83338 16.75 10.2474V11.7474C16.75 12.1614 17.086 12.4974 17.5 12.4974ZM17.5 18.497H19C19.414 18.497 19.75 18.1614 19.75 17.747V16.247C19.75 15.833 19.414 15.497 19 15.497H17.5C17.086 15.497 16.75 15.833 16.75 16.247V17.747C16.75 18.1618 17.086 18.497 17.5 18.497ZM13 15.497H11.5C11.086 15.497 10.75 15.833 10.75 16.247V17.747C10.75 18.1614 11.086 18.497 11.5 18.497H13C13.414 18.497 13.75 18.1614 13.75 17.747V16.247C13.75 15.8334 13.414 15.497 13 15.497ZM13 9.49738H11.5C11.086 9.49738 10.75 9.83338 10.75 10.2474V11.7474C10.75 12.1614 11.086 12.4974 11.5 12.4974H13C13.414 12.4974 13.75 12.1614 13.75 11.7474V10.2474C13.75 9.83301 13.414 9.49738 13 9.49738ZM7 9.49738H5.5C5.086 9.49738 4.75 9.83338 4.75 10.2474V11.7474C4.75 12.1614 5.086 12.4974 5.5 12.4974H7C7.414 12.4974 7.75 12.1614 7.75 11.7474V10.2474C7.75 9.83301 7.414 9.49738 7 9.49738ZM7 15.497H5.5C5.086 15.497 4.75 15.833 4.75 16.247V17.747C4.75 18.1614 5.086 18.497 5.5 18.497H7C7.414 18.497 7.75 18.1614 7.75 17.747V16.247C7.75 15.8334 7.414 15.497 7 15.497Z" fill="#808080"/>
</g>
<defs>
<clipPath id="clip0_162_321">
<rect width="24" height="24" fill="white" transform="translate(0.25 0.5)"/>
</clipPath>
</defs>
</svg>
