<svg width="25" height="25" viewBox="0 0 25 25" fill="none" xmlns="http://www.w3.org/2000/svg">
<path d="M12.4292 9.35418L10.7062 10.9C10.9324 11.6801 11.2506 12.4305 11.6542 13.1354C12.0742 13.8355 12.5794 14.4807 13.1583 15.0563L15.3896 14.3688C16.6396 13.9833 18.0042 14.3792 18.8354 15.3688L20.1062 16.8813C20.6208 17.4884 20.8787 18.2721 20.8255 19.0662C20.7722 19.8603 20.4119 20.6024 19.8208 21.1354C17.7479 23.0271 14.5562 23.6667 12.1667 21.7896C10.0665 20.1359 8.28954 18.109 6.925 15.8104C5.55746 13.5227 4.64225 10.9935 4.22916 8.36043C3.77083 5.39793 5.93958 3.0271 8.64375 2.21877C10.2562 1.73543 11.9771 2.5646 12.5687 4.11043L13.2667 5.93335C13.725 7.13335 13.3958 8.48751 12.4292 9.35418Z" fill="#275AA6"/>
</svg>
