<svg width="50" height="50" viewBox="0 0 50 50" fill="none" xmlns="http://www.w3.org/2000/svg">
<path d="M45.2083 21.4583L26.4583 4.79167C25.625 4.16667 24.5833 4.16667 23.75 4.79167L5 21.4583C4.16667 22.2917 3.95834 23.5417 4.79167 24.375C5.625 25.2083 6.875 25.4167 7.70834 24.5833L8.33334 23.75V43.75C8.33334 45 9.16667 45.8333 10.4167 45.8333H39.5833C40.8333 45.8333 41.6667 45 41.6667 43.75V23.75L42.2917 24.375C43.125 25.2083 44.375 25 45.2083 24.1667C46.0417 23.5417 46.0417 22.0833 45.2083 21.4583ZM29.1667 31.25H27.0833V33.3333C27.0833 34.5833 26.25 35.4167 25 35.4167C23.75 35.4167 22.9167 34.5833 22.9167 33.3333V31.25H20.8333C19.5833 31.25 18.75 30.4167 18.75 29.1667C18.75 27.9167 19.5833 27.0833 20.8333 27.0833H22.9167V25C22.9167 23.75 23.75 22.9167 25 22.9167C26.25 22.9167 27.0833 23.75 27.0833 25V27.0833H29.1667C30.4167 27.0833 31.25 27.9167 31.25 29.1667C31.25 30.4167 30.4167 31.25 29.1667 31.25Z" fill="#1E8134"/>
</svg>
