<svg width="25" height="25" viewBox="0 0 25 25" fill="none" xmlns="http://www.w3.org/2000/svg">
<path d="M22.6489 12.8448L13.2739 2.42812C12.8791 1.98854 12.1207 1.98854 11.7259 2.42812L2.35094 12.8448C2.216 12.9944 2.12743 13.1799 2.09599 13.3789C2.06455 13.5779 2.0916 13.7817 2.17386 13.9656C2.34053 14.3417 2.71344 14.5833 3.1249 14.5833H5.20824V21.875C5.20824 22.1513 5.31798 22.4162 5.51333 22.6116C5.70868 22.8069 5.97363 22.9167 6.2499 22.9167H18.7499C19.0262 22.9167 19.2911 22.8069 19.4865 22.6116C19.6818 22.4162 19.7916 22.1513 19.7916 21.875V14.5833H21.8749C22.0766 14.5842 22.2743 14.5263 22.4437 14.4168C22.6131 14.3073 22.747 14.1509 22.8291 13.9666C22.9111 13.7823 22.9377 13.5781 22.9058 13.3789C22.8738 13.1797 22.7845 12.9941 22.6489 12.8448ZM16.6666 15.625H13.5416V18.75H11.4582V15.625H8.33323V13.5417H11.4582V10.4167H13.5416V13.5417H16.6666V15.625Z" fill="#275AA6"/>
</svg>
