<svg width="50" height="50" viewBox="0 0 50 50" fill="none" xmlns="http://www.w3.org/2000/svg">
<mask id="mask0_337_28" style="mask-type:luminance" maskUnits="userSpaceOnUse" x="3" y="2" width="44" height="46">
<path d="M11.4585 27.0834V45.8334H38.5418V27.0834L25.0002 13.5417L11.4585 27.0834Z" fill="white" stroke="white" stroke-width="4.16667" stroke-linejoin="round"/>
<path d="M3.73563 22.4854C3.53665 22.6776 3.37793 22.9074 3.26875 23.1616C3.15956 23.4158 3.10209 23.6892 3.09969 23.9658C3.09728 24.2424 3.15 24.5167 3.25475 24.7728C3.3595 25.0288 3.51419 25.2614 3.7098 25.457C3.90541 25.6526 4.13802 25.8073 4.39406 25.9121C4.65009 26.0168 4.92442 26.0696 5.20105 26.0672C5.47767 26.0647 5.75104 26.0073 6.00522 25.8981C6.25939 25.7889 6.48928 25.6302 6.68146 25.4312L3.73563 22.4854ZM25.0002 4.16663L26.4731 2.69371C26.0824 2.30315 25.5526 2.08374 25.0002 2.08374C24.4478 2.08374 23.918 2.30315 23.5273 2.69371L25.0002 4.16663ZM43.319 25.4312C43.5111 25.6302 43.741 25.7889 43.9952 25.8981C44.2494 26.0073 44.5228 26.0647 44.7994 26.0672C45.076 26.0696 45.3503 26.0168 45.6064 25.9121C45.8624 25.8073 46.095 25.6526 46.2906 25.457C46.4862 25.2614 46.6409 25.0288 46.7457 24.7728C46.8504 24.5167 46.9031 24.2424 46.9007 23.9658C46.8983 23.6892 46.8409 23.4158 46.7317 23.1616C46.6225 22.9074 46.4638 22.6776 46.2648 22.4854L43.319 25.4312ZM6.68146 25.4312L26.4731 5.63955L23.5273 2.69371L3.73563 22.4854L6.68146 25.4312ZM23.5273 5.63955L43.319 25.4312L46.2648 22.4854L26.4731 2.69371L23.5273 5.63955Z" fill="white"/>
<path d="M19.792 32.2916H30.2087M25.0003 27.0833V37.4999" stroke="black" stroke-width="4.16667" stroke-linecap="round" stroke-linejoin="round"/>
</mask>
<g mask="url(#mask0_337_28)">
<path d="M0 0H50V50H0V0Z" fill="#275AA6"/>
</g>
</svg>
