<svg width="44" height="50" viewBox="0 0 44 50" fill="none" xmlns="http://www.w3.org/2000/svg">
<g clip-path="url(#clip0_174_3187)">
<path d="M21.875 25C28.7793 25 34.375 19.4043 34.375 12.5C34.375 5.5957 28.7793 0 21.875 0C14.9707 0 9.375 5.5957 9.375 12.5C9.375 19.4043 14.9707 25 21.875 25ZM12.5 30.3906C5.27344 32.5098 0 39.1895 0 47.0996C0 48.7012 1.29883 50 2.90039 50H40.8496C42.4512 50 43.75 48.7012 43.75 47.0996C43.75 39.1895 38.4766 32.5098 31.25 30.3906V35.3516C33.9453 36.0449 35.9375 38.4961 35.9375 41.4062V45.3125C35.9375 46.1719 35.2344 46.875 34.375 46.875H32.8125C31.9531 46.875 31.25 46.1719 31.25 45.3125C31.25 44.4531 31.9531 43.75 32.8125 43.75V41.4062C32.8125 39.6777 31.416 38.2812 29.6875 38.2812C27.959 38.2812 26.5625 39.6777 26.5625 41.4062V43.75C27.4219 43.75 28.125 44.4531 28.125 45.3125C28.125 46.1719 27.4219 46.875 26.5625 46.875H25C24.1406 46.875 23.4375 46.1719 23.4375 45.3125V41.4062C23.4375 38.4961 25.4297 36.0449 28.125 35.3516V29.7754C27.5391 29.7168 26.9434 29.6875 26.3379 29.6875H17.4121C16.8066 29.6875 16.2109 29.7168 15.625 29.7754V36.1621C17.8809 36.8359 19.5312 38.9258 19.5312 41.4062C19.5312 44.4238 17.0801 46.875 14.0625 46.875C11.0449 46.875 8.59375 44.4238 8.59375 41.4062C8.59375 38.9258 10.2441 36.8359 12.5 36.1621V30.3906ZM14.0625 43.75C15.3613 43.75 16.4062 42.7051 16.4062 41.4062C16.4062 40.1074 15.3613 39.0625 14.0625 39.0625C12.7637 39.0625 11.7188 40.1074 11.7188 41.4062C11.7188 42.7051 12.7637 43.75 14.0625 43.75Z" fill="#275AA6"/>
</g>
<defs>
<clipPath id="clip0_174_3187">
<rect width="43.75" height="50" fill="white"/>
</clipPath>
</defs>
</svg>
