<svg width="189" height="184" viewBox="0 0 189 184" fill="none" xmlns="http://www.w3.org/2000/svg">
<path d="M39.0562 34.3159L31.6714 41.4492L43.6717 53.1321C39.4024 58.2995 36.8061 64.9834 36.8061 72.3414C36.8061 93.5165 56.4221 110.872 86.1344 137.103L94.5 144.517L102.866 137.103C107.885 132.665 112.616 128.509 117.001 124.521L140.655 148.168L147.982 141.034M95.0769 128.79L94.5 129.351L93.8654 128.79C66.4608 104.582 48.3449 88.5738 48.3449 72.3414C48.3449 68.0726 49.6142 64.2532 51.8642 61.1078L108.923 116.545C104.539 120.421 99.9809 124.465 95.0769 128.79ZM73.1533 53.2444L61.7876 42.1794C63.9222 41.73 66.23 41.4492 68.5378 41.4492C78.5765 41.4492 88.2114 45.9988 94.5 53.1321C100.789 45.9988 110.424 41.4492 120.462 41.4492C138.232 41.4492 152.194 54.9856 152.194 72.3414C152.194 85.4846 144.636 97.1674 131.828 110.367L123.693 102.447C134.366 91.326 140.655 81.8898 140.655 72.3414C140.655 61.1078 132.001 52.6827 120.462 52.6827C112.385 52.6827 104.539 57.3446 100.904 63.9162H88.096C85.1536 58.6365 79.4419 54.5924 73.1533 53.2444Z" fill="#275AA6" fill-opacity="0.8"/>
</svg>
