<svg width="135" height="135" viewBox="0 0 135 135" fill="none" xmlns="http://www.w3.org/2000/svg">
<path d="M39.375 61.875H50.625V73.125H39.375V61.875ZM106.875 16.875H101.25V5.625H90V16.875H45V5.625H33.75V16.875H28.125C21.9375 16.875 16.875 21.9375 16.875 28.125V106.875C16.875 113.063 21.9375 118.125 28.125 118.125H106.875C113.063 118.125 118.125 113.063 118.125 106.875V28.125C118.125 21.9375 113.063 16.875 106.875 16.875ZM106.875 28.125V39.375H28.125V28.125H106.875ZM28.125 106.875V50.625H106.875V106.875H28.125ZM61.875 84.375H73.125V95.625H61.875V84.375ZM84.375 84.375H95.625V95.625H84.375V84.375ZM84.375 61.875H95.625V73.125H84.375V61.875Z" fill="black"/>
</svg>
