<svg width="20" height="20" viewBox="0 0 20 20" fill="none" xmlns="http://www.w3.org/2000/svg">
<path d="M10.0001 1.875C9.60946 1.875 9.22134 2.00625 8.88696 2.24625L7.85196 2.96875L6.65946 3.125H6.64009L6.62071 3.14438C6.22961 3.2327 5.87155 3.43005 5.58803 3.71357C5.30452 3.99709 5.10716 4.35515 5.01884 4.74625L5.00009 4.76562V4.785L4.84384 5.99625L4.12134 6.93375L4.10134 6.95312V6.9725C3.66446 7.67063 3.64509 8.57188 4.12134 9.23813L4.86321 10.2731L5.05884 11.3481L3.04696 14.4138L2.40259 15.3712H5.39071L6.11321 17.0506L6.56259 18.125L7.20696 17.1481L9.17946 14.1794C9.70946 14.3969 10.3076 14.4169 10.8207 14.1794L12.7932 17.1481L13.4376 18.125L13.887 17.0506L14.6095 15.3712H17.5976L16.9532 14.4138L15.0001 11.4456L15.1563 10.2737L15.8788 9.23875L15.8988 9.21938V9.2C16.3357 8.50188 16.3551 7.62 15.8788 6.95375L15.1563 5.91812L14.922 4.74625H14.9413C14.9388 4.73125 14.9245 4.72125 14.922 4.70688C14.8095 3.88938 14.1626 3.22562 13.3401 3.125H13.3201L12.1482 2.96875L11.1132 2.24625C10.79 2.00945 10.4008 1.87964 10.0001 1.875ZM10.0001 3.14438C10.1438 3.14438 10.2857 3.18812 10.3907 3.26187L11.5038 4.0625L11.6407 4.16L11.797 4.18L13.1645 4.375H13.1832C13.4645 4.40625 13.6595 4.60188 13.6913 4.88313V4.92188L13.9457 6.30875L13.9645 6.44562L14.0626 6.5625L14.8632 7.67563C15.0126 7.88313 15.032 8.235 14.8438 8.535L13.9651 9.76562L13.9451 9.92188L13.7501 11.2894V11.3081C13.7397 11.4058 13.7063 11.4996 13.6526 11.5819L13.6132 11.6019V11.6206C13.5203 11.7322 13.3871 11.8025 13.2426 11.8163H13.2032L11.7776 12.0706L11.6213 12.0894L11.5038 12.1875L10.3907 12.9881C10.1832 13.1375 9.81196 13.1569 9.51196 12.9688L8.49634 12.1875L8.37884 12.09L8.20321 12.07L6.83571 11.875H6.81696C6.72859 11.8672 6.64339 11.8383 6.56855 11.7906C6.49371 11.743 6.43143 11.678 6.38696 11.6013C6.34543 11.5292 6.31886 11.4495 6.30884 11.3669V11.3281L6.05509 9.9025L6.03509 9.74625L5.93759 9.62875L5.13696 8.51562C4.98759 8.30813 4.96821 7.93687 5.15634 7.63687L5.93759 6.62125L6.03509 6.50375L6.05446 6.32812L6.23071 5.01938C6.23321 5.01 6.24759 5.01 6.25009 5C6.28905 4.84955 6.36755 4.71225 6.47745 4.60236C6.58734 4.49246 6.72463 4.41396 6.87509 4.375C6.88509 4.3725 6.88509 4.35812 6.89446 4.35562L8.20321 4.17937L8.35946 4.16063L8.49634 4.0625L9.60946 3.26187C9.71446 3.18875 9.85634 3.14438 10.0001 3.14438ZM14.3163 12.6562L15.2738 14.1212H13.7688L13.6126 14.5119L13.1832 15.5075L11.8551 13.4763L12.1476 13.2619L13.3788 13.0469V13.0663C13.3932 13.0638 13.4026 13.0494 13.4176 13.0469C13.7465 12.9994 14.0573 12.8645 14.3163 12.6562ZM5.68384 12.6756C5.95523 12.9224 6.29617 13.0793 6.66009 13.125H6.67946L7.87134 13.2812L8.14446 13.4962L6.81634 15.5075L6.38696 14.5119L6.23071 14.1212H4.72696L5.68384 12.6756Z" fill="#275AA6"/>
</svg>
