<svg width="25" height="25" viewBox="0 0 25 25" fill="none" xmlns="http://www.w3.org/2000/svg">
<path d="M12.5001 8.33333C10.198 8.33333 8.33341 10.1979 8.33341 12.5C8.33341 14.8021 10.198 16.6667 12.5001 16.6667C14.8022 16.6667 16.6667 14.8021 16.6667 12.5C16.6667 10.1979 14.8022 8.33333 12.5001 8.33333ZM21.8126 11.4583C21.5766 9.34596 20.6294 7.3766 19.1264 5.87364C17.6235 4.37067 15.6541 3.42345 13.5417 3.1875V1.04166H11.4584V3.1875C9.34604 3.42345 7.37668 4.37067 5.87372 5.87364C4.37076 7.3766 3.42353 9.34596 3.18758 11.4583H1.04175V13.5417H3.18758C3.42353 15.654 4.37076 17.6234 5.87372 19.1264C7.37668 20.6293 9.34604 21.5765 11.4584 21.8125V23.9583H13.5417V21.8125C15.6541 21.5765 17.6235 20.6293 19.1264 19.1264C20.6294 17.6234 21.5766 15.654 21.8126 13.5417H23.9584V11.4583H21.8126ZM12.5001 19.7917C8.46883 19.7917 5.20841 16.5312 5.20841 12.5C5.20841 8.46875 8.46883 5.20833 12.5001 5.20833C16.5313 5.20833 19.7917 8.46875 19.7917 12.5C19.7917 16.5312 16.5313 19.7917 12.5001 19.7917Z" fill="#275AA6"/>
</svg>
