<svg width="50" height="50" viewBox="0 0 50 50" fill="none" xmlns="http://www.w3.org/2000/svg">
<path d="M25.0002 24.9999C22.7085 24.9999 20.7467 24.1839 19.1147 22.552C17.4828 20.9201 16.6668 18.9583 16.6668 16.6666C16.6668 14.3749 17.4828 12.4131 19.1147 10.7812C20.7467 9.14922 22.7085 8.33325 25.0002 8.33325C27.2918 8.33325 29.2536 9.14922 30.8856 10.7812C32.5175 12.4131 33.3335 14.3749 33.3335 16.6666C33.3335 18.9583 32.5175 20.9201 30.8856 22.552C29.2536 24.1839 27.2918 24.9999 25.0002 24.9999ZM8.3335 41.6666V35.8333C8.3335 34.6527 8.63766 33.5673 9.246 32.577C9.85294 31.5881 10.6599 30.8333 11.6668 30.3124C13.8196 29.236 16.0071 28.4284 18.2293 27.8895C20.4516 27.352 22.7085 27.0833 25.0002 27.0833C27.2918 27.0833 29.5488 27.352 31.771 27.8895C33.9932 28.4284 36.1807 29.236 38.3335 30.3124C39.3404 30.8333 40.1474 31.5881 40.7543 32.577C41.3627 33.5673 41.6668 34.6527 41.6668 35.8333V41.6666H8.3335Z" fill="#275AA6"/>
</svg>
