<svg width="25" height="25" viewBox="0 0 25 25" fill="none" xmlns="http://www.w3.org/2000/svg">
<path d="M12.625 21.2091L12.5 21.3412L12.3625 21.2091C6.425 15.5169 2.5 11.753 2.5 7.93617C2.5 5.29478 4.375 3.31375 6.875 3.31375C8.8 3.31375 10.675 4.63444 11.3375 6.43058H13.6625C14.325 4.63444 16.2 3.31375 18.125 3.31375C20.625 3.31375 22.5 5.29478 22.5 7.93617C22.5 11.753 18.575 15.5169 12.625 21.2091ZM18.125 0.672363C15.95 0.672363 13.8625 1.74212 12.5 3.4194C11.1375 1.74212 9.05 0.672363 6.875 0.672363C3.025 0.672363 0 3.85523 0 7.93617C0 12.9152 4.25 16.9961 10.6875 23.1637L12.5 24.9071L14.3125 23.1637C20.75 16.9961 25 12.9152 25 7.93617C25 3.85523 21.975 0.672363 18.125 0.672363Z" fill="#393737"/>
</svg>
