<svg width="139" height="136" viewBox="0 0 139 136" fill="none" xmlns="http://www.w3.org/2000/svg">
<path d="M14.0562 10.3159L6.67139 17.4492L18.6717 29.132C14.4024 34.2995 11.8061 40.9834 11.8061 48.3414C11.8061 69.5165 31.4221 86.8723 61.1344 113.103L69.5 120.517L77.8656 113.103C82.885 108.665 87.6159 104.509 92.0006 100.521L115.655 124.168L122.982 117.034M70.0769 104.79L69.5 105.351L68.8654 104.79C41.4608 80.5815 23.3449 64.5738 23.3449 48.3414C23.3449 44.0726 24.6142 40.2532 26.8642 37.1078L83.9235 92.5452C79.5387 96.4208 74.9809 100.465 70.0769 104.79ZM48.1533 29.2444L36.7876 18.1794C38.9222 17.73 41.23 17.4492 43.5378 17.4492C53.5765 17.4492 63.2114 21.9988 69.5 29.132C75.7886 21.9988 85.4235 17.4492 95.4622 17.4492C113.232 17.4492 127.194 30.9856 127.194 48.3414C127.194 61.4846 119.636 73.1674 106.828 86.3668L98.6931 78.4472C109.366 67.326 115.655 57.8898 115.655 48.3414C115.655 37.1078 107.001 28.6827 95.4622 28.6827C87.3851 28.6827 79.5387 33.3446 75.904 39.9162H63.096C60.1536 34.6365 54.4419 30.5924 48.1533 29.2444Z" fill="#275AA6" fill-opacity="0.8"/>
</svg>
