<svg width="25" height="25" viewBox="0 0 25 25" fill="none" xmlns="http://www.w3.org/2000/svg">
<path d="M12.85 19.05L12.75 19.15L12.64 19.05C7.89 14.74 4.75 11.89 4.75 9C4.75 7 6.25 5.5 8.25 5.5C9.79 5.5 11.29 6.5 11.82 7.86H13.68C14.21 6.5 15.71 5.5 17.25 5.5C19.25 5.5 20.75 7 20.75 9C20.75 11.89 17.61 14.74 12.85 19.05ZM17.25 3.5C15.51 3.5 13.84 4.31 12.75 5.58C11.66 4.31 9.99 3.5 8.25 3.5C5.17 3.5 2.75 5.91 2.75 9C2.75 12.77 6.15 15.86 11.3 20.53L12.75 21.85L14.2 20.53C19.35 15.86 22.75 12.77 22.75 9C22.75 5.91 20.33 3.5 17.25 3.5Z" fill="#808080"/>
</svg>
