<svg width="25" height="25" viewBox="0 0 25 25" fill="none" xmlns="http://www.w3.org/2000/svg">
<path d="M13.209 2.1605C13.0759 2.05674 12.912 2.0004 12.7432 2.0004C12.5745 2.0004 12.4106 2.05674 12.2775 2.1605L1.5 10.5642L2.43225 11.7433L3.75 10.7158V20C3.75079 20.3976 3.90908 20.7787 4.19022 21.0598C4.47135 21.3409 4.85242 21.4992 5.25 21.5H20.25C20.6476 21.4992 21.0287 21.3409 21.3098 21.0598C21.5909 20.7787 21.7492 20.3976 21.75 20V10.7225L23.0677 11.75L24 10.571L13.209 2.1605ZM14.25 20H11.25V14H14.25V20ZM15.75 20V14C15.7496 13.6023 15.5914 13.221 15.3102 12.9398C15.029 12.6586 14.6477 12.5004 14.25 12.5H11.25C10.8523 12.5004 10.471 12.6586 10.1898 12.9398C9.90856 13.221 9.7504 13.6023 9.75 14V20H5.25V9.5465L12.75 3.704L20.25 9.554V20H15.75Z" fill="#275AA6"/>
</svg>
