<svg width="50" height="50" viewBox="0 0 50 50" fill="none" xmlns="http://www.w3.org/2000/svg">
<path d="M43.75 41.6667H47.9166V45.8333H2.08331V41.6667H6.24998V6.25001C6.24998 5.69747 6.46947 5.16757 6.86017 4.77687C7.25087 4.38617 7.78078 4.16667 8.33331 4.16667H41.6666C42.2192 4.16667 42.7491 4.38617 43.1398 4.77687C43.5305 5.16757 43.75 5.69747 43.75 6.25001V41.6667ZM22.9166 16.6667H18.75V20.8333H22.9166V25H27.0833V20.8333H31.25V16.6667H27.0833V12.5H22.9166V16.6667ZM29.1666 41.6667H33.3333V29.1667H16.6666V41.6667H20.8333V33.3333H29.1666V41.6667Z" fill="#804223"/>
</svg>
