<svg width="16" height="16" viewBox="0 0 16 16" fill="none" xmlns="http://www.w3.org/2000/svg">
<path d="M4.66675 10H6.00008C6.00008 10.72 6.91341 11.3333 8.00008 11.3333C9.08675 11.3333 10.0001 10.72 10.0001 10C10.0001 9.26667 9.30675 9 7.84008 8.64667C6.42675 8.29333 4.66675 7.85333 4.66675 6C4.66675 4.80667 5.64675 3.79333 7.00008 3.45333V2H9.00008V3.45333C10.3534 3.79333 11.3334 4.80667 11.3334 6H10.0001C10.0001 5.28 9.08675 4.66667 8.00008 4.66667C6.91341 4.66667 6.00008 5.28 6.00008 6C6.00008 6.73333 6.69341 7 8.16008 7.35333C9.57341 7.70667 11.3334 8.14667 11.3334 10C11.3334 11.1933 10.3534 12.2067 9.00008 12.5467V14H7.00008V12.5467C5.64675 12.2067 4.66675 11.1933 4.66675 10Z" fill="#74BC2B"/>
</svg>
