<svg width="120" height="120" viewBox="0 0 120 120" fill="none" xmlns="http://www.w3.org/2000/svg">
<path d="M9.69604 15L14.9995 9.69656L110.303 105L105 110.304L9.69604 15ZM60 112.5C63.6468 112.496 67.2137 111.43 70.2646 109.433C73.3155 107.435 75.7184 104.591 77.1796 101.25H42.8203C44.2815 104.591 46.6844 107.435 49.7353 109.433C52.7862 111.43 56.3531 112.496 60 112.5ZM26.25 53.3133V67.5L15 82.5V93.75H77.8406L27.157 43.0664C26.538 46.4466 26.2344 49.8769 26.25 53.3133ZM105 82.5L93.75 67.5V53.3133C93.75 36.7969 87.3375 22.4086 71.25 18.75L69.375 7.5H50.625L48.75 18.75C45.2253 19.5118 41.8847 20.9588 38.9179 23.0086L105.012 89.1023L105 82.5Z" fill="#393737"/>
</svg>
