<svg width="27" height="27" viewBox="0 0 27 27" fill="none" xmlns="http://www.w3.org/2000/svg">
<path d="M16.4999 20V20.8125C16.4999 21.6745 16.1575 22.5011 15.548 23.1106C14.9385 23.7201 14.1118 24.0625 13.2499 24.0625C12.3879 24.0625 11.5613 23.7201 10.9518 23.1106C10.3423 22.5011 9.99988 21.6745 9.99988 20.8125V20M21.968 18.3461C20.6639 16.75 19.7433 15.9375 19.7433 11.5373C19.7433 7.50781 17.6856 6.07223 15.9921 5.375C15.7671 5.28258 15.5554 5.07031 15.4868 4.83926C15.1897 3.8282 14.3569 2.9375 13.2499 2.9375C12.1429 2.9375 11.3095 3.82871 11.0155 4.84027C10.947 5.07387 10.7352 5.28258 10.5102 5.375C8.81465 6.07324 6.75903 7.50375 6.75903 11.5373C6.75649 15.9375 5.83582 16.75 4.53176 18.3461C3.99145 19.0072 4.46473 20 5.40977 20H21.0951C22.035 20 22.5053 19.0042 21.968 18.3461Z" stroke="#808080" stroke-width="1.625" stroke-linecap="round" stroke-linejoin="round"/>
</svg>
