<svg width="25" height="25" viewBox="0 0 25 25" fill="none" xmlns="http://www.w3.org/2000/svg">
<path d="M20.25 17.5H22.25V19.5H2.25V17.5H4.25V10.5C4.25 8.37827 5.09285 6.34344 6.59315 4.84315C8.09344 3.34285 10.1283 2.5 12.25 2.5C14.3717 2.5 16.4066 3.34285 17.9069 4.84315C19.4071 6.34344 20.25 8.37827 20.25 10.5V17.5ZM18.25 17.5V10.5C18.25 8.9087 17.6179 7.38258 16.4926 6.25736C15.3674 5.13214 13.8413 4.5 12.25 4.5C10.6587 4.5 9.13258 5.13214 8.00736 6.25736C6.88214 7.38258 6.25 8.9087 6.25 10.5V17.5H18.25ZM9.25 21.5H15.25V23.5H9.25V21.5Z" fill="#808080"/>
</svg>
