<svg width="5" height="5" viewBox="0 0 5 5" fill="none" xmlns="http://www.w3.org/2000/svg">
<g clip-path="url(#clip0_600_44)">
<path d="M3.75645 3.46183L4.64874 4.35392L4.35395 4.64871L3.46186 3.75642C3.12994 4.02251 2.71707 4.16723 2.29166 4.16663C1.25666 4.16663 0.416656 3.32663 0.416656 2.29163C0.416656 1.25663 1.25666 0.416626 2.29166 0.416626C3.32666 0.416626 4.16666 1.25663 4.16666 2.29163C4.16726 2.71704 4.02254 3.1299 3.75645 3.46183ZM3.33853 3.30725C3.60293 3.03535 3.75059 2.67088 3.74999 2.29163C3.74999 1.48579 3.09728 0.833293 2.29166 0.833293C1.48582 0.833293 0.833323 1.48579 0.833323 2.29163C0.833323 3.09725 1.48582 3.74996 2.29166 3.74996C2.67091 3.75056 3.03538 3.6029 3.30728 3.3385L3.33853 3.30725Z" fill="black"/>
</g>
<defs>
<clipPath id="clip0_600_44">
<rect width="5" height="5" fill="white"/>
</clipPath>
</defs>
</svg>
