<svg width="20" height="21" viewBox="0 0 20 21" fill="none" xmlns="http://www.w3.org/2000/svg">
<path d="M7.5625 17.5769C7.34028 17.5769 7.12833 17.5352 6.92667 17.4519C6.72556 17.3686 6.54861 17.2505 6.39583 17.0977L2.97917 13.6811C2.82639 13.5283 2.70833 13.3513 2.625 13.1502C2.54167 12.9486 2.5 12.7366 2.5 12.5144V7.6394C2.5 7.41718 2.54167 7.20524 2.625 7.00357C2.70833 6.80246 2.82639 6.62552 2.97917 6.47274L6.39583 3.05607C6.54861 2.90329 6.72556 2.78524 6.92667 2.7019C7.12833 2.61857 7.34028 2.5769 7.5625 2.5769H12.4375C12.6597 2.5769 12.8717 2.61857 13.0733 2.7019C13.2744 2.78524 13.4514 2.90329 13.6042 3.05607L17.0208 6.47274C17.1736 6.62552 17.2917 6.80246 17.375 7.00357C17.4583 7.20524 17.5 7.41718 17.5 7.6394V12.5144C17.5 12.7366 17.4583 12.9486 17.375 13.1502C17.2917 13.3513 17.1736 13.5283 17.0208 13.6811L13.6042 17.0977C13.4514 17.2505 13.2744 17.3686 13.0733 17.4519C12.8717 17.5352 12.6597 17.5769 12.4375 17.5769H7.5625ZM10 14.2436C10.2361 14.2436 10.4342 14.1636 10.5942 14.0036C10.7536 13.8441 10.8333 13.6463 10.8333 13.4102C10.8333 13.1741 10.7536 12.9761 10.5942 12.8161C10.4342 12.6566 10.2361 12.5769 10 12.5769C9.76389 12.5769 9.56611 12.6566 9.40667 12.8161C9.24667 12.9761 9.16667 13.1741 9.16667 13.4102C9.16667 13.6463 9.24667 13.8441 9.40667 14.0036C9.56611 14.1636 9.76389 14.2436 10 14.2436ZM10 10.9102C10.2361 10.9102 10.4342 10.8302 10.5942 10.6702C10.7536 10.5108 10.8333 10.313 10.8333 10.0769V6.74357C10.8333 6.50746 10.7536 6.3094 10.5942 6.1494C10.4342 5.98996 10.2361 5.91024 10 5.91024C9.76389 5.91024 9.56611 5.98996 9.40667 6.1494C9.24667 6.3094 9.16667 6.50746 9.16667 6.74357V10.0769C9.16667 10.313 9.24667 10.5108 9.40667 10.6702C9.56611 10.8302 9.76389 10.9102 10 10.9102Z" fill="#932626"/>
</svg>
