<svg width="20" height="21" viewBox="0 0 20 21" fill="none" xmlns="http://www.w3.org/2000/svg">
<path d="M9.16668 18.4102C8.70834 18.4102 8.31612 18.2472 7.99001 17.9211C7.66334 17.5944 7.50001 17.2019 7.50001 16.7436V13.4102H5.00001C4.54168 13.4102 4.14945 13.2469 3.82334 12.9202C3.49668 12.5941 3.33334 12.2019 3.33334 11.7436V5.91024C3.33334 4.99357 3.65973 4.20885 4.31251 3.55607C4.96529 2.90329 5.75001 2.5769 6.66668 2.5769H16.6667V11.7436C16.6667 12.2019 16.5036 12.5941 16.1775 12.9202C15.8508 13.2469 15.4583 13.4102 15 13.4102H12.5V16.7436C12.5 17.2019 12.337 17.5944 12.0108 17.9211C11.6842 18.2472 11.2917 18.4102 10.8333 18.4102H9.16668ZM5.00001 8.41024H15V4.24357H14.1667V7.5769H12.5V4.24357H11.6667V5.91024H10V4.24357H6.66668C6.20834 4.24357 5.81612 4.4069 5.49001 4.73357C5.16334 5.05968 5.00001 5.4519 5.00001 5.91024V8.41024Z" fill="#1E8134"/>
</svg>
