<svg width="20" height="21" viewBox="0 0 20 21" fill="none" xmlns="http://www.w3.org/2000/svg">
<path d="M9.99999 18.4103C8.8611 18.4103 7.78471 18.1914 6.77082 17.7536C5.75693 17.3164 4.87166 16.7191 4.11499 15.9619C3.35777 15.2053 2.76055 14.32 2.32332 13.3061C1.88555 12.2922 1.66666 11.2158 1.66666 10.0769C1.66666 8.92415 1.88555 7.84442 2.32332 6.83776C2.76055 5.83054 3.35777 4.94859 4.11499 4.19192C4.87166 3.4347 5.75693 2.8372 6.77082 2.39942C7.78471 1.9622 8.8611 1.74359 9.99999 1.74359C11.1528 1.74359 12.2325 1.9622 13.2392 2.39942C14.2464 2.8372 15.1283 3.4347 15.885 4.19192C16.6422 4.94859 17.2394 5.83054 17.6767 6.83776C18.1144 7.84442 18.3333 8.92415 18.3333 10.0769C18.3333 11.2158 18.1144 12.2922 17.6767 13.3061C17.2394 14.32 16.6422 15.2053 15.885 15.9619C15.1283 16.7191 14.2464 17.3164 13.2392 17.7536C12.2325 18.1914 11.1528 18.4103 9.99999 18.4103ZM9.99999 16.7019C10.3611 16.2019 10.6736 15.6811 10.9375 15.1394C11.2014 14.5978 11.4167 14.0214 11.5833 13.4103H8.41666C8.58332 14.0214 8.7986 14.5978 9.06249 15.1394C9.32638 15.6811 9.63888 16.2019 9.99999 16.7019ZM7.83332 16.3686C7.58332 15.9103 7.36471 15.4344 7.17749 14.9411C6.98971 14.4483 6.83332 13.938 6.70832 13.4103H4.24999C4.65277 14.1047 5.1561 14.7089 5.75999 15.2228C6.36443 15.7366 7.05554 16.1186 7.83332 16.3686ZM12.1667 16.3686C12.9444 16.1186 13.6353 15.7366 14.2392 15.2228C14.8436 14.7089 15.3472 14.1047 15.75 13.4103H13.2917C13.1667 13.938 13.0105 14.4483 12.8233 14.9411C12.6355 15.4344 12.4167 15.9103 12.1667 16.3686ZM3.54166 11.7436H6.37499C6.33332 11.4658 6.30193 11.1914 6.28082 10.9203C6.26027 10.6497 6.24999 10.3686 6.24999 10.0769C6.24999 9.78526 6.26027 9.50415 6.28082 9.23359C6.30193 8.96248 6.33332 8.68804 6.37499 8.41026H3.54166C3.47221 8.68804 3.41999 8.96248 3.38499 9.23359C3.35055 9.50415 3.33332 9.78526 3.33332 10.0769C3.33332 10.3686 3.35055 10.6497 3.38499 10.9203C3.41999 11.1914 3.47221 11.4658 3.54166 11.7436ZM8.04166 11.7436H11.9583C12 11.4658 12.0314 11.1914 12.0525 10.9203C12.073 10.6497 12.0833 10.3686 12.0833 10.0769C12.0833 9.78526 12.073 9.50415 12.0525 9.23359C12.0314 8.96248 12 8.68804 11.9583 8.41026H8.04166C7.99999 8.68804 7.96888 8.96248 7.94832 9.23359C7.92721 9.50415 7.91666 9.78526 7.91666 10.0769C7.91666 10.3686 7.92721 10.6497 7.94832 10.9203C7.96888 11.1914 7.99999 11.4658 8.04166 11.7436ZM13.625 11.7436H16.4583C16.5278 11.4658 16.58 11.1914 16.615 10.9203C16.6494 10.6497 16.6667 10.3686 16.6667 10.0769C16.6667 9.78526 16.6494 9.50415 16.615 9.23359C16.58 8.96248 16.5278 8.68804 16.4583 8.41026H13.625C13.6667 8.68804 13.6978 8.96248 13.7183 9.23359C13.7394 9.50415 13.75 9.78526 13.75 10.0769C13.75 10.3686 13.7394 10.6497 13.7183 10.9203C13.6978 11.1914 13.6667 11.4658 13.625 11.7436ZM13.2917 6.74359H15.75C15.3472 6.04915 14.8436 5.44498 14.2392 4.93109C13.6353 4.4172 12.9444 4.03526 12.1667 3.78526C12.4167 4.24359 12.6355 4.71915 12.8233 5.21192C13.0105 5.70526 13.1667 6.21581 13.2917 6.74359ZM8.41666 6.74359H11.5833C11.4167 6.13248 11.2014 5.55609 10.9375 5.01442C10.6736 4.47276 10.3611 3.95192 9.99999 3.45192C9.63888 3.95192 9.32638 4.47276 9.06249 5.01442C8.7986 5.55609 8.58332 6.13248 8.41666 6.74359ZM4.24999 6.74359H6.70832C6.83332 6.21581 6.98971 5.70526 7.17749 5.21192C7.36471 4.71915 7.58332 4.24359 7.83332 3.78526C7.05554 4.03526 6.36443 4.4172 5.75999 4.93109C5.1561 5.44498 4.65277 6.04915 4.24999 6.74359Z" fill="#3260A5"/>
</svg>
