<svg width="60" height="11" viewBox="0 0 60 11" fill="none" xmlns="http://www.w3.org/2000/svg">
<path d="M39.8513 10.6737L40.635 6.84819L38.0064 4.27517L41.4791 3.93482L42.8296 0.327148L44.18 3.93482L47.6527 4.27517L45.0241 6.84819L45.8079 10.6737L42.8296 8.64522L39.8513 10.6737Z" fill="#FFD600"/>
<path d="M1.84486 10.9999L2.62862 7.17436L0 4.60134L3.47267 4.26099L4.82315 0.65332L6.17363 4.26099L9.6463 4.60134L7.01768 7.17436L7.80145 10.9999L4.82315 8.97139L1.84486 10.9999Z" fill="#FFD600"/>
<path d="M14.578 10.9999L15.3618 7.17436L12.7332 4.60134L16.2058 4.26099L17.5563 0.65332L18.9068 4.26099L22.3795 4.60134L19.7508 7.17436L20.5346 10.9999L17.5563 8.97139L14.578 10.9999Z" fill="#FFD600"/>
<path d="M27.3111 10.9999L28.0949 7.17436L25.4662 4.60134L28.9389 4.26099L30.2894 0.65332L31.6399 4.26099L35.1125 4.60134L32.4839 7.17436L33.2677 10.9999L30.2894 8.97139L27.3111 10.9999Z" fill="#FFD600"/>
<path d="M52.1986 10.3465L52.9823 6.52104L50.3537 3.94802L53.8264 3.60767L55.1768 0L56.5273 3.60767L60 3.94802L57.3714 6.52104L58.1551 10.3465L55.1768 8.31807L52.1986 10.3465Z" fill="#FFD600"/>
</svg>
